<?xml version="1.0" encoding="UTF-8"?>
<svg xmlns="http://www.w3.org/2000/svg" xmlns:xlink="http://www.w3.org/1999/xlink" version="1.2" >
<font id="Trade Gothic LT Bold Condensed No. 20">
<font-face  font-family="TradeGothic LT CondEighteen" units-per-em="1000" ascent="722" descent="-170" font-style="normal" font-weight="700" font-stretch="normal" cap-height="750" x-height="500" underline-position="-100" underline-thickness="50" />
<missing-glyph  horiz-adv-x="222" d="" />
<glyph glyph-name="&amp;#x20;" unicode="&#x20;" horiz-adv-x="222" d="" />
<glyph glyph-name="&amp;#xa0;" unicode="&#xa0;" horiz-adv-x="222" d="" />
<glyph glyph-name="dollar" unicode="&#x24;" horiz-adv-x="444" d="M192 624 Q169 616 155.5 596 Q142 576 142 550 Q142 517 155.5 494 Q169 471 192 450 L192 624 Z M252 96 Q283 108 295.5 131 Q308 154 308 189 Q308 226 292.5 248 Q277 270 252 293 L252 96 Z M192 810 L252 810 L252 722 Q294 714 330 690 Q366 666 391 631 L315 566 Q304 585 289.5 602 Q275 619 252 624 L252 417 Q284 397 313 375 Q342 353 364.5 327 Q387 301 400.5 268.5 Q414 236 414 194 Q414 156 403.5 122.5 Q393 89 372.5 63 Q352 37 321.5 20 Q291 3 252 0 L252 -116 L192 -116 L192 0 Q140 5 98.5 38 Q57 71 30 113 L113 176 Q123 150 143 127 Q163 104 192 96 L192 331 Q163 349 135.5 369.5 Q108 390 87 415 Q66 440 53 470.5 Q40 501 40 537 Q40 572 50 603.5 Q60 635 79.5 659.5 Q99 684 127 700.5 Q155 717 192 722 L192 810 Z " />
<glyph glyph-name="percent" unicode="&#x25;" horiz-adv-x="778" d="M130 558 Q130 523 154.5 498.5 Q179 474 214 474 Q249 474 273.5 498.5 Q298 523 298 558 Q298 593 273.5 617.5 Q249 642 214 642 Q179 642 154.5 617.5 Q130 593 130 558 Z M480 164 Q480 129 504.5 104.5 Q529 80 564 80 Q599 80 623.5 104.5 Q648 129 648 164 Q648 199 623.5 223.5 Q599 248 564 248 Q529 248 504.5 223.5 Q480 199 480 164 Z M632 732 L223 -10 L148 -10 L557 732 L632 732 Z M400 164 Q400 198 413 228 Q426 258 448 280 Q470 302 500 315 Q530 328 564 328 Q598 328 628 315 Q658 302 680 280 Q702 258 715 228 Q728 198 728 164 Q728 130 715 100 Q702 70 680 48 Q658 26 628 13 Q598 0 564 0 Q530 0 500 13 Q470 26 448 48 Q426 70 413 100 Q400 130 400 164 Z M50 558 Q50 592 63 622 Q76 652 98 674 Q120 696 150 709 Q180 722 214 722 Q248 722 278 709 Q308 696 330 674 Q352 652 365 622 Q378 592 378 558 Q378 524 365 494 Q352 464 330 442 Q308 420 278 407 Q248 394 214 394 Q180 394 150 407 Q120 420 98 442 Q76 464 63 494 Q50 524 50 558 Z " />
<glyph glyph-name="ampersand" unicode="&#x26;" horiz-adv-x="556" d="M166 175 Q166 143 186.5 120.5 Q207 98 239 98 Q257 98 269.5 102.5 Q282 107 296 119 Q267 153 242 188.5 Q217 224 197 264 Q181 240 173.5 222 Q166 204 166 175 Z M192 589 Q192 554 202.5 518 Q213 482 226 450 Q248 479 267 511.5 Q286 544 286 582 Q286 624 274.5 642 Q263 660 241 660 Q218 660 205 641.5 Q192 623 192 589 Z M506 323 Q495 273 476.5 227 Q458 181 438 134 Q452 121 470 112 Q488 103 507 100 L507 -10 Q425 -8 367 45 Q337 16 304.5 3 Q272 -10 225 -10 Q186 -10 154 2.5 Q122 15 99.5 37 Q77 59 64.5 90 Q52 121 52 159 Q52 216 80.5 269 Q109 322 147 363 Q127 407 108.5 460.5 Q90 514 90 562 Q90 599 100 630 Q110 661 129.5 683.5 Q149 706 178.5 719 Q208 732 247 732 Q316 732 355 691 Q394 650 394 582 Q394 548 382.5 518.5 Q371 489 353 462 Q335 435 313 410.5 Q291 386 270 363 Q289 324 311.5 287 Q334 250 360 216 Q373 249 384.5 282 Q396 315 404 350 L506 323 Z " />
<glyph glyph-name="quoteright" unicode="&#x2019;" horiz-adv-x="222" d="M170 604 L101 480 L48 480 L97 604 L52 604 L52 722 L170 722 L170 604 Z " />
<glyph glyph-name="parenleft" unicode="&#x28;" horiz-adv-x="278" d="M246 732 Q189 644 158.5 539.5 Q128 435 128 323 Q128 211 158.5 106.5 Q189 2 246 -86 L150 -86 Q95 0 63.5 106 Q32 212 32 323 Q32 434 63.5 540 Q95 646 150 732 L246 732 Z " />
<glyph glyph-name="parenright" unicode="&#x29;" horiz-adv-x="278" d="M128 732 Q183 646 214.5 540 Q246 434 246 323 Q246 212 214.5 106 Q183 0 128 -86 L32 -86 Q89 2 119.5 106.5 Q150 211 150 323 Q150 435 119.5 539.5 Q89 644 32 732 L128 732 Z " />
<glyph glyph-name="asterisk" unicode="&#x2a;" horiz-adv-x="444" d="M402 556 Q364 554 326.5 549 Q289 544 251 539 Q277 510 304.5 483 Q332 456 362 432 L283 377 Q270 413 254 447.5 Q238 482 222 517 Q206 482 190 447.5 Q174 413 161 377 L82 432 Q112 456 139.5 483 Q167 510 193 539 Q155 544 117.5 549 Q80 554 42 556 L72 645 Q132 609 199 578 Q196 615 189.5 651 Q183 687 175 722 L269 722 Q261 687 254.5 651 Q248 615 245 578 Q312 609 372 645 L402 556 Z " />
<glyph glyph-name="plus" unicode="&#x2b;" horiz-adv-x="600" d="M251 506 L349 506 L349 302 L553 302 L553 204 L349 204 L349 0 L251 0 L251 204 L47 204 L47 302 L251 302 L251 506 Z " />
<glyph glyph-name="comma" unicode="&#x2c;" horiz-adv-x="222" d="M170 0 L101 -124 L48 -124 L97 0 L52 0 L52 118 L170 118 L170 0 Z " />
<glyph glyph-name="&amp;#x2d;" unicode="&#x2d;" horiz-adv-x="333" d="M44 223 L44 315 L289 315 L289 223 L44 223 Z " />
<glyph glyph-name="&amp;#xad;" unicode="&#xad;" horiz-adv-x="333" d="M44 223 L44 315 L289 315 L289 223 L44 223 Z " />
<glyph glyph-name="period" unicode="&#x2e;" horiz-adv-x="222" d="M52 0 L52 118 L170 118 L170 0 L52 0 Z " />
<glyph glyph-name="slash" unicode="&#x2f;" horiz-adv-x="278" d="M201 732 L299 732 L77 -10 L-21 -10 L201 732 Z " />
<glyph glyph-name="zero" unicode="0" horiz-adv-x="444" d="M280 565 Q280 634 222 634 Q164 634 164 565 L164 157 Q164 88 222 88 Q280 88 280 157 L280 565 Z M46 534 Q46 637 87 684.5 Q128 732 222 732 Q316 732 357 684.5 Q398 637 398 534 L398 188 Q398 85 357 37.5 Q316 -10 222 -10 Q128 -10 87 37.5 Q46 85 46 188 L46 534 Z " />
<glyph glyph-name="one" unicode="1" horiz-adv-x="444" d="M177 572 L79 572 L79 639 Q121 660 158 683 Q195 706 226 732 L289 732 L289 0 L177 0 L177 572 Z " />
<glyph glyph-name="two" unicode="2" horiz-adv-x="444" d="M44 0 L44 97 Q102 181 146.5 248 Q191 315 221 369 Q251 423 266.5 467.5 Q282 512 282 552 Q282 595 267 614.5 Q252 634 226 634 Q196 634 181 613 Q166 592 166 559 L166 510 L48 510 L48 544 Q48 584 60.5 618 Q73 652 96.5 677.5 Q120 703 154 717.5 Q188 732 232 732 Q270 732 301 719 Q332 706 354 683.5 Q376 661 388 632 Q400 603 400 572 Q400 529 391.5 488.5 Q383 448 358 396 Q333 344 288 274 Q243 204 170 102 L389 102 L389 0 L44 0 Z " />
<glyph glyph-name="three" unicode="3" horiz-adv-x="444" d="M158 209 L158 160 Q158 126 171.5 107 Q185 88 214 88 Q241 88 257 108 Q273 128 273 173 L273 228 Q273 287 248.5 308.5 Q224 330 167 330 L167 428 Q194 428 213.5 433 Q233 438 245 450.5 Q257 463 262.5 484.5 Q268 506 268 538 Q268 589 257 611.5 Q246 634 218 634 Q192 634 177 618.5 Q162 603 162 560 L162 530 L50 530 L50 564 Q50 601 61 631.5 Q72 662 94 684.5 Q116 707 147 719.5 Q178 732 219 732 Q259 732 289 716.5 Q319 701 339.5 675.5 Q360 650 370 616.5 Q380 583 380 547 Q380 484 365 445.5 Q350 407 302 381 Q329 367 346.5 351 Q364 335 374 314 Q384 293 387.5 266 Q391 239 391 202 Q391 93 347.5 41.5 Q304 -10 211 -10 Q134 -10 90 31.5 Q46 73 46 166 L46 209 L158 209 Z " />
<glyph glyph-name="four" unicode="4" horiz-adv-x="444" d="M234 266 L234 548 L232 548 L111 266 L234 266 Z M232 174 L16 174 L16 266 L226 722 L346 722 L346 266 L412 266 L412 174 L346 174 L346 0 L232 0 L232 174 Z " />
<glyph glyph-name="five" unicode="5" horiz-adv-x="444" d="M162 209 L162 151 Q162 122 177 105 Q192 88 217 88 Q246 88 262 107.5 Q278 127 278 176 L278 340 Q278 375 262.5 390.5 Q247 406 226 406 Q197 406 182 390 Q167 374 159 351 L63 351 Q64 393 66 432 Q68 471 69 514 Q70 557 71 607.5 Q72 658 72 722 L373 722 L369 620 L174 620 L167 464 L169 462 Q192 490 213.5 497 Q235 504 264 504 Q336 504 366 454.5 Q396 405 396 314 L396 214 Q396 100 357 45 Q318 -10 228 -10 Q190 -10 157.5 -1.5 Q125 7 101 26.5 Q77 46 63.5 77.5 Q50 109 50 154 L50 209 L162 209 Z " />
<glyph glyph-name="six" unicode="6" horiz-adv-x="444" d="M164 157 Q164 88 222 88 Q280 88 280 157 L280 277 Q280 312 265.5 329 Q251 346 228 346 Q211 346 193 334 Q175 322 164 313 L164 157 Z M275 528 L275 565 Q275 634 222 634 Q164 634 164 565 L164 396 Q176 408 186.5 417 Q197 426 208.5 432 Q220 438 233.5 441 Q247 444 266 444 Q293 444 317 436 Q341 428 359 410 Q377 392 387.5 364 Q398 336 398 296 L398 210 Q398 95 357 42.5 Q316 -10 222 -10 Q128 -10 87 37.5 Q46 85 46 188 L46 534 Q46 637 87 684.5 Q128 732 222 732 Q259 733 288.5 721 Q318 709 339 687.5 Q360 666 371.5 636 Q383 606 383 572 L383 528 L275 528 Z " />
<glyph glyph-name="seven" unicode="7" horiz-adv-x="444" d="M56 620 L56 722 L382 722 L382 652 L235 0 L118 0 L263 620 L56 620 Z " />
<glyph glyph-name="eight" unicode="8" horiz-adv-x="444" d="M222 436 Q251 436 263.5 459 Q276 482 276 535 Q276 588 263.5 611 Q251 634 222 634 Q193 634 180.5 611 Q168 588 168 535 Q168 482 180.5 459 Q193 436 222 436 Z M222 88 Q258 88 272 119.5 Q286 151 286 208 Q286 265 272 296.5 Q258 328 222 328 Q186 328 172 296.5 Q158 265 158 208 Q158 151 172 119.5 Q186 88 222 88 Z M46 200 Q46 266 60.5 311 Q75 356 121 385 Q88 409 72 448 Q56 487 56 529 Q56 634 100.5 683 Q145 732 222 732 Q298 732 343 683 Q388 634 388 529 Q388 487 372 448 Q356 409 323 385 Q369 356 383.5 311 Q398 266 398 200 Q398 97 354 43.5 Q310 -10 222 -10 Q134 -10 90 43.5 Q46 97 46 200 Z " />
<glyph glyph-name="nine" unicode="9" horiz-adv-x="444" d="M280 565 Q280 634 222 634 Q164 634 164 565 L164 445 Q164 410 178.5 393 Q193 376 216 376 Q233 376 251 388 Q269 400 280 409 L280 565 Z M169 194 L169 157 Q169 88 222 88 Q280 88 280 157 L280 326 Q268 314 257.5 305 Q247 296 235.5 290 Q224 284 210.5 281 Q197 278 178 278 Q151 278 127 286 Q103 294 85 312 Q67 330 56.5 358 Q46 386 46 426 L46 512 Q46 627 87 679.5 Q128 732 222 732 Q316 732 357 684.5 Q398 637 398 534 L398 188 Q398 85 357 37.5 Q316 -10 222 -10 Q185 -11 155.5 1 Q126 13 105 34.5 Q84 56 72.5 85.5 Q61 115 61 150 L61 194 L169 194 Z " />
<glyph glyph-name="colon" unicode="&#x3a;" horiz-adv-x="222" d="M52 278 L52 396 L170 396 L170 278 L52 278 Z M52 0 L52 118 L170 118 L170 0 L52 0 Z " />
<glyph glyph-name="semicolon" unicode="&#x3b;" horiz-adv-x="222" d="M52 278 L52 396 L170 396 L170 278 L52 278 Z M170 0 L101 -124 L48 -124 L97 0 L52 0 L52 118 L170 118 L170 0 Z " />
<glyph glyph-name="less" unicode="&#x3c;" horiz-adv-x="600" d="M553 0 L47 211 L47 295 L553 506 L553 402 L188 253 L553 104 L553 0 Z " />
<glyph glyph-name="equal" unicode="&#x3d;" horiz-adv-x="600" d="M553 100 L47 100 L47 198 L553 198 L553 100 Z M553 308 L47 308 L47 406 L553 406 L553 308 Z " />
<glyph glyph-name="greater" unicode="&#x3e;" horiz-adv-x="600" d="M47 104 L412 253 L47 402 L47 506 L553 295 L553 211 L47 0 L47 104 Z " />
<glyph glyph-name="question" unicode="&#x3f;" horiz-adv-x="389" d="M124 0 L124 118 L242 118 L242 0 L124 0 Z M137 212 L137 296 Q137 348 153 390.5 Q169 433 189 469 Q209 505 225 536 Q241 567 241 595 Q241 613 229.5 626.5 Q218 640 199 640 Q183 640 171.5 633 Q160 626 151.5 615 Q143 604 137 590.5 Q131 577 128 564 L32 600 Q55 666 98 699 Q141 732 213 732 Q241 732 267 722 Q293 712 313 694 Q333 676 345 651.5 Q357 627 357 598 Q357 570 351.5 548.5 Q346 527 337.5 509 Q329 491 318 475 Q307 459 295 443 Q283 427 272 410 Q261 393 252.5 372 Q244 351 238.5 325 Q233 299 233 266 L233 212 L137 212 Z " />
<glyph glyph-name="at" unicode="&#x40;" horiz-adv-x="800" d="M369 233 Q396 233 419 247 Q442 261 458 283 Q474 305 483 331.5 Q492 358 492 384 Q492 421 470.5 446 Q449 471 415 471 Q388 471 365 457 Q342 443 325.5 421 Q309 399 300 373 Q291 347 291 322 Q291 284 312.5 258.5 Q334 233 369 233 Z M539 548 L620 548 L557 291 Q555 282 552.5 272 Q550 262 550 252 Q550 241 553 233 Q556 225 566 225 Q587 225 607.5 238.5 Q628 252 644.5 276.5 Q661 301 671.5 334.5 Q682 368 682 408 Q682 468 661 514 Q640 560 604 591 Q568 622 519.5 638 Q471 654 415 654 Q351 654 298.5 631.5 Q246 609 208.5 569.5 Q171 530 150.5 476 Q130 422 130 359 Q130 295 152 241.5 Q174 188 214 149.5 Q254 111 308 89.5 Q362 68 427 68 Q490 68 545 89.5 Q600 111 640 151 L723 151 Q672 73 593.5 31.5 Q515 -10 421 -10 Q341 -10 272 16.5 Q203 43 151 92 Q99 141 69.5 209 Q40 277 40 361 Q40 442 69.5 510 Q99 578 150 627.5 Q201 677 269.5 704.5 Q338 732 416 732 Q483 732 545 710 Q607 688 655 648.5 Q703 609 731.5 553 Q760 497 760 429 Q760 352 731.5 298 Q703 244 663.5 209.5 Q624 175 582 159 Q540 143 513 143 Q490 143 474 156 Q458 169 456 197 L454 198 Q434 175 405 159 Q376 143 346 143 Q314 143 286 156 Q258 169 237 191.5 Q216 214 203.5 244.5 Q191 275 191 309 Q191 356 206.5 401.5 Q222 447 250 482.5 Q278 518 317.5 539.5 Q357 561 406 561 Q443 561 473 545 Q503 529 523 496 L539 548 Z " />
<glyph glyph-name="A" unicode="A" horiz-adv-x="444" d="M172 268 L272 268 L223 578 L221 578 L172 268 Z M132 0 L12 0 L145 722 L299 722 L432 0 L312 0 L290 160 L154 160 L132 0 Z " />
<glyph glyph-name="B" unicode="B" horiz-adv-x="500" d="M184 426 L229 426 Q264 426 288 449.5 Q312 473 312 518 Q312 620 231 620 L184 620 L184 426 Z M184 102 L236 102 Q286 102 306 130 Q326 158 326 213 Q326 269 303 296.5 Q280 324 224 324 L184 324 L184 102 Z M60 722 L244 722 Q344 722 390 673 Q436 624 436 531 Q436 508 431 484.5 Q426 461 415.5 441 Q405 421 388.5 405 Q372 389 350 380 Q398 359 424 319 Q450 279 450 209 Q450 164 439.5 126 Q429 88 406 60 Q383 32 346 16 Q309 0 256 0 L60 0 L60 722 Z " />
<glyph glyph-name="C" unicode="C" horiz-adv-x="500" d="M310 481 L310 537 Q310 583 292 603.5 Q274 624 250 624 Q212 624 198 604.5 Q184 585 184 544 L184 178 Q184 137 198 117.5 Q212 98 250 98 Q284 98 297 117 Q310 136 310 171 L310 258 L434 258 L434 175 Q434 137 422.5 103 Q411 69 388.5 44 Q366 19 331 4.5 Q296 -10 250 -10 Q201 -10 165.5 4.5 Q130 19 106.5 44 Q83 69 71.5 103 Q60 137 60 175 L60 547 Q60 585 71.5 619 Q83 653 106.5 678 Q130 703 165.5 717.5 Q201 732 250 732 Q296 732 331 716 Q366 700 388.5 673 Q411 646 422.5 610 Q434 574 434 534 L434 481 L310 481 Z " />
<glyph glyph-name="D" unicode="D" horiz-adv-x="500" d="M184 102 L227 102 Q277 102 296.5 124 Q316 146 316 203 L316 519 Q316 576 296.5 598 Q277 620 227 620 L184 620 L184 102 Z M60 722 L244 722 Q341 722 390.5 669 Q440 616 440 504 L440 218 Q440 106 390.5 53 Q341 0 244 0 L60 0 L60 722 Z " />
<glyph glyph-name="E" unicode="E" horiz-adv-x="444" d="M60 0 L60 722 L392 722 L392 614 L184 614 L184 428 L344 428 L344 320 L184 320 L184 108 L406 108 L406 0 L60 0 Z " />
<glyph glyph-name="F" unicode="F" horiz-adv-x="444" d="M60 0 L60 722 L406 722 L406 614 L184 614 L184 428 L350 428 L350 320 L184 320 L184 0 L60 0 Z " />
<glyph glyph-name="G" unicode="G" horiz-adv-x="500" d="M231 366 L434 366 L434 0 L374 0 L351 54 Q323 21 296.5 5.5 Q270 -10 226 -10 Q152 -10 106 39 Q60 88 60 175 L60 547 Q60 585 71.5 619 Q83 653 105.5 678 Q128 703 162 717.5 Q196 732 242 732 Q288 732 323 716 Q358 700 381.5 673 Q405 646 416.5 610 Q428 574 428 534 L428 488 L310 488 Q310 528 306 554.5 Q302 581 293 596.5 Q284 612 270.5 618 Q257 624 239 624 Q216 624 200 607.5 Q184 591 184 545 L184 174 Q184 139 197 118.5 Q210 98 242 98 Q280 98 295 121 Q310 144 310 198 L310 268 L231 268 L231 366 Z " />
<glyph glyph-name="H" unicode="H" horiz-adv-x="500" d="M60 0 L60 722 L184 722 L184 428 L316 428 L316 722 L440 722 L440 0 L316 0 L316 320 L184 320 L184 0 L60 0 Z " />
<glyph glyph-name="I" unicode="I" horiz-adv-x="278" d="M77 0 L77 722 L201 722 L201 0 L77 0 Z " />
<glyph glyph-name="J" unicode="J" horiz-adv-x="278" d="M3 98 L29 98 Q65 98 79.5 113 Q94 128 94 158 L94 722 L218 722 L218 144 Q218 109 210 81 Q202 53 182.5 32.5 Q163 12 129 1 Q95 -10 44 -10 L3 -10 L3 98 Z " />
<glyph glyph-name="K" unicode="K" horiz-adv-x="444" d="M54 0 L54 722 L178 722 L178 455 L180 455 L310 722 L434 722 L300 453 L451 0 L325 0 L224 336 L222 336 L178 256 L178 0 L54 0 Z " />
<glyph glyph-name="L" unicode="L" horiz-adv-x="389" d="M54 0 L54 722 L178 722 L178 108 L373 108 L373 0 L54 0 Z " />
<glyph glyph-name="M" unicode="M" horiz-adv-x="611" d="M557 722 L557 0 L449 0 L449 564 L447 564 L335 0 L275 0 L163 564 L161 564 L161 0 L53 0 L53 722 L216 722 L304 300 L306 300 L394 722 L557 722 Z " />
<glyph glyph-name="N" unicode="N" horiz-adv-x="500" d="M60 0 L60 722 L175 722 L326 309 L328 309 L328 722 L440 722 L440 0 L332 0 L174 451 L172 451 L172 0 L60 0 Z " />
<glyph glyph-name="O" unicode="O" horiz-adv-x="500" d="M184 178 Q184 137 198 117.5 Q212 98 250 98 Q288 98 302 117.5 Q316 137 316 178 L316 544 Q316 585 302 604.5 Q288 624 250 624 Q212 624 198 604.5 Q184 585 184 544 L184 178 Z M60 547 Q60 585 71.5 619 Q83 653 106.5 678 Q130 703 165.5 717.5 Q201 732 250 732 Q299 732 334.5 717.5 Q370 703 393.5 678 Q417 653 428.5 619 Q440 585 440 547 L440 175 Q440 137 428.5 103 Q417 69 393.5 44 Q370 19 334.5 4.5 Q299 -10 250 -10 Q201 -10 165.5 4.5 Q130 19 106.5 44 Q83 69 71.5 103 Q60 137 60 175 L60 547 Z " />
<glyph glyph-name="P" unicode="P" horiz-adv-x="500" d="M184 398 L232 398 Q262 398 282.5 403 Q303 408 315.5 421 Q328 434 333 455.5 Q338 477 338 509 Q338 541 333 562.5 Q328 584 315.5 596.5 Q303 609 282.5 614.5 Q262 620 232 620 L184 620 L184 398 Z M60 0 L60 722 L238 722 Q353 722 407.5 673 Q462 624 462 509 Q462 451 448.5 410.5 Q435 370 407.5 344.5 Q380 319 337.5 307.5 Q295 296 238 296 L184 296 L184 0 L60 0 Z " />
<glyph glyph-name="Q" unicode="Q" horiz-adv-x="500" d="M259 258 Q269 253 283.5 243.5 Q298 234 316 214 L316 544 Q316 585 302 604.5 Q288 624 250 624 Q212 624 198 604.5 Q184 585 184 544 L184 178 Q184 137 198 117.5 Q212 98 250 98 Q278 98 292 109 Q281 129 273 136 Q265 143 259 148 L259 258 Z M477 -54 Q460 -54 444 -52 Q428 -50 413 -43 Q398 -36 382.5 -22.5 Q367 -9 351 13 Q310 -10 250 -10 Q201 -10 165.5 4.5 Q130 19 106.5 44 Q83 69 71.5 103 Q60 137 60 175 L60 547 Q60 585 71.5 619 Q83 653 106.5 678 Q130 703 165.5 717.5 Q201 732 250 732 Q299 732 334.5 717.5 Q370 703 393.5 678 Q417 653 428.5 619 Q440 585 440 547 L440 175 Q440 122 419 82 Q440 64 453.5 59.5 Q467 55 477 54 L477 -54 Z " />
<glyph glyph-name="R" unicode="R" horiz-adv-x="500" d="M184 398 L228 398 Q253 398 270.5 403 Q288 408 299 421 Q310 434 315 455.5 Q320 477 320 509 Q320 573 299 596.5 Q278 620 228 620 L184 620 L184 398 Z M184 0 L60 0 L60 722 L234 722 Q338 722 391 673 Q444 624 444 509 Q444 465 436.5 434 Q429 403 416.5 381.5 Q404 360 388.5 347 Q373 334 357 327 L462 0 L336 0 L248 299 Q236 297 218.5 296.5 Q201 296 184 296 L184 0 Z " />
<glyph glyph-name="S" unicode="S" horiz-adv-x="444" d="M286 544 Q284 567 277.5 582.5 Q271 598 261.5 607 Q252 616 241 620 Q230 624 220 624 Q190 624 174 605.5 Q158 587 158 553 Q158 522 176.5 496 Q195 470 223 444 Q251 418 284 391.5 Q317 365 345 333 Q373 301 391.5 262.5 Q410 224 410 175 Q410 130 395.5 95.5 Q381 61 355.5 37.5 Q330 14 293.5 2 Q257 -10 214 -10 Q171 -10 137 6 Q103 22 79.5 49.5 Q56 77 43 113 Q30 149 28 190 L146 207 Q150 152 170 125 Q190 98 220 98 Q252 98 272 115 Q292 132 292 164 Q292 200 273.5 228 Q255 256 227 282 Q199 308 166 334 Q133 360 105 391 Q77 422 58.5 461 Q40 500 40 552 Q40 639 90 685.5 Q140 732 232 732 Q270 732 300 719 Q330 706 351.5 682.5 Q373 659 386.5 627 Q400 595 404 557 L286 544 Z " />
<glyph glyph-name="T" unicode="T" horiz-adv-x="389" d="M132 614 L12 614 L12 722 L376 722 L376 614 L256 614 L256 0 L132 0 L132 614 Z " />
<glyph glyph-name="U" unicode="U" horiz-adv-x="500" d="M60 722 L184 722 L184 177 Q184 98 250 98 Q316 98 316 177 L316 722 L440 722 L440 182 Q440 88 389.5 39 Q339 -10 250 -10 Q161 -10 110.5 39 Q60 88 60 182 L60 722 Z " />
<glyph glyph-name="V" unicode="V" horiz-adv-x="444" d="M313 722 L435 722 L284 0 L160 0 L9 722 L131 722 L221 221 L223 221 L313 722 Z " />
<glyph glyph-name="W" unicode="W" horiz-adv-x="667" d="M275 722 L377 722 L461 262 L463 262 L532 722 L648 722 L521 0 L417 0 L327 477 L325 477 L241 0 L137 0 L0 722 L116 722 L192 262 L194 262 L275 722 Z " />
<glyph glyph-name="X" unicode="X" horiz-adv-x="444" d="M156 378 L24 722 L146 722 L222 493 L224 493 L293 722 L415 722 L290 378 L430 0 L308 0 L224 263 L222 263 L136 0 L14 0 L156 378 Z " />
<glyph glyph-name="Y" unicode="Y" horiz-adv-x="444" d="M284 0 L160 0 L160 300 L10 722 L136 722 L223 447 L225 447 L308 722 L434 722 L284 300 L284 0 Z " />
<glyph glyph-name="Z" unicode="Z" horiz-adv-x="444" d="M72 614 L72 722 L400 722 L400 604 L172 108 L400 108 L400 0 L44 0 L44 118 L275 614 L72 614 Z " />
<glyph glyph-name="bracketleft" unicode="&#x5b;" horiz-adv-x="278" d="M250 674 L132 674 L132 -28 L250 -28 L250 -76 L36 -76 L36 722 L250 722 L250 674 Z " />
<glyph glyph-name="backslash" unicode="&#x5c;" horiz-adv-x="278" d="M299 -10 L201 -10 L-21 732 L77 732 L299 -10 Z " />
<glyph glyph-name="bracketright" unicode="&#x5d;" horiz-adv-x="278" d="M28 722 L242 722 L242 -76 L28 -76 L28 -28 L146 -28 L146 674 L28 674 L28 722 Z " />
<glyph glyph-name="asciicircum" unicode="&#x5e;" horiz-adv-x="600" d="M56 302 L246 722 L354 722 L544 302 L435 302 L299 604 L163 302 L56 302 Z " />
<glyph glyph-name="underscore" unicode="&#x5f;" horiz-adv-x="500" d="M0 -125 L0 -75 L500 -75 L500 -125 L0 -125 Z " />
<glyph glyph-name="quoteleft" unicode="&#x2018;" horiz-adv-x="222" d="M52 608 L121 732 L174 732 L125 608 L170 608 L170 490 L52 490 L52 608 Z " />
<glyph glyph-name="a" unicode="a" horiz-adv-x="444" d="M273 273 Q235 251 210 233 Q185 215 171 198 Q157 181 151.5 165 Q146 149 146 131 Q146 105 159 93.5 Q172 82 198 82 Q221 82 240 97 Q259 112 273 132 L273 273 Z M42 380 Q47 462 95 505 Q143 548 222 548 Q300 548 342.5 512 Q385 476 385 402 L385 57 Q385 44 387.5 29 Q390 14 392 0 L285 0 Q284 11 282 21.5 Q280 32 279 42 Q247 16 218 3 Q189 -10 148 -10 Q91 -10 62.5 24.5 Q34 59 34 111 Q34 155 48.5 190 Q63 225 93 254 Q123 283 168 307.5 Q213 332 273 355 L273 387 Q273 456 218 456 Q180 456 168 435.5 Q156 415 154 380 L42 380 Z " />
<glyph glyph-name="b" unicode="b" horiz-adv-x="444" d="M166 110 Q183 98 198 90 Q213 82 230 82 Q241 82 251 85.5 Q261 89 268.5 99 Q276 109 280 125.5 Q284 142 284 169 L284 369 Q284 396 280 412.5 Q276 429 268.5 439 Q261 449 251 452.5 Q241 456 230 456 Q213 456 198 448 Q183 440 166 428 L166 110 Z M54 0 L54 722 L166 722 L166 492 Q182 505 195.5 515.5 Q209 526 222 533.5 Q235 541 249.5 544.5 Q264 548 282 548 Q335 548 365.5 510 Q396 472 396 398 L396 140 Q396 66 365.5 28 Q335 -10 282 -10 Q240 -10 215 5.5 Q190 21 162 56 L160 56 L160 0 L54 0 Z " />
<glyph glyph-name="c" unicode="c" horiz-adv-x="444" d="M284 354 L284 368 Q284 415 268 435.5 Q252 456 222 456 Q192 456 176 435.5 Q160 415 160 368 L160 170 Q160 123 176 102.5 Q192 82 222 82 Q252 82 268 102.5 Q284 123 284 170 L284 204 L396 204 L396 190 Q396 146 387 109 Q378 72 357 45.5 Q336 19 303 4.5 Q270 -10 222 -10 Q174 -10 141 4.5 Q108 19 87 45.5 Q66 72 57 109 Q48 146 48 190 L48 348 Q48 392 57 429 Q66 466 87 492.5 Q108 519 141 533.5 Q174 548 222 548 Q269 548 302 534 Q335 520 355.5 494.5 Q376 469 385.5 433 Q395 397 396 354 L284 354 Z " />
<glyph glyph-name="d" unicode="d" horiz-adv-x="444" d="M278 428 Q261 440 246 448 Q231 456 214 456 Q191 456 175.5 439 Q160 422 160 369 L160 169 Q160 116 175.5 99 Q191 82 214 82 Q231 82 246 90 Q261 98 278 110 L278 428 Z M284 0 L284 56 L282 56 Q254 21 229 5.5 Q204 -10 162 -10 Q109 -10 78.5 28 Q48 66 48 140 L48 398 Q48 472 78.5 510 Q109 548 162 548 Q180 548 194.5 544.5 Q209 541 222 533.5 Q235 526 248 515.5 Q261 505 278 492 L278 722 L390 722 L390 0 L284 0 Z " />
<glyph glyph-name="e" unicode="e" horiz-adv-x="444" d="M284 340 L284 368 Q284 415 268 435.5 Q252 456 222 456 Q192 456 176 435.5 Q160 415 160 368 L160 340 L284 340 Z M396 248 L160 248 L160 170 Q160 123 176 102.5 Q192 82 222 82 Q252 82 268 102.5 Q284 123 284 170 L284 182 L396 182 Q395 139 385.5 104 Q376 69 355 43.5 Q334 18 301.5 4 Q269 -10 222 -10 Q174 -10 141 4.5 Q108 19 87 45.5 Q66 72 57 109 Q48 146 48 190 L48 348 Q48 392 57 429 Q66 466 87 492.5 Q108 519 141 533.5 Q174 548 222 548 Q270 548 303 533.5 Q336 519 357 492.5 Q378 466 387 429 Q396 392 396 348 L396 248 Z " />
<glyph glyph-name="f" unicode="f" horiz-adv-x="278" d="M76 446 L10 446 L10 538 L76 538 L76 605 Q76 671 108.5 701.5 Q141 732 201 732 L257 732 L257 640 L225 640 Q205 640 196.5 632 Q188 624 188 604 L188 538 L252 538 L252 446 L188 446 L188 0 L76 0 L76 446 Z " />
<glyph glyph-name="g" unicode="g" horiz-adv-x="444" d="M231 -90 Q287 -90 306.5 -80.5 Q326 -71 326 -50 Q326 -29 306.5 -19.5 Q287 -10 231 -10 Q175 -10 155.5 -19.5 Q136 -29 136 -50 Q136 -71 155.5 -80.5 Q175 -90 231 -90 Z M198 230 Q214 230 225 235 Q236 240 242.5 252.5 Q249 265 251.5 287 Q254 309 254 343 Q254 377 251.5 399 Q249 421 242.5 433.5 Q236 446 225 451 Q214 456 198 456 Q184 456 174 451 Q164 446 156.5 433.5 Q149 421 145.5 399 Q142 377 142 343 Q142 309 145.5 287 Q149 265 156.5 252.5 Q164 240 174 235 Q184 230 198 230 Z M426 455 Q421 456 417 456 Q413 456 408 456 Q393 456 379.5 452.5 Q366 449 354 439 Q360 418 363 394.5 Q366 371 366 354 Q366 292 355.5 251 Q345 210 324 184.5 Q303 159 271 148.5 Q239 138 196 138 L160 138 Q151 136 144.5 129.5 Q138 123 138 113 Q138 95 159.5 89.5 Q181 84 213 82.5 Q245 81 282 79.5 Q319 78 351 66.5 Q383 55 404.5 30 Q426 5 426 -42 Q426 -111 365.5 -140.5 Q305 -170 196 -170 Q111 -170 64.5 -148 Q18 -126 18 -84 Q18 -52 40 -29.5 Q62 -7 91 0 L91 2 Q68 11 54 27.5 Q40 44 40 70 Q40 84 46.5 97 Q53 110 63 121 Q73 132 85 141.5 Q97 151 108 157 Q87 172 73 186 Q59 200 51 221 Q43 242 39.5 272.5 Q36 303 36 350 Q36 405 45.5 443 Q55 481 76 504.5 Q97 528 130 538 Q163 548 210 548 Q246 548 277 534.5 Q308 521 334 490 Q345 506 354.5 517.5 Q364 529 374 535.5 Q384 542 396 545 Q408 548 426 548 L426 455 Z " />
<glyph glyph-name="h" unicode="h" horiz-adv-x="444" d="M54 0 L54 722 L166 722 L166 488 Q181 501 194.5 512.5 Q208 524 222 531.5 Q236 539 254 543.5 Q272 548 296 548 Q341 548 365.5 518 Q390 488 390 435 L390 0 L278 0 L278 417 Q278 437 267 446.5 Q256 456 238 456 Q220 456 203 446 Q186 436 166 422 L166 0 L54 0 Z " />
<glyph glyph-name="i" unicode="i" horiz-adv-x="222" d="M55 620 L55 722 L167 722 L167 620 L55 620 Z M55 0 L55 538 L167 538 L167 0 L55 0 Z " />
<glyph glyph-name="j" unicode="j" horiz-adv-x="222" d="M61 620 L61 722 L173 722 L173 620 L61 620 Z M0 -68 L19 -68 Q42 -68 51.5 -56 Q61 -44 61 -26 L61 537 L173 537 L173 -31 Q173 -71 162.5 -98 Q152 -125 134 -141 Q116 -157 92.5 -163.5 Q69 -170 43 -170 L0 -170 L0 -68 Z " />
<glyph glyph-name="k" unicode="k" horiz-adv-x="444" d="M294 368 L424 0 L311 0 L221 267 L219 267 L166 188 L166 0 L54 0 L54 722 L166 722 L166 348 L168 348 L291 538 L411 538 L294 368 Z " />
<glyph glyph-name="l" unicode="l" horiz-adv-x="222" d="M55 0 L55 722 L167 722 L167 0 L55 0 Z " />
<glyph glyph-name="m" unicode="m" horiz-adv-x="667" d="M277 0 L277 417 Q277 437 266 446.5 Q255 456 238 456 Q220 456 203 446 Q186 436 166 422 L166 0 L54 0 L54 538 L160 538 L160 484 Q178 499 192 511 Q206 523 220 531 Q234 539 249 543.5 Q264 548 284 548 Q326 548 345 532.5 Q364 517 382 484 Q402 503 418.5 515.5 Q435 528 449.5 535.5 Q464 543 478 545.5 Q492 548 507 548 Q560 548 586 518 Q612 488 612 435 L612 0 L500 0 L500 417 Q500 437 488.5 446.5 Q477 456 460 456 Q442 456 425 446 Q408 436 389 422 L389 0 L277 0 Z " />
<glyph glyph-name="n" unicode="n" horiz-adv-x="444" d="M54 0 L54 538 L160 538 L160 484 Q178 499 192 511 Q206 523 221 531 Q236 539 254 543.5 Q272 548 296 548 Q341 548 365.5 518 Q390 488 390 435 L390 0 L278 0 L278 417 Q278 437 267 446.5 Q256 456 238 456 Q220 456 203 446 Q186 436 166 422 L166 0 L54 0 Z " />
<glyph glyph-name="o" unicode="o" horiz-adv-x="444" d="M284 368 Q284 415 268 435.5 Q252 456 222 456 Q192 456 176 435.5 Q160 415 160 368 L160 170 Q160 123 176 102.5 Q192 82 222 82 Q252 82 268 102.5 Q284 123 284 170 L284 368 Z M48 348 Q48 392 57 429 Q66 466 87 492.5 Q108 519 141 533.5 Q174 548 222 548 Q270 548 303 533.5 Q336 519 357 492.5 Q378 466 387 429 Q396 392 396 348 L396 190 Q396 146 387 109 Q378 72 357 45.5 Q336 19 303 4.5 Q270 -10 222 -10 Q174 -10 141 4.5 Q108 19 87 45.5 Q66 72 57 109 Q48 146 48 190 L48 348 Z " />
<glyph glyph-name="p" unicode="p" horiz-adv-x="444" d="M166 110 Q183 98 198 90 Q213 82 230 82 Q241 82 251 85.5 Q261 89 268.5 99 Q276 109 280 125.5 Q284 142 284 169 L284 369 Q284 396 280 412.5 Q276 429 268.5 439 Q261 449 251 452.5 Q241 456 230 456 Q213 456 198 448 Q183 440 166 428 L166 110 Z M160 538 L160 482 L162 482 Q190 517 215 532.5 Q240 548 282 548 Q335 548 365.5 510 Q396 472 396 398 L396 140 Q396 66 365.5 28 Q335 -10 282 -10 Q264 -10 249.5 -6.5 Q235 -3 222 4.5 Q209 12 195.5 22 Q182 32 166 46 L166 -170 L54 -170 L54 538 L160 538 Z " />
<glyph glyph-name="q" unicode="q" horiz-adv-x="444" d="M278 428 Q261 440 246 448 Q231 456 214 456 Q191 456 175.5 439 Q160 422 160 369 L160 169 Q160 116 175.5 99 Q191 82 214 82 Q231 82 246 90 Q261 98 278 110 L278 428 Z M390 538 L390 -170 L278 -170 L278 46 Q261 32 248 22 Q235 12 222 4.5 Q209 -3 194.5 -6.5 Q180 -10 162 -10 Q109 -10 78.5 28 Q48 66 48 140 L48 398 Q48 472 78.5 510 Q109 548 162 548 Q204 548 229 532.5 Q254 517 282 482 L284 482 L284 538 L390 538 Z " />
<glyph glyph-name="r" unicode="r" horiz-adv-x="333" d="M54 0 L54 538 L161 538 L161 475 L163 475 Q183 510 216.5 529 Q250 548 290 548 L313 548 L313 431 Q298 435 282 438.5 Q266 442 241 442 Q212 442 189 424 Q166 406 166 370 L166 0 L54 0 Z " />
<glyph glyph-name="s" unicode="s" horiz-adv-x="389" d="M258 389 Q246 456 194 456 Q172 456 158.5 445 Q145 434 145 413 Q145 392 160.5 374.5 Q176 357 199.5 339.5 Q223 322 250 302.5 Q277 283 300.5 259.5 Q324 236 339.5 205.5 Q355 175 355 135 Q355 99 343.5 72 Q332 45 311 26.5 Q290 8 261 -1 Q232 -10 198 -10 Q124 -10 82 29.5 Q40 69 27 140 L125 167 Q130 133 145.5 107.5 Q161 82 199 82 Q221 82 235 94 Q249 106 249 129 Q249 152 233.5 171.5 Q218 191 194.5 209 Q171 227 144 246 Q117 265 93.5 288 Q70 311 54.5 339 Q39 367 39 404 Q39 436 50.5 462.5 Q62 489 82.5 508 Q103 527 130 537.5 Q157 548 189 548 Q255 548 297.5 508 Q340 468 353 405 L258 389 Z " />
<glyph glyph-name="t" unicode="t" horiz-adv-x="278" d="M10 446 L10 538 L72 538 L72 683 L184 683 L184 538 L259 538 L259 446 L184 446 L184 136 Q184 92 222 92 L259 92 L259 -4 Q248 -7 236 -8.5 Q224 -10 203 -10 Q140 -10 106 19.5 Q72 49 72 111 L72 446 L10 446 Z " />
<glyph glyph-name="u" unicode="u" horiz-adv-x="444" d="M390 538 L390 0 L284 0 L284 54 Q266 39 252 27 Q238 15 223 7 Q208 -1 190 -5.5 Q172 -10 148 -10 Q103 -10 78.5 20 Q54 50 54 103 L54 538 L166 538 L166 121 Q166 101 177 91.5 Q188 82 206 82 Q224 82 241 92 Q258 102 278 116 L278 538 L390 538 Z " />
<glyph glyph-name="v" unicode="v" horiz-adv-x="389" d="M265 538 L379 538 L249 0 L140 0 L10 538 L124 538 L193 178 L195 178 L265 538 Z " />
<glyph glyph-name="w" unicode="w" horiz-adv-x="556" d="M236 537 L319 537 L379 202 L381 202 L442 538 L550 538 L426 0 L336 0 L275 340 L273 340 L200 0 L110 0 L6 538 L114 538 L163 202 L165 202 L236 537 Z " />
<glyph glyph-name="x" unicode="x" horiz-adv-x="389" d="M132 285 L21 538 L137 538 L194 388 L254 538 L370 538 L254 287 L376 0 L260 0 L195 182 L193 182 L128 0 L12 0 L132 285 Z " />
<glyph glyph-name="y" unicode="y" horiz-adv-x="389" d="M266 538 L379 538 L238 -40 Q229 -77 216 -101.5 Q203 -126 184 -141 Q165 -156 140.5 -162.5 Q116 -169 85 -169 L38 -169 L38 -77 L65 -77 Q107 -77 123 -55 Q139 -33 139 10 Q139 27 135.5 44 Q132 61 127 81 L10 538 L124 538 L196 194 L198 194 L266 538 Z " />
<glyph glyph-name="z" unicode="z" horiz-adv-x="389" d="M44 446 L44 538 L359 538 L359 446 L150 92 L359 92 L359 0 L30 0 L30 92 L235 446 L44 446 Z " />
<glyph glyph-name="braceleft" unicode="&#x7b;" horiz-adv-x="278" d="M0 354 Q22 354 39 373 Q56 392 56 434 L56 636 Q56 684 78 708 Q100 732 160 732 L270 732 L270 684 L188 684 Q168 684 160 670.5 Q152 657 152 634 L152 440 Q152 410 143.5 388.5 Q135 367 123 353.5 Q111 340 98 333.5 Q85 327 76 326 L76 323 Q85 321 98 315 Q111 309 123 295.5 Q135 282 143.5 260.5 Q152 239 152 206 L152 12 Q152 -11 160 -24.5 Q168 -38 188 -38 L270 -38 L270 -86 L160 -86 Q100 -86 78 -62 Q56 -38 56 10 L56 216 Q56 258 39 277 Q22 296 0 296 L0 354 Z " />
<glyph glyph-name="bar" unicode="&#x7c;" horiz-adv-x="222" d="M62 732 L160 732 L160 -10 L62 -10 L62 732 Z " />
<glyph glyph-name="braceright" unicode="&#x7d;" horiz-adv-x="278" d="M278 292 Q256 292 239 273 Q222 254 222 212 L222 10 Q222 -38 200 -62 Q178 -86 118 -86 L8 -86 L8 -38 L90 -38 Q110 -38 118 -24.5 Q126 -11 126 12 L126 206 Q126 236 134.5 257.5 Q143 279 155 292.5 Q167 306 180 312.5 Q193 319 202 320 L202 323 Q193 324 180 330.5 Q167 337 155 350.5 Q143 364 134.5 385.5 Q126 407 126 440 L126 634 Q126 657 118 670.5 Q110 684 90 684 L8 684 L8 732 L118 732 Q178 732 200 708 Q222 684 222 636 L222 430 Q222 388 239 369 Q256 350 278 350 L278 292 Z " />
<glyph glyph-name="asciitilde" unicode="&#x7e;" horiz-adv-x="600" d="M539 249 Q525 236 511 222.5 Q497 209 481.5 197.5 Q466 186 447.5 178.5 Q429 171 406 171 Q378 171 353.5 180.5 Q329 190 304 204 Q283 216 253.5 225.5 Q224 235 189 235 Q156 235 136.5 214.5 Q117 194 105 171 L61 257 Q72 270 85 283.5 Q98 297 113.5 308.5 Q129 320 149 327.5 Q169 335 194 335 Q220 335 248 325.5 Q276 316 305 303 Q333 291 357 281 Q381 271 407 271 Q437 271 457.5 291.5 Q478 312 495 335 L539 249 Z " />
<glyph glyph-name="exclamdown" unicode="&#xa1;" horiz-adv-x="278" d="M198 538 L198 420 L80 420 L80 538 L198 538 Z M202 -184 L76 -184 L98 326 L180 326 L202 -184 Z " />
<glyph glyph-name="cent" unicode="&#xa2;" horiz-adv-x="444" d="M239 465 Q234 466 223 466 Q191 466 170.5 445.5 Q150 425 150 378 L150 180 Q150 171 152 163 Q154 155 156 148 L158 148 L239 465 Z M297 364 L297 378 Q297 416 282 437 L191 100 Q203 92 223 92 Q255 92 274.5 112.5 Q294 133 294 180 L294 214 L406 214 L406 200 Q406 156 396.5 119 Q387 82 365.5 55.5 Q344 29 309 14.5 Q274 0 223 0 Q197 0 180 4 L147 -116 L72 -116 L112 29 Q72 54 55 98 Q38 142 38 200 L38 358 Q38 402 48 439 Q58 476 80 502.5 Q102 529 137 543.5 Q172 558 223 558 Q232 558 239.5 557.5 Q247 557 255 556 L290 684 L364 684 L323 534 Q364 510 382 466.5 Q400 423 401 364 L297 364 Z " />
<glyph glyph-name="sterling" unicode="&#xa3;" horiz-adv-x="444" d="M35 97 Q59 105 74 120 Q89 135 97.5 161.5 Q106 188 109 226.5 Q112 265 112 319 L35 319 L35 403 L98 403 Q87 449 78.5 492.5 Q70 536 70 567 Q70 645 110 688.5 Q150 732 235 732 Q317 732 356.5 683 Q396 634 396 530 L294 530 Q292 563 288.5 584.5 Q285 606 277.5 618 Q270 630 259 635 Q248 640 232 640 Q182 640 182 576 Q182 532 192.5 491.5 Q203 451 211 403 L310 403 L310 319 L220 319 Q219 286 218 257.5 Q217 229 213.5 204.5 Q210 180 203.5 158 Q197 136 185 116 Q200 105 218 98.5 Q236 92 255 92 Q271 92 281 100.5 Q291 109 296.5 124 Q302 139 304 158.5 Q306 178 306 199 L406 199 L406 140 Q406 69 371.5 29.5 Q337 -10 273 -10 Q235 -10 203 3.5 Q171 17 145 38 Q119 20 92.5 6.5 Q66 -7 35 -10 L35 97 Z " />
<glyph glyph-name="&amp;#x2044;" unicode="&#x2044;" horiz-adv-x="167" d="M-167 -10 L243 732 L334 732 L-76 -10 L-167 -10 Z " />
<glyph glyph-name="&amp;#x2215;" unicode="&#x2215;" horiz-adv-x="167" d="M-167 -10 L243 732 L334 732 L-76 -10 L-167 -10 Z " />
<glyph glyph-name="yen" unicode="&#xa5;" horiz-adv-x="444" d="M22 722 L122 722 L223 423 L225 423 L322 722 L422 722 L331 468 L418 468 L418 384 L297 384 L270 304 L418 304 L418 220 L270 220 L270 0 L174 0 L174 220 L26 220 L26 304 L174 304 L147 384 L26 384 L26 468 L113 468 L22 722 Z " />
<glyph glyph-name="florin" unicode="&#x192;" horiz-adv-x="444" d="M34 -73 Q40 -76 47.5 -77 Q55 -78 63 -78 Q90 -78 106 -62 Q122 -46 132.5 1 Q143 48 150.5 134.5 Q158 221 167 362 L74 362 L74 446 L174 446 Q178 526 194.5 581 Q211 636 236 669.5 Q261 703 293.5 717.5 Q326 732 363 732 Q375 732 386.5 730.5 Q398 729 410 727 L410 633 Q387 646 359 646 Q343 646 329 637 Q315 628 304.5 605.5 Q294 583 287.5 544.5 Q281 506 280 446 L382 446 L382 362 L276 362 Q268 235 257.5 136 Q247 37 225.5 -31 Q204 -99 168 -134.5 Q132 -170 73 -170 Q54 -170 34 -165 L34 -73 Z " />
<glyph glyph-name="section" unicode="&#xa7;" horiz-adv-x="500" d="M144 399 Q144 391 153.5 375.5 Q163 360 178.5 340.5 Q194 321 213 301 Q232 281 250.5 264 Q269 247 284.5 236.5 Q300 226 310 226 Q330 226 343 239.5 Q356 253 356 270 Q356 277 346.5 292.5 Q337 308 322 327 Q307 346 288.5 366 Q270 386 251 403 Q232 420 215.5 430.5 Q199 441 188 441 Q167 441 155.5 428.5 Q144 416 144 399 Z M333 602 Q318 619 300 636.5 Q282 654 257 654 Q205 654 205 608 Q205 586 223 563 Q241 540 268 515 Q295 490 326.5 462.5 Q358 435 385 406 Q412 377 430 345.5 Q448 314 448 280 Q448 231 420 197.5 Q392 164 340 162 Q363 139 376.5 115.5 Q390 92 390 54 Q390 24 380 -0.5 Q370 -25 352.5 -42.5 Q335 -60 311 -70 Q287 -80 258 -80 Q203 -80 164.5 -58 Q126 -36 88 1 L161 58 Q173 35 191.5 16.5 Q210 -2 240 -2 Q266 -2 282 10 Q298 22 298 48 Q298 70 280 94.5 Q262 119 234.5 146.5 Q207 174 175 203 Q143 232 115.5 263 Q88 294 70 326 Q52 358 52 391 Q52 442 83 471 Q114 500 163 505 Q138 524 125.5 551 Q113 578 113 610 Q113 663 148.5 697.5 Q184 732 257 732 Q303 732 341 708.5 Q379 685 402 652 L333 602 Z " />
<glyph glyph-name="currency" unicode="&#xa4;" horiz-adv-x="444" d="M110 361 Q110 336 119 314.5 Q128 293 143 277.5 Q158 262 178.5 253 Q199 244 222 244 Q245 244 265.5 253 Q286 262 301 277.5 Q316 293 325 314.5 Q334 336 334 361 Q334 386 325 407 Q316 428 301 444 Q286 460 265.5 469 Q245 478 222 478 Q199 478 178.5 469 Q158 460 143 444 Q128 428 119 407 Q110 386 110 361 Z M386 146 L338 194 Q314 177 284 167.5 Q254 158 222 158 Q189 158 159 167.5 Q129 177 105 194 L58 146 L8 199 L55 245 Q38 269 28 299 Q18 329 18 361 Q18 393 28 423 Q38 453 55 477 L8 523 L58 576 L105 528 Q129 545 159 554.5 Q189 564 222 564 Q254 564 284 554.5 Q314 545 338 528 L386 576 L436 523 L389 477 Q406 453 416 423 Q426 393 426 361 Q426 329 416 299 Q406 269 389 245 L436 199 L386 146 Z " />
<glyph glyph-name="quotesingle" unicode="&#x27;" horiz-adv-x="222" d="M64 722 L158 722 L158 448 L64 448 L64 722 Z " />
<glyph glyph-name="quotedblleft" unicode="&#x201c;" horiz-adv-x="444" d="M255 608 L324 732 L377 732 L328 608 L373 608 L373 490 L255 490 L255 608 Z M70 608 L139 732 L192 732 L143 608 L188 608 L188 490 L70 490 L70 608 Z " />
<glyph glyph-name="guillemotleft" unicode="&#xab;" horiz-adv-x="500" d="M441 115 L345 115 L230 270 L345 423 L444 423 L327 269 L441 115 Z M274 115 L178 115 L63 270 L178 423 L277 423 L160 269 L274 115 Z " />
<glyph glyph-name="guilsinglleft" unicode="&#x2039;" horiz-adv-x="333" d="M274 115 L178 115 L63 270 L178 423 L277 423 L160 269 L274 115 Z " />
<glyph glyph-name="guilsinglright" unicode="&#x203a;" horiz-adv-x="333" d="M173 269 L56 423 L155 423 L270 270 L155 115 L59 115 L173 269 Z " />
<glyph glyph-name="fi" unicode="&#xfb01;" horiz-adv-x="444" d="M277 620 L277 722 L389 722 L389 620 L277 620 Z M277 0 L277 538 L389 538 L389 0 L277 0 Z M62 446 L-4 446 L-4 538 L62 538 L62 605 Q62 671 94.5 701.5 Q127 732 187 732 L243 732 L243 640 L211 640 Q191 640 182.5 632 Q174 624 174 604 L174 538 L238 538 L238 446 L174 446 L174 0 L62 0 L62 446 Z " />
<glyph glyph-name="fl" unicode="&#xfb02;" horiz-adv-x="444" d="M277 0 L277 722 L389 722 L389 0 L277 0 Z M62 446 L-4 446 L-4 538 L62 538 L62 605 Q62 671 94.5 701.5 Q127 732 187 732 L243 732 L243 640 L211 640 Q191 640 182.5 632 Q174 624 174 604 L174 538 L238 538 L238 446 L174 446 L174 0 L62 0 L62 446 Z " />
<glyph glyph-name="endash" unicode="&#x2013;" horiz-adv-x="500" d="M0 233 L0 305 L500 305 L500 233 L0 233 Z " />
<glyph glyph-name="dagger" unicode="&#x2020;" horiz-adv-x="500" d="M434 450 L267 492 L312 323 Q297 272 288 170 Q279 68 269 -80 L231 -80 Q221 68 212 170 Q203 272 188 323 L233 492 L66 450 L66 574 L229 532 L190 732 L310 732 L271 532 L434 574 L434 450 Z " />
<glyph glyph-name="daggerdbl" unicode="&#x2021;" horiz-adv-x="500" d="M434 450 L267 492 L312 326 L267 160 L434 202 L434 78 L271 120 L310 -80 L190 -80 L229 120 L66 78 L66 202 L233 160 L188 326 L233 492 L66 450 L66 574 L229 532 L190 732 L310 732 L271 532 L434 574 L434 450 Z " />
<glyph glyph-name="&amp;#xb7;" unicode="&#xb7;" horiz-adv-x="222" d="M44 253 Q44 281 63 300.5 Q82 320 111 320 Q139 320 158.5 300.5 Q178 281 178 253 Q178 224 158.5 205 Q139 186 111 186 Q82 186 63 205 Q44 224 44 253 Z " />
<glyph glyph-name="&amp;#x2219;" unicode="&#x2219;" horiz-adv-x="222" d="M44 253 Q44 281 63 300.5 Q82 320 111 320 Q139 320 158.5 300.5 Q178 281 178 253 Q178 224 158.5 205 Q139 186 111 186 Q82 186 63 205 Q44 224 44 253 Z " />
<glyph glyph-name="paragraph" unicode="&#xb6;" horiz-adv-x="500" d="M195 352 Q151 352 116 365.5 Q81 379 56.5 403.5 Q32 428 19 461.5 Q6 495 6 534 Q6 584 20.5 620 Q35 656 62 678.5 Q89 701 127.5 711.5 Q166 722 214 722 L502 722 L502 658 L446 658 L446 -80 L364 -80 L364 658 L277 658 L277 -80 L195 -80 L195 352 Z " />
<glyph glyph-name="bullet" unicode="&#x2022;" horiz-adv-x="500" d="M69 361 Q69 398 83 431 Q97 464 121.5 488.5 Q146 513 178.5 527 Q211 541 249 541 Q286 541 319 527 Q352 513 377 488.5 Q402 464 416 431 Q430 398 430 361 Q430 323 416 290.5 Q402 258 377 233 Q352 208 319 194 Q286 180 249 180 Q211 180 178.5 194 Q146 208 121.5 233 Q97 258 83 290.5 Q69 323 69 361 Z " />
<glyph glyph-name="quotesinglbase" unicode="&#x201a;" horiz-adv-x="222" d="M170 0 L101 -124 L48 -124 L97 0 L52 0 L52 118 L170 118 L170 0 Z " />
<glyph glyph-name="quotedblbase" unicode="&#x201e;" horiz-adv-x="444" d="M189 0 L120 -124 L67 -124 L116 0 L71 0 L71 118 L189 118 L189 0 Z M374 0 L305 -124 L252 -124 L301 0 L256 0 L256 118 L374 118 L374 0 Z " />
<glyph glyph-name="quotedblright" unicode="&#x201d;" horiz-adv-x="444" d="M189 604 L120 480 L67 480 L116 604 L71 604 L71 722 L189 722 L189 604 Z M374 604 L305 480 L252 480 L301 604 L256 604 L256 722 L374 722 L374 604 Z " />
<glyph glyph-name="guillemotright" unicode="&#xbb;" horiz-adv-x="500" d="M173 269 L56 423 L155 423 L270 270 L155 115 L59 115 L173 269 Z M340 269 L223 423 L322 423 L437 270 L322 115 L226 115 L340 269 Z " />
<glyph glyph-name="ellipsis" unicode="&#x2026;" horiz-adv-x="1000" d="M443 0 L443 118 L557 118 L557 0 L443 0 Z M776 0 L776 118 L890 118 L890 0 L776 0 Z M110 0 L110 118 L224 118 L224 0 L110 0 Z " />
<glyph glyph-name="perthousand" unicode="&#x2030;" horiz-adv-x="1000" d="M94 572 Q94 543 114.5 522.5 Q135 502 164 502 Q193 502 213.5 522.5 Q234 543 234 572 Q234 601 213.5 621.5 Q193 642 164 642 Q135 642 114.5 621.5 Q94 601 94 572 Z M766 150 Q766 121 786.5 100.5 Q807 80 836 80 Q865 80 885.5 100.5 Q906 121 906 150 Q906 179 885.5 199.5 Q865 220 836 220 Q807 220 786.5 199.5 Q766 179 766 150 Z M412 150 Q412 121 432.5 100.5 Q453 80 482 80 Q511 80 531.5 100.5 Q552 121 552 150 Q552 179 531.5 199.5 Q511 220 482 220 Q453 220 432.5 199.5 Q412 179 412 150 Z M507 732 L577 732 L166 -10 L96 -10 L507 732 Z M332 150 Q332 181 344 208.5 Q356 236 376 256 Q396 276 423.5 288 Q451 300 482 300 Q513 300 540.5 288 Q568 276 588 256 Q608 236 620 208.5 Q632 181 632 150 Q632 119 620 91.5 Q608 64 588 44 Q568 24 540.5 12 Q513 0 482 0 Q451 0 423.5 12 Q396 24 376 44 Q356 64 344 91.5 Q332 119 332 150 Z M686 150 Q686 181 698 208.5 Q710 236 730 256 Q750 276 777.5 288 Q805 300 836 300 Q867 300 894.5 288 Q922 276 942 256 Q962 236 974 208.5 Q986 181 986 150 Q986 119 974 91.5 Q962 64 942 44 Q922 24 894.5 12 Q867 0 836 0 Q805 0 777.5 12 Q750 24 730 44 Q710 64 698 91.5 Q686 119 686 150 Z M14 572 Q14 603 26 630.5 Q38 658 58 678 Q78 698 105.5 710 Q133 722 164 722 Q195 722 222.5 710 Q250 698 270 678 Q290 658 302 630.5 Q314 603 314 572 Q314 541 302 513.5 Q290 486 270 466 Q250 446 222.5 434 Q195 422 164 422 Q133 422 105.5 434 Q78 446 58 466 Q38 486 26 513.5 Q14 541 14 572 Z " />
<glyph glyph-name="questiondown" unicode="&#xbf;" horiz-adv-x="389" d="M265 538 L265 420 L147 420 L147 538 L265 538 Z M252 326 L252 242 Q252 190 236 147.5 Q220 105 200 69 Q180 33 164 2 Q148 -29 148 -57 Q148 -75 159.5 -88.5 Q171 -102 190 -102 Q206 -102 217.5 -95 Q229 -88 237.5 -77 Q246 -66 252 -52.5 Q258 -39 261 -26 L357 -62 Q334 -128 291 -161 Q248 -194 176 -194 Q148 -194 122 -184 Q96 -174 76 -156 Q56 -138 44 -113.5 Q32 -89 32 -60 Q32 -32 37.5 -10.5 Q43 11 51.5 29 Q60 47 71 63 Q82 79 94 95 Q106 111 117 128 Q128 145 136.5 166 Q145 187 150.5 213 Q156 239 156 272 L156 326 L252 326 Z " />
<glyph glyph-name="grave" unicode="&#x60;" horiz-adv-x="222" d="M-32 746 L103 746 L182 602 L99 602 L-32 746 Z " />
<glyph glyph-name="acute" unicode="&#xb4;" horiz-adv-x="222" d="M123 602 L40 602 L119 746 L254 746 L123 602 Z " />
<glyph glyph-name="circumflex" unicode="&#x2c6;" horiz-adv-x="222" d="M56 746 L166 746 L262 602 L170 602 L111 691 L52 602 L-40 602 L56 746 Z " />
<glyph glyph-name="tilde" unicode="&#x2dc;" horiz-adv-x="222" d="M274 733 Q270 712 262.5 690.5 Q255 669 243 652.5 Q231 636 213.5 625.5 Q196 615 171 615 Q153 615 137 621 Q121 627 106 635 Q91 643 76.5 648.5 Q62 654 46 654 Q23 654 14 643 Q5 632 4 610 L-52 610 Q-48 631 -41 652.5 Q-34 674 -22 690.5 Q-10 707 8 717.5 Q26 728 51 728 Q69 728 85 722 Q101 716 116 709 Q131 702 145.5 695.5 Q160 689 176 689 Q199 689 208 700 Q217 711 218 733 L274 733 Z " />
<glyph glyph-name="&amp;#xaf;" unicode="&#xaf;" horiz-adv-x="222" d="M-36 701 L258 701 L258 637 L-36 637 L-36 701 Z " />
<glyph glyph-name="&amp;#x2c9;" unicode="&#x2c9;" horiz-adv-x="222" d="M-36 701 L258 701 L258 637 L-36 637 L-36 701 Z " />
<glyph glyph-name="breve" unicode="&#x2d8;" horiz-adv-x="222" d="M258 749 Q256 720 246.5 694.5 Q237 669 219 649.5 Q201 630 174 618.5 Q147 607 111 607 Q75 607 48 618.5 Q21 630 3 649.5 Q-15 669 -24.5 694.5 Q-34 720 -36 749 L22 749 Q27 710 49 692.5 Q71 675 111 675 Q151 675 173 692.5 Q195 710 200 749 L258 749 Z " />
<glyph glyph-name="dotaccent" unicode="&#x2d9;" horiz-adv-x="222" d="M165 722 L165 614 L57 614 L57 722 L165 722 Z " />
<glyph glyph-name="dieresis" unicode="&#xa8;" horiz-adv-x="222" d="M86 722 L86 614 L-22 614 L-22 722 L86 722 Z M136 614 L136 722 L244 722 L244 614 L136 614 Z " />
<glyph glyph-name="ring" unicode="&#x2da;" horiz-adv-x="222" d="M59 704 Q59 682 74 667 Q89 652 111 652 Q133 652 148 667 Q163 682 163 704 Q163 726 148 741 Q133 756 111 756 Q89 756 74 741 Q59 726 59 704 Z M9 704 Q9 725 17 743.5 Q25 762 39 776 Q53 790 71.5 798 Q90 806 111 806 Q132 806 150.5 798 Q169 790 183 776 Q197 762 205 743.5 Q213 725 213 704 Q213 683 205 664.5 Q197 646 183 632 Q169 618 150.5 610 Q132 602 111 602 Q90 602 71.5 610 Q53 618 39 632 Q25 646 17 664.5 Q9 683 9 704 Z " />
<glyph glyph-name="cedilla" unicode="&#xb8;" horiz-adv-x="222" d="M8 -163 Q20 -169 39.5 -174.5 Q59 -180 73 -180 Q99 -180 115.5 -168 Q132 -156 132 -139 Q132 -124 123 -116 Q114 -108 101 -105 Q88 -102 73.5 -104 Q59 -106 49 -110 L27 -92 L95 0 L143 0 L102 -60 Q107 -59 112.5 -58.5 Q118 -58 123 -58 Q139 -59 155.5 -64 Q172 -69 185 -78 Q198 -87 206 -101 Q214 -115 214 -134 Q214 -158 203.5 -177 Q193 -196 176 -209 Q159 -222 136.5 -229 Q114 -236 90 -236 Q54 -236 28 -227 Q2 -218 -9 -213 L8 -163 Z " />
<glyph glyph-name="hungarumlaut" unicode="&#x2dd;" horiz-adv-x="222" d="M33 602 L-46 602 L23 746 L158 746 L33 602 Z M203 602 L120 602 L199 746 L334 746 L203 602 Z " />
<glyph glyph-name="ogonek" unicode="&#x2db;" horiz-adv-x="222" d="M243 9 Q224 1 201 -10 Q178 -21 157.5 -36 Q137 -51 123.5 -71 Q110 -91 110 -116 Q110 -139 124.5 -151 Q139 -163 159 -163 Q182 -163 206.5 -149.5 Q231 -136 249 -123 L268 -159 Q236 -182 201 -200.5 Q166 -219 126 -219 Q85 -219 56.5 -195.5 Q28 -172 28 -127 Q28 -88 51 -61.5 Q74 -35 107.5 -18.5 Q141 -2 178 7 Q215 16 243 21 L243 9 Z " />
<glyph glyph-name="caron" unicode="&#x2c7;" horiz-adv-x="222" d="M166 602 L56 602 L-40 746 L52 746 L111 657 L170 746 L262 746 L166 602 Z " />
<glyph glyph-name="emdash" unicode="&#x2014;" horiz-adv-x="1000" d="M0 233 L0 305 L1000 305 L1000 233 L0 233 Z " />
<glyph glyph-name="AE" unicode="&#xc6;" horiz-adv-x="722" d="M334 278 L334 632 L332 632 L224 278 L334 278 Z M245 722 L670 722 L670 614 L458 614 L458 428 L622 428 L622 320 L458 320 L458 108 L684 108 L684 0 L334 0 L334 170 L190 170 L138 0 L12 0 L245 722 Z " />
<glyph glyph-name="ordfeminine" unicode="&#xaa;" horiz-adv-x="266" d="M164 559 Q141 547 127 537.5 Q113 528 105 519 Q97 510 94.5 501 Q92 492 92 482 Q92 456 121 456 Q136 456 147.5 465 Q159 474 164 486 L164 559 Z M14 631 Q17 680 49.5 706 Q82 732 136 732 Q187 732 214.5 710.5 Q242 689 242 644 L242 436 Q242 428 243.5 419 Q245 410 247 402 L177 402 Q177 407 175.5 412 Q174 417 173 423 Q153 408 133.5 402 Q114 396 88 396 Q51 396 32.5 416.5 Q14 437 14 469 Q14 522 52 555 Q90 588 164 616 L164 635 Q164 655 156 663.5 Q148 672 130 672 Q108 672 100.5 660.5 Q93 649 92 631 L14 631 Z " />
<glyph glyph-name="Oslash" unicode="&#xd8;" horiz-adv-x="500" d="M197 121 Q209 98 250 98 Q288 98 302 117.5 Q316 137 316 178 L316 424 L314 424 L197 121 Z M312 582 Q307 603 292.5 613.5 Q278 624 250 624 Q212 624 198 604.5 Q184 585 184 544 L184 257 L186 257 L312 582 Z M110 -120 L28 -120 L97 56 Q78 80 69 110 Q60 140 60 175 L60 547 Q60 585 71.5 619 Q83 653 106.5 678 Q130 703 165.5 717.5 Q201 732 250 732 Q311 732 353 708 L391 804 L472 804 L413 652 Q440 608 440 547 L440 175 Q440 137 428.5 103 Q417 69 393.5 44 Q370 19 334.5 4.5 Q299 -10 250 -10 Q199 -10 160 7 L110 -120 Z " />
<glyph glyph-name="OE" unicode="&#x152;" horiz-adv-x="722" d="M330 540 Q330 581 311 598 Q292 615 261 615 Q219 615 201.5 588.5 Q184 562 184 520 L184 205 Q184 163 201.5 136.5 Q219 110 261 110 Q292 110 311 127 Q330 144 330 185 L330 540 Z M270 0 Q166 0 113 56.5 Q60 113 60 220 L60 502 Q60 609 113 665.5 Q166 722 270 722 L670 722 L670 614 L454 614 L454 428 L622 428 L622 320 L454 320 L454 108 L684 108 L684 0 L270 0 Z " />
<glyph glyph-name="ordmasculine" unicode="&#xba;" horiz-adv-x="266" d="M164 619 Q164 668 133 668 Q102 668 102 619 L102 509 Q102 460 133 460 Q164 460 164 509 L164 619 Z M20 612 Q20 665 45.5 698.5 Q71 732 133 732 Q196 732 221 699 Q246 666 246 612 L246 517 Q246 463 221 429.5 Q196 396 133 396 Q71 396 45.5 430 Q20 464 20 517 L20 612 Z " />
<glyph glyph-name="ae" unicode="&#xe6;" horiz-adv-x="667" d="M507 340 L507 368 Q507 415 491 435.5 Q475 456 445 456 Q415 456 399.5 435.5 Q384 415 384 368 L384 340 L507 340 Z M272 273 Q234 251 209.5 233 Q185 215 171 198 Q157 181 151.5 165 Q146 149 146 131 Q146 105 159 93.5 Q172 82 198 82 Q221 82 239.5 97 Q258 112 272 132 L272 273 Z M384 248 L384 170 Q384 123 399.5 102.5 Q415 82 445 82 Q475 82 491 102.5 Q507 123 507 170 L507 182 L619 182 Q618 139 608.5 104 Q599 69 578 43.5 Q557 18 524.5 4 Q492 -10 445 -10 Q395 -10 361.5 9 Q328 28 309 60 Q282 36 259.5 22 Q237 8 219 1 Q201 -6 186.5 -8 Q172 -10 160 -10 Q94 -10 64 24.5 Q34 59 34 111 Q34 155 48.5 190 Q63 225 93 254 Q123 283 167.5 307.5 Q212 332 272 355 L272 387 Q272 456 218 456 Q180 456 168 435.5 Q156 415 154 380 L42 380 Q47 462 93 505 Q139 548 206 548 Q293 548 335 498 Q355 524 385.5 536 Q416 548 454 548 Q499 548 530 533.5 Q561 519 581 492.5 Q601 466 610 429 Q619 392 619 348 L619 248 L384 248 Z " />
<glyph glyph-name="dotlessi" unicode="&#x131;" horiz-adv-x="222" d="M55 0 L55 538 L167 538 L167 0 L55 0 Z " />
<glyph glyph-name="oslash" unicode="&#xf8;" horiz-adv-x="444" d="M184 94 Q200 82 222 82 Q252 82 268 102.5 Q284 123 284 170 L284 353 L282 353 L184 94 Z M262 442 Q248 456 222 456 Q192 456 176 435.5 Q160 415 160 368 L160 173 L162 173 L262 442 Z M108 -120 L42 -120 L100 33 Q72 60 60 100 Q48 140 48 190 L48 348 Q48 392 57 429 Q66 466 87 492.5 Q108 519 141 533.5 Q174 548 222 548 Q260 548 293 537 L334 646 L402 646 L348 503 Q374 476 385 436.5 Q396 397 396 348 L396 190 Q396 146 387 109 Q378 72 357 45.5 Q336 19 303 4.5 Q270 -10 222 -10 Q183 -10 153 1 L108 -120 Z " />
<glyph glyph-name="oe" unicode="&#x153;" horiz-adv-x="667" d="M507 340 L507 368 Q507 415 491 435.5 Q475 456 445 456 Q415 456 402.5 435.5 Q390 415 390 368 L390 340 L507 340 Z M278 368 Q278 415 263 435.5 Q248 456 222 456 Q192 456 176 435.5 Q160 415 160 368 L160 170 Q160 123 176 102.5 Q192 82 222 82 Q248 82 263 102.5 Q278 123 278 170 L278 368 Z M390 248 L390 170 Q390 123 402.5 102.5 Q415 82 445 82 Q475 82 491 102.5 Q507 123 507 170 L507 182 L619 182 Q618 139 608.5 104 Q599 69 579.5 43.5 Q560 18 529.5 4 Q499 -10 457 -10 Q411 -10 382 6.5 Q353 23 336 52 Q320 23 290.5 6.5 Q261 -10 210 -10 Q166 -10 135.5 4.5 Q105 19 85.5 45.5 Q66 72 57 109 Q48 146 48 190 L48 348 Q48 392 57 429 Q66 466 85.5 492.5 Q105 519 135.5 533.5 Q166 548 210 548 Q262 548 292 533 Q322 518 338 487 Q374 548 457 548 Q500 548 531 533.5 Q562 519 581.5 492.5 Q601 466 610 429 Q619 392 619 348 L619 248 L390 248 Z " />
<glyph glyph-name="germandbls" unicode="&#xdf;" horiz-adv-x="444" d="M54 0 L54 540 Q54 634 95.5 681 Q137 728 213 728 Q263 728 296 712.5 Q329 697 348.5 670.5 Q368 644 375.5 608 Q383 572 383 531 Q383 471 366 436.5 Q349 402 310 397 L310 395 Q358 380 380 335.5 Q402 291 402 204 Q402 145 394.5 105.5 Q387 66 372 42.5 Q357 19 335.5 9.5 Q314 0 286 0 L220 0 L220 95 Q232 92 247 92 Q270 92 278 108.5 Q286 125 286 159 L286 260 Q286 301 270 319.5 Q254 338 224 338 L224 430 Q239 432 248 436 Q257 440 262 448 Q267 456 269 469 Q271 482 271 502 L271 572 Q271 607 258 621.5 Q245 636 219 636 Q190 636 178 618.5 Q166 601 166 562 L166 0 L54 0 Z " />
<glyph glyph-name="logicalnot" unicode="&#xac;" horiz-adv-x="600" d="M455 308 L47 308 L47 406 L553 406 L553 99 L455 99 L455 308 Z " />
<glyph glyph-name="&amp;#xb5;" unicode="&#xb5;" horiz-adv-x="444" d="M390 538 L390 0 L284 0 L284 54 Q268 40 255 29.5 Q242 19 228.5 10.5 Q215 2 200 -3 Q185 -8 166 -10 L166 -170 L54 -170 L54 538 L166 538 L166 121 Q166 101 177 91.5 Q188 82 206 82 Q224 82 241 92 Q258 102 278 116 L278 538 L390 538 Z " />
<glyph glyph-name="&amp;#x3bc;" unicode="&#x3bc;" horiz-adv-x="444" d="M390 538 L390 0 L284 0 L284 54 Q268 40 255 29.5 Q242 19 228.5 10.5 Q215 2 200 -3 Q185 -8 166 -10 L166 -170 L54 -170 L54 538 L166 538 L166 121 Q166 101 177 91.5 Q188 82 206 82 Q224 82 241 92 Q258 102 278 116 L278 538 L390 538 Z " />
<glyph glyph-name="trademark" unicode="&#x2122;" horiz-adv-x="990" d="M370 647 L250 647 L250 310 L154 310 L154 647 L34 647 L34 722 L370 722 L370 647 Z M662 451 L765 722 L900 722 L900 310 L808 310 L808 612 L806 612 L696 310 L627 310 L517 612 L515 612 L515 310 L423 310 L423 722 L559 722 L662 451 Z " />
<glyph glyph-name="plusminus" unicode="&#xb1;" horiz-adv-x="600" d="M47 98 L553 98 L553 0 L47 0 L47 98 Z M251 506 L349 506 L349 369 L553 369 L553 271 L349 271 L349 134 L251 134 L251 271 L47 271 L47 369 L251 369 L251 506 Z " />
<glyph glyph-name="divide" unicode="&#xf7;" horiz-adv-x="600" d="M220 460 Q220 493 243.5 516.5 Q267 540 300 540 Q333 540 356.5 516.5 Q380 493 380 460 Q380 427 356.5 403.5 Q333 380 300 380 Q267 380 243.5 403.5 Q220 427 220 460 Z M220 46 Q220 79 243.5 102.5 Q267 126 300 126 Q333 126 356.5 102.5 Q380 79 380 46 Q380 13 356.5 -10.5 Q333 -34 300 -34 Q267 -34 243.5 -10.5 Q220 13 220 46 Z M47 204 L47 302 L553 302 L553 204 L47 204 Z " />
<glyph glyph-name="degree" unicode="&#xb0;" horiz-adv-x="400" d="M200 502 Q236 502 259 527.5 Q282 553 282 589 Q282 625 259 650.5 Q236 676 200 676 Q164 676 141 650.5 Q118 625 118 589 Q118 553 141 527.5 Q164 502 200 502 Z M200 446 Q170 446 143.5 457 Q117 468 97.5 487.5 Q78 507 67 533 Q56 559 56 589 Q56 619 67 645 Q78 671 97.5 690.5 Q117 710 143.5 721 Q170 732 200 732 Q230 732 256.5 721 Q283 710 302.5 690.5 Q322 671 333 645 Q344 619 344 589 Q344 559 333 533 Q322 507 302.5 487.5 Q283 468 256.5 457 Q230 446 200 446 Z " />
<glyph glyph-name="registered" unicode="&#xae;" horiz-adv-x="800" d="M334 395 L405 395 Q450 395 468 409.5 Q486 424 486 453 Q486 482 466 493.5 Q446 505 401 505 L334 505 L334 395 Z M334 154 L252 154 L252 569 L409 569 Q487 569 528.5 541.5 Q570 514 570 446 Q570 417 562 397 Q554 377 540.5 364 Q527 351 508.5 344 Q490 337 470 335 L570 154 L479 154 L386 331 L334 331 L334 154 Z M682 361 Q682 425 660 479 Q638 533 599.5 572 Q561 611 509.5 632.5 Q458 654 400 654 Q341 654 289.5 632.5 Q238 611 200 572 Q162 533 140 479 Q118 425 118 361 Q118 297 140 243 Q162 189 200 150 Q238 111 289.5 89.5 Q341 68 400 68 Q458 68 509.5 89.5 Q561 111 599.5 150 Q638 189 660 243 Q682 297 682 361 Z M400 -10 Q325 -10 256 16 Q187 42 134.5 90.5 Q82 139 51 207.5 Q20 276 20 361 Q20 445 51 513.5 Q82 582 134.5 630.5 Q187 679 256 705.5 Q325 732 400 732 Q475 732 544 705.5 Q613 679 665.5 630.5 Q718 582 749 513.5 Q780 445 780 361 Q780 276 749 207.5 Q718 139 665.5 90.5 Q613 42 544 16 Q475 -10 400 -10 Z " />
<glyph glyph-name="copyright" unicode="&#xa9;" horiz-adv-x="800" d="M595 299 Q589 262 572 233 Q555 204 531 183.5 Q507 163 477 152.5 Q447 142 414 142 Q366 142 327 159 Q288 176 260 206 Q232 236 217 276 Q202 316 202 363 Q202 411 216.5 451.5 Q231 492 258 521.5 Q285 551 324 567.5 Q363 584 412 584 Q446 584 476.5 574 Q507 564 530.5 544.5 Q554 525 570 496.5 Q586 468 592 430 L514 430 Q506 468 478 487 Q450 506 412 506 Q355 506 325.5 467 Q296 428 296 365 Q296 335 304.5 308.5 Q313 282 328.5 262.5 Q344 243 365.5 231.5 Q387 220 414 220 Q456 220 482.5 240.5 Q509 261 514 299 L595 299 Z M682 361 Q682 425 660 479 Q638 533 599.5 572 Q561 611 509.5 632.5 Q458 654 400 654 Q341 654 289.5 632.5 Q238 611 200 572 Q162 533 140 479 Q118 425 118 361 Q118 297 140 243 Q162 189 200 150 Q238 111 289.5 89.5 Q341 68 400 68 Q458 68 509.5 89.5 Q561 111 599.5 150 Q638 189 660 243 Q682 297 682 361 Z M400 -10 Q325 -10 256 16 Q187 42 134.5 90.5 Q82 139 51 207.5 Q20 276 20 361 Q20 445 51 513.5 Q82 582 134.5 630.5 Q187 679 256 705.5 Q325 732 400 732 Q475 732 544 705.5 Q613 679 665.5 630.5 Q718 582 749 513.5 Q780 445 780 361 Q780 276 749 207.5 Q718 139 665.5 90.5 Q613 42 544 16 Q475 -10 400 -10 Z " />
<glyph glyph-name="numbersign" unicode="&#x23;" horiz-adv-x="444" d="M192 430 L176 292 L256 292 L272 430 L192 430 Z M408 214 L336 214 L312 0 L222 0 L247 214 L166 214 L142 0 L51 0 L76 214 L10 214 L10 292 L86 292 L101 430 L35 430 L35 508 L111 508 L136 722 L225 722 L200 508 L281 508 L306 722 L395 722 L370 508 L434 508 L434 430 L362 430 L346 292 L408 292 L408 214 Z " />
<glyph glyph-name="Aacute" unicode="&#xc1;" horiz-adv-x="444" d="M234 760 L151 760 L230 904 L365 904 L234 760 Z M172 268 L272 268 L223 578 L221 578 L172 268 Z M132 0 L12 0 L145 722 L299 722 L432 0 L312 0 L290 160 L154 160 L132 0 Z " />
<glyph glyph-name="Acircumflex" unicode="&#xc2;" horiz-adv-x="444" d="M172 268 L272 268 L223 578 L221 578 L172 268 Z M167 904 L277 904 L373 760 L281 760 L222 849 L163 760 L71 760 L167 904 Z M132 0 L12 0 L145 722 L299 722 L432 0 L312 0 L290 160 L154 160 L132 0 Z " />
<glyph glyph-name="Adieresis" unicode="&#xc4;" horiz-adv-x="444" d="M197 880 L197 772 L89 772 L89 880 L197 880 Z M247 772 L247 880 L355 880 L355 772 L247 772 Z M172 268 L272 268 L223 578 L221 578 L172 268 Z M132 0 L12 0 L145 722 L299 722 L432 0 L312 0 L290 160 L154 160 L132 0 Z " />
<glyph glyph-name="Agrave" unicode="&#xc0;" horiz-adv-x="444" d="M79 904 L214 904 L293 760 L210 760 L79 904 Z M172 268 L272 268 L223 578 L221 578 L172 268 Z M132 0 L12 0 L145 722 L299 722 L432 0 L312 0 L290 160 L154 160 L132 0 Z " />
<glyph glyph-name="Aring" unicode="&#xc5;" horiz-adv-x="444" d="M170 862 Q170 840 185 825 Q200 810 222 810 Q244 810 259 825 Q274 840 274 862 Q274 884 259 899 Q244 914 222 914 Q200 914 185 899 Q170 884 170 862 Z M172 268 L272 268 L223 578 L221 578 L172 268 Z M120 862 Q120 883 128 901.5 Q136 920 150 934 Q164 948 182.5 956 Q201 964 222 964 Q243 964 261.5 956 Q280 948 294 934 Q308 920 316 901.5 Q324 883 324 862 Q324 841 316 822.5 Q308 804 294 790 Q280 776 261.5 768 Q243 760 222 760 Q201 760 182.5 768 Q164 776 150 790 Q136 804 128 822.5 Q120 841 120 862 Z M132 0 L12 0 L145 722 L299 722 L432 0 L312 0 L290 160 L154 160 L132 0 Z " />
<glyph glyph-name="Atilde" unicode="&#xc3;" horiz-adv-x="444" d="M172 268 L272 268 L223 578 L221 578 L172 268 Z M385 891 Q381 870 373.5 848.5 Q366 827 354 810.5 Q342 794 324.5 783.5 Q307 773 282 773 Q264 773 248 779 Q232 785 217 793 Q202 801 187.5 806.5 Q173 812 157 812 Q134 812 125 801 Q116 790 115 768 L59 768 Q63 789 70 810.5 Q77 832 89 848.5 Q101 865 119 875.5 Q137 886 162 886 Q180 886 196 880 Q212 874 227 867 Q242 860 256.5 853.5 Q271 847 287 847 Q310 847 319 858 Q328 869 329 891 L385 891 Z M132 0 L12 0 L145 722 L299 722 L432 0 L312 0 L290 160 L154 160 L132 0 Z " />
<glyph glyph-name="Ccedilla" unicode="&#xc7;" horiz-adv-x="500" d="M147 -163 Q159 -169 178.5 -174.5 Q198 -180 212 -180 Q238 -180 254.5 -168 Q271 -156 271 -139 Q271 -124 262 -116 Q253 -108 240 -105 Q227 -102 212.5 -104 Q198 -106 188 -110 L166 -92 L227 -9 Q184 -6 152.5 10 Q121 26 100.5 50.5 Q80 75 70 107 Q60 139 60 175 L60 547 Q60 585 71.5 619 Q83 653 106.5 678 Q130 703 165.5 717.5 Q201 732 250 732 Q296 732 331 716 Q366 700 388.5 673 Q411 646 422.5 610 Q434 574 434 534 L434 481 L310 481 L310 537 Q310 583 292 603.5 Q274 624 250 624 Q212 624 198 604.5 Q184 585 184 544 L184 178 Q184 137 198 117.5 Q212 98 250 98 Q284 98 297 117 Q310 136 310 171 L310 258 L434 258 L434 175 Q434 139 424 107.5 Q414 76 394.5 51.5 Q375 27 345.5 11.5 Q316 -4 276 -8 L241 -60 Q246 -59 251.5 -58.5 Q257 -58 262 -58 Q278 -59 294.5 -64 Q311 -69 324 -78 Q337 -87 345 -101 Q353 -115 353 -134 Q353 -158 342.5 -177 Q332 -196 315 -209 Q298 -222 275.5 -229 Q253 -236 229 -236 Q193 -236 167 -227 Q141 -218 130 -213 L147 -163 Z " />
<glyph glyph-name="Eacute" unicode="&#xc9;" horiz-adv-x="444" d="M246 760 L163 760 L242 904 L377 904 L246 760 Z M60 0 L60 722 L392 722 L392 614 L184 614 L184 428 L344 428 L344 320 L184 320 L184 108 L406 108 L406 0 L60 0 Z " />
<glyph glyph-name="Ecircumflex" unicode="&#xca;" horiz-adv-x="444" d="M179 904 L289 904 L385 760 L293 760 L234 849 L175 760 L83 760 L179 904 Z M60 0 L60 722 L392 722 L392 614 L184 614 L184 428 L344 428 L344 320 L184 320 L184 108 L406 108 L406 0 L60 0 Z " />
<glyph glyph-name="Edieresis" unicode="&#xcb;" horiz-adv-x="444" d="M259 772 L259 880 L367 880 L367 772 L259 772 Z M209 880 L209 772 L101 772 L101 880 L209 880 Z M60 0 L60 722 L392 722 L392 614 L184 614 L184 428 L344 428 L344 320 L184 320 L184 108 L406 108 L406 0 L60 0 Z " />
<glyph glyph-name="Egrave" unicode="&#xc8;" horiz-adv-x="444" d="M91 904 L226 904 L305 760 L222 760 L91 904 Z M60 0 L60 722 L392 722 L392 614 L184 614 L184 428 L344 428 L344 320 L184 320 L184 108 L406 108 L406 0 L60 0 Z " />
<glyph glyph-name="Iacute" unicode="&#xcd;" horiz-adv-x="278" d="M151 760 L68 760 L147 904 L282 904 L151 760 Z M77 0 L77 722 L201 722 L201 0 L77 0 Z " />
<glyph glyph-name="Icircumflex" unicode="&#xce;" horiz-adv-x="278" d="M84 904 L194 904 L290 760 L198 760 L139 849 L80 760 L-12 760 L84 904 Z M77 0 L77 722 L201 722 L201 0 L77 0 Z " />
<glyph glyph-name="Idieresis" unicode="&#xcf;" horiz-adv-x="278" d="M164 772 L164 880 L272 880 L272 772 L164 772 Z M114 880 L114 772 L6 772 L6 880 L114 880 Z M77 0 L77 722 L201 722 L201 0 L77 0 Z " />
<glyph glyph-name="Igrave" unicode="&#xcc;" horiz-adv-x="278" d="M-4 904 L131 904 L210 760 L127 760 L-4 904 Z M77 0 L77 722 L201 722 L201 0 L77 0 Z " />
<glyph glyph-name="Ntilde" unicode="&#xd1;" horiz-adv-x="500" d="M413 891 Q409 870 401.5 848.5 Q394 827 382 810.5 Q370 794 352.5 783.5 Q335 773 310 773 Q292 773 276 779 Q260 785 245 793 Q230 801 215.5 806.5 Q201 812 185 812 Q162 812 153 801 Q144 790 143 768 L87 768 Q91 789 98 810.5 Q105 832 117 848.5 Q129 865 147 875.5 Q165 886 190 886 Q208 886 224 880 Q240 874 255 867 Q270 860 284.5 853.5 Q299 847 315 847 Q338 847 347 858 Q356 869 357 891 L413 891 Z M60 0 L60 722 L175 722 L326 309 L328 309 L328 722 L440 722 L440 0 L332 0 L174 451 L172 451 L172 0 L60 0 Z " />
<glyph glyph-name="Oacute" unicode="&#xd3;" horiz-adv-x="500" d="M262 760 L179 760 L258 904 L393 904 L262 760 Z M184 178 Q184 137 198 117.5 Q212 98 250 98 Q288 98 302 117.5 Q316 137 316 178 L316 544 Q316 585 302 604.5 Q288 624 250 624 Q212 624 198 604.5 Q184 585 184 544 L184 178 Z M60 547 Q60 585 71.5 619 Q83 653 106.5 678 Q130 703 165.5 717.5 Q201 732 250 732 Q299 732 334.5 717.5 Q370 703 393.5 678 Q417 653 428.5 619 Q440 585 440 547 L440 175 Q440 137 428.5 103 Q417 69 393.5 44 Q370 19 334.5 4.5 Q299 -10 250 -10 Q201 -10 165.5 4.5 Q130 19 106.5 44 Q83 69 71.5 103 Q60 137 60 175 L60 547 Z " />
<glyph glyph-name="Ocircumflex" unicode="&#xd4;" horiz-adv-x="500" d="M195 904 L305 904 L401 760 L309 760 L250 849 L191 760 L99 760 L195 904 Z M184 178 Q184 137 198 117.5 Q212 98 250 98 Q288 98 302 117.5 Q316 137 316 178 L316 544 Q316 585 302 604.5 Q288 624 250 624 Q212 624 198 604.5 Q184 585 184 544 L184 178 Z M60 547 Q60 585 71.5 619 Q83 653 106.5 678 Q130 703 165.5 717.5 Q201 732 250 732 Q299 732 334.5 717.5 Q370 703 393.5 678 Q417 653 428.5 619 Q440 585 440 547 L440 175 Q440 137 428.5 103 Q417 69 393.5 44 Q370 19 334.5 4.5 Q299 -10 250 -10 Q201 -10 165.5 4.5 Q130 19 106.5 44 Q83 69 71.5 103 Q60 137 60 175 L60 547 Z " />
<glyph glyph-name="Odieresis" unicode="&#xd6;" horiz-adv-x="500" d="M225 880 L225 772 L117 772 L117 880 L225 880 Z M275 772 L275 880 L383 880 L383 772 L275 772 Z M184 178 Q184 137 198 117.5 Q212 98 250 98 Q288 98 302 117.5 Q316 137 316 178 L316 544 Q316 585 302 604.5 Q288 624 250 624 Q212 624 198 604.5 Q184 585 184 544 L184 178 Z M60 547 Q60 585 71.5 619 Q83 653 106.5 678 Q130 703 165.5 717.5 Q201 732 250 732 Q299 732 334.5 717.5 Q370 703 393.5 678 Q417 653 428.5 619 Q440 585 440 547 L440 175 Q440 137 428.5 103 Q417 69 393.5 44 Q370 19 334.5 4.5 Q299 -10 250 -10 Q201 -10 165.5 4.5 Q130 19 106.5 44 Q83 69 71.5 103 Q60 137 60 175 L60 547 Z " />
<glyph glyph-name="Ograve" unicode="&#xd2;" horiz-adv-x="500" d="M107 904 L242 904 L321 760 L238 760 L107 904 Z M184 178 Q184 137 198 117.5 Q212 98 250 98 Q288 98 302 117.5 Q316 137 316 178 L316 544 Q316 585 302 604.5 Q288 624 250 624 Q212 624 198 604.5 Q184 585 184 544 L184 178 Z M60 547 Q60 585 71.5 619 Q83 653 106.5 678 Q130 703 165.5 717.5 Q201 732 250 732 Q299 732 334.5 717.5 Q370 703 393.5 678 Q417 653 428.5 619 Q440 585 440 547 L440 175 Q440 137 428.5 103 Q417 69 393.5 44 Q370 19 334.5 4.5 Q299 -10 250 -10 Q201 -10 165.5 4.5 Q130 19 106.5 44 Q83 69 71.5 103 Q60 137 60 175 L60 547 Z " />
<glyph glyph-name="Otilde" unicode="&#xd5;" horiz-adv-x="500" d="M413 891 Q409 870 401.5 848.5 Q394 827 382 810.5 Q370 794 352.5 783.5 Q335 773 310 773 Q292 773 276 779 Q260 785 245 793 Q230 801 215.5 806.5 Q201 812 185 812 Q162 812 153 801 Q144 790 143 768 L87 768 Q91 789 98 810.5 Q105 832 117 848.5 Q129 865 147 875.5 Q165 886 190 886 Q208 886 224 880 Q240 874 255 867 Q270 860 284.5 853.5 Q299 847 315 847 Q338 847 347 858 Q356 869 357 891 L413 891 Z M184 178 Q184 137 198 117.5 Q212 98 250 98 Q288 98 302 117.5 Q316 137 316 178 L316 544 Q316 585 302 604.5 Q288 624 250 624 Q212 624 198 604.5 Q184 585 184 544 L184 178 Z M60 547 Q60 585 71.5 619 Q83 653 106.5 678 Q130 703 165.5 717.5 Q201 732 250 732 Q299 732 334.5 717.5 Q370 703 393.5 678 Q417 653 428.5 619 Q440 585 440 547 L440 175 Q440 137 428.5 103 Q417 69 393.5 44 Q370 19 334.5 4.5 Q299 -10 250 -10 Q201 -10 165.5 4.5 Q130 19 106.5 44 Q83 69 71.5 103 Q60 137 60 175 L60 547 Z " />
<glyph glyph-name="Uacute" unicode="&#xda;" horiz-adv-x="500" d="M262 760 L179 760 L258 904 L393 904 L262 760 Z M60 722 L184 722 L184 177 Q184 98 250 98 Q316 98 316 177 L316 722 L440 722 L440 182 Q440 88 389.5 39 Q339 -10 250 -10 Q161 -10 110.5 39 Q60 88 60 182 L60 722 Z " />
<glyph glyph-name="Ucircumflex" unicode="&#xdb;" horiz-adv-x="500" d="M195 904 L305 904 L401 760 L309 760 L250 849 L191 760 L99 760 L195 904 Z M60 722 L184 722 L184 177 Q184 98 250 98 Q316 98 316 177 L316 722 L440 722 L440 182 Q440 88 389.5 39 Q339 -10 250 -10 Q161 -10 110.5 39 Q60 88 60 182 L60 722 Z " />
<glyph glyph-name="Udieresis" unicode="&#xdc;" horiz-adv-x="500" d="M275 772 L275 880 L383 880 L383 772 L275 772 Z M225 880 L225 772 L117 772 L117 880 L225 880 Z M60 722 L184 722 L184 177 Q184 98 250 98 Q316 98 316 177 L316 722 L440 722 L440 182 Q440 88 389.5 39 Q339 -10 250 -10 Q161 -10 110.5 39 Q60 88 60 182 L60 722 Z " />
<glyph glyph-name="Ugrave" unicode="&#xd9;" horiz-adv-x="500" d="M107 904 L242 904 L321 760 L238 760 L107 904 Z M60 722 L184 722 L184 177 Q184 98 250 98 Q316 98 316 177 L316 722 L440 722 L440 182 Q440 88 389.5 39 Q339 -10 250 -10 Q161 -10 110.5 39 Q60 88 60 182 L60 722 Z " />
<glyph glyph-name="Ydieresis" unicode="&#x178;" horiz-adv-x="444" d="M247 772 L247 880 L355 880 L355 772 L247 772 Z M197 880 L197 772 L89 772 L89 880 L197 880 Z M284 0 L160 0 L160 300 L10 722 L136 722 L223 447 L225 447 L308 722 L434 722 L284 300 L284 0 Z " />
<glyph glyph-name="aacute" unicode="&#xe1;" horiz-adv-x="444" d="M234 602 L151 602 L230 746 L365 746 L234 602 Z M273 273 Q235 251 210 233 Q185 215 171 198 Q157 181 151.5 165 Q146 149 146 131 Q146 105 159 93.5 Q172 82 198 82 Q221 82 240 97 Q259 112 273 132 L273 273 Z M42 380 Q47 462 95 505 Q143 548 222 548 Q300 548 342.5 512 Q385 476 385 402 L385 57 Q385 44 387.5 29 Q390 14 392 0 L285 0 Q284 11 282 21.5 Q280 32 279 42 Q247 16 218 3 Q189 -10 148 -10 Q91 -10 62.5 24.5 Q34 59 34 111 Q34 155 48.5 190 Q63 225 93 254 Q123 283 168 307.5 Q213 332 273 355 L273 387 Q273 456 218 456 Q180 456 168 435.5 Q156 415 154 380 L42 380 Z " />
<glyph glyph-name="acircumflex" unicode="&#xe2;" horiz-adv-x="444" d="M273 273 Q235 251 210 233 Q185 215 171 198 Q157 181 151.5 165 Q146 149 146 131 Q146 105 159 93.5 Q172 82 198 82 Q221 82 240 97 Q259 112 273 132 L273 273 Z M167 746 L277 746 L373 602 L281 602 L222 691 L163 602 L71 602 L167 746 Z M42 380 Q47 462 95 505 Q143 548 222 548 Q300 548 342.5 512 Q385 476 385 402 L385 57 Q385 44 387.5 29 Q390 14 392 0 L285 0 Q284 11 282 21.5 Q280 32 279 42 Q247 16 218 3 Q189 -10 148 -10 Q91 -10 62.5 24.5 Q34 59 34 111 Q34 155 48.5 190 Q63 225 93 254 Q123 283 168 307.5 Q213 332 273 355 L273 387 Q273 456 218 456 Q180 456 168 435.5 Q156 415 154 380 L42 380 Z " />
<glyph glyph-name="adieresis" unicode="&#xe4;" horiz-adv-x="444" d="M197 722 L197 614 L89 614 L89 722 L197 722 Z M247 614 L247 722 L355 722 L355 614 L247 614 Z M273 273 Q235 251 210 233 Q185 215 171 198 Q157 181 151.5 165 Q146 149 146 131 Q146 105 159 93.5 Q172 82 198 82 Q221 82 240 97 Q259 112 273 132 L273 273 Z M42 380 Q47 462 95 505 Q143 548 222 548 Q300 548 342.5 512 Q385 476 385 402 L385 57 Q385 44 387.5 29 Q390 14 392 0 L285 0 Q284 11 282 21.5 Q280 32 279 42 Q247 16 218 3 Q189 -10 148 -10 Q91 -10 62.5 24.5 Q34 59 34 111 Q34 155 48.5 190 Q63 225 93 254 Q123 283 168 307.5 Q213 332 273 355 L273 387 Q273 456 218 456 Q180 456 168 435.5 Q156 415 154 380 L42 380 Z " />
<glyph glyph-name="agrave" unicode="&#xe0;" horiz-adv-x="444" d="M79 746 L214 746 L293 602 L210 602 L79 746 Z M273 273 Q235 251 210 233 Q185 215 171 198 Q157 181 151.5 165 Q146 149 146 131 Q146 105 159 93.5 Q172 82 198 82 Q221 82 240 97 Q259 112 273 132 L273 273 Z M42 380 Q47 462 95 505 Q143 548 222 548 Q300 548 342.5 512 Q385 476 385 402 L385 57 Q385 44 387.5 29 Q390 14 392 0 L285 0 Q284 11 282 21.5 Q280 32 279 42 Q247 16 218 3 Q189 -10 148 -10 Q91 -10 62.5 24.5 Q34 59 34 111 Q34 155 48.5 190 Q63 225 93 254 Q123 283 168 307.5 Q213 332 273 355 L273 387 Q273 456 218 456 Q180 456 168 435.5 Q156 415 154 380 L42 380 Z " />
<glyph glyph-name="aring" unicode="&#xe5;" horiz-adv-x="444" d="M170 704 Q170 682 185 667 Q200 652 222 652 Q244 652 259 667 Q274 682 274 704 Q274 726 259 741 Q244 756 222 756 Q200 756 185 741 Q170 726 170 704 Z M273 273 Q235 251 210 233 Q185 215 171 198 Q157 181 151.5 165 Q146 149 146 131 Q146 105 159 93.5 Q172 82 198 82 Q221 82 240 97 Q259 112 273 132 L273 273 Z M120 704 Q120 725 128 743.5 Q136 762 150 776 Q164 790 182.5 798 Q201 806 222 806 Q243 806 261.5 798 Q280 790 294 776 Q308 762 316 743.5 Q324 725 324 704 Q324 683 316 664.5 Q308 646 294 632 Q280 618 261.5 610 Q243 602 222 602 Q201 602 182.5 610 Q164 618 150 632 Q136 646 128 664.5 Q120 683 120 704 Z M42 380 Q47 462 95 505 Q143 548 222 548 Q300 548 342.5 512 Q385 476 385 402 L385 57 Q385 44 387.5 29 Q390 14 392 0 L285 0 Q284 11 282 21.5 Q280 32 279 42 Q247 16 218 3 Q189 -10 148 -10 Q91 -10 62.5 24.5 Q34 59 34 111 Q34 155 48.5 190 Q63 225 93 254 Q123 283 168 307.5 Q213 332 273 355 L273 387 Q273 456 218 456 Q180 456 168 435.5 Q156 415 154 380 L42 380 Z " />
<glyph glyph-name="atilde" unicode="&#xe3;" horiz-adv-x="444" d="M273 273 Q235 251 210 233 Q185 215 171 198 Q157 181 151.5 165 Q146 149 146 131 Q146 105 159 93.5 Q172 82 198 82 Q221 82 240 97 Q259 112 273 132 L273 273 Z M385 733 Q381 712 373.5 690.5 Q366 669 354 652.5 Q342 636 324.5 625.5 Q307 615 282 615 Q264 615 248 621 Q232 627 217 635 Q202 643 187.5 648.5 Q173 654 157 654 Q134 654 125 643 Q116 632 115 610 L59 610 Q63 631 70 652.5 Q77 674 89 690.5 Q101 707 119 717.5 Q137 728 162 728 Q180 728 196 722 Q212 716 227 709 Q242 702 256.5 695.5 Q271 689 287 689 Q310 689 319 700 Q328 711 329 733 L385 733 Z M42 380 Q47 462 95 505 Q143 548 222 548 Q300 548 342.5 512 Q385 476 385 402 L385 57 Q385 44 387.5 29 Q390 14 392 0 L285 0 Q284 11 282 21.5 Q280 32 279 42 Q247 16 218 3 Q189 -10 148 -10 Q91 -10 62.5 24.5 Q34 59 34 111 Q34 155 48.5 190 Q63 225 93 254 Q123 283 168 307.5 Q213 332 273 355 L273 387 Q273 456 218 456 Q180 456 168 435.5 Q156 415 154 380 L42 380 Z " />
<glyph glyph-name="ccedilla" unicode="&#xe7;" horiz-adv-x="444" d="M119 -163 Q131 -169 150.5 -174.5 Q170 -180 184 -180 Q210 -180 226.5 -168 Q243 -156 243 -139 Q243 -124 234 -116 Q225 -108 212 -105 Q199 -102 184.5 -104 Q170 -106 160 -110 L138 -92 L199 -9 Q157 -6 128.5 10 Q100 26 82 52 Q64 78 56 113 Q48 148 48 190 L48 348 Q48 392 57 429 Q66 466 87 492.5 Q108 519 141 533.5 Q174 548 222 548 Q269 548 302 534 Q335 520 355.5 494.5 Q376 469 385.5 433 Q395 397 396 354 L284 354 L284 368 Q284 415 268 435.5 Q252 456 222 456 Q192 456 176 435.5 Q160 415 160 368 L160 170 Q160 123 176 102.5 Q192 82 222 82 Q252 82 268 102.5 Q284 123 284 170 L284 204 L396 204 L396 190 Q396 107 362.5 53.5 Q329 0 248 -8 L213 -60 Q218 -59 223.5 -58.5 Q229 -58 234 -58 Q250 -59 266.5 -64 Q283 -69 296 -78 Q309 -87 317 -101 Q325 -115 325 -134 Q325 -158 314.5 -177 Q304 -196 287 -209 Q270 -222 247.5 -229 Q225 -236 201 -236 Q165 -236 139 -227 Q113 -218 102 -213 L119 -163 Z " />
<glyph glyph-name="eacute" unicode="&#xe9;" horiz-adv-x="444" d="M284 340 L284 368 Q284 415 268 435.5 Q252 456 222 456 Q192 456 176 435.5 Q160 415 160 368 L160 340 L284 340 Z M234 602 L151 602 L230 746 L365 746 L234 602 Z M396 248 L160 248 L160 170 Q160 123 176 102.5 Q192 82 222 82 Q252 82 268 102.5 Q284 123 284 170 L284 182 L396 182 Q395 139 385.5 104 Q376 69 355 43.5 Q334 18 301.5 4 Q269 -10 222 -10 Q174 -10 141 4.5 Q108 19 87 45.5 Q66 72 57 109 Q48 146 48 190 L48 348 Q48 392 57 429 Q66 466 87 492.5 Q108 519 141 533.5 Q174 548 222 548 Q270 548 303 533.5 Q336 519 357 492.5 Q378 466 387 429 Q396 392 396 348 L396 248 Z " />
<glyph glyph-name="ecircumflex" unicode="&#xea;" horiz-adv-x="444" d="M284 340 L284 368 Q284 415 268 435.5 Q252 456 222 456 Q192 456 176 435.5 Q160 415 160 368 L160 340 L284 340 Z M167 746 L277 746 L373 602 L281 602 L222 691 L163 602 L71 602 L167 746 Z M396 248 L160 248 L160 170 Q160 123 176 102.5 Q192 82 222 82 Q252 82 268 102.5 Q284 123 284 170 L284 182 L396 182 Q395 139 385.5 104 Q376 69 355 43.5 Q334 18 301.5 4 Q269 -10 222 -10 Q174 -10 141 4.5 Q108 19 87 45.5 Q66 72 57 109 Q48 146 48 190 L48 348 Q48 392 57 429 Q66 466 87 492.5 Q108 519 141 533.5 Q174 548 222 548 Q270 548 303 533.5 Q336 519 357 492.5 Q378 466 387 429 Q396 392 396 348 L396 248 Z " />
<glyph glyph-name="edieresis" unicode="&#xeb;" horiz-adv-x="444" d="M197 722 L197 614 L89 614 L89 722 L197 722 Z M247 614 L247 722 L355 722 L355 614 L247 614 Z M284 340 L284 368 Q284 415 268 435.5 Q252 456 222 456 Q192 456 176 435.5 Q160 415 160 368 L160 340 L284 340 Z M396 248 L160 248 L160 170 Q160 123 176 102.5 Q192 82 222 82 Q252 82 268 102.5 Q284 123 284 170 L284 182 L396 182 Q395 139 385.5 104 Q376 69 355 43.5 Q334 18 301.5 4 Q269 -10 222 -10 Q174 -10 141 4.5 Q108 19 87 45.5 Q66 72 57 109 Q48 146 48 190 L48 348 Q48 392 57 429 Q66 466 87 492.5 Q108 519 141 533.5 Q174 548 222 548 Q270 548 303 533.5 Q336 519 357 492.5 Q378 466 387 429 Q396 392 396 348 L396 248 Z " />
<glyph glyph-name="egrave" unicode="&#xe8;" horiz-adv-x="444" d="M284 340 L284 368 Q284 415 268 435.5 Q252 456 222 456 Q192 456 176 435.5 Q160 415 160 368 L160 340 L284 340 Z M79 746 L214 746 L293 602 L210 602 L79 746 Z M396 248 L160 248 L160 170 Q160 123 176 102.5 Q192 82 222 82 Q252 82 268 102.5 Q284 123 284 170 L284 182 L396 182 Q395 139 385.5 104 Q376 69 355 43.5 Q334 18 301.5 4 Q269 -10 222 -10 Q174 -10 141 4.5 Q108 19 87 45.5 Q66 72 57 109 Q48 146 48 190 L48 348 Q48 392 57 429 Q66 466 87 492.5 Q108 519 141 533.5 Q174 548 222 548 Q270 548 303 533.5 Q336 519 357 492.5 Q378 466 387 429 Q396 392 396 348 L396 248 Z " />
<glyph glyph-name="iacute" unicode="&#xed;" horiz-adv-x="222" d="M123 602 L40 602 L119 746 L254 746 L123 602 Z M55 0 L55 538 L167 538 L167 0 L55 0 Z " />
<glyph glyph-name="icircumflex" unicode="&#xee;" horiz-adv-x="222" d="M56 746 L166 746 L262 602 L170 602 L111 691 L52 602 L-40 602 L56 746 Z M55 0 L55 538 L167 538 L167 0 L55 0 Z " />
<glyph glyph-name="idieresis" unicode="&#xef;" horiz-adv-x="222" d="M136 614 L136 722 L244 722 L244 614 L136 614 Z M86 722 L86 614 L-22 614 L-22 722 L86 722 Z M55 0 L55 538 L167 538 L167 0 L55 0 Z " />
<glyph glyph-name="igrave" unicode="&#xec;" horiz-adv-x="222" d="M-32 746 L103 746 L182 602 L99 602 L-32 746 Z M55 0 L55 538 L167 538 L167 0 L55 0 Z " />
<glyph glyph-name="ntilde" unicode="&#xf1;" horiz-adv-x="444" d="M385 733 Q381 712 373.5 690.5 Q366 669 354 652.5 Q342 636 324.5 625.5 Q307 615 282 615 Q264 615 248 621 Q232 627 217 635 Q202 643 187.5 648.5 Q173 654 157 654 Q134 654 125 643 Q116 632 115 610 L59 610 Q63 631 70 652.5 Q77 674 89 690.5 Q101 707 119 717.5 Q137 728 162 728 Q180 728 196 722 Q212 716 227 709 Q242 702 256.5 695.5 Q271 689 287 689 Q310 689 319 700 Q328 711 329 733 L385 733 Z M54 0 L54 538 L160 538 L160 484 Q178 499 192 511 Q206 523 221 531 Q236 539 254 543.5 Q272 548 296 548 Q341 548 365.5 518 Q390 488 390 435 L390 0 L278 0 L278 417 Q278 437 267 446.5 Q256 456 238 456 Q220 456 203 446 Q186 436 166 422 L166 0 L54 0 Z " />
<glyph glyph-name="oacute" unicode="&#xf3;" horiz-adv-x="444" d="M234 602 L151 602 L230 746 L365 746 L234 602 Z M284 368 Q284 415 268 435.5 Q252 456 222 456 Q192 456 176 435.5 Q160 415 160 368 L160 170 Q160 123 176 102.5 Q192 82 222 82 Q252 82 268 102.5 Q284 123 284 170 L284 368 Z M48 348 Q48 392 57 429 Q66 466 87 492.5 Q108 519 141 533.5 Q174 548 222 548 Q270 548 303 533.5 Q336 519 357 492.5 Q378 466 387 429 Q396 392 396 348 L396 190 Q396 146 387 109 Q378 72 357 45.5 Q336 19 303 4.5 Q270 -10 222 -10 Q174 -10 141 4.5 Q108 19 87 45.5 Q66 72 57 109 Q48 146 48 190 L48 348 Z " />
<glyph glyph-name="ocircumflex" unicode="&#xf4;" horiz-adv-x="444" d="M167 746 L277 746 L373 602 L281 602 L222 691 L163 602 L71 602 L167 746 Z M284 368 Q284 415 268 435.5 Q252 456 222 456 Q192 456 176 435.5 Q160 415 160 368 L160 170 Q160 123 176 102.5 Q192 82 222 82 Q252 82 268 102.5 Q284 123 284 170 L284 368 Z M48 348 Q48 392 57 429 Q66 466 87 492.5 Q108 519 141 533.5 Q174 548 222 548 Q270 548 303 533.5 Q336 519 357 492.5 Q378 466 387 429 Q396 392 396 348 L396 190 Q396 146 387 109 Q378 72 357 45.5 Q336 19 303 4.5 Q270 -10 222 -10 Q174 -10 141 4.5 Q108 19 87 45.5 Q66 72 57 109 Q48 146 48 190 L48 348 Z " />
<glyph glyph-name="odieresis" unicode="&#xf6;" horiz-adv-x="444" d="M197 722 L197 614 L89 614 L89 722 L197 722 Z M247 614 L247 722 L355 722 L355 614 L247 614 Z M284 368 Q284 415 268 435.5 Q252 456 222 456 Q192 456 176 435.5 Q160 415 160 368 L160 170 Q160 123 176 102.5 Q192 82 222 82 Q252 82 268 102.5 Q284 123 284 170 L284 368 Z M48 348 Q48 392 57 429 Q66 466 87 492.5 Q108 519 141 533.5 Q174 548 222 548 Q270 548 303 533.5 Q336 519 357 492.5 Q378 466 387 429 Q396 392 396 348 L396 190 Q396 146 387 109 Q378 72 357 45.5 Q336 19 303 4.5 Q270 -10 222 -10 Q174 -10 141 4.5 Q108 19 87 45.5 Q66 72 57 109 Q48 146 48 190 L48 348 Z " />
<glyph glyph-name="ograve" unicode="&#xf2;" horiz-adv-x="444" d="M79 746 L214 746 L293 602 L210 602 L79 746 Z M284 368 Q284 415 268 435.5 Q252 456 222 456 Q192 456 176 435.5 Q160 415 160 368 L160 170 Q160 123 176 102.5 Q192 82 222 82 Q252 82 268 102.5 Q284 123 284 170 L284 368 Z M48 348 Q48 392 57 429 Q66 466 87 492.5 Q108 519 141 533.5 Q174 548 222 548 Q270 548 303 533.5 Q336 519 357 492.5 Q378 466 387 429 Q396 392 396 348 L396 190 Q396 146 387 109 Q378 72 357 45.5 Q336 19 303 4.5 Q270 -10 222 -10 Q174 -10 141 4.5 Q108 19 87 45.5 Q66 72 57 109 Q48 146 48 190 L48 348 Z " />
<glyph glyph-name="otilde" unicode="&#xf5;" horiz-adv-x="444" d="M385 733 Q381 712 373.5 690.5 Q366 669 354 652.5 Q342 636 324.5 625.5 Q307 615 282 615 Q264 615 248 621 Q232 627 217 635 Q202 643 187.5 648.5 Q173 654 157 654 Q134 654 125 643 Q116 632 115 610 L59 610 Q63 631 70 652.5 Q77 674 89 690.5 Q101 707 119 717.5 Q137 728 162 728 Q180 728 196 722 Q212 716 227 709 Q242 702 256.5 695.5 Q271 689 287 689 Q310 689 319 700 Q328 711 329 733 L385 733 Z M284 368 Q284 415 268 435.5 Q252 456 222 456 Q192 456 176 435.5 Q160 415 160 368 L160 170 Q160 123 176 102.5 Q192 82 222 82 Q252 82 268 102.5 Q284 123 284 170 L284 368 Z M48 348 Q48 392 57 429 Q66 466 87 492.5 Q108 519 141 533.5 Q174 548 222 548 Q270 548 303 533.5 Q336 519 357 492.5 Q378 466 387 429 Q396 392 396 348 L396 190 Q396 146 387 109 Q378 72 357 45.5 Q336 19 303 4.5 Q270 -10 222 -10 Q174 -10 141 4.5 Q108 19 87 45.5 Q66 72 57 109 Q48 146 48 190 L48 348 Z " />
<glyph glyph-name="uacute" unicode="&#xfa;" horiz-adv-x="444" d="M234 602 L151 602 L230 746 L365 746 L234 602 Z M390 538 L390 0 L284 0 L284 54 Q266 39 252 27 Q238 15 223 7 Q208 -1 190 -5.5 Q172 -10 148 -10 Q103 -10 78.5 20 Q54 50 54 103 L54 538 L166 538 L166 121 Q166 101 177 91.5 Q188 82 206 82 Q224 82 241 92 Q258 102 278 116 L278 538 L390 538 Z " />
<glyph glyph-name="ucircumflex" unicode="&#xfb;" horiz-adv-x="444" d="M167 746 L277 746 L373 602 L281 602 L222 691 L163 602 L71 602 L167 746 Z M390 538 L390 0 L284 0 L284 54 Q266 39 252 27 Q238 15 223 7 Q208 -1 190 -5.5 Q172 -10 148 -10 Q103 -10 78.5 20 Q54 50 54 103 L54 538 L166 538 L166 121 Q166 101 177 91.5 Q188 82 206 82 Q224 82 241 92 Q258 102 278 116 L278 538 L390 538 Z " />
<glyph glyph-name="udieresis" unicode="&#xfc;" horiz-adv-x="444" d="M247 614 L247 722 L355 722 L355 614 L247 614 Z M197 722 L197 614 L89 614 L89 722 L197 722 Z M390 538 L390 0 L284 0 L284 54 Q266 39 252 27 Q238 15 223 7 Q208 -1 190 -5.5 Q172 -10 148 -10 Q103 -10 78.5 20 Q54 50 54 103 L54 538 L166 538 L166 121 Q166 101 177 91.5 Q188 82 206 82 Q224 82 241 92 Q258 102 278 116 L278 538 L390 538 Z " />
<glyph glyph-name="ugrave" unicode="&#xf9;" horiz-adv-x="444" d="M79 746 L214 746 L293 602 L210 602 L79 746 Z M390 538 L390 0 L284 0 L284 54 Q266 39 252 27 Q238 15 223 7 Q208 -1 190 -5.5 Q172 -10 148 -10 Q103 -10 78.5 20 Q54 50 54 103 L54 538 L166 538 L166 121 Q166 101 177 91.5 Q188 82 206 82 Q224 82 241 92 Q258 102 278 116 L278 538 L390 538 Z " />
<glyph glyph-name="ydieresis" unicode="&#xff;" horiz-adv-x="389" d="M220 614 L220 722 L328 722 L328 614 L220 614 Z M170 722 L170 614 L62 614 L62 722 L170 722 Z M266 538 L379 538 L238 -40 Q229 -77 216 -101.5 Q203 -126 184 -141 Q165 -156 140.5 -162.5 Q116 -169 85 -169 L38 -169 L38 -77 L65 -77 Q107 -77 123 -55 Q139 -33 139 10 Q139 27 135.5 44 Q132 61 127 81 L10 538 L124 538 L196 194 L198 194 L266 538 Z " />
<glyph glyph-name="exclam" unicode="&#x21;" horiz-adv-x="278" d="M80 0 L80 118 L198 118 L198 0 L80 0 Z M76 722 L202 722 L180 212 L98 212 L76 722 Z " />
<glyph glyph-name="quotedbl" unicode="&#x22;" horiz-adv-x="333" d="M199 722 L293 722 L293 448 L199 448 L199 722 Z M40 722 L134 722 L134 448 L40 448 L40 722 Z " />
<glyph glyph-name="Lslash" unicode="&#x141;" horiz-adv-x="389" d="M178 108 L373 108 L373 0 L54 0 L54 290 L0 268 L0 350 L54 372 L54 722 L178 722 L178 421 L294 468 L294 386 L178 339 L178 108 Z " />
<glyph glyph-name="lslash" unicode="&#x142;" horiz-adv-x="222" d="M167 0 L55 0 L55 333 L-15 297 L-15 371 L55 407 L55 722 L167 722 L167 464 L237 500 L237 426 L167 390 L167 0 Z " />
<glyph glyph-name="onesuperior" unicode="&#xb9;" horiz-adv-x="266" d="M94 627 L42 627 L42 675 Q71 686 96 700.5 Q121 715 141 732 L190 732 L190 292 L94 292 L94 627 Z " />
<glyph glyph-name="Eth" unicode="&#xd0;" horiz-adv-x="500" d="M258 320 L184 320 L184 102 L227 102 Q277 102 296.5 124 Q316 146 316 203 L316 519 Q316 576 296.5 598 Q277 620 227 620 L184 620 L184 428 L258 428 L258 320 Z M20 428 L60 428 L60 722 L244 722 Q341 722 390.5 669 Q440 616 440 504 L440 218 Q440 106 390.5 53 Q341 0 244 0 L60 0 L60 320 L20 320 L20 428 Z " />
<glyph glyph-name="onehalf" unicode="&#xbd;" horiz-adv-x="666" d="M100 627 L48 627 L48 675 Q77 686 102 700.5 Q127 715 147 732 L196 732 L196 292 L100 292 L100 627 Z M398 0 L398 81 Q473 166 508.5 225 Q544 284 544 332 Q544 360 516 360 Q502 360 493 350 Q484 340 484 326 L484 307 L398 307 L398 327 Q398 351 407.5 371.5 Q417 392 434 407.5 Q451 423 474.5 431.5 Q498 440 527 440 Q552 440 572 432 Q592 424 606 411 Q620 398 628 380.5 Q636 363 636 344 Q636 317 631.5 290 Q627 263 613.5 232.5 Q600 202 574.5 165 Q549 128 507 80 L633 80 L633 0 L398 0 Z M66 -10 L476 732 L567 732 L157 -10 L66 -10 Z " />
<glyph glyph-name="Thorn" unicode="&#xde;" horiz-adv-x="500" d="M184 258 L232 258 Q262 258 282.5 263 Q303 268 315.5 281 Q328 294 333 315.5 Q338 337 338 369 Q338 401 333 422.5 Q328 444 315.5 456.5 Q303 469 282.5 474.5 Q262 480 232 480 L184 480 L184 258 Z M184 582 L238 582 Q353 582 407.5 533 Q462 484 462 369 Q462 311 448.5 270.5 Q435 230 407.5 204.5 Q380 179 337.5 167.5 Q295 156 238 156 L184 156 L184 0 L60 0 L60 722 L184 722 L184 582 Z " />
<glyph glyph-name="onequarter" unicode="&#xbc;" horiz-adv-x="666" d="M512 176 L512 309 L510 309 L448 176 L512 176 Z M102 627 L50 627 L50 675 Q79 686 104 700.5 Q129 715 149 731 L198 731 L198 292 L102 292 L102 627 Z M74 -10 L484 732 L575 732 L165 -10 L74 -10 Z M512 100 L370 100 L370 180 L499 433 L594 433 L594 176 L632 176 L632 100 L594 100 L594 0 L512 0 L512 100 Z " />
<glyph glyph-name="brokenbar" unicode="&#xa6;" horiz-adv-x="222" d="M160 426 L62 426 L62 732 L160 732 L160 426 Z M160 -10 L62 -10 L62 296 L160 296 L160 -10 Z " />
<glyph glyph-name="thorn" unicode="&#xfe;" horiz-adv-x="444" d="M166 110 Q183 98 198 90 Q213 82 230 82 Q241 82 251 85.5 Q261 89 268.5 99 Q276 109 280 125.5 Q284 142 284 169 L284 369 Q284 396 280 412.5 Q276 429 268.5 439 Q261 449 251 452.5 Q241 456 230 456 Q213 456 198 448 Q183 440 166 428 L166 110 Z M166 722 L166 487 L168 487 Q191 519 215.5 533.5 Q240 548 282 548 Q335 548 365.5 510 Q396 472 396 398 L396 140 Q396 66 365.5 28 Q335 -10 282 -10 Q264 -10 249.5 -6.5 Q235 -3 222 4.5 Q209 12 195.5 22 Q182 32 166 46 L166 -170 L54 -170 L54 722 L166 722 Z " />
<glyph glyph-name="threequarters" unicode="&#xbe;" horiz-adv-x="666" d="M512 176 L512 309 L510 309 L448 176 L512 176 Z M116 418 L116 397 Q116 366 143 366 Q157 366 163.5 375 Q170 384 170 405 L170 430 Q170 465 156 474.5 Q142 484 113 484 L113 558 Q141 558 154.5 568.5 Q168 579 168 616 Q168 634 162 645 Q156 656 142 656 Q129 656 123 647.5 Q117 639 117 628 L117 611 L33 611 L33 631 Q33 676 63 704 Q93 732 146 732 Q175 732 196.5 723 Q218 714 232 698.5 Q246 683 253 663 Q260 643 260 621 Q260 583 251 560.5 Q242 538 213 522 Q246 505 256 481.5 Q266 458 266 414 Q266 349 236.5 317.5 Q207 286 141 286 Q90 286 60 311 Q30 336 30 393 L30 418 L116 418 Z M93 -10 L503 732 L594 732 L184 -10 L93 -10 Z M512 100 L370 100 L370 180 L499 433 L594 433 L594 176 L632 176 L632 100 L594 100 L594 0 L512 0 L512 100 Z " />
<glyph glyph-name="twosuperior" unicode="&#xb2;" horiz-adv-x="266" d="M14 292 L14 373 Q89 458 124.5 517 Q160 576 160 624 Q160 652 132 652 Q118 652 109 642 Q100 632 100 618 L100 599 L14 599 L14 619 Q14 643 23.5 663.5 Q33 684 50 699.5 Q67 715 90.5 723.5 Q114 732 143 732 Q168 732 188 724 Q208 716 222 703 Q236 690 244 672.5 Q252 655 252 636 Q252 609 247.5 582 Q243 555 229.5 524.5 Q216 494 190.5 457 Q165 420 123 372 L249 372 L249 292 L14 292 Z " />
<glyph glyph-name="minus" unicode="&#x2212;" horiz-adv-x="600" d="M47 204 L47 302 L553 302 L553 204 L47 204 Z " />
<glyph glyph-name="eth" unicode="&#xf0;" horiz-adv-x="444" d="M284 325 Q284 368 268 387 Q252 406 222 406 Q192 406 176 387 Q160 368 160 325 L160 163 Q160 120 176 101 Q192 82 222 82 Q252 82 268 101 Q284 120 284 163 L284 325 Z M416 648 L321 611 Q354 552 375 476 Q396 400 396 314 L396 174 Q396 133 387 99 Q378 65 357 41 Q336 17 303 3.5 Q270 -10 222 -10 Q174 -10 141 3.5 Q108 17 87 41 Q66 65 57 99 Q48 133 48 174 L48 314 Q48 355 57 389 Q66 423 87 447 Q108 471 141 484.5 Q174 498 222 498 Q231 498 239.5 497.5 Q248 497 259 496 Q257 519 248 539 Q239 559 230 576 L125 536 L98 608 L191 643 Q181 657 169.5 671.5 Q158 686 144 698 L230 722 Q255 704 277 676 L386 718 L416 648 Z " />
<glyph glyph-name="multiply" unicode="&#xd7;" horiz-adv-x="600" d="M370 253 L553 70 L484 0 L300 184 L116 0 L47 70 L231 253 L47 437 L116 506 L300 322 L484 506 L553 437 L370 253 Z " />
<glyph glyph-name="threesuperior" unicode="&#xb3;" horiz-adv-x="266" d="M106 418 L106 397 Q106 366 133 366 Q147 366 153.5 375 Q160 384 160 405 L160 430 Q160 465 146 474.5 Q132 484 103 484 L103 558 Q131 558 144.5 568.5 Q158 579 158 616 Q158 634 152 645 Q146 656 132 656 Q119 656 113 647.5 Q107 639 107 628 L107 611 L23 611 L23 631 Q23 676 53 704 Q83 732 136 732 Q165 732 186.5 723 Q208 714 222 698.5 Q236 683 243 663 Q250 643 250 621 Q250 583 241 560.5 Q232 538 203 522 Q236 505 246 481.5 Q256 458 256 414 Q256 349 226.5 317.5 Q197 286 131 286 Q80 286 50 311 Q20 336 20 393 L20 418 L106 418 Z " />
<glyph glyph-name="Scaron" unicode="&#x160;" horiz-adv-x="444" d="M277 760 L167 760 L71 904 L163 904 L222 815 L281 904 L373 904 L277 760 Z M286 544 Q284 567 277.5 582.5 Q271 598 261.5 607 Q252 616 241 620 Q230 624 220 624 Q190 624 174 605.5 Q158 587 158 553 Q158 522 176.5 496 Q195 470 223 444 Q251 418 284 391.5 Q317 365 345 333 Q373 301 391.5 262.5 Q410 224 410 175 Q410 130 395.5 95.5 Q381 61 355.5 37.5 Q330 14 293.5 2 Q257 -10 214 -10 Q171 -10 137 6 Q103 22 79.5 49.5 Q56 77 43 113 Q30 149 28 190 L146 207 Q150 152 170 125 Q190 98 220 98 Q252 98 272 115 Q292 132 292 164 Q292 200 273.5 228 Q255 256 227 282 Q199 308 166 334 Q133 360 105 391 Q77 422 58.5 461 Q40 500 40 552 Q40 639 90 685.5 Q140 732 232 732 Q270 732 300 719 Q330 706 351.5 682.5 Q373 659 386.5 627 Q400 595 404 557 L286 544 Z " />
<glyph glyph-name="Yacute" unicode="&#xdd;" horiz-adv-x="444" d="M234 760 L151 760 L230 904 L365 904 L234 760 Z M284 0 L160 0 L160 300 L10 722 L136 722 L223 447 L225 447 L308 722 L434 722 L284 300 L284 0 Z " />
<glyph glyph-name="Zcaron" unicode="&#x17d;" horiz-adv-x="444" d="M277 760 L167 760 L71 904 L163 904 L222 815 L281 904 L373 904 L277 760 Z M72 614 L72 722 L400 722 L400 604 L172 108 L400 108 L400 0 L44 0 L44 118 L275 614 L72 614 Z " />
<glyph glyph-name="scaron" unicode="&#x161;" horiz-adv-x="389" d="M250 602 L140 602 L44 746 L136 746 L195 657 L254 746 L346 746 L250 602 Z M258 389 Q246 456 194 456 Q172 456 158.5 445 Q145 434 145 413 Q145 392 160.5 374.5 Q176 357 199.5 339.5 Q223 322 250 302.5 Q277 283 300.5 259.5 Q324 236 339.5 205.5 Q355 175 355 135 Q355 99 343.5 72 Q332 45 311 26.5 Q290 8 261 -1 Q232 -10 198 -10 Q124 -10 82 29.5 Q40 69 27 140 L125 167 Q130 133 145.5 107.5 Q161 82 199 82 Q221 82 235 94 Q249 106 249 129 Q249 152 233.5 171.5 Q218 191 194.5 209 Q171 227 144 246 Q117 265 93.5 288 Q70 311 54.5 339 Q39 367 39 404 Q39 436 50.5 462.5 Q62 489 82.5 508 Q103 527 130 537.5 Q157 548 189 548 Q255 548 297.5 508 Q340 468 353 405 L258 389 Z " />
<glyph glyph-name="yacute" unicode="&#xfd;" horiz-adv-x="389" d="M207 602 L124 602 L203 746 L338 746 L207 602 Z M266 538 L379 538 L238 -40 Q229 -77 216 -101.5 Q203 -126 184 -141 Q165 -156 140.5 -162.5 Q116 -169 85 -169 L38 -169 L38 -77 L65 -77 Q107 -77 123 -55 Q139 -33 139 10 Q139 27 135.5 44 Q132 61 127 81 L10 538 L124 538 L196 194 L198 194 L266 538 Z " />
<glyph glyph-name="zcaron" unicode="&#x17e;" horiz-adv-x="389" d="M250 602 L140 602 L44 746 L136 746 L195 657 L254 746 L346 746 L250 602 Z M44 446 L44 538 L359 538 L359 446 L150 92 L359 92 L359 0 L30 0 L30 92 L235 446 L44 446 Z " />
<glyph glyph-name="Euro" unicode="&#x20ac;" horiz-adv-x="500" d="M102 315 L102 395 L42 395 L65 479 L102 479 L102 547 Q102 591 119 625.5 Q136 660 164.5 683.5 Q193 707 229.5 719.5 Q266 732 305 732 Q347 732 388 718 Q429 704 461 675 L430 561 Q406 593 374 608.5 Q342 624 310 624 Q276 624 251 605 Q226 586 226 544 L226 479 L407 479 L384 395 L226 395 L226 315 L364 315 L341 231 L226 231 L226 183 Q226 137 251.5 117 Q277 97 312 97 Q346 97 374.5 106.5 Q403 116 430 141 L430 25 Q398 6 364.5 -2 Q331 -10 298 -10 Q259 -10 223.5 2.5 Q188 15 161 39 Q134 63 118 97 Q102 131 102 175 L102 231 L42 231 L65 315 L102 315 Z " />
</font>
</svg>
