<?xml version="1.0" encoding="UTF-8"?>
<svg xmlns="http://www.w3.org/2000/svg" xmlns:xlink="http://www.w3.org/1999/xlink" version="1.2" >
<font id="Trade Gothic LT Condensed No. 18">
<font-face  font-family="TradeGothic LT CondEighteen" units-per-em="1000" ascent="722" descent="-170" font-style="normal" font-weight="500" font-stretch="normal" cap-height="750" x-height="500" underline-position="-100" underline-thickness="50" />
<missing-glyph  horiz-adv-x="222" d="" />
<glyph glyph-name="&amp;#x20;" unicode="&#x20;" horiz-adv-x="222" d="" />
<glyph glyph-name="&amp;#xa0;" unicode="&#xa0;" horiz-adv-x="222" d="" />
<glyph glyph-name="dollar" unicode="&#x24;" horiz-adv-x="444" d="M192 662 Q157 654 136.5 626.5 Q116 599 116 561 Q116 522 138 494 Q160 466 192 442 L192 662 Z M242 60 Q285 64 309.5 95.5 Q334 127 334 176 Q334 223 307 257 Q280 291 242 320 L242 60 Z M110 198 Q112 147 129.5 110 Q147 73 192 60 L192 354 Q165 372 138.5 392 Q112 412 91 435.5 Q70 459 57 488 Q44 517 44 553 Q44 587 55 616 Q66 645 85.5 667.5 Q105 690 132 704 Q159 718 192 722 L192 818 L242 818 L242 722 Q316 711 354 658.5 Q392 606 394 530 L322 530 Q321 551 316 571.5 Q311 592 301 610 Q291 628 276.5 642 Q262 656 242 662 L242 407 Q271 387 300 366 Q329 345 352.5 318 Q376 291 391 257.5 Q406 224 406 179 Q406 101 361 54 Q316 7 242 0 L242 -116 L192 -116 L192 0 Q117 11 77.5 65 Q38 119 38 198 L110 198 Z " />
<glyph glyph-name="percent" unicode="&#x25;" horiz-adv-x="778" d="M106 566 Q106 547 113.5 529.5 Q121 512 133.5 499 Q146 486 163.5 478 Q181 470 202 470 Q223 470 240.5 478 Q258 486 270.5 499 Q283 512 290.5 529.5 Q298 547 298 566 Q298 585 290.5 602.5 Q283 620 270.5 633 Q258 646 240.5 654 Q223 662 202 662 Q181 662 163.5 654 Q146 646 133.5 633 Q121 620 113.5 602.5 Q106 585 106 566 Z M444 156 Q444 137 451.5 119.5 Q459 102 471.5 89 Q484 76 501.5 68 Q519 60 540 60 Q561 60 578.5 68 Q596 76 608.5 89 Q621 102 628.5 119.5 Q636 137 636 156 Q636 175 628.5 192.5 Q621 210 608.5 223 Q596 236 578.5 244 Q561 252 540 252 Q519 252 501.5 244 Q484 236 471.5 223 Q459 210 451.5 192.5 Q444 175 444 156 Z M612 732 L198 -10 L140 -10 L554 732 L612 732 Z M46 566 Q46 598 58 626.5 Q70 655 91 676 Q112 697 140.5 709.5 Q169 722 202 722 Q235 722 263.5 709.5 Q292 697 313 676 Q334 655 346 626.5 Q358 598 358 566 Q358 534 346 505.5 Q334 477 313 456 Q292 435 263.5 422.5 Q235 410 202 410 Q169 410 140.5 422.5 Q112 435 91 456 Q70 477 58 505.5 Q46 534 46 566 Z M384 156 Q384 188 396 216.5 Q408 245 429 266 Q450 287 478.5 299.5 Q507 312 540 312 Q573 312 601.5 299.5 Q630 287 651 266 Q672 245 684 216.5 Q696 188 696 156 Q696 124 684 95.5 Q672 67 651 46 Q630 25 601.5 12.5 Q573 0 540 0 Q507 0 478.5 12.5 Q450 25 429 46 Q408 67 396 95.5 Q384 124 384 156 Z " />
<glyph glyph-name="ampersand" unicode="&#x26;" horiz-adv-x="556" d="M190 585 Q190 543 201.5 510.5 Q213 478 225 447 Q262 488 284 526 Q306 564 306 612 Q306 639 290 658.5 Q274 678 254 678 Q225 678 207.5 658 Q190 638 190 585 Z M122 180 Q122 124 152.5 90 Q183 56 243 56 Q273 56 300 74 Q327 92 344 116 Q301 167 263.5 224 Q226 281 198 335 Q184 321 170.5 302.5 Q157 284 146 264 Q135 244 128.5 222.5 Q122 201 122 180 Z M482 346 Q480 314 476.5 287.5 Q473 261 467.5 236 Q462 211 453.5 185.5 Q445 160 432 132 Q450 111 472 91.5 Q494 72 520 54 L478 0 Q458 9 433 28 Q408 47 388 68 Q360 34 320 12 Q280 -10 235 -10 Q150 -10 100 39.5 Q50 89 50 174 Q50 214 62.5 246 Q75 278 93 305 Q111 332 131.5 353.5 Q152 375 169 394 Q162 409 153 431.5 Q144 454 136.5 479.5 Q129 505 123.5 531 Q118 557 118 579 Q118 618 128 646.5 Q138 675 155 694 Q172 713 195 722.5 Q218 732 244 732 Q274 732 298.5 722 Q323 712 341 694.5 Q359 677 368.5 654 Q378 631 378 606 Q378 568 367.5 538 Q357 508 339 482 Q321 456 298 433 Q275 410 251 387 Q278 332 310 282.5 Q342 233 380 188 Q395 227 401.5 267.5 Q408 308 412 350 L482 346 Z " />
<glyph glyph-name="quoteright" unicode="&#x2019;" horiz-adv-x="222" d="M150 722 L150 622 L90 478 L60 478 L106 628 L66 628 L66 722 L150 722 Z " />
<glyph glyph-name="parenleft" unicode="&#x28;" horiz-adv-x="278" d="M190 -110 Q158 -60 134.5 -10.5 Q111 39 96 90 Q81 141 73.5 195.5 Q66 250 66 311 Q66 372 73.5 426.5 Q81 481 96 532 Q111 583 134.5 632.5 Q158 682 190 732 L238 702 Q184 604 158 509 Q132 414 132 311 Q132 208 158 113 Q184 18 238 -80 L190 -110 Z " />
<glyph glyph-name="parenright" unicode="&#x29;" horiz-adv-x="278" d="M88 732 Q120 682 143.5 632.5 Q167 583 182 532 Q197 481 204.5 426.5 Q212 372 212 311 Q212 250 204.5 195.5 Q197 141 182 90 Q167 39 143.5 -10.5 Q120 -60 88 -110 L40 -80 Q94 18 120 113 Q146 208 146 311 Q146 414 120 509 Q94 604 40 702 L88 732 Z " />
<glyph glyph-name="asterisk" unicode="&#x2a;" horiz-adv-x="444" d="M235 564 L379 634 L399 568 L245 536 L359 424 L301 380 L222 518 L143 380 L85 424 L199 536 L45 568 L65 634 L209 564 L189 722 L255 722 L235 564 Z " />
<glyph glyph-name="plus" unicode="&#x2b;" horiz-adv-x="600" d="M267 520 L333 520 L333 293 L560 293 L560 227 L333 227 L333 0 L267 0 L267 227 L40 227 L40 293 L267 293 L267 520 Z " />
<glyph glyph-name="comma" unicode="&#x2c;" horiz-adv-x="222" d="M153 94 L153 -6 L93 -150 L63 -150 L109 0 L69 0 L69 94 L153 94 Z " />
<glyph glyph-name="&amp;#x2d;" unicode="&#x2d;" horiz-adv-x="333" d="M43 227 L43 293 L289 293 L289 227 L43 227 Z " />
<glyph glyph-name="&amp;#xad;" unicode="&#xad;" horiz-adv-x="333" d="M43 227 L43 293 L289 293 L289 227 L43 227 Z " />
<glyph glyph-name="period" unicode="&#x2e;" horiz-adv-x="222" d="M153 94 L153 0 L69 0 L69 94 L153 94 Z " />
<glyph glyph-name="slash" unicode="&#x2f;" horiz-adv-x="278" d="M-10 -10 L222 732 L288 732 L56 -10 L-10 -10 Z " />
<glyph glyph-name="zero" unicode="0" horiz-adv-x="444" d="M324 361 Q324 450 317.5 509.5 Q311 569 298 605 Q285 641 266 656.5 Q247 672 222 672 Q197 672 178 656.5 Q159 641 146 605 Q133 569 126.5 509.5 Q120 450 120 361 Q120 272 126.5 212.5 Q133 153 146 117 Q159 81 178 65.5 Q197 50 222 50 Q247 50 266 65.5 Q285 81 298 117 Q311 153 317.5 212.5 Q324 272 324 361 Z M396 361 Q396 263 385.5 193 Q375 123 353.5 78 Q332 33 299 11.5 Q266 -10 222 -10 Q178 -10 145 11.5 Q112 33 90.5 78 Q69 123 58.5 193 Q48 263 48 361 Q48 459 58.5 529 Q69 599 90.5 644 Q112 689 145 710.5 Q178 732 222 732 Q266 732 299 710.5 Q332 689 353.5 644 Q375 599 385.5 529 Q396 459 396 361 Z " />
<glyph glyph-name="one" unicode="1" horiz-adv-x="444" d="M106 0 L106 60 L194 60 L194 640 L104 632 L104 676 Q135 684 164 697.5 Q193 711 218 732 L266 732 L266 60 L350 60 L350 0 L106 0 Z " />
<glyph glyph-name="two" unicode="2" horiz-adv-x="444" d="M48 0 L48 60 Q64 113 90 159.5 Q116 206 145 247.5 Q174 289 204 327.5 Q234 366 258 403.5 Q282 441 297 479 Q312 517 312 558 Q312 615 287 643.5 Q262 672 225 672 Q182 672 153.5 636.5 Q125 601 120 520 L54 520 Q57 581 71.5 622 Q86 663 109 687.5 Q132 712 161 722 Q190 732 223 732 Q294 732 339 685 Q384 638 384 548 Q384 503 371.5 467 Q359 431 338 397.5 Q317 364 289.5 331 Q262 298 232 258.5 Q202 219 171.5 171 Q141 123 114 60 L388 60 L388 0 L48 0 Z " />
<glyph glyph-name="three" unicode="3" horiz-adv-x="444" d="M60 578 Q63 610 73.5 638 Q84 666 102 687 Q120 708 146 720 Q172 732 207 732 Q237 732 266 721.5 Q295 711 317.5 689 Q340 667 354 634 Q368 601 368 556 Q368 479 340.5 436.5 Q313 394 274 386 L274 384 Q304 374 324.5 355.5 Q345 337 357.5 313 Q370 289 375 261 Q380 233 380 204 Q380 148 365 108 Q350 68 325.5 41.5 Q301 15 269.5 2.5 Q238 -10 204 -10 Q168 -10 138.5 3.5 Q109 17 87.5 41.5 Q66 66 54 99.5 Q42 133 42 172 L108 172 Q113 113 138.5 81.5 Q164 50 212 50 Q230 50 247 59.5 Q264 69 277.5 88 Q291 107 299.5 135.5 Q308 164 308 201 Q308 246 298.5 275.5 Q289 305 269 322.5 Q249 340 218 347 Q187 354 144 354 L144 414 Q184 414 213 420 Q242 426 260.5 441 Q279 456 287.5 483 Q296 510 296 552 Q296 617 273 644.5 Q250 672 212 672 Q189 672 173 663 Q157 654 146.5 639.5 Q136 625 131.5 607 Q127 589 126 570 L60 578 Z " />
<glyph glyph-name="four" unicode="4" horiz-adv-x="444" d="M92 224 L255 224 L255 656 L253 656 L92 224 Z M327 722 L327 224 L402 224 L402 164 L327 164 L327 0 L255 0 L255 164 L24 164 L24 198 L222 722 L327 722 Z " />
<glyph glyph-name="five" unicode="5" horiz-adv-x="444" d="M122 168 Q124 148 130 127.5 Q136 107 146.5 89.5 Q157 72 173.5 61 Q190 50 214 50 Q261 50 291.5 97.5 Q322 145 322 239 Q322 290 314 324 Q306 358 292.5 378.5 Q279 399 261 407.5 Q243 416 223 416 Q192 416 166.5 395.5 Q141 375 132 346 L76 356 L100 722 L354 722 L348 662 L158 662 L144 442 Q163 458 187.5 467 Q212 476 240 476 Q271 476 299 461.5 Q327 447 348 417.5 Q369 388 381.5 344 Q394 300 394 241 Q394 179 380 132 Q366 85 342 53.5 Q318 22 286 6 Q254 -10 218 -10 Q179 -10 149.5 3.5 Q120 17 100 40.5 Q80 64 69 95.5 Q58 127 56 162 L122 168 Z " />
<glyph glyph-name="six" unicode="6" horiz-adv-x="444" d="M124 248 Q124 193 131 155.5 Q138 118 151 94.5 Q164 71 183 60.5 Q202 50 226 50 Q247 50 264.5 58.5 Q282 67 294 86.5 Q306 106 313 138 Q320 170 320 217 Q320 265 312.5 296.5 Q305 328 292.5 346 Q280 364 263.5 371 Q247 378 230 378 Q195 378 168.5 359 Q142 340 124 316 L124 248 Z M310 588 Q306 615 297.5 631.5 Q289 648 278 657 Q267 666 254.5 669 Q242 672 232 672 Q184 672 155.5 603 Q127 534 126 383 Q148 406 176.5 422 Q205 438 237 438 Q267 438 295 426.5 Q323 415 344.5 388.5 Q366 362 379 319.5 Q392 277 392 216 Q392 110 350.5 50 Q309 -10 237 -10 Q190 -10 155.5 5.5 Q121 21 98 58.5 Q75 96 63.5 160 Q52 224 52 322 Q52 431 64.5 508.5 Q77 586 100.5 635.5 Q124 685 157.5 708.5 Q191 732 234 732 Q269 732 293.5 722 Q318 712 334.5 693.5 Q351 675 361 649 Q371 623 376 592 L310 588 Z " />
<glyph glyph-name="seven" unicode="7" horiz-adv-x="444" d="M60 722 L384 722 L384 684 L174 0 L98 0 L308 662 L60 662 L60 722 Z " />
<glyph glyph-name="eight" unicode="8" horiz-adv-x="444" d="M312 578 Q312 595 306.5 612 Q301 629 290 642.5 Q279 656 262 664 Q245 672 222 672 Q199 672 182 664 Q165 656 154 642.5 Q143 629 137.5 612 Q132 595 132 578 Q132 523 156.5 483 Q181 443 222 418 Q263 443 287.5 483 Q312 523 312 578 Z M328 179 Q328 208 319.5 232 Q311 256 296.5 276 Q282 296 263 313 Q244 330 222 346 Q200 330 181 313 Q162 296 147.5 276 Q133 256 124.5 232 Q116 208 116 179 Q116 157 122 134 Q128 111 141 92.5 Q154 74 174 62 Q194 50 222 50 Q250 50 270 62 Q290 74 303 92.5 Q316 111 322 134 Q328 157 328 179 Z M400 182 Q400 143 388 108 Q376 73 353 47 Q330 21 297 5.5 Q264 -10 222 -10 Q180 -10 147 5.5 Q114 21 91 47 Q68 73 56 108 Q44 143 44 182 Q44 249 76 298 Q108 347 160 384 Q112 422 86 464 Q60 506 60 570 Q60 606 72.5 635.5 Q85 665 107 686.5 Q129 708 158.5 720 Q188 732 222 732 Q256 732 285.5 720 Q315 708 337 686.5 Q359 665 371.5 635.5 Q384 606 384 570 Q384 506 358 464 Q332 422 284 384 Q336 347 368 298 Q400 249 400 182 Z " />
<glyph glyph-name="nine" unicode="9" horiz-adv-x="444" d="M320 474 Q320 529 313 566.5 Q306 604 293 627.5 Q280 651 261 661.5 Q242 672 218 672 Q197 672 179.5 663.5 Q162 655 150 635.5 Q138 616 131 584 Q124 552 124 505 Q124 457 131.5 425.5 Q139 394 151.5 376 Q164 358 180.5 351 Q197 344 214 344 Q249 344 275.5 363 Q302 382 320 406 L320 474 Z M134 134 Q138 107 146.5 90.5 Q155 74 166 65 Q177 56 189 53 Q201 50 212 50 Q260 50 288 119 Q316 188 318 339 Q296 316 267.5 300 Q239 284 207 284 Q177 284 149 295.5 Q121 307 99.5 333.5 Q78 360 65 402 Q52 444 52 506 Q52 612 93.5 672 Q135 732 207 732 Q254 732 288.5 716.5 Q323 701 346 663.5 Q369 626 380.5 561.5 Q392 497 392 400 Q392 291 379.5 213.5 Q367 136 343.5 86.5 Q320 37 286.5 13.5 Q253 -10 210 -10 Q175 -10 150.5 0 Q126 10 109.5 28.5 Q93 47 83 72.5 Q73 98 68 130 L134 134 Z " />
<glyph glyph-name="colon" unicode="&#x3a;" horiz-adv-x="222" d="M153 366 L153 272 L69 272 L69 366 L153 366 Z M153 94 L153 0 L69 0 L69 94 L153 94 Z " />
<glyph glyph-name="semicolon" unicode="&#x3b;" horiz-adv-x="222" d="M153 366 L153 272 L69 272 L69 366 L153 366 Z M153 94 L153 -6 L93 -150 L63 -150 L109 0 L69 0 L69 94 L153 94 Z " />
<glyph glyph-name="less" unicode="&#x3c;" horiz-adv-x="600" d="M560 3 L40 235 L40 285 L560 517 L560 448 L138 260 L560 72 L560 3 Z " />
<glyph glyph-name="equal" unicode="&#x3d;" horiz-adv-x="600" d="M40 186 L560 186 L560 120 L40 120 L40 186 Z M40 400 L560 400 L560 334 L40 334 L40 400 Z " />
<glyph glyph-name="greater" unicode="&#x3e;" horiz-adv-x="600" d="M40 72 L462 260 L40 448 L40 517 L560 285 L560 235 L40 3 L40 72 Z " />
<glyph glyph-name="question" unicode="&#x3f;" horiz-adv-x="389" d="M195 94 L195 0 L111 0 L111 94 L195 94 Z M131 214 L131 264 Q131 322 150 362 Q169 402 192 436.5 Q215 471 234 508 Q253 545 253 598 Q253 637 234.5 654.5 Q216 672 195 672 Q178 672 165.5 664 Q153 656 144.5 643.5 Q136 631 130.5 616 Q125 601 124 586 L64 598 Q67 626 77 650.5 Q87 675 104 693 Q121 711 144.5 721.5 Q168 732 198 732 Q223 732 246 723.5 Q269 715 286.5 698.5 Q304 682 314.5 657 Q325 632 325 598 Q325 556 315 524.5 Q305 493 289.5 467 Q274 441 256 418 Q238 395 222.5 371 Q207 347 197 318.5 Q187 290 187 254 L187 214 L131 214 Z " />
<glyph glyph-name="at" unicode="&#x40;" horiz-adv-x="800" d="M349 204 Q382 204 410 225.5 Q438 247 459 279.5 Q480 312 492 349 Q504 386 504 416 Q504 434 497 451 Q490 468 479 481 Q468 494 453.5 502 Q439 510 423 510 Q388 510 359 489.5 Q330 469 309 438 Q288 407 276.5 370 Q265 333 265 301 Q265 258 288 231 Q311 204 349 204 Z M557 558 L620 558 L534 276 Q529 262 526.5 247.5 Q524 233 524 222 Q524 197 546 197 Q573 197 599.5 217 Q626 237 647 269 Q668 301 681 341 Q694 381 694 421 Q694 480 671 527.5 Q648 575 610 608 Q572 641 522 658.5 Q472 676 417 676 Q351 676 295.5 651 Q240 626 199 583 Q158 540 135 483.5 Q112 427 112 363 Q112 295 136 237 Q160 179 202 136.5 Q244 94 300.5 70 Q357 46 422 46 Q493 46 559.5 77.5 Q626 109 668 165 L731 165 Q707 124 673.5 91.5 Q640 59 599.5 36.5 Q559 14 513.5 2 Q468 -10 420 -10 Q341 -10 272.5 19 Q204 48 154 98.5 Q104 149 75 217 Q46 285 46 363 Q46 440 75.5 507 Q105 574 155 624 Q205 674 272.5 703 Q340 732 416 732 Q485 732 546.5 709 Q608 686 654 645.5 Q700 605 727 549 Q754 493 754 426 Q754 362 731 309 Q708 256 673 218 Q638 180 597 159 Q556 138 521 138 Q495 138 477 154.5 Q459 171 456 204 L454 203 Q432 179 400 158.5 Q368 138 332 138 Q300 138 273.5 150.5 Q247 163 228.5 184 Q210 205 199.5 233.5 Q189 262 189 294 Q189 345 205.5 395 Q222 445 253 485 Q284 525 327 549.5 Q370 574 423 574 Q458 574 487.5 556 Q517 538 535 496 L557 558 Z " />
<glyph glyph-name="A" unicode="A" horiz-adv-x="444" d="M141 280 L303 280 L223 668 L221 668 L141 280 Z M276 722 L435 0 L357 0 L314 214 L130 214 L87 0 L9 0 L168 722 L276 722 Z " />
<glyph glyph-name="B" unicode="B" horiz-adv-x="500" d="M144 412 L188 412 Q273 412 311.5 441 Q350 470 350 544 Q350 606 320.5 631 Q291 656 222 656 L144 656 L144 412 Z M144 66 L222 66 Q293 66 329.5 98 Q366 130 366 200 Q366 272 332.5 309 Q299 346 222 346 L144 346 L144 66 Z M66 722 L258 722 Q339 722 383.5 673 Q428 624 428 544 Q428 490 402 445.5 Q376 401 318 384 L318 382 Q384 365 414 316.5 Q444 268 444 200 Q444 99 387.5 49.5 Q331 0 212 0 L66 0 L66 722 Z " />
<glyph glyph-name="C" unicode="C" horiz-adv-x="500" d="M362 504 Q354 590 327.5 628 Q301 666 255 666 Q221 666 196 650 Q171 634 155 598 Q139 562 131.5 503.5 Q124 445 124 361 Q124 277 131.5 218.5 Q139 160 155 124 Q171 88 196 72 Q221 56 255 56 Q282 56 303.5 66 Q325 76 340 98 Q355 120 363 155 Q371 190 372 240 L450 240 Q448 119 398 54.5 Q348 -10 255 -10 Q207 -10 168 9.5 Q129 29 102 73 Q75 117 60.5 188 Q46 259 46 361 Q46 463 60.5 534 Q75 605 102 649 Q129 693 168 712.5 Q207 732 255 732 Q336 732 383.5 676 Q431 620 440 504 L362 504 Z " />
<glyph glyph-name="D" unicode="D" horiz-adv-x="500" d="M144 66 L186 66 Q229 66 262.5 77.5 Q296 89 319 121 Q342 153 354 210.5 Q366 268 366 361 Q366 454 354 511.5 Q342 569 319 601 Q296 633 262.5 644.5 Q229 656 186 656 L144 656 L144 66 Z M66 722 L200 722 Q257 722 302 704.5 Q347 687 378.5 645.5 Q410 604 427 534.5 Q444 465 444 361 Q444 257 427 187.5 Q410 118 378.5 76.5 Q347 35 302 17.5 Q257 0 200 0 L66 0 L66 722 Z " />
<glyph glyph-name="E" unicode="E" horiz-adv-x="444" d="M396 722 L396 656 L144 656 L144 410 L330 410 L330 344 L144 344 L144 66 L408 66 L408 0 L66 0 L66 722 L396 722 Z " />
<glyph glyph-name="F" unicode="F" horiz-adv-x="389" d="M66 722 L376 722 L376 656 L144 656 L144 410 L318 410 L318 344 L144 344 L144 0 L66 0 L66 722 Z " />
<glyph glyph-name="G" unicode="G" horiz-adv-x="500" d="M366 500 Q364 535 357 565.5 Q350 596 337 618.5 Q324 641 303.5 653.5 Q283 666 253 666 Q220 666 196 650.5 Q172 635 156 599 Q140 563 132 504.5 Q124 446 124 361 Q124 276 132 217.5 Q140 159 156 123 Q172 87 196 71.5 Q220 56 253 56 Q308 56 337 85 Q366 114 366 170 L366 272 L268 272 L268 338 L444 338 L444 0 L394 0 L384 54 Q361 24 329.5 7 Q298 -10 253 -10 Q205 -10 167 9.5 Q129 29 102 73 Q75 117 60.5 188 Q46 259 46 361 Q46 463 60.5 534 Q75 605 102 649 Q129 693 167 712.5 Q205 732 253 732 Q303 732 337.5 712 Q372 692 394.5 659.5 Q417 627 428.5 585 Q440 543 444 500 L366 500 Z " />
<glyph glyph-name="H" unicode="H" horiz-adv-x="500" d="M144 722 L144 410 L356 410 L356 722 L434 722 L434 0 L356 0 L356 344 L144 344 L144 0 L66 0 L66 722 L144 722 Z " />
<glyph glyph-name="I" unicode="I" horiz-adv-x="222" d="M150 722 L150 0 L72 0 L72 722 L150 722 Z " />
<glyph glyph-name="J" unicode="J" horiz-adv-x="278" d="M212 722 L212 180 Q212 124 202 87.5 Q192 51 171 29.5 Q150 8 116 -1 Q82 -10 34 -10 Q26 -10 15.5 -8 Q5 -6 -6 -4 L0 64 Q22 56 45 56 Q93 56 113.5 79 Q134 102 134 162 L134 722 L212 722 Z " />
<glyph glyph-name="K" unicode="K" horiz-adv-x="444" d="M134 722 L134 354 L136 354 L338 722 L422 722 L282 470 L448 0 L364 0 L230 390 L228 390 L134 222 L134 0 L56 0 L56 722 L134 722 Z " />
<glyph glyph-name="L" unicode="L" horiz-adv-x="389" d="M144 722 L144 66 L378 66 L378 0 L66 0 L66 722 L144 722 Z " />
<glyph glyph-name="M" unicode="M" horiz-adv-x="611" d="M180 722 L306 176 L308 176 L431 722 L555 722 L555 0 L483 0 L483 662 L481 662 L331 0 L280 0 L130 662 L128 662 L128 0 L56 0 L56 722 L180 722 Z " />
<glyph glyph-name="N" unicode="N" horiz-adv-x="500" d="M178 722 L364 190 L366 190 L366 722 L444 722 L444 0 L360 0 L136 628 L134 628 L134 0 L56 0 L56 722 L178 722 Z " />
<glyph glyph-name="O" unicode="O" horiz-adv-x="500" d="M376 361 Q376 453 366 512 Q356 571 339 605.5 Q322 640 299 653 Q276 666 250 666 Q224 666 201 653 Q178 640 161 605.5 Q144 571 134 512 Q124 453 124 361 Q124 269 134 210 Q144 151 161 116.5 Q178 82 201 69 Q224 56 250 56 Q276 56 299 69 Q322 82 339 116.5 Q356 151 366 210 Q376 269 376 361 Z M454 361 Q454 260 439.5 189.5 Q425 119 398 74.5 Q371 30 333.5 10 Q296 -10 250 -10 Q204 -10 166.5 10 Q129 30 102 74.5 Q75 119 60.5 189.5 Q46 260 46 361 Q46 462 60.5 532.5 Q75 603 102 647.5 Q129 692 166.5 712 Q204 732 250 732 Q296 732 333.5 712 Q371 692 398 647.5 Q425 603 439.5 532.5 Q454 462 454 361 Z " />
<glyph glyph-name="P" unicode="P" horiz-adv-x="444" d="M134 392 L216 392 Q275 392 307.5 424 Q340 456 340 524 Q340 592 307.5 624 Q275 656 216 656 L134 656 L134 392 Z M56 722 L226 722 Q269 722 304.5 708 Q340 694 365.5 668 Q391 642 404.5 605.5 Q418 569 418 524 Q418 479 404.5 442.5 Q391 406 365.5 380 Q340 354 304.5 340 Q269 326 226 326 L134 326 L134 0 L56 0 L56 722 Z " />
<glyph glyph-name="Q" unicode="Q" horiz-adv-x="500" d="M266 204 Q292 196 312.5 180.5 Q333 165 350 145 Q363 180 369.5 232.5 Q376 285 376 361 Q376 453 366 512 Q356 571 339 605.5 Q322 640 299 653 Q276 666 250 666 Q224 666 201 653 Q178 640 161 605.5 Q144 571 134 512 Q124 453 124 361 Q124 269 134 210 Q144 151 161 116.5 Q178 82 201 69 Q224 56 250 56 Q270 56 287.5 63 Q305 70 320 88 Q297 120 266 140 L266 204 Z M474 -56 Q431 -54 403.5 -31 Q376 -8 356 26 Q333 7 306.5 -1.5 Q280 -10 250 -10 Q204 -10 166.5 10 Q129 30 102 74.5 Q75 119 60.5 189.5 Q46 260 46 361 Q46 462 60.5 532.5 Q75 603 102 647.5 Q129 692 166.5 712 Q204 732 250 732 Q296 732 333.5 712 Q371 692 398 647.5 Q425 603 439.5 532.5 Q454 462 454 361 Q454 260 439.5 190 Q425 120 398 75 Q412 53 430 33.5 Q448 14 474 12 L474 -56 Z " />
<glyph glyph-name="R" unicode="R" horiz-adv-x="500" d="M144 406 L212 406 Q296 406 328 438 Q360 470 360 531 Q360 592 328 624 Q296 656 212 656 L144 656 L144 406 Z M66 722 L240 722 Q283 722 319.5 709.5 Q356 697 382.5 673 Q409 649 423.5 614.5 Q438 580 438 535 Q438 474 410 426.5 Q382 379 322 358 L444 0 L362 0 L246 342 L144 338 L144 0 L66 0 L66 722 Z " />
<glyph glyph-name="S" unicode="S" horiz-adv-x="444" d="M324 536 Q322 564 315 587.5 Q308 611 294.5 628.5 Q281 646 261 656 Q241 666 213 666 Q168 666 141 639.5 Q114 613 114 571 Q114 530 135.5 501 Q157 472 189 447 Q221 422 259 398 Q297 374 329 343.5 Q361 313 382.5 272.5 Q404 232 404 174 Q404 87 356.5 38.5 Q309 -10 219 -10 Q177 -10 143 5 Q109 20 85.5 47 Q62 74 49.5 111.5 Q37 149 36 194 L108 194 Q110 130 139.5 93 Q169 56 227 56 Q276 56 305 86.5 Q334 117 334 175 Q334 216 312.5 246.5 Q291 277 259 303 Q227 329 189 353.5 Q151 378 119 408 Q87 438 65.5 475 Q44 512 44 564 Q44 602 56.5 633 Q69 664 92 686 Q115 708 147 720 Q179 732 218 732 Q296 732 343.5 681.5 Q391 631 396 536 L324 536 Z " />
<glyph glyph-name="T" unicode="T" horiz-adv-x="389" d="M381 722 L381 656 L233 656 L233 0 L155 0 L155 656 L7 656 L7 722 L381 722 Z " />
<glyph glyph-name="U" unicode="U" horiz-adv-x="500" d="M144 722 L144 192 Q144 165 148.5 140 Q153 115 165 96.5 Q177 78 197.5 67 Q218 56 250 56 Q282 56 302.5 67 Q323 78 335 96.5 Q347 115 351.5 140 Q356 165 356 192 L356 722 L434 722 L434 190 Q434 146 423.5 109.5 Q413 73 390.5 46.5 Q368 20 333.5 5 Q299 -10 250 -10 Q201 -10 166.5 5 Q132 20 109.5 46.5 Q87 73 76.5 109.5 Q66 146 66 190 L66 722 L144 722 Z " />
<glyph glyph-name="V" unicode="V" horiz-adv-x="444" d="M94 722 L221 150 L223 150 L350 722 L428 722 L258 0 L186 0 L16 722 L94 722 Z " />
<glyph glyph-name="W" unicode="W" horiz-adv-x="611" d="M78 722 L164 158 L166 158 L274 722 L338 722 L450 158 L452 158 L532 722 L604 722 L488 0 L422 0 L308 567 L306 567 L192 0 L126 0 L6 722 L78 722 Z " />
<glyph glyph-name="X" unicode="X" horiz-adv-x="444" d="M104 722 L214 466 L316 722 L400 722 L258 384 L430 0 L346 0 L214 302 L98 0 L14 0 L170 384 L20 722 L104 722 Z " />
<glyph glyph-name="Y" unicode="Y" horiz-adv-x="444" d="M100 722 L224 406 L344 722 L428 722 L262 306 L262 0 L184 0 L184 306 L16 722 L100 722 Z " />
<glyph glyph-name="Z" unicode="Z" horiz-adv-x="444" d="M400 722 L400 668 L132 66 L400 66 L400 0 L44 0 L44 56 L304 656 L68 656 L68 722 L400 722 Z " />
<glyph glyph-name="bracketleft" unicode="&#x5b;" horiz-adv-x="278" d="M60 722 L244 722 L244 682 L126 682 L126 -60 L244 -60 L244 -100 L60 -100 L60 722 Z " />
<glyph glyph-name="backslash" unicode="&#x5c;" horiz-adv-x="278" d="M222 -10 L-10 732 L56 732 L288 -10 L222 -10 Z " />
<glyph glyph-name="bracketright" unicode="&#x5d;" horiz-adv-x="278" d="M218 -100 L34 -100 L34 -60 L152 -60 L152 682 L34 682 L34 722 L218 722 L218 -100 Z " />
<glyph glyph-name="asciicircum" unicode="&#x5e;" horiz-adv-x="600" d="M272 722 L328 722 L538 295 L466 295 L300 637 L134 295 L62 295 L272 722 Z " />
<glyph glyph-name="underscore" unicode="&#x5f;" horiz-adv-x="500" d="M0 -125 L0 -75 L500 -75 L500 -125 L0 -125 Z " />
<glyph glyph-name="quoteleft" unicode="&#x2018;" horiz-adv-x="222" d="M72 488 L72 588 L132 732 L162 732 L116 582 L156 582 L156 488 L72 488 Z " />
<glyph glyph-name="a" unicode="a" horiz-adv-x="444" d="M293 280 Q268 272 238 259.5 Q208 247 181.5 228.5 Q155 210 137.5 185.5 Q120 161 120 130 Q120 93 137.5 71.5 Q155 50 194 50 Q223 50 248 67 Q273 84 293 104 L293 280 Z M62 378 Q67 409 79 436.5 Q91 464 110 485 Q129 506 155 518 Q181 530 216 530 Q288 530 326.5 490.5 Q365 451 365 382 L365 92 Q365 57 368.5 33 Q372 9 378 0 L303 0 L294 44 Q283 33 269 23.5 Q255 14 240 6.5 Q225 -1 210 -5.5 Q195 -10 183 -10 Q122 -10 85 26 Q48 62 48 124 Q48 172 71.5 208.5 Q95 245 131.5 271.5 Q168 298 211 314.5 Q254 331 293 340 L293 377 Q293 420 273 445 Q253 470 218 470 Q197 470 181.5 460.5 Q166 451 155 436.5 Q144 422 137.5 404 Q131 386 128 368 L62 378 Z " />
<glyph glyph-name="b" unicode="b" horiz-adv-x="444" d="M150 100 Q167 77 188 63.5 Q209 50 226 50 Q248 50 266.5 60.5 Q285 71 297.5 95 Q310 119 317 159.5 Q324 200 324 260 Q324 320 317.5 360.5 Q311 401 299 425 Q287 449 269 459.5 Q251 470 228 470 Q204 470 185 455 Q166 440 150 424 L150 100 Z M122 0 L66 0 Q72 23 75 56 Q78 89 78 140 L78 722 L150 722 L150 482 Q168 500 192.5 515 Q217 530 246 530 Q277 530 304 516 Q331 502 351.5 470 Q372 438 384 386.5 Q396 335 396 260 Q396 185 384 133.5 Q372 82 351.5 50 Q331 18 304 4 Q277 -10 246 -10 Q211 -10 184.5 6 Q158 22 138 50 L122 0 Z " />
<glyph glyph-name="c" unicode="c" horiz-adv-x="389" d="M276 366 Q271 425 249 447.5 Q227 470 194 470 Q171 470 154.5 461.5 Q138 453 127.5 429.5 Q117 406 112 365 Q107 324 107 260 Q107 195 112 154.5 Q117 114 127.5 90.5 Q138 67 154.5 58.5 Q171 50 194 50 Q211 50 224.5 55 Q238 60 248.5 73 Q259 86 266 108 Q273 130 278 164 L348 164 Q343 126 332 94 Q321 62 302 39 Q283 16 256 3 Q229 -10 194 -10 Q112 -10 73.5 54.5 Q35 119 35 260 Q35 401 73.5 465.5 Q112 530 194 530 Q265 530 300 486.5 Q335 443 346 366 L276 366 Z " />
<glyph glyph-name="d" unicode="d" horiz-adv-x="444" d="M294 424 Q278 440 259 455 Q240 470 216 470 Q193 470 175 459.5 Q157 449 145 425 Q133 401 126.5 360.5 Q120 320 120 260 Q120 200 127 159.5 Q134 119 146.5 95 Q159 71 177 60.5 Q195 50 218 50 Q235 50 256 63.5 Q277 77 294 100 L294 424 Z M307 50 L305 50 Q286 22 259.5 6 Q233 -10 198 -10 Q167 -10 140 4 Q113 18 92.5 50 Q72 82 60 133.5 Q48 185 48 260 Q48 335 60 386.5 Q72 438 92.5 470 Q113 502 140 516 Q167 530 198 530 Q227 530 251.5 515 Q276 500 294 482 L294 722 L366 722 L366 140 Q366 89 369 56 Q372 23 378 0 L310 0 L307 50 Z " />
<glyph glyph-name="e" unicode="e" horiz-adv-x="389" d="M281 308 Q279 392 261 431 Q243 470 194 470 Q174 470 158.5 462 Q143 454 131.5 435.5 Q120 417 113.5 385.5 Q107 354 107 308 L281 308 Z M107 248 L107 219 Q107 171 112.5 139 Q118 107 130 87 Q142 67 160 58.5 Q178 50 204 50 Q225 50 239.5 58.5 Q254 67 264.5 81 Q275 95 281.5 112.5 Q288 130 291 148 L359 140 Q355 111 342 84 Q329 57 308 36 Q287 15 258.5 2.5 Q230 -10 194 -10 Q112 -10 73.5 54.5 Q35 119 35 260 Q35 401 73.5 465.5 Q112 530 194 530 Q235 530 265 512.5 Q295 495 314.5 462.5 Q334 430 343.5 384 Q353 338 353 282 L353 248 L107 248 Z " />
<glyph glyph-name="f" unicode="f" horiz-adv-x="278" d="M18 520 L98 520 L98 626 Q98 679 121.5 705.5 Q145 732 204 732 Q218 732 232.5 730 Q247 728 260 726 L260 670 Q243 678 221 678 Q195 678 182.5 663 Q170 648 170 623 L170 520 L254 520 L254 460 L170 460 L170 0 L98 0 L98 460 L18 460 L18 520 Z " />
<glyph glyph-name="g" unicode="g" horiz-adv-x="444" d="M336 -42 Q336 -24 321 -13 Q306 -2 283.5 5.5 Q261 13 234 18 Q207 23 184 28 Q152 14 133 -3.5 Q114 -21 114 -43 Q114 -75 141.5 -95.5 Q169 -116 228 -116 Q288 -116 312 -95 Q336 -74 336 -42 Z M140 345 Q140 271 162 242.5 Q184 214 216 214 Q232 214 245.5 220.5 Q259 227 269.5 242.5 Q280 258 286 283 Q292 308 292 345 Q292 382 286 407 Q280 432 269.5 447.5 Q259 463 245.5 469.5 Q232 476 216 476 Q184 476 162 447.5 Q140 419 140 345 Z M408 464 Q402 466 397 466 Q392 466 387 466 Q373 466 362.5 460.5 Q352 455 342 446 Q350 422 354 400 Q358 378 358 346 Q358 297 347.5 262 Q337 227 318 204.5 Q299 182 273.5 171 Q248 160 218 160 Q206 160 194 162 Q182 164 170 164 Q161 162 147.5 153.5 Q134 145 134 130 Q134 116 144.5 108 Q155 100 172 95 Q189 90 212 86 Q235 82 260 77 Q288 71 314 62.5 Q340 54 359.5 40 Q379 26 390.5 5 Q402 -16 402 -48 Q402 -74 390 -96 Q378 -118 355.5 -134.5 Q333 -151 300 -160.5 Q267 -170 226 -170 Q137 -170 92.5 -139.5 Q48 -109 48 -58 Q48 -23 68.5 4 Q89 31 124 46 Q101 54 84.5 72 Q68 90 68 116 Q68 145 89 162.5 Q110 180 136 185 Q121 196 109 213 Q97 230 89.5 250 Q82 270 78 292 Q74 314 74 334 Q74 428 115 479 Q156 530 225 530 Q251 530 279 518.5 Q307 507 320 482 Q332 503 353.5 516.5 Q375 530 408 530 L408 464 Z " />
<glyph glyph-name="h" unicode="h" horiz-adv-x="444" d="M72 722 L144 722 L144 463 Q167 489 199.5 509.5 Q232 530 258 530 Q312 530 342 498 Q372 466 372 394 L372 0 L300 0 L300 384 Q300 429 286 449.5 Q272 470 243 470 Q217 470 192.5 453 Q168 436 144 406 L144 0 L72 0 L72 722 Z " />
<glyph glyph-name="i" unicode="i" horiz-adv-x="222" d="M75 722 L147 722 L147 638 L75 638 L75 722 Z M75 520 L147 520 L147 0 L75 0 L75 520 Z " />
<glyph glyph-name="j" unicode="j" horiz-adv-x="222" d="M78 722 L150 722 L150 638 L78 638 L78 722 Z M4 -106 Q11 -108 17 -109 Q23 -110 28 -110 Q52 -110 65 -95.5 Q78 -81 78 -46 L78 520 L150 520 L150 -52 Q150 -117 124 -143.5 Q98 -170 44 -170 Q34 -170 24.5 -169 Q15 -168 4 -166 L4 -106 Z " />
<glyph glyph-name="k" unicode="k" horiz-adv-x="389" d="M66 722 L138 722 L138 266 L140 266 L278 520 L352 520 L256 354 L376 0 L302 0 L208 282 L206 282 L138 154 L138 0 L66 0 L66 722 Z " />
<glyph glyph-name="l" unicode="l" horiz-adv-x="222" d="M75 722 L147 722 L147 0 L75 0 L75 722 Z " />
<glyph glyph-name="m" unicode="m" horiz-adv-x="667" d="M80 0 L80 520 L146 520 L146 463 Q167 488 198 509 Q229 530 267 530 Q298 530 324 511.5 Q350 493 360 464 Q382 488 412.5 509 Q443 530 481 530 Q532 530 559 498 Q586 466 586 410 L586 0 L514 0 L514 400 Q514 441 501.5 455.5 Q489 470 460 470 Q427 470 406 451.5 Q385 433 369 416 L369 0 L297 0 L297 400 Q297 441 283 455.5 Q269 470 240 470 Q223 470 210 465 Q197 460 186.5 452 Q176 444 167.5 434.5 Q159 425 152 416 L152 0 L80 0 Z " />
<glyph glyph-name="n" unicode="n" horiz-adv-x="444" d="M72 520 L140 520 L140 463 Q166 489 199 509.5 Q232 530 258 530 Q312 530 342 498 Q372 466 372 394 L372 0 L300 0 L300 384 Q300 429 286 449.5 Q272 470 243 470 Q217 470 192.5 453 Q168 436 144 406 L144 0 L72 0 L72 520 Z " />
<glyph glyph-name="o" unicode="o" horiz-adv-x="389" d="M107 260 Q107 195 112 154.5 Q117 114 127.5 90.5 Q138 67 154.5 58.5 Q171 50 194 50 Q217 50 233.5 58.5 Q250 67 260.5 90.5 Q271 114 276 154.5 Q281 195 281 260 Q281 324 276 365 Q271 406 260.5 429.5 Q250 453 233.5 461.5 Q217 470 194 470 Q171 470 154.5 461.5 Q138 453 127.5 429.5 Q117 406 112 365 Q107 324 107 260 Z M35 260 Q35 401 73.5 465.5 Q112 530 194 530 Q276 530 314.5 465.5 Q353 401 353 260 Q353 119 314.5 54.5 Q276 -10 194 -10 Q112 -10 73.5 54.5 Q35 119 35 260 Z " />
<glyph glyph-name="p" unicode="p" horiz-adv-x="444" d="M150 96 Q166 80 185 65 Q204 50 228 50 Q251 50 269 60.5 Q287 71 299 95 Q311 119 317.5 159.5 Q324 200 324 260 Q324 320 317 360.5 Q310 401 297.5 425 Q285 449 266.5 459.5 Q248 470 226 470 Q209 470 188 456.5 Q167 443 150 420 L150 96 Z M138 470 L140 470 Q158 498 184.5 514 Q211 530 246 530 Q277 530 304 516 Q331 502 351.5 470 Q372 438 384 386.5 Q396 335 396 260 Q396 185 384 133.5 Q372 82 351.5 50 Q331 18 304 4 Q277 -10 246 -10 Q217 -10 192.5 5 Q168 20 150 38 L150 -170 L78 -170 L78 520 L138 520 L138 470 Z " />
<glyph glyph-name="q" unicode="q" horiz-adv-x="444" d="M294 420 Q277 443 256 456.5 Q235 470 218 470 Q195 470 177 459.5 Q159 449 146.5 425 Q134 401 127 360.5 Q120 320 120 260 Q120 200 126.5 159.5 Q133 119 145 95 Q157 71 175 60.5 Q193 50 216 50 Q240 50 259 65 Q278 80 294 96 L294 420 Z M306 520 L366 520 L366 -170 L294 -170 L294 38 Q276 20 251.5 5 Q227 -10 198 -10 Q167 -10 140 4 Q113 18 92.5 50 Q72 82 60 133.5 Q48 185 48 260 Q48 335 60 386.5 Q72 438 92.5 470 Q113 502 140 516 Q167 530 198 530 Q233 530 259.5 514 Q286 498 304 470 L306 470 L306 520 Z " />
<glyph glyph-name="r" unicode="r" horiz-adv-x="278" d="M66 520 L138 520 L138 457 L140 457 Q156 481 170.5 495 Q185 509 200.5 517 Q216 525 233.5 527.5 Q251 530 272 530 L272 462 Q252 462 234 458 Q216 454 199.5 443.5 Q183 433 168 415.5 Q153 398 138 370 L138 0 L66 0 L66 520 Z " />
<glyph glyph-name="s" unicode="s" horiz-adv-x="389" d="M274 388 Q269 405 262.5 420 Q256 435 246 446 Q236 457 221 463.5 Q206 470 184 470 Q158 470 142 452 Q126 434 126 408 Q126 382 142.5 362.5 Q159 343 183 326 Q207 309 236 292 Q265 275 289 253.5 Q313 232 329.5 203 Q346 174 346 134 Q346 103 335.5 77 Q325 51 306 31.5 Q287 12 261 1 Q235 -10 204 -10 Q133 -10 95 26 Q57 62 38 128 L104 142 Q110 125 118 108.5 Q126 92 137.5 79 Q149 66 164 58 Q179 50 199 50 Q214 50 227.5 56.5 Q241 63 251.5 73.5 Q262 84 268 98.5 Q274 113 274 129 Q274 159 257.5 180.5 Q241 202 217 219.5 Q193 237 164 254 Q135 271 111 291.5 Q87 312 70.5 339 Q54 366 54 404 Q54 429 64 452 Q74 475 92 492.5 Q110 510 134.5 520 Q159 530 189 530 Q249 530 285 497.5 Q321 465 334 406 L274 388 Z " />
<glyph glyph-name="t" unicode="t" horiz-adv-x="278" d="M8 520 L78 520 L78 694 L150 694 L150 520 L246 520 L246 460 L150 460 L150 96 Q150 73 162.5 58.5 Q175 44 202 44 Q213 44 225 47.5 Q237 51 246 54 L246 0 Q231 -5 216 -7.5 Q201 -10 178 -10 Q127 -10 102.5 16 Q78 42 78 102 L78 460 L8 460 L8 520 Z " />
<glyph glyph-name="u" unicode="u" horiz-adv-x="444" d="M372 0 L304 0 L304 57 Q278 31 245 10.5 Q212 -10 186 -10 Q132 -10 102 22 Q72 54 72 126 L72 520 L144 520 L144 136 Q144 91 158 70.5 Q172 50 201 50 Q227 50 251.5 67 Q276 84 300 114 L300 520 L372 520 L372 0 Z " />
<glyph glyph-name="v" unicode="v" horiz-adv-x="389" d="M90 520 L194 72 L196 72 L298 520 L370 520 L242 0 L146 0 L18 520 L90 520 Z " />
<glyph glyph-name="w" unicode="w" horiz-adv-x="556" d="M86 520 L160 138 L162 138 L246 520 L314 520 L400 138 L402 138 L470 520 L538 520 L430 0 L370 0 L280 404 L278 404 L188 0 L128 0 L18 520 L86 520 Z " />
<glyph glyph-name="x" unicode="x" horiz-adv-x="333" d="M1 520 L75 520 L161 338 L237 520 L311 520 L199 270 L331 0 L257 0 L163 204 L75 0 L1 0 L121 270 L1 520 Z " />
<glyph glyph-name="y" unicode="y" horiz-adv-x="333" d="M76 520 L174 122 L176 122 L256 520 L330 520 L211 11 Q191 -75 152 -122.5 Q113 -170 47 -170 L10 -170 L10 -110 L32 -110 Q75 -110 102 -80.5 Q129 -51 140 4 L2 520 L76 520 Z " />
<glyph glyph-name="z" unicode="z" horiz-adv-x="333" d="M39 520 L309 520 L309 472 L103 60 L309 60 L309 0 L23 0 L23 54 L223 460 L39 460 L39 520 Z " />
<glyph glyph-name="braceleft" unicode="&#x7b;" horiz-adv-x="278" d="M16 331 Q47 331 60.5 349 Q74 367 74 415 L74 636 Q74 684 100 708 Q126 732 168 732 L232 732 L232 692 L180 692 Q140 692 140 640 L140 405 Q140 382 133 365 Q126 348 115.5 337 Q105 326 91 320 Q77 314 64 312 L64 310 Q77 308 91 302 Q105 296 115.5 285 Q126 274 133 257 Q140 240 140 217 L140 -18 Q140 -70 180 -70 L232 -70 L232 -110 L168 -110 Q126 -110 100 -86 Q74 -62 74 -14 L74 207 Q74 255 60.5 273 Q47 291 16 291 L16 331 Z " />
<glyph glyph-name="bar" unicode="&#x7c;" horiz-adv-x="222" d="M78 732 L144 732 L144 -10 L78 -10 L78 732 Z " />
<glyph glyph-name="braceright" unicode="&#x7d;" horiz-adv-x="278" d="M262 291 Q231 291 217.5 273 Q204 255 204 207 L204 -14 Q204 -62 178 -86 Q152 -110 110 -110 L46 -110 L46 -70 L98 -70 Q138 -70 138 -18 L138 217 Q138 240 145 257 Q152 274 162.5 285 Q173 296 186.5 302 Q200 308 214 310 L214 312 Q200 314 186.5 320 Q173 326 162.5 337 Q152 348 145 365 Q138 382 138 405 L138 640 Q138 692 98 692 L46 692 L46 732 L110 732 Q152 732 178 708 Q204 684 204 636 L204 415 Q204 367 217.5 349 Q231 331 262 331 L262 291 Z " />
<glyph glyph-name="asciitilde" unicode="&#x7e;" horiz-adv-x="600" d="M540 281 Q531 265 519 249 Q507 233 491 220.5 Q475 208 455 200.5 Q435 193 409 193 Q383 193 353.5 202.5 Q324 212 294 226 Q265 238 237.5 249.5 Q210 261 189 261 Q158 261 137 238.5 Q116 216 98 189 L60 239 Q69 255 81 271 Q93 287 109 299.5 Q125 312 145 319.5 Q165 327 191 327 Q217 327 246.5 317.5 Q276 308 306 294 Q335 282 362.5 270.5 Q390 259 411 259 Q442 259 463 281.5 Q484 304 502 331 L540 281 Z " />
<glyph glyph-name="exclamdown" unicode="&#xa1;" horiz-adv-x="333" d="M125 426 L125 520 L209 520 L209 426 L125 426 Z M209 -202 L125 -202 L141 306 L193 306 L209 -202 Z " />
<glyph glyph-name="cent" unicode="&#xa2;" horiz-adv-x="444" d="M242 477 Q233 480 220 480 Q197 480 180.5 471.5 Q164 463 153.5 439.5 Q143 416 138 375 Q133 334 133 270 Q133 201 138.5 160 Q144 119 156 97 L242 477 Z M196 63 Q206 60 220 60 Q237 60 250.5 65 Q264 70 274.5 83 Q285 96 292 118 Q299 140 304 174 L374 174 Q369 136 358 104 Q347 72 328 49 Q309 26 282 13 Q255 0 220 0 Q197 0 183 5 L156 -114 L108 -114 L139 22 Q99 49 80 109.5 Q61 170 61 270 Q61 411 99.5 475.5 Q138 540 220 540 Q238 540 255 537 L280 650 L328 650 L299 520 Q330 500 347.5 463.5 Q365 427 372 376 L302 376 Q298 422 282 446 L196 63 Z " />
<glyph glyph-name="sterling" unicode="&#xa3;" horiz-adv-x="444" d="M32 58 Q57 70 73.5 89.5 Q90 109 100 132.5 Q110 156 114 182.5 Q118 209 118 234 Q118 263 115 284 Q112 305 110 330 L32 330 L32 390 L98 390 Q90 428 80 468.5 Q70 509 70 551 Q70 599 82 633 Q94 667 114 689 Q134 711 160 721.5 Q186 732 215 732 Q263 732 295 714.5 Q327 697 346 668 Q365 639 373.5 601.5 Q382 564 384 524 L318 524 Q314 555 307.5 582.5 Q301 610 290 629.5 Q279 649 262.5 660.5 Q246 672 222 672 Q184 672 163 648.5 Q142 625 142 562 Q142 517 152 474.5 Q162 432 170 390 L276 390 L276 330 L182 330 Q184 310 187 289 Q190 268 190 246 Q190 213 185 180.5 Q180 148 166 116 Q187 92 211 75 Q235 58 264 58 Q279 58 292.5 63.5 Q306 69 316 84 Q326 99 332 124.5 Q338 150 338 190 L404 190 Q404 132 396 93.5 Q388 55 371 32 Q354 9 327.5 -0.5 Q301 -10 265 -10 Q247 -10 229 -4 Q211 2 194.5 12.5 Q178 23 163.5 37 Q149 51 139 66 Q119 39 92.5 17 Q66 -5 32 -10 L32 58 Z " />
<glyph glyph-name="&amp;#x2044;" unicode="&#x2044;" horiz-adv-x="167" d="M-167 -10 L272 732 L334 732 L-105 -10 L-167 -10 Z " />
<glyph glyph-name="&amp;#x2215;" unicode="&#x2215;" horiz-adv-x="167" d="M-167 -10 L272 732 L334 732 L-105 -10 L-167 -10 Z " />
<glyph glyph-name="yen" unicode="&#xa5;" horiz-adv-x="444" d="M353 722 L425 722 L317 450 L419 450 L419 390 L293 390 L259 306 L259 298 L419 298 L419 238 L259 238 L259 0 L187 0 L187 238 L27 238 L27 298 L187 298 L187 306 L153 390 L27 390 L27 450 L129 450 L19 722 L91 722 L224 390 L353 722 Z " />
<glyph glyph-name="florin" unicode="&#x192;" horiz-adv-x="444" d="M34 -100 Q54 -110 76 -110 Q89 -110 100.5 -106.5 Q112 -103 122 -88 Q132 -73 141 -42 Q150 -11 158.5 44 Q167 99 175.5 182.5 Q184 266 194 386 L106 386 L106 446 L198 446 Q201 530 214 585 Q227 640 249 673 Q271 706 300.5 719 Q330 732 366 732 Q378 732 390 731 Q402 730 414 728 L414 664 Q403 666 392 669 Q381 672 370 672 Q348 672 332 665.5 Q316 659 304 636 Q292 613 284 568 Q276 523 270 446 L356 446 L356 386 L266 386 Q256 262 246 172.5 Q236 83 224 21.5 Q212 -40 197.5 -78 Q183 -116 164.5 -136.5 Q146 -157 122.5 -163.5 Q99 -170 70 -170 Q62 -170 52.5 -169 Q43 -168 34 -166 L34 -100 Z " />
<glyph glyph-name="section" unicode="&#xa7;" horiz-adv-x="500" d="M130 396 Q130 379 151 347.5 Q172 316 201.5 284.5 Q231 253 263 229.5 Q295 206 317 206 Q340 206 355 224.5 Q370 243 370 265 Q370 286 349 318.5 Q328 351 299 382 Q270 413 239 435.5 Q208 458 188 458 Q159 458 144.5 441 Q130 424 130 396 Z M344 614 Q336 625 325.5 636.5 Q315 648 303 657 Q291 666 277 672 Q263 678 250 678 Q215 678 200.5 662.5 Q186 647 186 619 Q186 597 204.5 572 Q223 547 251 519.5 Q279 492 311 462.5 Q343 433 371 402 Q399 371 417.5 338.5 Q436 306 436 273 Q436 222 404.5 193 Q373 164 324 164 Q347 138 365.5 106.5 Q384 75 384 37 Q384 11 374 -11.5 Q364 -34 347 -50 Q330 -66 307.5 -75 Q285 -84 259 -84 Q206 -84 167.5 -62.5 Q129 -41 98 0 L146 38 Q163 9 192.5 -10.5 Q222 -30 257 -30 Q283 -30 300.5 -10.5 Q318 9 318 34 Q318 60 299 87 Q280 114 252 143 Q224 172 191 202 Q158 232 130 264.5 Q102 297 83 331 Q64 365 64 401 Q64 424 74 442.5 Q84 461 100 473.5 Q116 486 137 493 Q158 500 180 500 Q152 527 136 557 Q120 587 120 626 Q120 647 128 666 Q136 685 151.5 700 Q167 715 190 723.5 Q213 732 242 732 Q287 732 325 708.5 Q363 685 392 652 L344 614 Z " />
<glyph glyph-name="currency" unicode="&#xa4;" horiz-adv-x="444" d="M78 361 Q78 328 88.5 300 Q99 272 118 252 Q137 232 163.5 220.5 Q190 209 222 209 Q254 209 280.5 220.5 Q307 232 326 252 Q345 272 355.5 300 Q366 328 366 361 Q366 394 355.5 422 Q345 450 326 470 Q307 490 280.5 501.5 Q254 513 222 513 Q190 513 163.5 501.5 Q137 490 118 470 Q99 450 88.5 422 Q78 394 78 361 Z M396 143 L350 190 Q324 166 290 155.5 Q256 145 222 145 Q188 145 154 155.5 Q120 166 94 190 L48 143 L6 185 L52 234 Q31 255 19.5 290.5 Q8 326 8 361 Q8 396 19.5 431.5 Q31 467 52 488 L6 537 L48 579 L94 532 Q120 556 154 566.5 Q188 577 222 577 Q256 577 290 566.5 Q324 556 350 532 L396 579 L438 537 L392 488 Q413 467 424.5 431.5 Q436 396 436 361 Q436 326 424.5 290.5 Q413 255 392 234 L438 185 L396 143 Z " />
<glyph glyph-name="quotesingle" unicode="&#x27;" horiz-adv-x="222" d="M80 722 L142 722 L142 466 L80 466 L80 722 Z " />
<glyph glyph-name="quotedblleft" unicode="&#x201c;" horiz-adv-x="389" d="M72 488 L72 588 L132 732 L162 732 L116 582 L156 582 L156 488 L72 488 Z M239 488 L239 588 L299 732 L329 732 L283 582 L323 582 L323 488 L239 488 Z " />
<glyph glyph-name="guillemotleft" unicode="&#xab;" horiz-adv-x="500" d="M350 106 L226 260 L350 414 L418 414 L290 260 L418 106 L350 106 Z M206 106 L82 260 L206 414 L274 414 L146 260 L274 106 L206 106 Z " />
<glyph glyph-name="guilsinglleft" unicode="&#x2039;" horiz-adv-x="333" d="M196 106 L72 260 L196 414 L264 414 L136 260 L264 106 L196 106 Z " />
<glyph glyph-name="guilsinglright" unicode="&#x203a;" horiz-adv-x="333" d="M69 106 L197 260 L69 414 L137 414 L261 260 L137 106 L69 106 Z " />
<glyph glyph-name="fi" unicode="&#xfb01;" horiz-adv-x="444" d="M307 722 L379 722 L379 638 L307 638 L307 722 Z M307 520 L379 520 L379 0 L307 0 L307 520 Z M2 520 L82 520 L82 626 Q82 679 105.5 705.5 Q129 732 188 732 Q202 732 216.5 730 Q231 728 244 726 L244 670 Q227 678 205 678 Q179 678 166.5 663 Q154 648 154 623 L154 520 L238 520 L238 460 L154 460 L154 0 L82 0 L82 460 L2 460 L2 520 Z " />
<glyph glyph-name="fl" unicode="&#xfb02;" horiz-adv-x="444" d="M307 722 L379 722 L379 0 L307 0 L307 722 Z M2 520 L82 520 L82 626 Q82 679 105.5 705.5 Q129 732 188 732 Q202 732 216.5 730 Q231 728 244 726 L244 670 Q227 678 205 678 Q179 678 166.5 663 Q154 648 154 623 L154 520 L238 520 L238 460 L154 460 L154 0 L82 0 L82 460 L2 460 L2 520 Z " />
<glyph glyph-name="endash" unicode="&#x2013;" horiz-adv-x="500" d="M0 236 L0 284 L500 284 L500 236 L0 236 Z " />
<glyph glyph-name="dagger" unicode="&#x2020;" horiz-adv-x="500" d="M74 552 L234 528 Q232 588 223.5 643.5 Q215 699 210 732 L290 732 Q285 699 276.5 643.5 Q268 588 266 528 L426 552 L426 474 L266 498 Q268 453 276 406 Q284 359 290 324 Q284 294 280 247.5 Q276 201 273 145.5 Q270 90 267.5 30.5 Q265 -29 262 -84 L238 -84 Q235 -29 232.5 30.5 Q230 90 227 145.5 Q224 201 220 247.5 Q216 294 210 324 Q216 359 224 406 Q232 453 234 498 L74 474 L74 552 Z " />
<glyph glyph-name="daggerdbl" unicode="&#x2021;" horiz-adv-x="500" d="M426 474 L266 498 Q268 453 276 406 Q284 359 290 324 Q284 289 276 242 Q268 195 266 150 L426 174 L426 96 L266 120 Q268 60 276.5 4.5 Q285 -51 290 -84 L210 -84 Q215 -51 223.5 4.5 Q232 60 234 120 L74 96 L74 174 L234 150 Q232 195 224 242 Q216 289 210 324 Q216 359 224 406 Q232 453 234 498 L74 474 L74 552 L234 528 Q232 588 223.5 643.5 Q215 699 210 732 L290 732 Q285 699 276.5 643.5 Q268 588 266 528 L426 552 L426 474 Z " />
<glyph glyph-name="&amp;#xb7;" unicode="&#xb7;" horiz-adv-x="222" d="M62 260 Q62 280 76.5 294.5 Q91 309 111 309 Q131 309 145.5 294.5 Q160 280 160 260 Q160 240 145.5 225.5 Q131 211 111 211 Q91 211 76.5 225.5 Q62 240 62 260 Z " />
<glyph glyph-name="&amp;#x2219;" unicode="&#x2219;" horiz-adv-x="222" d="M62 260 Q62 280 76.5 294.5 Q91 309 111 309 Q131 309 145.5 294.5 Q160 280 160 260 Q160 240 145.5 225.5 Q131 211 111 211 Q91 211 76.5 225.5 Q62 240 62 260 Z " />
<glyph glyph-name="paragraph" unicode="&#xb6;" horiz-adv-x="500" d="M215 340 Q169 340 131.5 354 Q94 368 67 393.5 Q40 419 25.5 453 Q11 487 11 528 Q11 580 29 616.5 Q47 653 76 676.5 Q105 700 143 711 Q181 722 221 722 L502 722 L502 668 L432 668 L432 -84 L366 -84 L366 668 L281 668 L281 -84 L215 -84 L215 340 Z " />
<glyph glyph-name="bullet" unicode="&#x2022;" horiz-adv-x="500" d="M69 361 Q69 398 83 431 Q97 464 121.5 488.5 Q146 513 178.5 527 Q211 541 249 541 Q286 541 319 527 Q352 513 377 488.5 Q402 464 416 431 Q430 398 430 361 Q430 323 416 290.5 Q402 258 377 233 Q352 208 319 194 Q286 180 249 180 Q211 180 178.5 194 Q146 208 121.5 233 Q97 258 83 290.5 Q69 323 69 361 Z " />
<glyph glyph-name="quotesinglbase" unicode="&#x201a;" horiz-adv-x="222" d="M150 94 L150 -6 L90 -150 L60 -150 L106 0 L66 0 L66 94 L150 94 Z " />
<glyph glyph-name="quotedblbase" unicode="&#x201e;" horiz-adv-x="389" d="M317 94 L317 -6 L257 -150 L227 -150 L273 0 L233 0 L233 94 L317 94 Z M150 94 L150 -6 L90 -150 L60 -150 L106 0 L66 0 L66 94 L150 94 Z " />
<glyph glyph-name="quotedblright" unicode="&#x201d;" horiz-adv-x="389" d="M317 722 L317 622 L257 478 L227 478 L273 628 L233 628 L233 722 L317 722 Z M150 722 L150 622 L90 478 L60 478 L106 628 L66 628 L66 722 L150 722 Z " />
<glyph glyph-name="guillemotright" unicode="&#xbb;" horiz-adv-x="500" d="M150 414 L274 260 L150 106 L82 106 L210 260 L82 414 L150 414 Z M294 414 L418 260 L294 106 L226 106 L354 260 L226 414 L294 414 Z " />
<glyph glyph-name="ellipsis" unicode="&#x2026;" horiz-adv-x="1000" d="M542 94 L542 0 L458 0 L458 94 L542 94 Z M875 94 L875 0 L791 0 L791 94 L875 94 Z M209 94 L209 0 L125 0 L125 94 L209 94 Z " />
<glyph glyph-name="perthousand" unicode="&#x2030;" horiz-adv-x="1000" d="M76 574 Q76 556 83 539.5 Q90 523 102 510 Q114 497 131 489.5 Q148 482 168 482 Q188 482 205 489.5 Q222 497 234 510 Q246 523 253 539.5 Q260 556 260 574 Q260 592 253 608.5 Q246 625 234 638 Q222 651 205 658.5 Q188 666 168 666 Q148 666 131 658.5 Q114 651 102 638 Q90 625 83 608.5 Q76 592 76 574 Z M740 148 Q740 130 747 113.5 Q754 97 766 84 Q778 71 795 63.5 Q812 56 832 56 Q852 56 869 63.5 Q886 71 898 84 Q910 97 917 113.5 Q924 130 924 148 Q924 166 917 182.5 Q910 199 898 212 Q886 225 869 232.5 Q852 240 832 240 Q812 240 795 232.5 Q778 225 766 212 Q754 199 747 182.5 Q740 166 740 148 Z M384 148 Q384 130 391 113.5 Q398 97 410 84 Q422 71 439 63.5 Q456 56 476 56 Q496 56 513 63.5 Q530 71 542 84 Q554 97 561 113.5 Q568 130 568 148 Q568 166 561 182.5 Q554 199 542 212 Q530 225 513 232.5 Q496 240 476 240 Q456 240 439 232.5 Q422 225 410 212 Q398 199 391 182.5 Q384 166 384 148 Z M558 732 L144 -10 L86 -10 L500 732 L558 732 Z M328 148 Q328 178 340 204.5 Q352 231 372.5 251.5 Q393 272 419.5 284 Q446 296 476 296 Q506 296 532.5 284 Q559 272 579.5 251.5 Q600 231 612 204.5 Q624 178 624 148 Q624 118 612 91.5 Q600 65 579.5 44.5 Q559 24 532.5 12 Q506 0 476 0 Q446 0 419.5 12 Q393 24 372.5 44.5 Q352 65 340 91.5 Q328 118 328 148 Z M684 148 Q684 178 696 204.5 Q708 231 728.5 251.5 Q749 272 775.5 284 Q802 296 832 296 Q862 296 888.5 284 Q915 272 935.5 251.5 Q956 231 968 204.5 Q980 178 980 148 Q980 118 968 91.5 Q956 65 935.5 44.5 Q915 24 888.5 12 Q862 0 832 0 Q802 0 775.5 12 Q749 24 728.5 44.5 Q708 65 696 91.5 Q684 118 684 148 Z M20 574 Q20 604 32 630.5 Q44 657 64.5 677.5 Q85 698 111.5 710 Q138 722 168 722 Q198 722 224.5 710 Q251 698 271.5 677.5 Q292 657 304 630.5 Q316 604 316 574 Q316 544 304 517.5 Q292 491 271.5 470.5 Q251 450 224.5 438 Q198 426 168 426 Q138 426 111.5 438 Q85 450 64.5 470.5 Q44 491 32 517.5 Q20 544 20 574 Z " />
<glyph glyph-name="questiondown" unicode="&#xbf;" horiz-adv-x="389" d="M194 426 L194 520 L278 520 L278 426 L194 426 Z M258 306 L258 256 Q258 217 249 187 Q240 157 226.5 131.5 Q213 106 197 83.5 Q181 61 167.5 37 Q154 13 145 -15 Q136 -43 136 -78 Q136 -117 154.5 -134.5 Q173 -152 194 -152 Q210 -152 223 -144 Q236 -136 244.5 -123.5 Q253 -111 258 -96 Q263 -81 265 -66 L325 -78 Q322 -106 312 -130.5 Q302 -155 285 -173 Q268 -191 244.5 -201.5 Q221 -212 191 -212 Q166 -212 143 -203.5 Q120 -195 102.5 -178.5 Q85 -162 74.5 -137 Q64 -112 64 -78 Q64 -36 74 -4.5 Q84 27 99.5 53 Q115 79 133 102 Q151 125 166.5 149 Q182 173 192 201 Q202 229 202 266 L202 306 L258 306 Z " />
<glyph glyph-name="grave" unicode="&#x60;" horiz-adv-x="222" d="M-8 716 L70 716 L168 578 L118 578 L-8 716 Z " />
<glyph glyph-name="acute" unicode="&#xb4;" horiz-adv-x="222" d="M104 578 L54 578 L152 716 L230 716 L104 578 Z " />
<glyph glyph-name="circumflex" unicode="&#x2c6;" horiz-adv-x="222" d="M77 716 L145 716 L246 578 L182 578 L111 680 L40 578 L-24 578 L77 716 Z " />
<glyph glyph-name="tilde" unicode="&#x2dc;" horiz-adv-x="222" d="M-30 588 Q-30 604 -24.5 621.5 Q-19 639 -9 653 Q1 667 15 676.5 Q29 686 47 686 Q66 686 83.5 679 Q101 672 118 664 Q135 656 150 649 Q165 642 178 642 Q200 642 207 657.5 Q214 673 216 692 L252 692 Q251 674 246.5 656 Q242 638 233 624.5 Q224 611 209.5 602.5 Q195 594 174 594 Q158 594 141.5 601 Q125 608 108 616 Q91 624 75.5 631 Q60 638 46 638 Q25 638 16.5 622.5 Q8 607 6 588 L-30 588 Z " />
<glyph glyph-name="&amp;#xaf;" unicode="&#xaf;" horiz-adv-x="222" d="M-22 614 L-22 662 L244 662 L244 614 L-22 614 Z " />
<glyph glyph-name="&amp;#x2c9;" unicode="&#x2c9;" horiz-adv-x="222" d="M-22 614 L-22 662 L244 662 L244 614 L-22 614 Z " />
<glyph glyph-name="breve" unicode="&#x2d8;" horiz-adv-x="222" d="M20 710 Q24 668 49 649 Q74 630 115 630 Q157 630 175.5 651 Q194 672 202 710 L240 710 Q235 649 200.5 615.5 Q166 582 105 582 Q77 582 55 592 Q33 602 17 619.5 Q1 637 -8 660 Q-17 683 -18 710 L20 710 Z " />
<glyph glyph-name="dotaccent" unicode="&#x2d9;" horiz-adv-x="222" d="M78 690 L144 690 L144 588 L78 588 L78 690 Z " />
<glyph glyph-name="dieresis" unicode="&#xa8;" horiz-adv-x="222" d="M144 690 L210 690 L210 588 L144 588 L144 690 Z M12 690 L78 690 L78 588 L12 588 L12 690 Z " />
<glyph glyph-name="ring" unicode="&#x2da;" horiz-adv-x="222" d="M58 673 Q58 652 74 636 Q90 620 111 620 Q132 620 148 636 Q164 652 164 673 Q164 694 148 710 Q132 726 111 726 Q90 726 74 710 Q58 694 58 673 Z M16 673 Q16 692 23 709.5 Q30 727 43 740 Q56 753 73.5 760.5 Q91 768 111 768 Q131 768 148.5 760.5 Q166 753 178.5 740 Q191 727 198.5 709.5 Q206 692 206 673 Q206 653 198.5 636 Q191 619 178.5 606 Q166 593 148.5 585.5 Q131 578 111 578 Q91 578 73.5 585.5 Q56 593 43 606 Q30 619 23 636 Q16 653 16 673 Z " />
<glyph glyph-name="cedilla" unicode="&#xb8;" horiz-adv-x="222" d="M22 -156 Q34 -161 50.5 -165.5 Q67 -170 87 -170 Q117 -170 135.5 -158.5 Q154 -147 154 -129 Q154 -112 140 -99 Q126 -86 100 -86 Q88 -86 78 -89 Q68 -92 58 -96 L44 -82 L104 0 L142 0 L96 -58 L98 -60 Q108 -54 129 -54 Q161 -54 184.5 -72 Q208 -90 208 -126 Q208 -147 199.5 -163.5 Q191 -180 176 -191.5 Q161 -203 141.5 -209.5 Q122 -216 100 -216 Q71 -216 49.5 -212.5 Q28 -209 8 -200 L22 -156 Z " />
<glyph glyph-name="hungarumlaut" unicode="&#x2dd;" horiz-adv-x="222" d="M160 578 L110 578 L208 716 L286 716 L160 578 Z M44 578 L-4 578 L86 716 L166 716 L44 578 Z " />
<glyph glyph-name="ogonek" unicode="&#x2db;" horiz-adv-x="222" d="M199 8 Q180 1 153 -10 Q126 -21 101.5 -36 Q77 -51 60 -70.5 Q43 -90 43 -115 Q43 -144 59 -156 Q75 -168 102 -168 Q130 -168 159.5 -153.5 Q189 -139 208 -127 L224 -159 Q194 -180 154.5 -197 Q115 -214 77 -214 Q43 -214 16 -193.5 Q-11 -173 -11 -128 Q-11 -90 11 -64.5 Q33 -39 65.5 -22.5 Q98 -6 134 3 Q170 12 199 18 L199 8 Z " />
<glyph glyph-name="caron" unicode="&#x2c7;" horiz-adv-x="222" d="M-24 716 L40 716 L111 614 L182 716 L246 716 L145 578 L77 578 L-24 716 Z " />
<glyph glyph-name="emdash" unicode="&#x2014;" horiz-adv-x="1000" d="M0 236 L0 284 L1000 284 L1000 236 L0 236 Z " />
<glyph glyph-name="AE" unicode="&#xc6;" horiz-adv-x="722" d="M358 280 L358 678 L356 678 L200 280 L358 280 Z M674 722 L674 656 L436 656 L436 410 L622 410 L622 344 L436 344 L436 66 L686 66 L686 0 L358 0 L358 214 L174 214 L92 0 L9 0 L299 722 L674 722 Z " />
<glyph glyph-name="ordfeminine" unicode="&#xaa;" horiz-adv-x="266" d="M172 574 Q158 569 141 561.5 Q124 554 109 543.5 Q94 533 84 520 Q74 507 74 492 Q74 470 83 461 Q92 452 115 452 Q134 452 149 462 Q164 472 172 484 L172 574 Z M30 641 Q36 678 60 705 Q84 732 129 732 Q177 732 201.5 708.5 Q226 685 226 643 L226 469 Q226 449 228 434 Q230 419 234 414 L182 414 L176 432 Q165 420 144.5 414 Q124 408 108 408 Q68 408 44 430 Q20 452 20 492 Q20 521 35.5 543 Q51 565 73.5 580.5 Q96 596 122.5 606.5 Q149 617 172 622 L172 640 Q172 664 162.5 676 Q153 688 130 688 Q104 688 92 672 Q80 656 76 635 L30 641 Z " />
<glyph glyph-name="Oslash" unicode="&#xd8;" horiz-adv-x="500" d="M326 627 Q309 649 290 657.5 Q271 666 250 666 Q224 666 201 653 Q178 640 161 605.5 Q144 571 134 512 Q124 453 124 361 Q124 296 129 248 Q134 200 143 167 L145 167 L326 627 Z M171 100 Q188 75 207.5 65.5 Q227 56 250 56 Q276 56 299 69 Q322 82 339 116.5 Q356 151 366 210 Q376 269 376 361 Q376 430 370.5 479.5 Q365 529 356 564 L354 564 L171 100 Z M84 -120 L30 -120 L106 70 Q77 115 61.5 186 Q46 257 46 361 Q46 462 60.5 532.5 Q75 603 102 647.5 Q129 692 166.5 712 Q204 732 250 732 Q311 732 354 698 L396 804 L450 804 L392 656 Q421 611 437.5 539 Q454 467 454 361 Q454 260 439.5 189.5 Q425 119 398 74.5 Q371 30 333.5 10 Q296 -10 250 -10 Q219 -10 192 -1 Q165 8 142 28 L84 -120 Z " />
<glyph glyph-name="OE" unicode="&#x152;" horiz-adv-x="722" d="M362 554 Q362 614 340.5 634 Q319 654 270 654 Q234 654 205 641 Q176 628 156 595 Q136 562 125 505 Q114 448 114 361 Q114 274 125 217 Q136 160 156 127 Q176 94 205 81 Q234 68 270 68 Q319 68 340.5 88 Q362 108 362 168 L362 554 Z M440 66 L686 66 L686 0 L300 0 Q231 0 181 16.5 Q131 33 99 74 Q67 115 51.5 184.5 Q36 254 36 361 Q36 468 51.5 537.5 Q67 607 99 648 Q131 689 181 705.5 Q231 722 300 722 L674 722 L674 656 L440 656 L440 410 L618 410 L618 344 L440 344 L440 66 Z " />
<glyph glyph-name="ordmasculine" unicode="&#xba;" horiz-adv-x="233" d="M163 570 Q163 605 160.5 627.5 Q158 650 152 663 Q146 676 137 681 Q128 686 115 686 Q102 686 93.5 681 Q85 676 79.5 663 Q74 650 71.5 627.5 Q69 605 69 570 Q69 535 71.5 512.5 Q74 490 79.5 477 Q85 464 93.5 459 Q102 454 115 454 Q128 454 137 459 Q146 464 152 477 Q158 490 160.5 512.5 Q163 535 163 570 Z M13 570 Q13 655 37 693.5 Q61 732 115 732 Q169 732 194 693.5 Q219 655 219 570 Q219 485 194 446.5 Q169 408 115 408 Q61 408 37 446.5 Q13 485 13 570 Z " />
<glyph glyph-name="ae" unicode="&#xe6;" horiz-adv-x="611" d="M503 308 Q501 392 483 431 Q465 470 416 470 Q380 470 355.5 432 Q331 394 329 308 L503 308 Z M257 280 Q239 272 212.5 259.5 Q186 247 161.5 228.5 Q137 210 119.5 185.5 Q102 161 102 130 Q102 93 119.5 71.5 Q137 50 176 50 Q199 50 222 67 Q245 84 257 104 L257 280 Z M329 248 L329 219 Q329 171 338 139 Q347 107 361 87 Q375 67 392 58.5 Q409 50 426 50 Q447 50 461.5 58.5 Q476 67 486.5 81 Q497 95 503.5 112.5 Q510 130 513 148 L581 140 Q577 111 564 84 Q551 57 531 36 Q511 15 484 2.5 Q457 -10 425 -10 Q383 -10 349.5 5 Q316 20 295 61 Q253 16 220 3 Q187 -10 165 -10 Q104 -10 67 26 Q30 62 30 124 Q30 172 53.5 208.5 Q77 245 111.5 271.5 Q146 298 185.5 314.5 Q225 331 257 340 L257 377 Q257 425 238.5 447.5 Q220 470 190 470 Q174 470 161 460.5 Q148 451 137.5 436.5 Q127 422 120 404 Q113 386 110 368 L44 378 Q49 409 61 436.5 Q73 464 91.5 485 Q110 506 136.5 518 Q163 530 197 530 Q237 530 263 511.5 Q289 493 303 466 Q326 499 355 514.5 Q384 530 416 530 Q457 530 487 512.5 Q517 495 536.5 462.5 Q556 430 565.5 384 Q575 338 575 282 L575 248 L329 248 Z " />
<glyph glyph-name="dotlessi" unicode="&#x131;" horiz-adv-x="222" d="M75 520 L147 520 L147 0 L75 0 L75 520 Z " />
<glyph glyph-name="oslash" unicode="&#xf8;" horiz-adv-x="389" d="M145 67 Q154 57 166.5 53.5 Q179 50 194 50 Q217 50 233.5 58.5 Q250 67 260.5 90.5 Q271 114 276 154.5 Q281 195 281 260 Q281 343 273 389 L271 389 L145 67 Z M246 451 Q228 470 194 470 Q171 470 154.5 461.5 Q138 453 127.5 429.5 Q117 406 112 365 Q107 324 107 260 Q107 170 116 124 L118 124 L246 451 Z M306 476 Q353 413 353 260 Q353 119 314.5 54.5 Q276 -10 194 -10 Q150 -10 122 8 L71 -120 L21 -120 L84 39 Q35 103 35 260 Q35 401 73.5 465.5 Q112 530 194 530 Q241 530 270 510 L317 630 L367 630 L306 476 Z " />
<glyph glyph-name="oe" unicode="&#x153;" horiz-adv-x="611" d="M505 308 Q503 392 485 431 Q467 470 418 470 Q387 470 366.5 433 Q346 396 343 308 L505 308 Z M95 260 Q95 195 100 154.5 Q105 114 115.5 90.5 Q126 67 142.5 58.5 Q159 50 182 50 Q205 50 221.5 58.5 Q238 67 249 90.5 Q260 114 265.5 154.5 Q271 195 271 260 Q271 324 265.5 365 Q260 406 249 429.5 Q238 453 221.5 461.5 Q205 470 182 470 Q159 470 142.5 461.5 Q126 453 115.5 429.5 Q105 406 100 365 Q95 324 95 260 Z M343 248 L343 219 Q343 171 350 139 Q357 107 368.5 87 Q380 67 395.5 58.5 Q411 50 428 50 Q449 50 463.5 58.5 Q478 67 488.5 81 Q499 95 504.5 112.5 Q510 130 513 148 L581 140 Q578 111 565.5 84 Q553 57 533 36 Q513 15 486 2.5 Q459 -10 427 -10 Q392 -10 359.5 7 Q327 24 305 71 Q273 -10 182 -10 Q100 -10 61.5 54.5 Q23 119 23 260 Q23 401 61.5 465.5 Q100 530 182 530 Q230 530 260.5 509 Q291 488 308 442 Q328 487 356.5 508.5 Q385 530 418 530 Q459 530 489 512.5 Q519 495 538.5 462.5 Q558 430 567.5 384 Q577 338 577 282 L577 248 L343 248 Z " />
<glyph glyph-name="germandbls" unicode="&#xdf;" horiz-adv-x="444" d="M72 580 Q72 609 81.5 636.5 Q91 664 109.5 685 Q128 706 155.5 719 Q183 732 218 732 Q292 732 335 682.5 Q378 633 378 550 Q378 491 359.5 457.5 Q341 424 306 404 Q324 395 341 381 Q358 367 371.5 344.5 Q385 322 393.5 288.5 Q402 255 402 206 Q402 143 391 101.5 Q380 60 361.5 35 Q343 10 318 0 Q293 -10 265 -10 Q237 -10 210 2 L210 64 Q233 50 259 50 Q274 50 286.5 56 Q299 62 309 78.5 Q319 95 324.5 122.5 Q330 150 330 194 Q330 290 306 329 Q282 368 222 368 L222 428 Q262 431 284 457 Q306 483 306 551 Q306 585 299 608 Q292 631 280.5 645.5 Q269 660 253.5 666 Q238 672 222 672 Q187 672 165.5 646.5 Q144 621 144 580 L144 0 L72 0 L72 580 Z " />
<glyph glyph-name="logicalnot" unicode="&#xac;" horiz-adv-x="600" d="M494 334 L40 334 L40 400 L560 400 L560 120 L494 120 L494 334 Z " />
<glyph glyph-name="&amp;#xb5;" unicode="&#xb5;" horiz-adv-x="444" d="M372 0 L304 0 L304 57 Q278 31 245 10.5 Q212 -10 186 -10 Q162 -10 144 -4 L144 -170 L72 -170 L72 520 L144 520 L144 136 Q144 91 158 70.5 Q172 50 201 50 Q227 50 251.5 67 Q276 84 300 114 L300 520 L372 520 L372 0 Z " />
<glyph glyph-name="&amp;#x3bc;" unicode="&#x3bc;" horiz-adv-x="444" d="M372 0 L304 0 L304 57 Q278 31 245 10.5 Q212 -10 186 -10 Q162 -10 144 -4 L144 -170 L72 -170 L72 520 L144 520 L144 136 Q144 91 158 70.5 Q172 50 201 50 Q227 50 251.5 67 Q276 84 300 114 L300 520 L372 520 L372 0 Z " />
<glyph glyph-name="trademark" unicode="&#x2122;" horiz-adv-x="990" d="M372 668 L238 668 L238 299 L172 299 L172 668 L38 668 L38 722 L372 722 L372 668 Z M506 299 L440 299 L440 722 L545 722 L671 401 L795 722 L901 722 L901 299 L835 299 L835 656 L833 656 L692 299 L648 299 L509 656 L506 656 L506 299 Z " />
<glyph glyph-name="plusminus" unicode="&#xb1;" horiz-adv-x="600" d="M40 66 L560 66 L560 0 L40 0 L40 66 Z M267 520 L333 520 L333 350 L560 350 L560 284 L333 284 L333 114 L267 114 L267 284 L40 284 L40 350 L267 350 L267 520 Z " />
<glyph glyph-name="divide" unicode="&#xf7;" horiz-adv-x="600" d="M234 464 Q234 491 253.5 510.5 Q273 530 300 530 Q327 530 346.5 510.5 Q366 491 366 464 Q366 437 346.5 417.5 Q327 398 300 398 Q273 398 253.5 417.5 Q234 437 234 464 Z M234 56 Q234 83 253.5 102.5 Q273 122 300 122 Q327 122 346.5 102.5 Q366 83 366 56 Q366 29 346.5 9.5 Q327 -10 300 -10 Q273 -10 253.5 9.5 Q234 29 234 56 Z M40 227 L40 293 L560 293 L560 227 L40 227 Z " />
<glyph glyph-name="degree" unicode="&#xb0;" horiz-adv-x="400" d="M296 584 Q296 605 288.5 623.5 Q281 642 268.5 656 Q256 670 238.5 678 Q221 686 200 686 Q179 686 161.5 678 Q144 670 131.5 656 Q119 642 111.5 623.5 Q104 605 104 584 Q104 563 111.5 544.5 Q119 526 131.5 512 Q144 498 161.5 490 Q179 482 200 482 Q221 482 238.5 490 Q256 498 268.5 512 Q281 526 288.5 544.5 Q296 563 296 584 Z M52 584 Q52 614 63.5 641 Q75 668 95 688.5 Q115 709 142 720.5 Q169 732 200 732 Q231 732 258 720.5 Q285 709 305 688.5 Q325 668 336.5 641 Q348 614 348 584 Q348 554 336.5 527 Q325 500 305 479.5 Q285 459 258 447.5 Q231 436 200 436 Q169 436 142 447.5 Q115 459 95 479.5 Q75 500 63.5 527 Q52 554 52 584 Z " />
<glyph glyph-name="registered" unicode="&#xae;" horiz-adv-x="800" d="M325 388 L397 388 Q427 388 448 390.5 Q469 393 482.5 400.5 Q496 408 502 421 Q508 434 508 456 Q508 489 486.5 504.5 Q465 520 413 520 L325 520 L325 388 Z M325 142 L259 142 L259 576 L424 576 Q574 576 574 453 Q574 424 565 402.5 Q556 381 541.5 367 Q527 353 508 345 Q489 337 469 334 L586 142 L507 142 L392 332 L325 332 L325 142 Z M401 50 Q465 50 520 73.5 Q575 97 615.5 139 Q656 181 679 238 Q702 295 702 362 Q702 428 679 484.5 Q656 541 615.5 582.5 Q575 624 520 648 Q465 672 401 672 Q336 672 281 648 Q226 624 185 582.5 Q144 541 121 484.5 Q98 428 98 362 Q98 295 121 238 Q144 181 185 139 Q226 97 281 73.5 Q336 50 401 50 Z M401 -10 Q324 -10 256 18.5 Q188 47 137 96.5 Q86 146 56 214 Q26 282 26 362 Q26 441 56 508.5 Q86 576 137 625.5 Q188 675 256 703.5 Q324 732 401 732 Q477 732 545 703.5 Q613 675 664 625.5 Q715 576 744.5 508.5 Q774 441 774 362 Q774 282 744.5 214 Q715 146 664 96.5 Q613 47 545 18.5 Q477 -10 401 -10 Z " />
<glyph glyph-name="copyright" unicode="&#xa9;" horiz-adv-x="800" d="M598 290 Q590 254 573 224.5 Q556 195 532 174.5 Q508 154 477.5 142.5 Q447 131 413 131 Q363 131 322 149 Q281 167 252 198 Q223 229 207.5 271 Q192 313 192 362 Q192 411 207 453 Q222 495 250 526 Q278 557 318.5 574 Q359 591 410 591 Q445 591 476.5 581 Q508 571 533 551.5 Q558 532 574.5 503.5 Q591 475 597 438 L534 438 Q526 478 493.5 504.5 Q461 531 411 531 Q375 531 347.5 518 Q320 505 301.5 482.5 Q283 460 273.5 429.5 Q264 399 264 364 Q264 329 274 298 Q284 267 303.5 243 Q323 219 350.5 205 Q378 191 413 191 Q463 191 495 219 Q527 247 534 290 L598 290 Z M401 50 Q465 50 520 73.5 Q575 97 615.5 139 Q656 181 679 238 Q702 295 702 362 Q702 428 679 484.5 Q656 541 615.5 582.5 Q575 624 520 648 Q465 672 401 672 Q336 672 281 648 Q226 624 185 582.5 Q144 541 121 484.5 Q98 428 98 362 Q98 295 121 238 Q144 181 185 139 Q226 97 281 73.5 Q336 50 401 50 Z M401 -10 Q324 -10 256 18.5 Q188 47 137 96.5 Q86 146 56 214 Q26 282 26 362 Q26 441 56 508.5 Q86 576 137 625.5 Q188 675 256 703.5 Q324 732 401 732 Q477 732 545 703.5 Q613 675 664 625.5 Q715 576 744.5 508.5 Q774 441 774 362 Q774 282 744.5 214 Q715 146 664 96.5 Q613 47 545 18.5 Q477 -10 401 -10 Z " />
<glyph glyph-name="numbersign" unicode="&#x23;" horiz-adv-x="444" d="M184 439 L166 283 L266 283 L283 439 L184 439 Z M402 227 L318 227 L293 0 L234 0 L259 227 L160 227 L135 0 L76 0 L102 227 L18 227 L18 283 L108 283 L126 439 L43 439 L43 495 L131 495 L157 722 L215 722 L190 495 L289 495 L314 722 L373 722 L347 495 L426 495 L426 439 L342 439 L324 283 L402 283 L402 227 Z " />
<glyph glyph-name="Aacute" unicode="&#xc1;" horiz-adv-x="444" d="M215 760 L165 760 L263 898 L341 898 L215 760 Z M141 280 L303 280 L223 668 L221 668 L141 280 Z M276 722 L435 0 L357 0 L314 214 L130 214 L87 0 L9 0 L168 722 L276 722 Z " />
<glyph glyph-name="Acircumflex" unicode="&#xc2;" horiz-adv-x="444" d="M188 898 L256 898 L357 760 L293 760 L222 862 L151 760 L87 760 L188 898 Z M141 280 L303 280 L223 668 L221 668 L141 280 Z M276 722 L435 0 L357 0 L314 214 L130 214 L87 0 L9 0 L168 722 L276 722 Z " />
<glyph glyph-name="Adieresis" unicode="&#xc4;" horiz-adv-x="444" d="M255 872 L321 872 L321 770 L255 770 L255 872 Z M123 872 L189 872 L189 770 L123 770 L123 872 Z M141 280 L303 280 L223 668 L221 668 L141 280 Z M276 722 L435 0 L357 0 L314 214 L130 214 L87 0 L9 0 L168 722 L276 722 Z " />
<glyph glyph-name="Agrave" unicode="&#xc0;" horiz-adv-x="444" d="M103 898 L181 898 L279 760 L229 760 L103 898 Z M141 280 L303 280 L223 668 L221 668 L141 280 Z M276 722 L435 0 L357 0 L314 214 L130 214 L87 0 L9 0 L168 722 L276 722 Z " />
<glyph glyph-name="Aring" unicode="&#xc5;" horiz-adv-x="444" d="M169 855 Q169 834 185 818 Q201 802 222 802 Q243 802 259 818 Q275 834 275 855 Q275 876 259 892 Q243 908 222 908 Q201 908 185 892 Q169 876 169 855 Z M127 855 Q127 874 134 891.5 Q141 909 154 922 Q167 935 184.5 942.5 Q202 950 222 950 Q242 950 259.5 942.5 Q277 935 289.5 922 Q302 909 309.5 891.5 Q317 874 317 855 Q317 835 309.5 818 Q302 801 289.5 788 Q277 775 259.5 767.5 Q242 760 222 760 Q202 760 184.5 767.5 Q167 775 154 788 Q141 801 134 818 Q127 835 127 855 Z M141 280 L303 280 L223 668 L221 668 L141 280 Z M276 722 L435 0 L357 0 L314 214 L130 214 L87 0 L9 0 L168 722 L276 722 Z " />
<glyph glyph-name="Atilde" unicode="&#xc3;" horiz-adv-x="444" d="M81 770 Q81 786 86.5 803.5 Q92 821 102 835 Q112 849 126 858.5 Q140 868 158 868 Q177 868 194.5 861 Q212 854 229 846 Q246 838 261 831 Q276 824 289 824 Q311 824 318 839.5 Q325 855 327 874 L363 874 Q362 856 357.5 838 Q353 820 344 806.5 Q335 793 320.5 784.5 Q306 776 285 776 Q269 776 252.5 783 Q236 790 219 798 Q202 806 186.5 813 Q171 820 157 820 Q136 820 127.5 804.5 Q119 789 117 770 L81 770 Z M141 280 L303 280 L223 668 L221 668 L141 280 Z M276 722 L435 0 L357 0 L314 214 L130 214 L87 0 L9 0 L168 722 L276 722 Z " />
<glyph glyph-name="Ccedilla" unicode="&#xc7;" horiz-adv-x="500" d="M161 -156 Q173 -161 189.5 -165.5 Q206 -170 226 -170 Q256 -170 274.5 -158.5 Q293 -147 293 -129 Q293 -112 279 -99 Q265 -86 239 -86 Q227 -86 217 -89 Q207 -92 197 -96 L183 -82 L236 -9 Q192 -6 156.5 16 Q121 38 96.5 82 Q72 126 59 194.5 Q46 263 46 361 Q46 463 60.5 534 Q75 605 102 649 Q129 693 168 712.5 Q207 732 255 732 Q336 732 383.5 676 Q431 620 440 504 L362 504 Q354 590 327.5 628 Q301 666 255 666 Q221 666 196 650 Q171 634 155 598 Q139 562 131.5 503.5 Q124 445 124 361 Q124 277 131.5 218.5 Q139 160 155 124 Q171 88 196 72 Q221 56 255 56 Q282 56 303.5 66 Q325 76 340 98 Q355 120 363 155 Q371 190 372 240 L450 240 Q448 125 403 61 Q358 -3 273 -9 L235 -58 L237 -60 Q247 -54 268 -54 Q300 -54 323.5 -72 Q347 -90 347 -126 Q347 -147 338.5 -163.5 Q330 -180 315 -191.5 Q300 -203 280.5 -209.5 Q261 -216 239 -216 Q210 -216 188.5 -212.5 Q167 -209 147 -200 L161 -156 Z " />
<glyph glyph-name="Eacute" unicode="&#xc9;" horiz-adv-x="444" d="M221 760 L171 760 L269 898 L347 898 L221 760 Z M396 722 L396 656 L144 656 L144 410 L330 410 L330 344 L144 344 L144 66 L408 66 L408 0 L66 0 L66 722 L396 722 Z " />
<glyph glyph-name="Ecircumflex" unicode="&#xca;" horiz-adv-x="444" d="M194 898 L262 898 L363 760 L299 760 L228 862 L157 760 L93 760 L194 898 Z M396 722 L396 656 L144 656 L144 410 L330 410 L330 344 L144 344 L144 66 L408 66 L408 0 L66 0 L66 722 L396 722 Z " />
<glyph glyph-name="Edieresis" unicode="&#xcb;" horiz-adv-x="444" d="M129 872 L195 872 L195 770 L129 770 L129 872 Z M261 872 L327 872 L327 770 L261 770 L261 872 Z M396 722 L396 656 L144 656 L144 410 L330 410 L330 344 L144 344 L144 66 L408 66 L408 0 L66 0 L66 722 L396 722 Z " />
<glyph glyph-name="Egrave" unicode="&#xc8;" horiz-adv-x="444" d="M109 898 L187 898 L285 760 L235 760 L109 898 Z M396 722 L396 656 L144 656 L144 410 L330 410 L330 344 L144 344 L144 66 L408 66 L408 0 L66 0 L66 722 L396 722 Z " />
<glyph glyph-name="Iacute" unicode="&#xcd;" horiz-adv-x="222" d="M104 760 L54 760 L152 898 L230 898 L104 760 Z M150 722 L150 0 L72 0 L72 722 L150 722 Z " />
<glyph glyph-name="Icircumflex" unicode="&#xce;" horiz-adv-x="222" d="M77 898 L145 898 L246 760 L182 760 L111 862 L40 760 L-24 760 L77 898 Z M150 722 L150 0 L72 0 L72 722 L150 722 Z " />
<glyph glyph-name="Idieresis" unicode="&#xcf;" horiz-adv-x="222" d="M12 872 L78 872 L78 770 L12 770 L12 872 Z M144 872 L210 872 L210 770 L144 770 L144 872 Z M150 722 L150 0 L72 0 L72 722 L150 722 Z " />
<glyph glyph-name="Igrave" unicode="&#xcc;" horiz-adv-x="222" d="M-8 898 L70 898 L168 760 L118 760 L-8 898 Z M150 722 L150 0 L72 0 L72 722 L150 722 Z " />
<glyph glyph-name="Ntilde" unicode="&#xd1;" horiz-adv-x="500" d="M109 770 Q109 786 114.5 803.5 Q120 821 130 835 Q140 849 154 858.5 Q168 868 186 868 Q205 868 222.5 861 Q240 854 257 846 Q274 838 289 831 Q304 824 317 824 Q339 824 346 839.5 Q353 855 355 874 L391 874 Q390 856 385.5 838 Q381 820 372 806.5 Q363 793 348.5 784.5 Q334 776 313 776 Q297 776 280.5 783 Q264 790 247 798 Q230 806 214.5 813 Q199 820 185 820 Q164 820 155.5 804.5 Q147 789 145 770 L109 770 Z M178 722 L364 190 L366 190 L366 722 L444 722 L444 0 L360 0 L136 628 L134 628 L134 0 L56 0 L56 722 L178 722 Z " />
<glyph glyph-name="Oacute" unicode="&#xd3;" horiz-adv-x="500" d="M243 760 L193 760 L291 898 L369 898 L243 760 Z M376 361 Q376 453 366 512 Q356 571 339 605.5 Q322 640 299 653 Q276 666 250 666 Q224 666 201 653 Q178 640 161 605.5 Q144 571 134 512 Q124 453 124 361 Q124 269 134 210 Q144 151 161 116.5 Q178 82 201 69 Q224 56 250 56 Q276 56 299 69 Q322 82 339 116.5 Q356 151 366 210 Q376 269 376 361 Z M454 361 Q454 260 439.5 189.5 Q425 119 398 74.5 Q371 30 333.5 10 Q296 -10 250 -10 Q204 -10 166.5 10 Q129 30 102 74.5 Q75 119 60.5 189.5 Q46 260 46 361 Q46 462 60.5 532.5 Q75 603 102 647.5 Q129 692 166.5 712 Q204 732 250 732 Q296 732 333.5 712 Q371 692 398 647.5 Q425 603 439.5 532.5 Q454 462 454 361 Z " />
<glyph glyph-name="Ocircumflex" unicode="&#xd4;" horiz-adv-x="500" d="M216 898 L284 898 L385 760 L321 760 L250 862 L179 760 L115 760 L216 898 Z M376 361 Q376 453 366 512 Q356 571 339 605.5 Q322 640 299 653 Q276 666 250 666 Q224 666 201 653 Q178 640 161 605.5 Q144 571 134 512 Q124 453 124 361 Q124 269 134 210 Q144 151 161 116.5 Q178 82 201 69 Q224 56 250 56 Q276 56 299 69 Q322 82 339 116.5 Q356 151 366 210 Q376 269 376 361 Z M454 361 Q454 260 439.5 189.5 Q425 119 398 74.5 Q371 30 333.5 10 Q296 -10 250 -10 Q204 -10 166.5 10 Q129 30 102 74.5 Q75 119 60.5 189.5 Q46 260 46 361 Q46 462 60.5 532.5 Q75 603 102 647.5 Q129 692 166.5 712 Q204 732 250 732 Q296 732 333.5 712 Q371 692 398 647.5 Q425 603 439.5 532.5 Q454 462 454 361 Z " />
<glyph glyph-name="Odieresis" unicode="&#xd6;" horiz-adv-x="500" d="M283 872 L349 872 L349 770 L283 770 L283 872 Z M151 872 L217 872 L217 770 L151 770 L151 872 Z M376 361 Q376 453 366 512 Q356 571 339 605.5 Q322 640 299 653 Q276 666 250 666 Q224 666 201 653 Q178 640 161 605.5 Q144 571 134 512 Q124 453 124 361 Q124 269 134 210 Q144 151 161 116.5 Q178 82 201 69 Q224 56 250 56 Q276 56 299 69 Q322 82 339 116.5 Q356 151 366 210 Q376 269 376 361 Z M454 361 Q454 260 439.5 189.5 Q425 119 398 74.5 Q371 30 333.5 10 Q296 -10 250 -10 Q204 -10 166.5 10 Q129 30 102 74.5 Q75 119 60.5 189.5 Q46 260 46 361 Q46 462 60.5 532.5 Q75 603 102 647.5 Q129 692 166.5 712 Q204 732 250 732 Q296 732 333.5 712 Q371 692 398 647.5 Q425 603 439.5 532.5 Q454 462 454 361 Z " />
<glyph glyph-name="Ograve" unicode="&#xd2;" horiz-adv-x="500" d="M131 898 L209 898 L307 760 L257 760 L131 898 Z M376 361 Q376 453 366 512 Q356 571 339 605.5 Q322 640 299 653 Q276 666 250 666 Q224 666 201 653 Q178 640 161 605.5 Q144 571 134 512 Q124 453 124 361 Q124 269 134 210 Q144 151 161 116.5 Q178 82 201 69 Q224 56 250 56 Q276 56 299 69 Q322 82 339 116.5 Q356 151 366 210 Q376 269 376 361 Z M454 361 Q454 260 439.5 189.5 Q425 119 398 74.5 Q371 30 333.5 10 Q296 -10 250 -10 Q204 -10 166.5 10 Q129 30 102 74.5 Q75 119 60.5 189.5 Q46 260 46 361 Q46 462 60.5 532.5 Q75 603 102 647.5 Q129 692 166.5 712 Q204 732 250 732 Q296 732 333.5 712 Q371 692 398 647.5 Q425 603 439.5 532.5 Q454 462 454 361 Z " />
<glyph glyph-name="Otilde" unicode="&#xd5;" horiz-adv-x="500" d="M109 770 Q109 786 114.5 803.5 Q120 821 130 835 Q140 849 154 858.5 Q168 868 186 868 Q205 868 222.5 861 Q240 854 257 846 Q274 838 289 831 Q304 824 317 824 Q339 824 346 839.5 Q353 855 355 874 L391 874 Q390 856 385.5 838 Q381 820 372 806.5 Q363 793 348.5 784.5 Q334 776 313 776 Q297 776 280.5 783 Q264 790 247 798 Q230 806 214.5 813 Q199 820 185 820 Q164 820 155.5 804.5 Q147 789 145 770 L109 770 Z M376 361 Q376 453 366 512 Q356 571 339 605.5 Q322 640 299 653 Q276 666 250 666 Q224 666 201 653 Q178 640 161 605.5 Q144 571 134 512 Q124 453 124 361 Q124 269 134 210 Q144 151 161 116.5 Q178 82 201 69 Q224 56 250 56 Q276 56 299 69 Q322 82 339 116.5 Q356 151 366 210 Q376 269 376 361 Z M454 361 Q454 260 439.5 189.5 Q425 119 398 74.5 Q371 30 333.5 10 Q296 -10 250 -10 Q204 -10 166.5 10 Q129 30 102 74.5 Q75 119 60.5 189.5 Q46 260 46 361 Q46 462 60.5 532.5 Q75 603 102 647.5 Q129 692 166.5 712 Q204 732 250 732 Q296 732 333.5 712 Q371 692 398 647.5 Q425 603 439.5 532.5 Q454 462 454 361 Z " />
<glyph glyph-name="Uacute" unicode="&#xda;" horiz-adv-x="500" d="M243 760 L193 760 L291 898 L369 898 L243 760 Z M144 722 L144 192 Q144 165 148.5 140 Q153 115 165 96.5 Q177 78 197.5 67 Q218 56 250 56 Q282 56 302.5 67 Q323 78 335 96.5 Q347 115 351.5 140 Q356 165 356 192 L356 722 L434 722 L434 190 Q434 146 423.5 109.5 Q413 73 390.5 46.5 Q368 20 333.5 5 Q299 -10 250 -10 Q201 -10 166.5 5 Q132 20 109.5 46.5 Q87 73 76.5 109.5 Q66 146 66 190 L66 722 L144 722 Z " />
<glyph glyph-name="Ucircumflex" unicode="&#xdb;" horiz-adv-x="500" d="M216 898 L284 898 L385 760 L321 760 L250 862 L179 760 L115 760 L216 898 Z M144 722 L144 192 Q144 165 148.5 140 Q153 115 165 96.5 Q177 78 197.5 67 Q218 56 250 56 Q282 56 302.5 67 Q323 78 335 96.5 Q347 115 351.5 140 Q356 165 356 192 L356 722 L434 722 L434 190 Q434 146 423.5 109.5 Q413 73 390.5 46.5 Q368 20 333.5 5 Q299 -10 250 -10 Q201 -10 166.5 5 Q132 20 109.5 46.5 Q87 73 76.5 109.5 Q66 146 66 190 L66 722 L144 722 Z " />
<glyph glyph-name="Udieresis" unicode="&#xdc;" horiz-adv-x="500" d="M151 872 L217 872 L217 770 L151 770 L151 872 Z M283 872 L349 872 L349 770 L283 770 L283 872 Z M144 722 L144 192 Q144 165 148.5 140 Q153 115 165 96.5 Q177 78 197.5 67 Q218 56 250 56 Q282 56 302.5 67 Q323 78 335 96.5 Q347 115 351.5 140 Q356 165 356 192 L356 722 L434 722 L434 190 Q434 146 423.5 109.5 Q413 73 390.5 46.5 Q368 20 333.5 5 Q299 -10 250 -10 Q201 -10 166.5 5 Q132 20 109.5 46.5 Q87 73 76.5 109.5 Q66 146 66 190 L66 722 L144 722 Z " />
<glyph glyph-name="Ugrave" unicode="&#xd9;" horiz-adv-x="500" d="M131 898 L209 898 L307 760 L257 760 L131 898 Z M144 722 L144 192 Q144 165 148.5 140 Q153 115 165 96.5 Q177 78 197.5 67 Q218 56 250 56 Q282 56 302.5 67 Q323 78 335 96.5 Q347 115 351.5 140 Q356 165 356 192 L356 722 L434 722 L434 190 Q434 146 423.5 109.5 Q413 73 390.5 46.5 Q368 20 333.5 5 Q299 -10 250 -10 Q201 -10 166.5 5 Q132 20 109.5 46.5 Q87 73 76.5 109.5 Q66 146 66 190 L66 722 L144 722 Z " />
<glyph glyph-name="Ydieresis" unicode="&#x178;" horiz-adv-x="444" d="M123 872 L189 872 L189 770 L123 770 L123 872 Z M255 872 L321 872 L321 770 L255 770 L255 872 Z M100 722 L224 406 L344 722 L428 722 L262 306 L262 0 L184 0 L184 306 L16 722 L100 722 Z " />
<glyph glyph-name="aacute" unicode="&#xe1;" horiz-adv-x="444" d="M215 578 L165 578 L263 716 L341 716 L215 578 Z M293 280 Q268 272 238 259.5 Q208 247 181.5 228.5 Q155 210 137.5 185.5 Q120 161 120 130 Q120 93 137.5 71.5 Q155 50 194 50 Q223 50 248 67 Q273 84 293 104 L293 280 Z M62 378 Q67 409 79 436.5 Q91 464 110 485 Q129 506 155 518 Q181 530 216 530 Q288 530 326.5 490.5 Q365 451 365 382 L365 92 Q365 57 368.5 33 Q372 9 378 0 L303 0 L294 44 Q283 33 269 23.5 Q255 14 240 6.5 Q225 -1 210 -5.5 Q195 -10 183 -10 Q122 -10 85 26 Q48 62 48 124 Q48 172 71.5 208.5 Q95 245 131.5 271.5 Q168 298 211 314.5 Q254 331 293 340 L293 377 Q293 420 273 445 Q253 470 218 470 Q197 470 181.5 460.5 Q166 451 155 436.5 Q144 422 137.5 404 Q131 386 128 368 L62 378 Z " />
<glyph glyph-name="acircumflex" unicode="&#xe2;" horiz-adv-x="444" d="M188 716 L256 716 L357 578 L293 578 L222 680 L151 578 L87 578 L188 716 Z M293 280 Q268 272 238 259.5 Q208 247 181.5 228.5 Q155 210 137.5 185.5 Q120 161 120 130 Q120 93 137.5 71.5 Q155 50 194 50 Q223 50 248 67 Q273 84 293 104 L293 280 Z M62 378 Q67 409 79 436.5 Q91 464 110 485 Q129 506 155 518 Q181 530 216 530 Q288 530 326.5 490.5 Q365 451 365 382 L365 92 Q365 57 368.5 33 Q372 9 378 0 L303 0 L294 44 Q283 33 269 23.5 Q255 14 240 6.5 Q225 -1 210 -5.5 Q195 -10 183 -10 Q122 -10 85 26 Q48 62 48 124 Q48 172 71.5 208.5 Q95 245 131.5 271.5 Q168 298 211 314.5 Q254 331 293 340 L293 377 Q293 420 273 445 Q253 470 218 470 Q197 470 181.5 460.5 Q166 451 155 436.5 Q144 422 137.5 404 Q131 386 128 368 L62 378 Z " />
<glyph glyph-name="adieresis" unicode="&#xe4;" horiz-adv-x="444" d="M255 690 L321 690 L321 588 L255 588 L255 690 Z M123 690 L189 690 L189 588 L123 588 L123 690 Z M293 280 Q268 272 238 259.5 Q208 247 181.5 228.5 Q155 210 137.5 185.5 Q120 161 120 130 Q120 93 137.5 71.5 Q155 50 194 50 Q223 50 248 67 Q273 84 293 104 L293 280 Z M62 378 Q67 409 79 436.5 Q91 464 110 485 Q129 506 155 518 Q181 530 216 530 Q288 530 326.5 490.5 Q365 451 365 382 L365 92 Q365 57 368.5 33 Q372 9 378 0 L303 0 L294 44 Q283 33 269 23.5 Q255 14 240 6.5 Q225 -1 210 -5.5 Q195 -10 183 -10 Q122 -10 85 26 Q48 62 48 124 Q48 172 71.5 208.5 Q95 245 131.5 271.5 Q168 298 211 314.5 Q254 331 293 340 L293 377 Q293 420 273 445 Q253 470 218 470 Q197 470 181.5 460.5 Q166 451 155 436.5 Q144 422 137.5 404 Q131 386 128 368 L62 378 Z " />
<glyph glyph-name="agrave" unicode="&#xe0;" horiz-adv-x="444" d="M103 716 L181 716 L279 578 L229 578 L103 716 Z M293 280 Q268 272 238 259.5 Q208 247 181.5 228.5 Q155 210 137.5 185.5 Q120 161 120 130 Q120 93 137.5 71.5 Q155 50 194 50 Q223 50 248 67 Q273 84 293 104 L293 280 Z M62 378 Q67 409 79 436.5 Q91 464 110 485 Q129 506 155 518 Q181 530 216 530 Q288 530 326.5 490.5 Q365 451 365 382 L365 92 Q365 57 368.5 33 Q372 9 378 0 L303 0 L294 44 Q283 33 269 23.5 Q255 14 240 6.5 Q225 -1 210 -5.5 Q195 -10 183 -10 Q122 -10 85 26 Q48 62 48 124 Q48 172 71.5 208.5 Q95 245 131.5 271.5 Q168 298 211 314.5 Q254 331 293 340 L293 377 Q293 420 273 445 Q253 470 218 470 Q197 470 181.5 460.5 Q166 451 155 436.5 Q144 422 137.5 404 Q131 386 128 368 L62 378 Z " />
<glyph glyph-name="aring" unicode="&#xe5;" horiz-adv-x="444" d="M169 673 Q169 652 185 636 Q201 620 222 620 Q243 620 259 636 Q275 652 275 673 Q275 694 259 710 Q243 726 222 726 Q201 726 185 710 Q169 694 169 673 Z M127 673 Q127 692 134 709.5 Q141 727 154 740 Q167 753 184.5 760.5 Q202 768 222 768 Q242 768 259.5 760.5 Q277 753 289.5 740 Q302 727 309.5 709.5 Q317 692 317 673 Q317 653 309.5 636 Q302 619 289.5 606 Q277 593 259.5 585.5 Q242 578 222 578 Q202 578 184.5 585.5 Q167 593 154 606 Q141 619 134 636 Q127 653 127 673 Z M293 280 Q268 272 238 259.5 Q208 247 181.5 228.5 Q155 210 137.5 185.5 Q120 161 120 130 Q120 93 137.5 71.5 Q155 50 194 50 Q223 50 248 67 Q273 84 293 104 L293 280 Z M62 378 Q67 409 79 436.5 Q91 464 110 485 Q129 506 155 518 Q181 530 216 530 Q288 530 326.5 490.5 Q365 451 365 382 L365 92 Q365 57 368.5 33 Q372 9 378 0 L303 0 L294 44 Q283 33 269 23.5 Q255 14 240 6.5 Q225 -1 210 -5.5 Q195 -10 183 -10 Q122 -10 85 26 Q48 62 48 124 Q48 172 71.5 208.5 Q95 245 131.5 271.5 Q168 298 211 314.5 Q254 331 293 340 L293 377 Q293 420 273 445 Q253 470 218 470 Q197 470 181.5 460.5 Q166 451 155 436.5 Q144 422 137.5 404 Q131 386 128 368 L62 378 Z " />
<glyph glyph-name="atilde" unicode="&#xe3;" horiz-adv-x="444" d="M81 588 Q81 604 86.5 621.5 Q92 639 102 653 Q112 667 126 676.5 Q140 686 158 686 Q177 686 194.5 679 Q212 672 229 664 Q246 656 261 649 Q276 642 289 642 Q311 642 318 657.5 Q325 673 327 692 L363 692 Q362 674 357.5 656 Q353 638 344 624.5 Q335 611 320.5 602.5 Q306 594 285 594 Q269 594 252.5 601 Q236 608 219 616 Q202 624 186.5 631 Q171 638 157 638 Q136 638 127.5 622.5 Q119 607 117 588 L81 588 Z M293 280 Q268 272 238 259.5 Q208 247 181.5 228.5 Q155 210 137.5 185.5 Q120 161 120 130 Q120 93 137.5 71.5 Q155 50 194 50 Q223 50 248 67 Q273 84 293 104 L293 280 Z M62 378 Q67 409 79 436.5 Q91 464 110 485 Q129 506 155 518 Q181 530 216 530 Q288 530 326.5 490.5 Q365 451 365 382 L365 92 Q365 57 368.5 33 Q372 9 378 0 L303 0 L294 44 Q283 33 269 23.5 Q255 14 240 6.5 Q225 -1 210 -5.5 Q195 -10 183 -10 Q122 -10 85 26 Q48 62 48 124 Q48 172 71.5 208.5 Q95 245 131.5 271.5 Q168 298 211 314.5 Q254 331 293 340 L293 377 Q293 420 273 445 Q253 470 218 470 Q197 470 181.5 460.5 Q166 451 155 436.5 Q144 422 137.5 404 Q131 386 128 368 L62 378 Z " />
<glyph glyph-name="ccedilla" unicode="&#xe7;" horiz-adv-x="389" d="M106 -156 Q118 -161 134.5 -165.5 Q151 -170 171 -170 Q201 -170 219.5 -158.5 Q238 -147 238 -129 Q238 -112 224 -99 Q210 -86 184 -86 Q172 -86 162 -89 Q152 -92 142 -96 L128 -82 L181 -9 Q106 -5 70.5 59.5 Q35 124 35 260 Q35 401 73.5 465.5 Q112 530 194 530 Q265 530 300 486.5 Q335 443 346 366 L276 366 Q271 425 249 447.5 Q227 470 194 470 Q171 470 154.5 461.5 Q138 453 127.5 429.5 Q117 406 112 365 Q107 324 107 260 Q107 195 112 154.5 Q117 114 127.5 90.5 Q138 67 154.5 58.5 Q171 50 194 50 Q211 50 224.5 55 Q238 60 248.5 73 Q259 86 266 108 Q273 130 278 164 L348 164 Q340 94 309 47.5 Q278 1 219 -8 L180 -58 L182 -60 Q192 -54 213 -54 Q245 -54 268.5 -72 Q292 -90 292 -126 Q292 -147 283.5 -163.5 Q275 -180 260 -191.5 Q245 -203 225.5 -209.5 Q206 -216 184 -216 Q155 -216 133.5 -212.5 Q112 -209 92 -200 L106 -156 Z " />
<glyph glyph-name="eacute" unicode="&#xe9;" horiz-adv-x="389" d="M188 578 L138 578 L236 716 L314 716 L188 578 Z M281 308 Q279 392 261 431 Q243 470 194 470 Q174 470 158.5 462 Q143 454 131.5 435.5 Q120 417 113.5 385.5 Q107 354 107 308 L281 308 Z M107 248 L107 219 Q107 171 112.5 139 Q118 107 130 87 Q142 67 160 58.5 Q178 50 204 50 Q225 50 239.5 58.5 Q254 67 264.5 81 Q275 95 281.5 112.5 Q288 130 291 148 L359 140 Q355 111 342 84 Q329 57 308 36 Q287 15 258.5 2.5 Q230 -10 194 -10 Q112 -10 73.5 54.5 Q35 119 35 260 Q35 401 73.5 465.5 Q112 530 194 530 Q235 530 265 512.5 Q295 495 314.5 462.5 Q334 430 343.5 384 Q353 338 353 282 L353 248 L107 248 Z " />
<glyph glyph-name="ecircumflex" unicode="&#xea;" horiz-adv-x="389" d="M161 716 L229 716 L330 578 L266 578 L195 680 L124 578 L60 578 L161 716 Z M281 308 Q279 392 261 431 Q243 470 194 470 Q174 470 158.5 462 Q143 454 131.5 435.5 Q120 417 113.5 385.5 Q107 354 107 308 L281 308 Z M107 248 L107 219 Q107 171 112.5 139 Q118 107 130 87 Q142 67 160 58.5 Q178 50 204 50 Q225 50 239.5 58.5 Q254 67 264.5 81 Q275 95 281.5 112.5 Q288 130 291 148 L359 140 Q355 111 342 84 Q329 57 308 36 Q287 15 258.5 2.5 Q230 -10 194 -10 Q112 -10 73.5 54.5 Q35 119 35 260 Q35 401 73.5 465.5 Q112 530 194 530 Q235 530 265 512.5 Q295 495 314.5 462.5 Q334 430 343.5 384 Q353 338 353 282 L353 248 L107 248 Z " />
<glyph glyph-name="edieresis" unicode="&#xeb;" horiz-adv-x="389" d="M228 690 L294 690 L294 588 L228 588 L228 690 Z M96 690 L162 690 L162 588 L96 588 L96 690 Z M281 308 Q279 392 261 431 Q243 470 194 470 Q174 470 158.5 462 Q143 454 131.5 435.5 Q120 417 113.5 385.5 Q107 354 107 308 L281 308 Z M107 248 L107 219 Q107 171 112.5 139 Q118 107 130 87 Q142 67 160 58.5 Q178 50 204 50 Q225 50 239.5 58.5 Q254 67 264.5 81 Q275 95 281.5 112.5 Q288 130 291 148 L359 140 Q355 111 342 84 Q329 57 308 36 Q287 15 258.5 2.5 Q230 -10 194 -10 Q112 -10 73.5 54.5 Q35 119 35 260 Q35 401 73.5 465.5 Q112 530 194 530 Q235 530 265 512.5 Q295 495 314.5 462.5 Q334 430 343.5 384 Q353 338 353 282 L353 248 L107 248 Z " />
<glyph glyph-name="egrave" unicode="&#xe8;" horiz-adv-x="389" d="M76 716 L154 716 L252 578 L202 578 L76 716 Z M281 308 Q279 392 261 431 Q243 470 194 470 Q174 470 158.5 462 Q143 454 131.5 435.5 Q120 417 113.5 385.5 Q107 354 107 308 L281 308 Z M107 248 L107 219 Q107 171 112.5 139 Q118 107 130 87 Q142 67 160 58.5 Q178 50 204 50 Q225 50 239.5 58.5 Q254 67 264.5 81 Q275 95 281.5 112.5 Q288 130 291 148 L359 140 Q355 111 342 84 Q329 57 308 36 Q287 15 258.5 2.5 Q230 -10 194 -10 Q112 -10 73.5 54.5 Q35 119 35 260 Q35 401 73.5 465.5 Q112 530 194 530 Q235 530 265 512.5 Q295 495 314.5 462.5 Q334 430 343.5 384 Q353 338 353 282 L353 248 L107 248 Z " />
<glyph glyph-name="iacute" unicode="&#xed;" horiz-adv-x="222" d="M104 578 L54 578 L152 716 L230 716 L104 578 Z M75 520 L147 520 L147 0 L75 0 L75 520 Z " />
<glyph glyph-name="icircumflex" unicode="&#xee;" horiz-adv-x="222" d="M77 716 L145 716 L246 578 L182 578 L111 680 L40 578 L-24 578 L77 716 Z M75 520 L147 520 L147 0 L75 0 L75 520 Z " />
<glyph glyph-name="idieresis" unicode="&#xef;" horiz-adv-x="222" d="M12 690 L78 690 L78 588 L12 588 L12 690 Z M144 690 L210 690 L210 588 L144 588 L144 690 Z M75 520 L147 520 L147 0 L75 0 L75 520 Z " />
<glyph glyph-name="igrave" unicode="&#xec;" horiz-adv-x="222" d="M-8 716 L70 716 L168 578 L118 578 L-8 716 Z M75 520 L147 520 L147 0 L75 0 L75 520 Z " />
<glyph glyph-name="ntilde" unicode="&#xf1;" horiz-adv-x="444" d="M81 588 Q81 604 86.5 621.5 Q92 639 102 653 Q112 667 126 676.5 Q140 686 158 686 Q177 686 194.5 679 Q212 672 229 664 Q246 656 261 649 Q276 642 289 642 Q311 642 318 657.5 Q325 673 327 692 L363 692 Q362 674 357.5 656 Q353 638 344 624.5 Q335 611 320.5 602.5 Q306 594 285 594 Q269 594 252.5 601 Q236 608 219 616 Q202 624 186.5 631 Q171 638 157 638 Q136 638 127.5 622.5 Q119 607 117 588 L81 588 Z M72 520 L140 520 L140 463 Q166 489 199 509.5 Q232 530 258 530 Q312 530 342 498 Q372 466 372 394 L372 0 L300 0 L300 384 Q300 429 286 449.5 Q272 470 243 470 Q217 470 192.5 453 Q168 436 144 406 L144 0 L72 0 L72 520 Z " />
<glyph glyph-name="oacute" unicode="&#xf3;" horiz-adv-x="389" d="M188 578 L138 578 L236 716 L314 716 L188 578 Z M107 260 Q107 195 112 154.5 Q117 114 127.5 90.5 Q138 67 154.5 58.5 Q171 50 194 50 Q217 50 233.5 58.5 Q250 67 260.5 90.5 Q271 114 276 154.5 Q281 195 281 260 Q281 324 276 365 Q271 406 260.5 429.5 Q250 453 233.5 461.5 Q217 470 194 470 Q171 470 154.5 461.5 Q138 453 127.5 429.5 Q117 406 112 365 Q107 324 107 260 Z M35 260 Q35 401 73.5 465.5 Q112 530 194 530 Q276 530 314.5 465.5 Q353 401 353 260 Q353 119 314.5 54.5 Q276 -10 194 -10 Q112 -10 73.5 54.5 Q35 119 35 260 Z " />
<glyph glyph-name="ocircumflex" unicode="&#xf4;" horiz-adv-x="389" d="M161 716 L229 716 L330 578 L266 578 L195 680 L124 578 L60 578 L161 716 Z M107 260 Q107 195 112 154.5 Q117 114 127.5 90.5 Q138 67 154.5 58.5 Q171 50 194 50 Q217 50 233.5 58.5 Q250 67 260.5 90.5 Q271 114 276 154.5 Q281 195 281 260 Q281 324 276 365 Q271 406 260.5 429.5 Q250 453 233.5 461.5 Q217 470 194 470 Q171 470 154.5 461.5 Q138 453 127.5 429.5 Q117 406 112 365 Q107 324 107 260 Z M35 260 Q35 401 73.5 465.5 Q112 530 194 530 Q276 530 314.5 465.5 Q353 401 353 260 Q353 119 314.5 54.5 Q276 -10 194 -10 Q112 -10 73.5 54.5 Q35 119 35 260 Z " />
<glyph glyph-name="odieresis" unicode="&#xf6;" horiz-adv-x="389" d="M228 690 L294 690 L294 588 L228 588 L228 690 Z M96 690 L162 690 L162 588 L96 588 L96 690 Z M107 260 Q107 195 112 154.5 Q117 114 127.5 90.5 Q138 67 154.5 58.5 Q171 50 194 50 Q217 50 233.5 58.5 Q250 67 260.5 90.5 Q271 114 276 154.5 Q281 195 281 260 Q281 324 276 365 Q271 406 260.5 429.5 Q250 453 233.5 461.5 Q217 470 194 470 Q171 470 154.5 461.5 Q138 453 127.5 429.5 Q117 406 112 365 Q107 324 107 260 Z M35 260 Q35 401 73.5 465.5 Q112 530 194 530 Q276 530 314.5 465.5 Q353 401 353 260 Q353 119 314.5 54.5 Q276 -10 194 -10 Q112 -10 73.5 54.5 Q35 119 35 260 Z " />
<glyph glyph-name="ograve" unicode="&#xf2;" horiz-adv-x="389" d="M76 716 L154 716 L252 578 L202 578 L76 716 Z M107 260 Q107 195 112 154.5 Q117 114 127.5 90.5 Q138 67 154.5 58.5 Q171 50 194 50 Q217 50 233.5 58.5 Q250 67 260.5 90.5 Q271 114 276 154.5 Q281 195 281 260 Q281 324 276 365 Q271 406 260.5 429.5 Q250 453 233.5 461.5 Q217 470 194 470 Q171 470 154.5 461.5 Q138 453 127.5 429.5 Q117 406 112 365 Q107 324 107 260 Z M35 260 Q35 401 73.5 465.5 Q112 530 194 530 Q276 530 314.5 465.5 Q353 401 353 260 Q353 119 314.5 54.5 Q276 -10 194 -10 Q112 -10 73.5 54.5 Q35 119 35 260 Z " />
<glyph glyph-name="otilde" unicode="&#xf5;" horiz-adv-x="389" d="M54 588 Q54 604 59.5 621.5 Q65 639 75 653 Q85 667 99 676.5 Q113 686 131 686 Q150 686 167.5 679 Q185 672 202 664 Q219 656 234 649 Q249 642 262 642 Q284 642 291 657.5 Q298 673 300 692 L336 692 Q335 674 330.5 656 Q326 638 317 624.5 Q308 611 293.5 602.5 Q279 594 258 594 Q242 594 225.5 601 Q209 608 192 616 Q175 624 159.5 631 Q144 638 130 638 Q109 638 100.5 622.5 Q92 607 90 588 L54 588 Z M107 260 Q107 195 112 154.5 Q117 114 127.5 90.5 Q138 67 154.5 58.5 Q171 50 194 50 Q217 50 233.5 58.5 Q250 67 260.5 90.5 Q271 114 276 154.5 Q281 195 281 260 Q281 324 276 365 Q271 406 260.5 429.5 Q250 453 233.5 461.5 Q217 470 194 470 Q171 470 154.5 461.5 Q138 453 127.5 429.5 Q117 406 112 365 Q107 324 107 260 Z M35 260 Q35 401 73.5 465.5 Q112 530 194 530 Q276 530 314.5 465.5 Q353 401 353 260 Q353 119 314.5 54.5 Q276 -10 194 -10 Q112 -10 73.5 54.5 Q35 119 35 260 Z " />
<glyph glyph-name="uacute" unicode="&#xfa;" horiz-adv-x="444" d="M215 578 L165 578 L263 716 L341 716 L215 578 Z M372 0 L304 0 L304 57 Q278 31 245 10.5 Q212 -10 186 -10 Q132 -10 102 22 Q72 54 72 126 L72 520 L144 520 L144 136 Q144 91 158 70.5 Q172 50 201 50 Q227 50 251.5 67 Q276 84 300 114 L300 520 L372 520 L372 0 Z " />
<glyph glyph-name="ucircumflex" unicode="&#xfb;" horiz-adv-x="444" d="M188 716 L256 716 L357 578 L293 578 L222 680 L151 578 L87 578 L188 716 Z M372 0 L304 0 L304 57 Q278 31 245 10.5 Q212 -10 186 -10 Q132 -10 102 22 Q72 54 72 126 L72 520 L144 520 L144 136 Q144 91 158 70.5 Q172 50 201 50 Q227 50 251.5 67 Q276 84 300 114 L300 520 L372 520 L372 0 Z " />
<glyph glyph-name="udieresis" unicode="&#xfc;" horiz-adv-x="444" d="M123 690 L189 690 L189 588 L123 588 L123 690 Z M255 690 L321 690 L321 588 L255 588 L255 690 Z M372 0 L304 0 L304 57 Q278 31 245 10.5 Q212 -10 186 -10 Q132 -10 102 22 Q72 54 72 126 L72 520 L144 520 L144 136 Q144 91 158 70.5 Q172 50 201 50 Q227 50 251.5 67 Q276 84 300 114 L300 520 L372 520 L372 0 Z " />
<glyph glyph-name="ugrave" unicode="&#xf9;" horiz-adv-x="444" d="M103 716 L181 716 L279 578 L229 578 L103 716 Z M372 0 L304 0 L304 57 Q278 31 245 10.5 Q212 -10 186 -10 Q132 -10 102 22 Q72 54 72 126 L72 520 L144 520 L144 136 Q144 91 158 70.5 Q172 50 201 50 Q227 50 251.5 67 Q276 84 300 114 L300 520 L372 520 L372 0 Z " />
<glyph glyph-name="ydieresis" unicode="&#xff;" horiz-adv-x="333" d="M68 690 L134 690 L134 588 L68 588 L68 690 Z M200 690 L266 690 L266 588 L200 588 L200 690 Z M76 520 L174 122 L176 122 L256 520 L330 520 L211 11 Q191 -75 152 -122.5 Q113 -170 47 -170 L10 -170 L10 -110 L32 -110 Q75 -110 102 -80.5 Q129 -51 140 4 L2 520 L76 520 Z " />
<glyph glyph-name="exclam" unicode="&#x21;" horiz-adv-x="333" d="M208 94 L208 0 L124 0 L124 94 L208 94 Z M124 722 L208 722 L192 214 L140 214 L124 722 Z " />
<glyph glyph-name="quotedbl" unicode="&#x22;" horiz-adv-x="333" d="M199 722 L261 722 L261 466 L199 466 L199 722 Z M72 722 L134 722 L134 466 L72 466 L72 722 Z " />
<glyph glyph-name="Lslash" unicode="&#x141;" horiz-adv-x="389" d="M144 66 L378 66 L378 0 L66 0 L66 299 L-14 267 L-14 329 L66 361 L66 722 L144 722 L144 393 L298 455 L298 393 L144 331 L144 66 Z " />
<glyph glyph-name="lslash" unicode="&#x142;" horiz-adv-x="222" d="M147 0 L75 0 L75 369 L-4 328 L-4 388 L75 429 L75 722 L147 722 L147 466 L226 506 L226 446 L147 406 L147 0 Z " />
<glyph glyph-name="onesuperior" unicode="&#xb9;" horiz-adv-x="266" d="M54 340 L100 340 L100 668 L52 664 L52 700 Q88 708 119 732 L162 732 L162 340 L214 340 L214 292 L54 292 L54 340 Z " />
<glyph glyph-name="Eth" unicode="&#xd0;" horiz-adv-x="500" d="M264 410 L264 344 L144 344 L144 66 L186 66 Q229 66 262.5 77.5 Q296 89 319 121 Q342 153 354 210.5 Q366 268 366 361 Q366 454 354 511.5 Q342 569 319 601 Q296 633 262.5 644.5 Q229 656 186 656 L144 656 L144 410 L264 410 Z M66 410 L66 722 L200 722 Q257 722 302 704.5 Q347 687 378.5 645.5 Q410 604 427 534.5 Q444 465 444 361 Q444 257 427 187.5 Q410 118 378.5 76.5 Q347 35 302 17.5 Q257 0 200 0 L66 0 L66 344 L12 344 L12 410 L66 410 Z " />
<glyph glyph-name="onehalf" unicode="&#xbd;" horiz-adv-x="666" d="M70 340 L116 340 L116 668 L68 664 L68 700 Q104 708 135 732 L178 732 L178 340 L230 340 L230 292 L70 292 L70 340 Z M418 0 L418 50 Q434 95 461 132 Q488 169 514 203 Q540 237 559 268 Q578 299 578 332 Q578 358 566.5 373 Q555 388 534 388 Q509 388 493 373 Q477 358 472 313 L422 313 Q424 350 433.5 374.5 Q443 399 458 413.5 Q473 428 492.5 434 Q512 440 533 440 Q580 440 609 412.5 Q638 385 638 333 Q638 292 619 257 Q600 222 574.5 189 Q549 156 521.5 123 Q494 90 478 52 L640 52 L640 0 L418 0 Z M87 -10 L526 732 L588 732 L149 -10 L87 -10 Z " />
<glyph glyph-name="Thorn" unicode="&#xde;" horiz-adv-x="444" d="M134 230 L216 230 Q275 230 307.5 262 Q340 294 340 362 Q340 430 307.5 462 Q275 494 216 494 L134 494 L134 230 Z M56 722 L134 722 L134 560 L226 560 Q269 560 304.5 546 Q340 532 365.5 506 Q391 480 404.5 443.5 Q418 407 418 362 Q418 317 404.5 280.5 Q391 244 365.5 218 Q340 192 304.5 178 Q269 164 226 164 L134 164 L134 0 L56 0 L56 722 Z " />
<glyph glyph-name="onequarter" unicode="&#xbc;" horiz-adv-x="666" d="M439 148 L522 148 L522 355 L520 355 L439 148 Z M70 340 L116 340 L116 668 L68 664 L68 700 Q104 708 135 732 L178 732 L178 340 L230 340 L230 292 L70 292 L70 340 Z M91 -10 L530 732 L592 732 L153 -10 L91 -10 Z M578 433 L578 148 L628 148 L628 96 L578 96 L578 0 L522 0 L522 96 L383 96 L383 141 L503 433 L578 433 Z " />
<glyph glyph-name="brokenbar" unicode="&#xa6;" horiz-adv-x="222" d="M78 732 L144 732 L144 448 L78 448 L78 732 Z M78 274 L144 274 L144 -10 L78 -10 L78 274 Z " />
<glyph glyph-name="thorn" unicode="&#xfe;" horiz-adv-x="444" d="M150 96 Q166 80 185 65 Q204 50 228 50 Q251 50 269 60.5 Q287 71 299 95 Q311 119 317.5 159.5 Q324 200 324 260 Q324 320 317 360.5 Q310 401 297.5 425 Q285 449 266.5 459.5 Q248 470 226 470 Q209 470 188 456.5 Q167 443 150 420 L150 96 Z M146 482 L148 482 Q163 501 187 515.5 Q211 530 246 530 Q277 530 304 516 Q331 502 351.5 470 Q372 438 384 386.5 Q396 335 396 260 Q396 185 384 133.5 Q372 82 351.5 50 Q331 18 304 4 Q277 -10 246 -10 Q217 -10 192.5 5 Q168 20 150 38 L150 -170 L78 -170 L78 722 L146 722 L146 482 Z " />
<glyph glyph-name="threequarters" unicode="&#xbe;" horiz-adv-x="666" d="M439 148 L522 148 L522 355 L520 355 L439 148 Z M50 636 Q50 678 73 705 Q96 732 145 732 Q164 732 183 725.5 Q202 719 216 706.5 Q230 694 239 674 Q248 654 248 627 Q248 612 245.5 596 Q243 580 236.5 566 Q230 552 218 541 Q206 530 188 526 L188 524 Q228 511 242 480.5 Q256 450 256 415 Q256 347 225 316.5 Q194 286 147 286 Q94 286 66 316.5 Q38 347 38 396 L92 396 Q94 372 105 355 Q116 338 148 338 Q171 338 185.5 356.5 Q200 375 200 414 Q200 460 176 477.5 Q152 495 104 496 L104 548 Q149 547 170.5 562 Q192 577 192 624 Q192 650 182 665 Q172 680 148 680 Q123 680 114 669 Q105 658 104 636 L50 636 Z M87 -10 L526 732 L588 732 L149 -10 L87 -10 Z M578 433 L578 148 L628 148 L628 96 L578 96 L578 0 L522 0 L522 96 L383 96 L383 141 L503 433 L578 433 Z " />
<glyph glyph-name="twosuperior" unicode="&#xb2;" horiz-adv-x="266" d="M22 292 L22 342 Q38 387 65 424 Q92 461 118 495 Q144 529 163 560 Q182 591 182 624 Q182 650 170.5 665 Q159 680 138 680 Q113 680 97 665 Q81 650 76 605 L26 605 Q28 642 37.5 666.5 Q47 691 62 705.5 Q77 720 96.5 726 Q116 732 137 732 Q184 732 213 704.5 Q242 677 242 625 Q242 584 223 549 Q204 514 178.5 481 Q153 448 125.5 415 Q98 382 82 344 L244 344 L244 292 L22 292 Z " />
<glyph glyph-name="minus" unicode="&#x2212;" horiz-adv-x="600" d="M40 293 L560 293 L560 227 L40 227 L40 293 Z " />
<glyph glyph-name="eth" unicode="&#xf0;" horiz-adv-x="389" d="M107 260 Q107 195 112 154.5 Q117 114 127.5 90.5 Q138 67 154.5 58.5 Q171 50 194 50 Q217 50 233.5 58.5 Q250 67 260.5 90.5 Q271 114 276 154.5 Q281 195 281 260 Q281 324 276 365 Q271 406 260.5 429.5 Q250 453 233.5 461.5 Q217 470 194 470 Q171 470 154.5 461.5 Q138 453 127.5 429.5 Q117 406 112 365 Q107 324 107 260 Z M198 722 Q211 710 222.5 697 Q234 684 245 669 L343 706 L367 660 L274 625 Q317 550 335 457 Q353 364 353 260 Q353 119 314.5 54.5 Q276 -10 194 -10 Q112 -10 73.5 54.5 Q35 119 35 260 Q35 401 73.5 465.5 Q112 530 194 530 Q209 530 222 528 Q235 526 243 521 Q238 542 229.5 562 Q221 582 210 600 L119 566 L95 612 L180 644 Q158 675 132 700 L198 722 Z " />
<glyph glyph-name="multiply" unicode="&#xd7;" horiz-adv-x="600" d="M348 260 L560 48 L512 0 L300 213 L88 0 L40 48 L252 260 L40 472 L88 520 L300 307 L512 520 L560 472 L348 260 Z " />
<glyph glyph-name="threesuperior" unicode="&#xb3;" horiz-adv-x="266" d="M30 636 Q30 678 53 705 Q76 732 125 732 Q144 732 163 725.5 Q182 719 196 706.5 Q210 694 219 674 Q228 654 228 627 Q228 612 225.5 596 Q223 580 216.5 566 Q210 552 198 541 Q186 530 168 526 L168 524 Q208 511 222 480.5 Q236 450 236 415 Q236 347 205 316.5 Q174 286 127 286 Q74 286 46 316.5 Q18 347 18 396 L72 396 Q74 372 85 355 Q96 338 128 338 Q151 338 165.5 356.5 Q180 375 180 414 Q180 460 156 477.5 Q132 495 84 496 L84 548 Q129 547 150.5 562 Q172 577 172 624 Q172 650 162 665 Q152 680 128 680 Q103 680 94 669 Q85 658 84 636 L30 636 Z " />
<glyph glyph-name="Scaron" unicode="&#x160;" horiz-adv-x="444" d="M87 898 L151 898 L222 796 L293 898 L357 898 L256 760 L188 760 L87 898 Z M324 536 Q322 564 315 587.5 Q308 611 294.5 628.5 Q281 646 261 656 Q241 666 213 666 Q168 666 141 639.5 Q114 613 114 571 Q114 530 135.5 501 Q157 472 189 447 Q221 422 259 398 Q297 374 329 343.5 Q361 313 382.5 272.5 Q404 232 404 174 Q404 87 356.5 38.5 Q309 -10 219 -10 Q177 -10 143 5 Q109 20 85.5 47 Q62 74 49.5 111.5 Q37 149 36 194 L108 194 Q110 130 139.5 93 Q169 56 227 56 Q276 56 305 86.5 Q334 117 334 175 Q334 216 312.5 246.5 Q291 277 259 303 Q227 329 189 353.5 Q151 378 119 408 Q87 438 65.5 475 Q44 512 44 564 Q44 602 56.5 633 Q69 664 92 686 Q115 708 147 720 Q179 732 218 732 Q296 732 343.5 681.5 Q391 631 396 536 L324 536 Z " />
<glyph glyph-name="Yacute" unicode="&#xdd;" horiz-adv-x="444" d="M215 760 L165 760 L263 898 L341 898 L215 760 Z M100 722 L224 406 L344 722 L428 722 L262 306 L262 0 L184 0 L184 306 L16 722 L100 722 Z " />
<glyph glyph-name="Zcaron" unicode="&#x17d;" horiz-adv-x="444" d="M87 898 L151 898 L222 796 L293 898 L357 898 L256 760 L188 760 L87 898 Z M400 722 L400 668 L132 66 L400 66 L400 0 L44 0 L44 56 L304 656 L68 656 L68 722 L400 722 Z " />
<glyph glyph-name="scaron" unicode="&#x161;" horiz-adv-x="389" d="M60 716 L124 716 L195 614 L266 716 L330 716 L229 578 L161 578 L60 716 Z M274 388 Q269 405 262.5 420 Q256 435 246 446 Q236 457 221 463.5 Q206 470 184 470 Q158 470 142 452 Q126 434 126 408 Q126 382 142.5 362.5 Q159 343 183 326 Q207 309 236 292 Q265 275 289 253.5 Q313 232 329.5 203 Q346 174 346 134 Q346 103 335.5 77 Q325 51 306 31.5 Q287 12 261 1 Q235 -10 204 -10 Q133 -10 95 26 Q57 62 38 128 L104 142 Q110 125 118 108.5 Q126 92 137.5 79 Q149 66 164 58 Q179 50 199 50 Q214 50 227.5 56.5 Q241 63 251.5 73.5 Q262 84 268 98.5 Q274 113 274 129 Q274 159 257.5 180.5 Q241 202 217 219.5 Q193 237 164 254 Q135 271 111 291.5 Q87 312 70.5 339 Q54 366 54 404 Q54 429 64 452 Q74 475 92 492.5 Q110 510 134.5 520 Q159 530 189 530 Q249 530 285 497.5 Q321 465 334 406 L274 388 Z " />
<glyph glyph-name="yacute" unicode="&#xfd;" horiz-adv-x="333" d="M160 578 L110 578 L208 716 L286 716 L160 578 Z M76 520 L174 122 L176 122 L256 520 L330 520 L211 11 Q191 -75 152 -122.5 Q113 -170 47 -170 L10 -170 L10 -110 L32 -110 Q75 -110 102 -80.5 Q129 -51 140 4 L2 520 L76 520 Z " />
<glyph glyph-name="zcaron" unicode="&#x17e;" horiz-adv-x="333" d="M32 716 L96 716 L167 614 L238 716 L302 716 L201 578 L133 578 L32 716 Z M39 520 L309 520 L309 472 L103 60 L309 60 L309 0 L23 0 L23 54 L223 460 L39 460 L39 520 Z " />
<glyph glyph-name="Euro" unicode="&#x20ac;" horiz-adv-x="444" d="M420 577 Q391 615 360.5 640.5 Q330 666 284 666 Q247 666 223.5 648.5 Q200 631 185.5 601.5 Q171 572 164.5 534 Q158 496 156 455 L389 455 L374 395 L154 395 L154 303 L350 303 L335 243 L157 243 Q160 204 167.5 170 Q175 136 190 110.5 Q205 85 229.5 70.5 Q254 56 291 56 Q328 56 362.5 73.5 Q397 91 420 115 L420 38 Q394 14 359 2 Q324 -10 288 -10 Q234 -10 196.5 9 Q159 28 134.5 62 Q110 96 97 142.5 Q84 189 79 243 L15 243 L30 303 L75 303 Q74 317 74 331 Q74 346 74 361 L74 395 L15 395 L30 455 L77 455 Q81 510 92.5 560.5 Q104 611 128 649 Q152 687 190.5 709.5 Q229 732 286 732 Q332 732 371 712.5 Q410 693 440 656 L420 577 Z " />
</font>
</svg>
