<?xml version="1.0" encoding="UTF-8"?>
<svg xmlns="http://www.w3.org/2000/svg" xmlns:xlink="http://www.w3.org/1999/xlink" version="1.2" >
<font id="Trade Gothic LT Bold Condensed No. 20 Oblique">
<font-face  font-family="TradeGothic LT CondEighteen" units-per-em="1000" ascent="722" descent="-170" font-style="italic" font-weight="700" font-stretch="normal" slope="-12" cap-height="750" x-height="500" underline-position="-100" underline-thickness="50" />
<missing-glyph  horiz-adv-x="222" d="" />
<glyph glyph-name="&amp;#x20;" unicode="&#x20;" horiz-adv-x="222" d="" />
<glyph glyph-name="&amp;#xa0;" unicode="&#xa0;" horiz-adv-x="222" d="" />
<glyph glyph-name="dollar" unicode="&#x24;" horiz-adv-x="444" d="M327 624 Q301 616 283.5 596 Q266 576 261 550 Q258 535 258 522 Q258 500 266.5 483.5 Q275 467 289 450 L327 624 Z M272 96 Q306 108 323 131 Q340 154 348 189 Q351 204 351 216 Q351 240 341 257.5 Q331 275 315 293 L272 96 Z M367 810 L427 810 L408 722 Q448 714 479 690 Q510 666 527 631 L437 566 Q429 585 419 602 Q409 619 387 624 L342 417 Q365 400 386.5 381.5 Q408 363 424.5 342 Q441 321 450.5 296.5 Q460 272 460 241 Q460 230 459 218.5 Q458 207 455 194 Q447 156 429.5 122.5 Q412 89 385.5 63 Q359 37 325.5 20 Q292 3 252 0 L226 -116 L166 -116 L192 0 Q141 5 106.5 38 Q72 71 54 113 L151 176 Q155 150 170 127 Q185 104 212 96 L263 331 Q241 346 221 363.5 Q201 381 185.5 401.5 Q170 422 161 446 Q152 470 152 499 Q152 508 153 517.5 Q154 527 156 537 Q163 572 180 603.5 Q197 635 221.5 659.5 Q246 684 278 700.5 Q310 717 348 722 L367 810 Z " />
<glyph glyph-name="percent" unicode="&#x25;" horiz-adv-x="778" d="M250 558 Q249 553 248.5 549.5 Q248 546 248 541 Q248 512 267 493 Q286 474 316 474 Q351 474 380.5 498.5 Q410 523 418 558 Q419 563 419.5 566.5 Q420 570 420 575 Q420 604 401 623 Q382 642 352 642 Q317 642 287.5 617.5 Q258 593 250 558 Z M515 164 Q514 159 513.5 155.5 Q513 152 513 147 Q513 118 532 99 Q551 80 581 80 Q616 80 645.5 104.5 Q675 129 683 164 Q684 169 684.5 172.5 Q685 176 685 181 Q685 210 666 229 Q647 248 617 248 Q582 248 552.5 223.5 Q523 199 515 164 Z M790 732 L220 -10 L145 -10 L715 732 L790 732 Z M435 164 Q442 198 461.5 228 Q481 258 508 280 Q535 302 567.5 315 Q600 328 634 328 Q694 328 730.5 291.5 Q767 255 767 199 Q767 180 763 164 Q755 130 736 100 Q717 70 690 48 Q663 26 630.5 13 Q598 0 564 0 Q504 0 467.5 36.5 Q431 73 431 129 Q431 148 435 164 Z M170 558 Q177 592 196.5 622 Q216 652 243 674 Q270 696 303 709 Q336 722 370 722 Q430 722 466 686 Q502 650 502 594 Q502 586 501 576.5 Q500 567 498 558 Q491 524 471.5 494 Q452 464 425 442 Q398 420 365.5 407 Q333 394 299 394 Q239 394 202.5 431 Q166 468 166 524 Q166 532 167 540.5 Q168 549 170 558 Z " />
<glyph glyph-name="ampersand" unicode="&#x26;" horiz-adv-x="556" d="M203 175 Q202 170 201.5 166 Q201 162 201 157 Q201 131 216.5 114.5 Q232 98 260 98 Q278 98 291 102.5 Q304 107 321 119 Q300 153 282.5 188.5 Q265 224 254 264 Q233 240 221.5 221.5 Q210 203 203 175 Z M319 589 Q316 576 315 563 Q314 550 314 536 Q314 513 316.5 491.5 Q319 470 323 450 Q351 479 377 511.5 Q403 544 411 582 Q414 593 415 602.5 Q416 612 416 620 Q416 660 383 660 Q360 660 343.5 641.5 Q327 623 319 589 Z M575 323 Q554 273 525 227 Q496 181 467 134 Q478 121 494 112 Q510 103 528 100 L504 -10 Q465 -9 432 5 Q399 19 376 45 Q340 16 304.5 3 Q269 -10 222 -10 Q155 -10 118 24.5 Q81 59 81 116 Q81 134 86 159 Q92 187 105.5 215 Q119 243 138 269 Q157 295 179.5 319 Q202 343 225 363 Q218 395 212 432 Q206 469 206 506 Q206 520 207 534 Q208 548 211 562 Q219 599 235.5 630 Q252 661 277 683.5 Q302 706 334 719 Q366 732 405 732 Q462 732 493 703 Q524 674 524 623 Q524 613 522.5 603 Q521 593 519 582 Q512 548 494 518.5 Q476 489 452 462 Q428 435 401 410.5 Q374 386 348 363 Q359 324 373 287 Q387 250 406 216 Q426 249 445 282 Q464 315 479 350 L575 323 Z " />
<glyph glyph-name="quoteright" unicode="&#x2019;" horiz-adv-x="222" d="M300 604 L204 480 L151 480 L227 604 L182 604 L208 722 L326 722 L300 604 Z " />
<glyph glyph-name="parenleft" unicode="&#x28;" horiz-adv-x="278" d="M404 732 Q329 644 275.5 539.5 Q222 435 197 323 Q179 239 179 159 Q179 92 191.5 30.5 Q204 -31 227 -86 L131 -86 Q108 -32 96 31 Q84 94 84 163 Q84 240 101 323 Q125 434 179.5 540 Q234 646 308 732 L404 732 Z " />
<glyph glyph-name="parenright" unicode="&#x29;" horiz-adv-x="278" d="M286 732 Q309 678 321 615.5 Q333 553 333 485 Q333 405 315 323 Q292 212 237.5 106 Q183 0 109 -86 L13 -86 Q88 2 141.5 106.5 Q195 211 219 323 Q228 365 233 406 Q238 447 238 488 Q238 554 225.5 616 Q213 678 190 732 L286 732 Z " />
<glyph glyph-name="asterisk" unicode="&#x2a;" horiz-adv-x="444" d="M522 556 Q483 554 444 549 Q405 544 367 539 Q387 510 408.5 483 Q430 456 455 432 L364 377 Q359 413 350 447.5 Q341 482 333 517 Q310 482 286 447.5 Q262 413 242 377 L175 432 Q210 456 243.5 483 Q277 510 309 539 Q272 544 236 549 Q200 554 162 556 L211 645 Q265 607 324 578 Q328 609 329.5 639 Q331 669 331 699 L331 722 L425 722 Q409 687 395 651 Q381 615 370 578 Q406 593 441 609.5 Q476 626 511 645 L522 556 Z " />
<glyph glyph-name="plus" unicode="&#x2b;" horiz-adv-x="600" d="M360 506 L458 506 L414 302 L618 302 L597 204 L393 204 L349 0 L251 0 L295 204 L91 204 L112 302 L316 302 L360 506 Z " />
<glyph glyph-name="comma" unicode="&#x2c;" horiz-adv-x="222" d="M170 0 L74 -124 L21 -124 L97 0 L52 0 L77 118 L195 118 L170 0 Z " />
<glyph glyph-name="&amp;#x2d;" unicode="&#x2d;" horiz-adv-x="333" d="M92 223 L112 315 L357 315 L337 223 L92 223 Z " />
<glyph glyph-name="&amp;#xad;" unicode="&#xad;" horiz-adv-x="333" d="M92 223 L112 315 L357 315 L337 223 L92 223 Z " />
<glyph glyph-name="period" unicode="&#x2e;" horiz-adv-x="222" d="M52 0 L77 118 L195 118 L170 0 L52 0 Z " />
<glyph glyph-name="slash" unicode="&#x2f;" horiz-adv-x="278" d="M359 732 L457 732 L74 -10 L-23 -10 L359 732 Z " />
<glyph glyph-name="zero" unicode="0" horiz-adv-x="444" d="M402 565 Q405 578 405 590 Q405 634 359 634 Q301 634 286 565 L197 157 Q194 143 194 133 Q194 88 241 88 Q298 88 313 157 L402 565 Z M161 534 Q183 636 235 684 Q287 732 380 732 Q454 732 488.5 703 Q523 674 523 611 Q523 594 520.5 575 Q518 556 513 534 L438 188 Q416 85 364.5 37.5 Q313 -10 219 -10 Q145 -10 111 19.5 Q77 49 77 112 Q77 144 86 188 L161 534 Z " />
<glyph glyph-name="one" unicode="1" horiz-adv-x="444" d="M300 572 L202 572 L217 639 Q263 660 305 683 Q347 706 384 732 L447 732 L289 0 L177 0 L300 572 Z " />
<glyph glyph-name="two" unicode="2" horiz-adv-x="444" d="M44 0 L64 97 Q140 181 199 248 Q258 315 300 369 Q342 423 367 467.5 Q392 512 401 552 Q405 569 405 585 Q405 610 394 622 Q383 634 363 634 Q333 634 313.5 613 Q294 592 286 559 L276 510 L158 510 L165 544 Q174 584 193.5 618 Q213 652 242.5 677.5 Q272 703 309 717.5 Q346 732 390 732 Q423 732 448.5 722 Q474 712 491.5 695 Q509 678 518 655 Q527 632 527 606 Q527 598 526 589 Q525 580 523 572 Q514 529 496.5 488.5 Q479 448 443 396 Q407 344 346.5 274 Q286 204 192 102 L411 102 L389 0 L44 0 Z " />
<glyph glyph-name="three" unicode="3" horiz-adv-x="444" d="M203 209 L192 160 Q189 145 189 134 Q189 88 233 88 Q260 88 280 108 Q300 128 310 173 L322 228 Q327 253 327 268 Q327 303 305.5 316.5 Q284 330 238 330 L259 428 Q286 428 306.5 433 Q327 438 342 450.5 Q357 463 367 484.5 Q377 506 384 538 Q391 569 391 592 Q391 634 355 634 Q329 634 310.5 618.5 Q292 603 283 560 L276 530 L164 530 L172 564 Q180 601 198 631.5 Q216 662 242 684.5 Q268 707 302 719.5 Q336 732 377 732 Q410 732 433.5 721.5 Q457 711 473 693 Q489 675 496.5 650.5 Q504 626 504 598 Q504 574 498 547 Q491 515 482.5 490.5 Q474 466 461 446 Q448 426 429.5 410 Q411 394 384 381 Q417 361 431 338.5 Q445 316 445 282 Q445 265 442 245.5 Q439 226 434 202 Q411 93 356 41.5 Q301 -10 208 -10 Q144 -10 109 17.5 Q74 45 74 107 Q74 135 81 166 L91 209 L203 209 Z " />
<glyph glyph-name="four" unicode="4" horiz-adv-x="444" d="M291 266 L352 548 L350 548 L168 266 L291 266 Z M269 174 L53 174 L73 266 L382 722 L502 722 L403 266 L469 266 L449 174 L383 174 L346 0 L232 0 L269 174 Z " />
<glyph glyph-name="five" unicode="5" horiz-adv-x="444" d="M207 209 L194 151 Q193 146 192.5 142 Q192 138 192 133 Q192 112 203.5 100 Q215 88 236 88 Q265 88 285 107.5 Q305 127 316 176 L351 340 Q354 352 354 363 Q354 386 342 396 Q330 406 313 406 Q284 406 266 390 Q248 374 234 351 L138 351 Q149 393 159 432 Q169 471 180 514 Q191 557 202.5 607.5 Q214 658 228 722 L529 722 L503 620 L308 620 L267 464 L268 462 Q298 490 321 497 Q344 504 373 504 Q426 504 450 476.5 Q474 449 474 397 Q474 363 463 314 L442 214 Q417 100 366 45 Q315 -10 225 -10 Q193 -10 166 -3.5 Q139 3 119 16.5 Q99 30 88 52 Q77 74 77 106 Q77 128 83 154 L95 209 L207 209 Z " />
<glyph glyph-name="six" unicode="6" horiz-adv-x="444" d="M197 157 Q194 143 194 133 Q194 88 241 88 Q298 88 313 157 L339 277 Q342 292 342 303 Q342 346 302 346 Q285 346 265 334 Q245 322 231 313 L197 157 Z M389 528 L397 565 Q399 573 400 580.5 Q401 588 401 594 Q401 634 359 634 Q301 634 286 565 L249 396 Q264 408 276.5 417 Q289 426 301.5 432 Q314 438 328.5 441 Q343 444 362 444 Q407 444 437.5 420.5 Q468 397 468 343 Q468 323 462 296 L443 210 Q418 96 365 43 Q312 -10 219 -10 Q145 -10 111 19.5 Q77 49 77 112 Q77 144 86 188 L161 534 Q183 636 235 684 Q287 732 380 732 L384 732 Q445 732 477.5 698.5 Q510 665 510 612 Q510 591 506 572 L497 528 L389 528 Z " />
<glyph glyph-name="seven" unicode="7" horiz-adv-x="444" d="M190 620 L212 722 L538 722 L523 652 L235 0 L118 0 L397 620 L190 620 Z " />
<glyph glyph-name="eight" unicode="8" horiz-adv-x="444" d="M316 436 Q345 436 362.5 459 Q380 482 391 535 Q395 551 396.5 564 Q398 577 398 588 Q398 634 359 634 Q330 634 312 611 Q294 588 283 535 Q280 519 278 506.5 Q276 494 276 483 Q276 436 316 436 Z M241 88 Q277 88 297.5 119.5 Q318 151 331 208 Q339 245 339 269 Q339 328 292 328 Q256 328 235.5 296.5 Q215 265 203 208 Q195 170 195 146 Q195 118 205.5 103 Q216 88 241 88 Z M89 200 Q96 233 105 260.5 Q114 288 127.5 311 Q141 334 159.5 352 Q178 370 204 385 Q184 402 174.5 428.5 Q165 455 165 484 Q165 504 170 529 Q193 635 248 683.5 Q303 732 380 732 Q442 732 476.5 700.5 Q511 669 511 602 Q511 569 502 529 Q493 487 468.5 448 Q444 409 406 385 Q431 366 441.5 341 Q452 316 452 284 Q452 265 449 244.5 Q446 224 441 200 Q418 97 362.5 43.5 Q307 -10 219 -10 Q150 -10 115 24.5 Q80 59 80 125 Q80 158 89 200 Z " />
<glyph glyph-name="nine" unicode="9" horiz-adv-x="444" d="M402 565 Q405 578 405 590 Q405 634 359 634 Q301 634 286 565 L260 445 Q257 431 257 420 Q257 376 297 376 Q314 376 334 388 Q354 400 368 409 L402 565 Z M210 194 L202 157 Q199 140 199 129 Q199 88 241 88 Q298 88 313 157 L350 326 Q321 302 298 290 Q275 278 238 278 Q193 278 162.5 301.5 Q132 325 132 379 Q132 399 138 426 L156 512 Q181 626 234 679 Q287 732 380 732 Q454 732 488.5 703 Q523 674 523 611 Q523 594 520.5 575 Q518 556 513 534 L438 188 Q416 85 364.5 37.5 Q313 -10 219 -10 L215 -10 Q154 -10 121.5 23.5 Q89 57 89 110 Q89 131 93 150 L102 194 L210 194 Z " />
<glyph glyph-name="colon" unicode="&#x3a;" horiz-adv-x="222" d="M112 278 L137 396 L255 396 L230 278 L112 278 Z M52 0 L77 118 L195 118 L170 0 L52 0 Z " />
<glyph glyph-name="semicolon" unicode="&#x3b;" horiz-adv-x="222" d="M112 278 L137 396 L255 396 L230 278 L112 278 Z M170 0 L74 -124 L21 -124 L97 0 L52 0 L77 118 L195 118 L170 0 Z " />
<glyph glyph-name="less" unicode="&#x3c;" horiz-adv-x="600" d="M553 0 L92 211 L110 295 L662 506 L640 402 L242 253 L575 104 L553 0 Z " />
<glyph glyph-name="equal" unicode="&#x3d;" horiz-adv-x="600" d="M574 100 L68 100 L89 198 L595 198 L574 100 Z M619 308 L113 308 L134 406 L640 406 L619 308 Z " />
<glyph glyph-name="greater" unicode="&#x3e;" horiz-adv-x="600" d="M69 104 L466 253 L134 402 L156 506 L616 295 L598 211 L47 0 L69 104 Z " />
<glyph glyph-name="question" unicode="&#x3f;" horiz-adv-x="389" d="M124 0 L149 118 L267 118 L242 0 L124 0 Z M182 212 L201 296 Q212 348 237.5 390.5 Q263 433 290 469 Q317 505 340 536 Q363 567 369 595 Q370 599 370 606 Q370 620 361.5 630 Q353 640 337 640 Q321 640 308 633 Q295 626 284 615 Q273 604 264.5 590.5 Q256 577 250 564 L161 600 Q199 666 249 699 Q299 732 371 732 Q421 732 455 702.5 Q489 673 489 625 Q489 611 486 598 Q480 570 470 548.5 Q460 527 447.5 509 Q435 491 420 475 Q405 459 390 443 Q375 427 360 410 Q345 393 332 372 Q319 351 308 325 Q297 299 290 266 L278 212 L182 212 Z " />
<glyph glyph-name="at" unicode="&#x40;" horiz-adv-x="800" d="M419 233 Q446 233 472 247 Q498 261 519 283 Q540 305 554.5 331.5 Q569 358 575 384 Q577 389 577 394 Q577 400 577 405 Q577 434 561 452.5 Q545 471 516 471 Q489 471 463 457 Q437 443 416 421 Q395 399 380 373 Q365 347 360 322 Q357 310 357 298 Q357 269 373.5 251 Q390 233 419 233 Z M657 548 L738 548 L619 291 Q615 282 610.5 272 Q606 262 604 252 Q603 248 602.5 245 Q602 242 602 239 Q602 225 614 225 Q635 225 659 238.5 Q683 252 704.5 276.5 Q726 301 743.5 334.5 Q761 368 770 408 Q777 437 777 468 Q777 513 760.5 548 Q744 583 715 606.5 Q686 630 645 642 Q604 654 556 654 Q492 654 434.5 631.5 Q377 609 331 569.5 Q285 530 253 476 Q221 422 207 359 Q199 321 199 290 Q199 240 216 199 Q233 158 264.5 129 Q296 100 340.5 84 Q385 68 441 68 Q504 68 564 89.5 Q624 111 672 151 L755 151 Q687 73 599.5 31.5 Q512 -10 418 -10 Q349 -10 292 10 Q235 30 194 67 Q153 104 130.5 156.5 Q108 209 108 274 Q108 317 118 361 Q135 442 179.5 510 Q224 578 285.5 627.5 Q347 677 421.5 704.5 Q496 732 574 732 Q633 732 685 715 Q737 698 775.5 666.5 Q814 635 836.5 590 Q859 545 859 490 Q859 458 852 429 Q835 352 795 298 Q755 244 708 209.5 Q661 175 615.5 159 Q570 143 543 143 Q523 143 510 153 Q497 163 497 185 Q497 193 498 197 L496 198 Q471 175 438.5 159 Q406 143 376 143 Q349 143 326 153 Q303 163 287 180.5 Q271 198 262 221.5 Q253 245 253 273 Q253 293 257 309 Q267 356 292.5 401.5 Q318 447 354 482.5 Q390 518 434 539.5 Q478 561 527 561 Q603 561 630 496 L657 548 Z " />
<glyph glyph-name="A" unicode="A" horiz-adv-x="444" d="M230 268 L330 268 L348 578 L346 578 L230 268 Z M132 0 L12 0 L301 722 L455 722 L432 0 L312 0 L324 160 L188 160 L132 0 Z " />
<glyph glyph-name="B" unicode="B" horiz-adv-x="500" d="M276 426 L321 426 Q356 426 385 449.5 Q414 473 424 518 Q429 541 429 557 Q429 620 365 620 L318 620 L276 426 Z M206 102 L258 102 Q308 102 334 130 Q360 158 372 213 Q374 225 375.5 235.5 Q377 246 377 255 Q377 290 357.5 307 Q338 324 294 324 L254 324 L206 102 Z M216 722 L400 722 Q481 722 519.5 689.5 Q558 657 558 594 Q558 568 550 531 Q545 508 535 484.5 Q525 461 510.5 441 Q496 421 476 405 Q456 389 432 380 Q465 363 483.5 336.5 Q502 310 502 266 Q502 238 495 209 Q485 164 466.5 126 Q448 88 418.5 60 Q389 32 349 16 Q309 0 256 0 L60 0 L216 722 Z " />
<glyph glyph-name="C" unicode="C" horiz-adv-x="500" d="M414 481 L426 537 Q430 553 430 569 Q430 598 417.5 611 Q405 624 385 624 Q347 624 328.5 604.5 Q310 585 301 544 L222 178 Q218 161 218 144 Q218 121 230 109.5 Q242 98 271 98 Q305 98 322 117 Q339 136 347 171 L365 258 L489 258 L471 175 Q463 137 444.5 103 Q426 69 397.5 44 Q369 19 331 4.5 Q293 -10 247 -10 Q166 -10 128.5 28.5 Q91 67 91 126 Q91 149 97 175 L178 547 Q186 585 205 619 Q224 653 252.5 678 Q281 703 320 717.5 Q359 732 408 732 Q446 732 474 721 Q502 710 520 691 Q538 672 546.5 646 Q555 620 555 589 Q555 562 549 534 L538 481 L414 481 Z " />
<glyph glyph-name="D" unicode="D" horiz-adv-x="500" d="M206 102 L249 102 Q298 102 322.5 124 Q347 146 359 203 L428 519 Q434 544 434 564 Q434 596 416.5 608 Q399 620 361 620 L318 620 L206 102 Z M216 722 L400 722 Q558 722 558 580 Q558 546 549 504 L487 218 Q463 106 402 53 Q341 0 244 0 L60 0 L216 722 Z " />
<glyph glyph-name="E" unicode="E" horiz-adv-x="444" d="M60 0 L216 722 L548 722 L524 614 L316 614 L276 428 L436 428 L413 320 L253 320 L207 108 L429 108 L406 0 L60 0 Z " />
<glyph glyph-name="F" unicode="F" horiz-adv-x="444" d="M60 0 L216 722 L562 722 L538 614 L316 614 L276 428 L442 428 L419 320 L253 320 L184 0 L60 0 Z " />
<glyph glyph-name="G" unicode="G" horiz-adv-x="500" d="M310 366 L513 366 L434 0 L374 0 L362 54 Q327 21 297 5.5 Q267 -10 223 -10 Q161 -10 126 24.5 Q91 59 91 122 Q91 146 97 175 L178 547 Q186 585 204.5 619 Q223 653 251.5 678 Q280 703 317 717.5 Q354 732 400 732 Q439 732 467 721 Q495 710 513 690.5 Q531 671 540 645 Q549 619 549 588 Q549 562 543 534 L533 488 L415 488 Q420 513 423 532 Q426 551 426 566 Q426 599 413 611.5 Q400 624 374 624 Q351 624 331.5 607.5 Q312 591 301 545 L221 174 Q219 166 218 158.5 Q217 151 217 144 Q217 123 227.5 110.5 Q238 98 263 98 Q301 98 321 121 Q341 144 352 198 L368 268 L289 268 L310 366 Z " />
<glyph glyph-name="H" unicode="H" horiz-adv-x="500" d="M60 0 L216 722 L340 722 L276 428 L408 428 L472 722 L596 722 L440 0 L316 0 L385 320 L253 320 L184 0 L60 0 Z " />
<glyph glyph-name="I" unicode="I" horiz-adv-x="278" d="M77 0 L233 722 L357 722 L201 0 L77 0 Z " />
<glyph glyph-name="J" unicode="J" horiz-adv-x="278" d="M24 98 L50 98 Q86 98 103.5 113 Q121 128 128 158 L250 722 L374 722 L249 144 Q241 109 227 81 Q213 53 189 32.5 Q165 12 128.5 1 Q92 -10 41 -10 L0 -10 L24 98 Z " />
<glyph glyph-name="K" unicode="K" horiz-adv-x="444" d="M54 0 L210 722 L334 722 L276 455 L278 455 L466 722 L590 722 L398 453 L451 0 L325 0 L296 336 L294 336 L233 256 L178 0 L54 0 Z " />
<glyph glyph-name="L" unicode="L" horiz-adv-x="389" d="M54 0 L210 722 L334 722 L201 108 L396 108 L373 0 L54 0 Z " />
<glyph glyph-name="M" unicode="M" horiz-adv-x="611" d="M713 722 L557 0 L449 0 L571 564 L569 564 L335 0 L275 0 L285 564 L283 564 L161 0 L53 0 L209 722 L372 722 L368 300 L370 300 L550 722 L713 722 Z " />
<glyph glyph-name="N" unicode="N" horiz-adv-x="500" d="M60 0 L216 722 L331 722 L392 309 L394 309 L484 722 L596 722 L440 0 L332 0 L271 451 L269 451 L172 0 L60 0 Z " />
<glyph glyph-name="O" unicode="O" horiz-adv-x="500" d="M222 178 Q218 161 218 144 Q218 121 230 109.5 Q242 98 271 98 Q309 98 327 117.5 Q345 137 354 178 L433 544 Q438 566 438 579 Q438 602 426 613 Q414 624 385 624 Q347 624 328.5 604.5 Q310 585 301 544 L222 178 Z M178 547 Q186 585 205 619 Q224 653 252.5 678 Q281 703 320 717.5 Q359 732 408 732 Q489 732 526.5 693.5 Q564 655 564 596 Q564 572 558 547 L477 175 Q469 137 450 103 Q431 69 402.5 44 Q374 19 335 4.5 Q296 -10 247 -10 Q166 -10 128.5 28.5 Q91 67 91 126 Q91 149 97 175 L178 547 Z " />
<glyph glyph-name="P" unicode="P" horiz-adv-x="500" d="M270 398 L318 398 Q348 398 369.5 403 Q391 408 406 421 Q421 434 431 455.5 Q441 477 448 509 Q454 537 454 558 Q454 593 434 606.5 Q414 620 366 620 L318 620 L270 398 Z M60 0 L216 722 L394 722 Q488 722 534.5 690 Q581 658 581 583 Q581 551 572 509 Q559 451 537 410.5 Q515 370 482 344.5 Q449 319 404 307.5 Q359 296 302 296 L248 296 L184 0 L60 0 Z " />
<glyph glyph-name="Q" unicode="Q" horiz-adv-x="500" d="M314 258 Q323 253 335.5 243.5 Q348 234 362 214 L433 544 Q438 566 438 579 Q438 602 426 613 Q414 624 385 624 Q347 624 328.5 604.5 Q310 585 301 544 L222 178 Q218 161 218 144 Q218 121 230 109.5 Q242 98 271 98 Q299 98 315 109 Q309 129 302.5 136 Q296 143 291 148 L314 258 Z M465 -54 Q448 -54 432.5 -52 Q417 -50 403.5 -43 Q390 -36 377.5 -22.5 Q365 -9 353 13 Q307 -10 247 -10 Q166 -10 128.5 28.5 Q91 67 91 126 Q91 149 97 175 L178 547 Q186 585 205 619 Q224 653 252.5 678 Q281 703 320 717.5 Q359 732 408 732 Q489 732 526.5 693.5 Q564 655 564 596 Q564 572 558 547 L477 175 Q466 123 436 82 Q453 64 465.5 59.5 Q478 55 488 54 L465 -54 Z " />
<glyph glyph-name="R" unicode="R" horiz-adv-x="500" d="M270 398 L314 398 Q339 398 357.5 403 Q376 408 390 421 Q404 434 413.5 455.5 Q423 477 430 509 Q436 539 436 560 Q436 594 418 607 Q400 620 362 620 L318 620 L270 398 Z M184 0 L60 0 L216 722 L390 722 Q476 722 519.5 690 Q563 658 563 584 Q563 551 554 509 Q545 465 530.5 434 Q516 403 498.5 381.5 Q481 360 462.5 347 Q444 334 427 327 L462 0 L336 0 L312 299 Q300 297 282.5 296.5 Q265 296 248 296 L184 0 Z " />
<glyph glyph-name="S" unicode="S" horiz-adv-x="444" d="M403 544 Q404 550 404.5 555 Q405 560 405 565 Q405 599 389 611.5 Q373 624 355 624 Q325 624 305 605.5 Q285 587 277 553 Q276 548 275.5 543.5 Q275 539 275 534 Q275 509 288 486.5 Q301 464 321 441.5 Q341 419 363.5 396 Q386 373 406 346.5 Q426 320 439 289.5 Q452 259 452 221 Q452 210 451 198.5 Q450 187 447 175 Q438 130 416 95.5 Q394 61 363 37.5 Q332 14 293 2 Q254 -10 211 -10 Q174 -10 146.5 2 Q119 14 101 34.5 Q83 55 74 83 Q65 111 65 144 Q65 155 66 166.5 Q67 178 69 190 L190 207 Q188 198 188 190 Q188 182 188 174 Q188 136 202 117 Q216 98 241 98 Q273 98 296.5 115 Q320 132 327 164 Q330 177 330 189 Q330 217 317 240.5 Q304 264 284 286 Q264 308 241.5 330 Q219 352 199 378 Q179 404 166 434 Q153 464 153 503 Q153 525 159 552 Q178 639 238 685.5 Q298 732 390 732 Q459 732 492.5 692 Q526 652 526 587 Q526 579 525.5 572 Q525 565 524 557 L403 544 Z " />
<glyph glyph-name="T" unicode="T" horiz-adv-x="389" d="M264 614 L144 614 L168 722 L532 722 L508 614 L388 614 L256 0 L132 0 L264 614 Z " />
<glyph glyph-name="U" unicode="U" horiz-adv-x="500" d="M216 722 L340 722 L222 177 Q218 162 218 147 Q218 98 271 98 Q336 98 354 177 L472 722 L596 722 L479 182 Q459 88 397.5 39 Q336 -10 247 -10 Q172 -10 132 24.5 Q92 59 92 125 Q92 138 94 152.5 Q96 167 99 182 L216 722 Z " />
<glyph glyph-name="V" unicode="V" horiz-adv-x="444" d="M469 722 L591 722 L284 0 L160 0 L165 722 L287 722 L268 221 L270 221 L469 722 Z " />
<glyph glyph-name="W" unicode="W" horiz-adv-x="667" d="M431 722 L533 722 L517 262 L519 262 L688 722 L804 722 L521 0 L417 0 L430 477 L428 477 L241 0 L137 0 L156 722 L272 722 L248 262 L250 262 L431 722 Z " />
<glyph glyph-name="X" unicode="X" horiz-adv-x="444" d="M237 378 L180 722 L302 722 L328 493 L330 493 L449 722 L571 722 L371 378 L430 0 L308 0 L280 263 L278 263 L136 0 L14 0 L237 378 Z " />
<glyph glyph-name="Y" unicode="Y" horiz-adv-x="444" d="M284 0 L160 0 L224 300 L166 722 L292 722 L319 447 L321 447 L464 722 L590 722 L348 300 L284 0 Z " />
<glyph glyph-name="Z" unicode="Z" horiz-adv-x="444" d="M204 614 L228 722 L556 722 L530 604 L195 108 L423 108 L400 0 L44 0 L69 118 L407 614 L204 614 Z " />
<glyph glyph-name="bracketleft" unicode="&#x5b;" horiz-adv-x="278" d="M395 674 L277 674 L125 -28 L243 -28 L233 -76 L19 -76 L192 722 L406 722 L395 674 Z " />
<glyph glyph-name="backslash" unicode="&#x5c;" horiz-adv-x="278" d="M296 -10 L198 -10 L137 732 L235 732 L296 -10 Z " />
<glyph glyph-name="bracketright" unicode="&#x5d;" horiz-adv-x="278" d="M184 722 L398 722 L225 -76 L11 -76 L21 -28 L139 -28 L291 674 L173 674 L184 722 Z " />
<glyph glyph-name="asciicircum" unicode="&#x5e;" horiz-adv-x="600" d="M121 302 L402 722 L510 722 L609 302 L500 302 L429 604 L228 302 L121 302 Z " />
<glyph glyph-name="underscore" unicode="&#x5f;" horiz-adv-x="500" d="M-27 -125 L-16 -75 L483 -75 L472 -125 L-27 -125 Z " />
<glyph glyph-name="quoteleft" unicode="&#x2018;" horiz-adv-x="222" d="M183 608 L279 732 L332 732 L256 608 L301 608 L276 490 L158 490 L183 608 Z " />
<glyph glyph-name="a" unicode="a" horiz-adv-x="444" d="M332 273 Q289 251 260.5 233 Q232 215 214 198 Q196 181 187 165 Q178 149 174 131 Q173 126 172.5 122 Q172 118 172 114 Q172 82 215 82 Q238 82 260 97 Q282 112 301 132 L332 273 Z M124 380 Q146 462 203.5 505 Q261 548 340 548 Q406 548 441.5 522 Q477 496 477 443 Q477 433 475.5 423 Q474 413 472 402 L397 57 Q394 44 393 29 Q392 14 392 0 L285 0 Q287 11 286.5 21.5 Q286 32 288 42 Q250 16 218 3 Q186 -10 145 -10 Q98 -10 76 14 Q54 38 54 76 Q54 95 58 111 Q67 155 89.5 190 Q112 225 148 254 Q184 283 234 307.5 Q284 332 349 355 L356 387 Q359 402 359 413 Q359 456 316 456 Q278 456 261.5 435.5 Q245 415 236 380 L124 380 Z " />
<glyph glyph-name="b" unicode="b" horiz-adv-x="444" d="M189 110 Q203 98 216.5 90 Q230 82 247 82 Q258 82 269 85.5 Q280 89 289.5 99 Q299 109 306.5 125.5 Q314 142 320 169 L363 369 Q369 394 369 411 Q369 438 357 447 Q345 456 328 456 Q311 456 294.5 448 Q278 440 258 428 L189 110 Z M54 0 L210 722 L322 722 L272 492 Q291 505 307 515.5 Q323 526 337.5 533.5 Q352 541 367 544.5 Q382 548 400 548 Q442 548 465 523.5 Q488 499 488 451 Q488 428 482 398 L426 140 Q410 66 371 28 Q332 -10 279 -10 Q237 -10 215 5.5 Q193 21 174 56 L172 56 L160 0 L54 0 Z " />
<glyph glyph-name="c" unicode="c" horiz-adv-x="444" d="M360 354 L363 368 Q368 391 368 406 Q368 456 320 456 Q290 456 270 435.5 Q250 415 239 368 L196 170 Q192 151 192 133 Q192 106 204 94 Q216 82 239 82 Q269 82 289.5 102.5 Q310 123 320 170 L328 204 L440 204 L437 190 Q427 146 410 109 Q393 72 366.5 45.5 Q340 19 303.5 4.5 Q267 -10 219 -10 Q144 -10 112 24.5 Q80 59 80 118 Q80 151 89 190 L123 348 Q132 392 149.5 429 Q167 466 193 492.5 Q219 519 255.5 533.5 Q292 548 340 548 Q415 548 447 513.5 Q479 479 479 419 Q479 404 477.5 387.5 Q476 371 472 354 L360 354 Z " />
<glyph glyph-name="d" unicode="d" horiz-adv-x="444" d="M370 428 Q356 440 342.5 448 Q329 456 312 456 Q289 456 270 439 Q251 422 239 369 L196 169 Q193 156 192 146 Q191 136 191 128 Q191 101 202.5 91.5 Q214 82 231 82 Q248 82 265 90 Q282 98 301 110 L370 428 Z M284 0 L296 56 L294 56 Q258 21 229.5 5.5 Q201 -10 159 -10 Q117 -10 94.5 14 Q72 38 72 86 Q72 110 78 140 L134 398 Q150 472 188.5 510 Q227 548 280 548 Q298 548 311.5 544.5 Q325 541 336.5 533.5 Q348 526 359 515.5 Q370 505 384 492 L434 722 L546 722 L390 0 L284 0 Z " />
<glyph glyph-name="e" unicode="e" horiz-adv-x="444" d="M357 340 L363 368 Q368 391 368 406 Q368 456 320 456 Q290 456 270 435.5 Q250 415 239 368 L233 340 L357 340 Z M449 248 L213 248 L196 170 Q192 151 192 133 Q192 106 204 94 Q216 82 239 82 Q269 82 289.5 102.5 Q310 123 320 170 L323 182 L435 182 Q425 139 407.5 104 Q390 69 363.5 43.5 Q337 18 301.5 4 Q266 -10 219 -10 Q144 -10 112 24.5 Q80 59 80 118 Q80 151 89 190 L123 348 Q132 392 149.5 429 Q167 466 193 492.5 Q219 519 255.5 533.5 Q292 548 340 548 Q415 548 447 513.5 Q479 479 479 419 Q479 388 471 348 L449 248 Z " />
<glyph glyph-name="f" unicode="f" horiz-adv-x="278" d="M172 446 L106 446 L126 538 L192 538 L206 605 Q220 671 259.5 701.5 Q299 732 359 732 L415 732 L395 640 L363 640 Q343 640 333 632 Q323 624 318 604 L304 538 L368 538 L348 446 L284 446 L188 0 L76 0 L172 446 Z " />
<glyph glyph-name="g" unicode="g" horiz-adv-x="444" d="M211 -90 Q239 -90 258 -87.5 Q277 -85 289 -80.5 Q301 -76 307 -68.5 Q313 -61 315 -50 Q316 -47 316 -41 Q316 -24 297 -17 Q278 -10 228 -10 Q172 -10 150.5 -19.5 Q129 -29 125 -50 Q124 -53 124 -59 Q124 -75 142.5 -82.5 Q161 -90 211 -90 Z M247 230 Q263 230 275 235 Q287 240 296.5 252.5 Q306 265 313 287 Q320 309 328 343 Q333 366 335.5 383.5 Q338 401 338 414 Q338 439 328 447.5 Q318 456 296 456 Q282 456 270.5 451 Q259 446 249.5 433.5 Q240 421 231.5 399 Q223 377 216 343 Q207 301 207 278 Q207 250 217.5 240 Q228 230 247 230 Z M524 455 Q519 456 515 456 Q511 456 506 456 Q491 456 477 452.5 Q463 449 449 439 L449 428 Q449 408 447 388 Q445 368 442 354 Q429 292 409.5 251 Q390 210 363 184.5 Q336 159 302 148.5 Q268 138 225 138 L189 138 Q180 136 172 129.5 Q164 123 162 113 Q162 111 161.5 110.5 Q161 110 161 108 Q161 93 180 88.5 Q199 84 228 83 Q257 82 290.5 80.5 Q324 79 353 71 Q382 63 401 44.5 Q420 26 420 -9 Q420 -26 416 -42 Q401 -111 334.5 -140.5 Q268 -170 159 -170 Q82 -170 40 -151.5 Q-2 -133 -2 -98 Q-2 -94 0 -84 Q6 -52 33 -29.5 Q60 -7 91 0 L91 2 Q74 10 63.5 22 Q53 34 53 53 Q53 57 53.5 61 Q54 65 55 70 Q58 84 67 97 Q76 110 88.5 121 Q101 132 115 141.5 Q129 151 141 157 Q118 176 107 194.5 Q96 213 96 246 Q96 281 111 350 Q123 405 140.5 443 Q158 481 184 504.5 Q210 528 245.5 538 Q281 548 328 548 Q364 548 392 534.5 Q420 521 440 490 Q455 506 466.5 517.5 Q478 529 489 535.5 Q500 542 513 545 Q526 548 544 548 L524 455 Z " />
<glyph glyph-name="h" unicode="h" horiz-adv-x="444" d="M54 0 L210 722 L322 722 L271 488 Q289 501 304.5 512.5 Q320 524 336.5 531.5 Q353 539 371.5 543.5 Q390 548 414 548 Q450 548 469 527.5 Q488 507 488 471 Q488 452 484 435 L390 0 L278 0 L368 417 Q369 420 369 423 Q369 427 369 429 Q369 443 360 449.5 Q351 456 336 456 Q318 456 299 446 Q280 436 257 422 L166 0 L54 0 Z " />
<glyph glyph-name="i" unicode="i" horiz-adv-x="222" d="M189 620 L211 722 L323 722 L301 620 L189 620 Z M55 0 L171 538 L283 538 L167 0 L55 0 Z " />
<glyph glyph-name="j" unicode="j" horiz-adv-x="222" d="M195 620 L217 722 L329 722 L307 620 L195 620 Z M-14 -68 L4 -68 Q27 -68 39 -56 Q51 -44 55 -26 L177 537 L289 537 L166 -31 Q157 -71 141 -98 Q125 -125 103.5 -141 Q82 -157 57 -163.5 Q32 -170 6 -170 L-36 -170 L-14 -68 Z " />
<glyph glyph-name="k" unicode="k" horiz-adv-x="444" d="M373 368 L424 0 L311 0 L278 267 L276 267 L206 188 L166 0 L54 0 L210 722 L322 722 L241 348 L243 348 L407 538 L527 538 L373 368 Z " />
<glyph glyph-name="l" unicode="l" horiz-adv-x="222" d="M55 0 L211 722 L323 722 L167 0 L55 0 Z " />
<glyph glyph-name="m" unicode="m" horiz-adv-x="667" d="M277 0 L367 417 Q368 421 368 428 Q368 442 359 449 Q350 456 336 456 Q318 456 299 446 Q280 436 257 422 L166 0 L54 0 L170 538 L276 538 L264 484 Q285 499 301.5 511 Q318 523 334 531 Q350 539 366 543.5 Q382 548 402 548 Q423 548 437 544 Q451 540 460 532.5 Q469 525 475 512.5 Q481 500 486 484 Q511 503 530 515.5 Q549 528 565 535.5 Q581 543 595.5 545.5 Q610 548 625 548 Q668 548 689 527.5 Q710 507 710 470 Q710 452 706 435 L612 0 L500 0 L590 417 Q591 421 591 428 Q591 442 581.5 449 Q572 456 558 456 Q540 456 521 446 Q502 436 480 422 L389 0 L277 0 Z " />
<glyph glyph-name="n" unicode="n" horiz-adv-x="444" d="M54 0 L170 538 L276 538 L264 484 Q285 499 302 511 Q319 523 335.5 531 Q352 539 371 543.5 Q390 548 414 548 Q450 548 469 527.5 Q488 507 488 471 Q488 452 484 435 L390 0 L278 0 L368 417 Q369 420 369 423 Q369 427 369 429 Q369 443 360 449.5 Q351 456 336 456 Q318 456 299 446 Q280 436 257 422 L166 0 L54 0 Z " />
<glyph glyph-name="o" unicode="o" horiz-adv-x="444" d="M363 368 Q368 391 368 406 Q368 456 320 456 Q290 456 270 435.5 Q250 415 239 368 L196 170 Q192 151 192 133 Q192 106 204 94 Q216 82 239 82 Q269 82 289.5 102.5 Q310 123 320 170 L363 368 Z M123 348 Q132 392 149.5 429 Q167 466 193 492.5 Q219 519 255.5 533.5 Q292 548 340 548 Q415 548 447 513.5 Q479 479 479 419 Q479 388 471 348 L437 190 Q427 146 410 109 Q393 72 366.5 45.5 Q340 19 303.5 4.5 Q267 -10 219 -10 Q144 -10 112 24.5 Q80 59 80 118 Q80 151 89 190 L123 348 Z " />
<glyph glyph-name="p" unicode="p" horiz-adv-x="444" d="M189 110 Q203 98 216.5 90 Q230 82 247 82 Q258 82 269 85.5 Q280 89 289.5 99 Q299 109 306.5 125.5 Q314 142 320 169 L363 369 Q369 394 369 411 Q369 438 357 447 Q345 456 328 456 Q311 456 294.5 448 Q278 440 258 428 L189 110 Z M276 538 L264 482 L266 482 Q301 517 329.5 532.5 Q358 548 400 548 Q442 548 465 523.5 Q488 499 488 451 Q488 428 482 398 L426 140 Q410 66 371 28 Q332 -10 279 -10 Q261 -10 247.5 -6.5 Q234 -3 222.5 4.5 Q211 12 200 22 Q189 32 175 46 L129 -170 L17 -170 L170 538 L276 538 Z " />
<glyph glyph-name="q" unicode="q" horiz-adv-x="444" d="M370 428 Q356 440 342.5 448 Q329 456 312 456 Q289 456 270 439 Q251 422 239 369 L196 169 Q193 156 192 146 Q191 136 191 128 Q191 101 202.5 91.5 Q214 82 231 82 Q248 82 265 90 Q282 98 301 110 L370 428 Z M506 538 L353 -170 L241 -170 L287 46 Q268 32 252.5 22 Q237 12 222.5 4.5 Q208 -3 192.5 -6.5 Q177 -10 159 -10 Q117 -10 94.5 14 Q72 38 72 86 Q72 110 78 140 L134 398 Q150 472 188.5 510 Q227 548 280 548 Q322 548 344 532.5 Q366 517 386 482 L388 482 L400 538 L506 538 Z " />
<glyph glyph-name="r" unicode="r" horiz-adv-x="333" d="M54 0 L170 538 L277 538 L263 475 L265 475 Q293 510 330.5 529 Q368 548 408 548 L431 548 L406 431 Q392 435 376.5 438.5 Q361 442 336 442 Q307 442 280.5 424 Q254 406 246 370 L166 0 L54 0 Z " />
<glyph glyph-name="s" unicode="s" horiz-adv-x="389" d="M342 389 L342 393 Q342 456 292 456 Q270 456 254.5 445 Q239 434 234 413 Q233 409 233 402 Q233 376 257 354 Q281 332 310.5 306.5 Q340 281 364 248.5 Q388 216 388 170 Q388 151 384 135 Q368 63 316 26.5 Q264 -10 195 -10 Q124 -10 90.5 26 Q57 62 57 128 L57 140 L161 167 Q161 162 160.5 158.5 Q160 155 160 151 Q160 122 171 102 Q182 82 216 82 Q238 82 254.5 94 Q271 106 276 129 Q277 133 277.5 136 Q278 139 278 142 Q278 161 266.5 177.5 Q255 194 238 210.5 Q221 227 200.5 243.5 Q180 260 163 279 Q146 298 134.5 321 Q123 344 123 373 Q123 387 126 404 Q133 436 150 462.5 Q167 489 191.5 508 Q216 527 245.5 537.5 Q275 548 307 548 Q373 548 406.5 509.5 Q440 471 440 408 L440 405 L342 389 Z " />
<glyph glyph-name="t" unicode="t" horiz-adv-x="278" d="M106 446 L126 538 L188 538 L219 683 L331 683 L300 538 L375 538 L355 446 L280 446 L213 136 Q212 131 211.5 127.5 Q211 124 211 120 Q211 92 241 92 L278 92 L258 -4 Q246 -7 233.5 -8.5 Q221 -10 200 -10 Q147 -10 119.5 10.5 Q92 31 92 74 Q92 82 93 91.5 Q94 101 96 111 L168 446 L106 446 Z " />
<glyph glyph-name="u" unicode="u" horiz-adv-x="444" d="M506 538 L390 0 L284 0 L295 54 Q274 39 257.5 27 Q241 15 224 7 Q207 -1 188 -5.5 Q169 -10 145 -10 Q109 -10 90.5 10 Q72 30 72 66 Q72 74 73 83.5 Q74 93 76 103 L170 538 L282 538 L192 121 Q191 117 191 109 Q191 82 223 82 Q241 82 260.5 92 Q280 102 303 116 L394 538 L506 538 Z " />
<glyph glyph-name="v" unicode="v" horiz-adv-x="389" d="M381 538 L495 538 L249 0 L140 0 L126 538 L240 538 L231 178 L233 178 L381 538 Z " />
<glyph glyph-name="w" unicode="w" horiz-adv-x="556" d="M352 537 L435 537 L422 202 L424 202 L558 538 L666 538 L426 0 L336 0 L348 340 L346 340 L200 0 L110 0 L122 538 L230 538 L206 202 L208 202 L352 537 Z " />
<glyph glyph-name="x" unicode="x" horiz-adv-x="389" d="M193 285 L137 538 L253 538 L277 388 L370 538 L486 538 L316 287 L376 0 L260 0 L234 182 L232 182 L128 0 L12 0 L193 285 Z " />
<glyph glyph-name="y" unicode="y" horiz-adv-x="389" d="M382 538 L495 538 L229 -40 Q212 -77 193.5 -101.5 Q175 -126 153 -141 Q131 -156 105 -162.5 Q79 -169 48 -169 L1 -169 L21 -77 L48 -77 Q90 -77 110.5 -55 Q131 -33 141 10 Q145 30 145 56 Q145 62 144.5 68 Q144 74 144 81 L126 538 L240 538 L237 194 L239 194 L382 538 Z " />
<glyph glyph-name="z" unicode="z" horiz-adv-x="389" d="M140 446 L160 538 L475 538 L455 446 L169 92 L378 92 L359 0 L30 0 L49 92 L331 446 L140 446 Z " />
<glyph glyph-name="braceleft" unicode="&#x7b;" horiz-adv-x="278" d="M76 354 Q98 354 119 373 Q140 392 149 434 L193 636 Q204 684 231 708 Q258 732 318 732 L428 732 L418 684 L336 684 Q316 684 305 670.5 Q294 657 289 634 L247 440 Q240 410 227 388.5 Q214 367 199 353.5 Q184 340 169.5 333.5 Q155 327 146 326 L145 323 Q152 322 162 317.5 Q172 313 180 304 Q188 295 194 280 Q200 265 200 244 Q200 225 196 206 L154 12 Q152 6 152 1 Q152 -4 152 -9 Q152 -23 158 -30.5 Q164 -38 179 -38 L261 -38 L251 -86 L141 -86 Q93 -86 73.5 -71 Q54 -56 54 -25 Q54 -17 55 -8.5 Q56 0 58 10 L102 216 Q105 232 105 245 Q105 271 93 283.5 Q81 296 64 296 L76 354 Z " />
<glyph glyph-name="bar" unicode="&#x7c;" horiz-adv-x="222" d="M220 732 L318 732 L157 -10 L59 -10 L220 732 Z " />
<glyph glyph-name="braceright" unicode="&#x7d;" horiz-adv-x="278" d="M341 292 Q319 292 298 273 Q277 254 267 212 L224 10 Q213 -38 186 -62 Q159 -86 99 -86 L-10 -86 L0 -38 L81 -38 Q101 -38 112 -24.5 Q123 -11 128 12 L170 206 Q177 236 190 257.5 Q203 279 218 292.5 Q233 306 247.5 312.5 Q262 319 271 320 L271 323 Q264 324 254.5 328.5 Q245 333 237 342 Q229 351 223 366 Q217 381 217 402 Q217 421 221 440 L263 634 Q265 640 265 645 Q265 650 265 655 Q265 669 259 676.5 Q253 684 238 684 L156 684 L166 732 L276 732 Q324 732 343.5 717 Q363 702 363 671 Q363 663 362 654.5 Q361 646 359 636 L315 430 Q311 415 311 400 Q311 374 323.5 362 Q336 350 353 350 L341 292 Z " />
<glyph glyph-name="asciitilde" unicode="&#x7e;" horiz-adv-x="600" d="M592 249 Q575 236 558.5 222.5 Q542 209 524 197.5 Q506 186 486 178.5 Q466 171 443 171 Q415 171 392.5 180.5 Q370 190 348 204 Q329 216 301.5 225.5 Q274 235 239 235 Q206 235 182.5 214.5 Q159 194 142 171 L116 257 Q130 270 145.5 283.5 Q161 297 179.5 308.5 Q198 320 219.5 327.5 Q241 335 266 335 Q292 335 318 325.5 Q344 316 370 303 Q396 291 417.5 281 Q439 271 465 271 Q495 271 519.5 291.5 Q544 312 567 335 L592 249 Z " />
<glyph glyph-name="exclamdown" unicode="&#xa1;" horiz-adv-x="278" d="M314 538 L288 420 L170 420 L196 538 L314 538 Z M162 -184 L36 -184 L168 326 L250 326 L162 -184 Z " />
<glyph glyph-name="cent" unicode="&#xa2;" horiz-adv-x="444" d="M339 465 Q334 466 323 466 Q291 466 266.5 445.5 Q242 425 231 378 L188 180 Q187 175 187 165 Q187 160 187 156 Q187 152 188 148 L190 148 L339 465 Z M375 364 L378 378 Q382 394 382 409 Q382 425 376 437 L212 100 Q223 92 242 92 Q274 92 298 112.5 Q322 133 332 180 L340 214 L452 214 L449 200 Q439 156 421.5 119 Q404 82 377 55.5 Q350 29 312 14.5 Q274 0 223 0 Q197 0 180 4 L121 -116 L46 -116 L118 29 Q94 46 83.5 72.5 Q73 99 73 133 Q73 162 81 200 L115 358 Q125 402 142.5 439 Q160 476 188 502.5 Q216 529 254 543.5 Q292 558 343 558 Q352 558 359.5 557.5 Q367 557 375 556 L438 684 L512 684 L438 534 Q463 517 474.5 489.5 Q486 462 486 427 Q486 396 479 364 L375 364 Z " />
<glyph glyph-name="sterling" unicode="&#xa3;" horiz-adv-x="444" d="M55 97 Q80 105 98.5 120 Q117 135 131.5 161.5 Q146 188 157.5 226.5 Q169 265 181 319 L104 319 L122 403 L185 403 Q185 417 184.5 431.5 Q184 446 184 460 Q184 491 185.5 518.5 Q187 546 192 567 Q209 645 258.5 688.5 Q308 732 393 732 Q520 732 520 610 Q520 573 510 530 L408 530 Q414 567 414 590 Q414 619 403.5 629.5 Q393 640 370 640 Q321 640 306 576 Q301 553 300 531.5 Q299 510 299 487 L299 444 Q299 434 299 424 Q299 414 298 403 L397 403 L379 319 L289 319 Q281 286 273.5 257.5 Q266 229 257 204.5 Q248 180 237 158 Q226 136 210 116 Q223 105 239 98.5 Q255 92 274 92 Q290 92 302 100.5 Q314 109 323 124 Q332 139 338 158.5 Q344 178 349 199 L449 199 L436 140 Q420 69 377 29.5 Q334 -10 270 -10 Q232 -10 203.5 3.5 Q175 17 153 38 Q123 20 93.5 6.5 Q64 -7 32 -10 L55 97 Z " />
<glyph glyph-name="&amp;#x2044;" unicode="&#x2044;" horiz-adv-x="167" d="M-169 -10 L401 732 L492 732 L-78 -10 L-169 -10 Z " />
<glyph glyph-name="&amp;#x2215;" unicode="&#x2215;" horiz-adv-x="167" d="M-169 -10 L401 732 L492 732 L-78 -10 L-169 -10 Z " />
<glyph glyph-name="yen" unicode="&#xa5;" horiz-adv-x="444" d="M501 384 L380 384 L335 304 L483 304 L465 220 L317 220 L270 0 L174 0 L221 220 L73 220 L91 304 L239 304 L230 384 L109 384 L127 468 L214 468 L178 722 L278 722 L314 423 L316 423 L478 722 L578 722 L432 468 L519 468 L501 384 Z " />
<glyph glyph-name="florin" unicode="&#x192;" horiz-adv-x="444" d="M18 -73 Q23 -76 30.5 -77 Q38 -78 46 -78 Q73 -78 92 -62 Q111 -46 132 1 Q153 48 179 134.5 Q205 221 245 362 L152 362 L170 446 L270 446 Q292 526 320 581 Q348 636 380 669.5 Q412 703 448 717.5 Q484 732 521 732 Q533 732 544 730.5 Q555 729 567 727 L547 633 Q525 646 498 646 Q482 646 466.5 637 Q451 628 435.5 605.5 Q420 583 405.5 544.5 Q391 506 376 446 L478 446 L460 362 L354 362 Q319 235 287 136 Q255 37 219 -31 Q183 -99 139 -134.5 Q95 -170 36 -170 Q16 -170 -1 -165 L18 -73 Z " />
<glyph glyph-name="section" unicode="&#xa7;" horiz-adv-x="500" d="M230 395 Q230 381 245 353 Q260 325 280.5 296.5 Q301 268 322.5 247 Q344 226 358 226 Q378 226 394 239.5 Q410 253 414 270 L414 273 Q414 286 399.5 313.5 Q385 341 364.5 369.5 Q344 398 321.5 419.5 Q299 441 283 441 Q262 441 248 428.5 Q234 416 230 399 L230 395 Z M463 602 Q457 610 451 619.5 Q445 629 437.5 636.5 Q430 644 420 649 Q410 654 398 654 Q346 654 336 608 Q335 604 335 597 Q335 577 348 556 Q361 535 380.5 512.5 Q400 490 423 465.5 Q446 441 465.5 415.5 Q485 390 498 362 Q511 334 511 305 Q511 292 508 280 Q497 231 462 197.5 Q427 164 375 162 Q389 145 397 127.5 Q405 110 405 87 Q405 70 401 54 Q395 24 379.5 -0.5 Q364 -25 343 -42.5 Q322 -60 295.5 -70 Q269 -80 240 -80 Q185 -80 151.5 -58 Q118 -36 88 1 L173 58 Q181 35 195 16.5 Q209 -2 239 -2 Q265 -2 284 10 Q303 22 308 48 Q309 52 309 59 Q309 79 296 101.5 Q283 124 263.5 148.5 Q244 173 221.5 199.5 Q199 226 179.5 253.5 Q160 281 147 309.5 Q134 338 134 367 Q134 373 134 379 Q134 385 136 391 Q147 442 184 471 Q221 500 272 505 Q241 532 241 578 Q241 595 245 610 Q256 663 299 697.5 Q342 732 415 732 Q461 732 493.5 708.5 Q526 685 543 652 L463 602 Z " />
<glyph glyph-name="currency" unicode="&#xa4;" horiz-adv-x="444" d="M188 361 Q185 346 185 333 Q185 294 209.5 269 Q234 244 274 244 Q297 244 319.5 253 Q342 262 360.5 277.5 Q379 293 392.5 314.5 Q406 336 412 361 Q415 374 415 387 Q415 427 390 452.5 Q365 478 325 478 Q302 478 279.5 469 Q257 460 238.5 444 Q220 428 206.5 407 Q193 386 188 361 Z M417 146 L379 194 Q352 177 320 167.5 Q288 158 256 158 Q223 158 195 167.5 Q167 177 146 194 L89 146 L51 199 L108 245 Q91 277 91 317 Q91 336 96 361 Q103 393 119 423 Q135 453 158 477 L121 523 L182 576 L219 528 Q247 545 279 554.5 Q311 564 344 564 Q376 564 404 554.5 Q432 545 452 528 L510 576 L549 523 L492 477 Q508 446 508 403 Q508 380 504 361 Q496 329 480 299 Q464 269 442 245 L479 199 L417 146 Z " />
<glyph glyph-name="quotesingle" unicode="&#x27;" horiz-adv-x="222" d="M220 722 L314 722 L254 448 L160 448 L220 722 Z " />
<glyph glyph-name="quotedblleft" unicode="&#x201c;" horiz-adv-x="444" d="M386 608 L482 732 L535 732 L459 608 L504 608 L479 490 L361 490 L386 608 Z M201 608 L297 732 L350 732 L274 608 L319 608 L294 490 L176 490 L201 608 Z " />
<glyph glyph-name="guillemotleft" unicode="&#xab;" horiz-adv-x="500" d="M465 115 L369 115 L288 270 L436 423 L535 423 L385 269 L465 115 Z M298 115 L202 115 L121 270 L269 423 L368 423 L218 269 L298 115 Z " />
<glyph glyph-name="guilsinglleft" unicode="&#x2039;" horiz-adv-x="333" d="M298 115 L202 115 L121 270 L269 423 L368 423 L218 269 L298 115 Z " />
<glyph glyph-name="guilsinglright" unicode="&#x203a;" horiz-adv-x="333" d="M231 269 L147 423 L246 423 L328 270 L179 115 L83 115 L231 269 Z " />
<glyph glyph-name="fi" unicode="&#xfb01;" horiz-adv-x="444" d="M411 620 L433 722 L545 722 L523 620 L411 620 Z M277 0 L393 538 L505 538 L389 0 L277 0 Z M158 446 L92 446 L112 538 L178 538 L192 605 Q206 671 245.5 701.5 Q285 732 345 732 L401 732 L381 640 L349 640 Q329 640 319 632 Q309 624 304 604 L290 538 L354 538 L334 446 L270 446 L174 0 L62 0 L158 446 Z " />
<glyph glyph-name="fl" unicode="&#xfb02;" horiz-adv-x="444" d="M277 0 L433 722 L545 722 L389 0 L277 0 Z M158 446 L92 446 L112 538 L178 538 L192 605 Q206 671 245.5 701.5 Q285 732 345 732 L401 732 L381 640 L349 640 Q329 640 319 632 Q309 624 304 604 L290 538 L354 538 L334 446 L270 446 L174 0 L62 0 L158 446 Z " />
<glyph glyph-name="endash" unicode="&#x2013;" horiz-adv-x="500" d="M50 233 L66 305 L566 305 L550 233 L50 233 Z " />
<glyph glyph-name="dagger" unicode="&#x2020;" horiz-adv-x="500" d="M531 450 L373 492 L381 323 Q355 272 324 170 Q293 68 251 -80 L213 -80 Q233 51 245.5 145.5 Q258 240 258 296 Q258 304 258 310 Q258 317 257 323 L339 492 L163 450 L190 574 L344 532 L348 732 L468 732 L386 532 L558 574 L531 450 Z " />
<glyph glyph-name="daggerdbl" unicode="&#x2021;" horiz-adv-x="500" d="M531 450 L373 492 L382 326 L301 160 L477 202 L450 78 L296 120 L292 -80 L172 -80 L254 120 L82 78 L109 202 L267 160 L258 326 L339 492 L163 450 L190 574 L344 532 L348 732 L468 732 L386 532 L558 574 L531 450 Z " />
<glyph glyph-name="&amp;#xb7;" unicode="&#xb7;" horiz-adv-x="222" d="M98 253 Q104 281 127.5 300.5 Q151 320 180 320 Q204 320 219 305 Q234 290 234 267 Q234 263 233.5 260 Q233 257 232 253 Q226 224 202.5 205 Q179 186 151 186 Q126 186 111 200.5 Q96 215 96 238 Q96 243 98 253 Z " />
<glyph glyph-name="&amp;#x2219;" unicode="&#x2219;" horiz-adv-x="222" d="M98 253 Q104 281 127.5 300.5 Q151 320 180 320 Q204 320 219 305 Q234 290 234 267 Q234 263 233.5 260 Q233 257 232 253 Q226 224 202.5 205 Q179 186 151 186 Q126 186 111 200.5 Q96 215 96 238 Q96 243 98 253 Z " />
<glyph glyph-name="paragraph" unicode="&#xb6;" horiz-adv-x="500" d="M271 352 Q196 352 156 390 Q116 428 116 489 Q116 500 117.5 511 Q119 522 121 534 Q132 584 154.5 620 Q177 656 209 678.5 Q241 701 281.5 711.5 Q322 722 370 722 L658 722 L644 658 L588 658 L428 -80 L346 -80 L506 658 L419 658 L259 -80 L177 -80 L271 352 Z " />
<glyph glyph-name="bullet" unicode="&#x2022;" horiz-adv-x="500" d="M147 361 Q155 398 176 431 Q197 464 227 488.5 Q257 513 292.5 527 Q328 541 366 541 Q432 541 472 501 Q512 461 512 399 Q512 390 511 380.5 Q510 371 508 361 Q500 323 478.5 290.5 Q457 258 427 233 Q397 208 360.5 194 Q324 180 287 180 Q255 180 228.5 190.5 Q202 201 183 220 Q164 239 153.5 265 Q143 291 143 321 Q143 342 147 361 Z " />
<glyph glyph-name="quotesinglbase" unicode="&#x201a;" horiz-adv-x="222" d="M170 0 L74 -124 L21 -124 L97 0 L52 0 L77 118 L195 118 L170 0 Z " />
<glyph glyph-name="quotedblbase" unicode="&#x201e;" horiz-adv-x="444" d="M189 0 L93 -124 L40 -124 L116 0 L71 0 L96 118 L214 118 L189 0 Z M374 0 L278 -124 L225 -124 L301 0 L256 0 L281 118 L399 118 L374 0 Z " />
<glyph glyph-name="quotedblright" unicode="&#x201d;" horiz-adv-x="444" d="M319 604 L223 480 L170 480 L246 604 L201 604 L227 722 L345 722 L319 604 Z M504 604 L408 480 L355 480 L431 604 L386 604 L412 722 L530 722 L504 604 Z " />
<glyph glyph-name="guillemotright" unicode="&#xbb;" horiz-adv-x="500" d="M231 269 L147 423 L246 423 L328 270 L179 115 L83 115 L231 269 Z M398 269 L314 423 L413 423 L495 270 L346 115 L250 115 L398 269 Z " />
<glyph glyph-name="ellipsis" unicode="&#x2026;" horiz-adv-x="1000" d="M443 0 L468 118 L582 118 L557 0 L443 0 Z M776 0 L801 118 L915 118 L890 0 L776 0 Z M110 0 L135 118 L249 118 L224 0 L110 0 Z " />
<glyph glyph-name="perthousand" unicode="&#x2030;" horiz-adv-x="1000" d="M217 572 Q215 562 215 557 Q215 533 230.5 517.5 Q246 502 272 502 Q301 502 326 522.5 Q351 543 357 572 Q359 582 359 588 Q359 611 343.5 626.5 Q328 642 302 642 Q273 642 248.5 621.5 Q224 601 217 572 Z M798 150 Q796 140 796 135 Q796 111 811.5 95.5 Q827 80 853 80 Q882 80 907 100.5 Q932 121 938 150 Q940 160 940 165 Q940 189 924.5 204.5 Q909 220 883 220 Q854 220 829 199.5 Q804 179 798 150 Z M444 150 Q442 140 442 135 Q442 111 457.5 95.5 Q473 80 499 80 Q528 80 553 100.5 Q578 121 584 150 Q586 160 586 165 Q586 189 570.5 204.5 Q555 220 529 220 Q500 220 475 199.5 Q450 179 444 150 Z M665 732 L735 732 L163 -10 L93 -10 L665 732 Z M364 150 Q371 181 388.5 208.5 Q406 236 430.5 256 Q455 276 485 288 Q515 300 546 300 Q600 300 634 266.5 Q668 233 668 182 Q668 174 667 166 Q666 158 664 150 Q657 119 639.5 91.5 Q622 64 597.5 44 Q573 24 543 12 Q513 0 482 0 Q428 0 394 33.5 Q360 67 360 118 Q360 126 361 134 Q362 142 364 150 Z M718 150 Q725 181 742.5 208.5 Q760 236 784.5 256 Q809 276 839 288 Q869 300 900 300 Q954 300 988 266.5 Q1022 233 1022 182 Q1022 174 1021 166 Q1020 158 1018 150 Q1011 119 993.5 91.5 Q976 64 951.5 44 Q927 24 897 12 Q867 0 836 0 Q782 0 748 33.5 Q714 67 714 118 Q714 126 715 134 Q716 142 718 150 Z M137 572 Q144 603 161.5 630.5 Q179 658 204 678 Q229 698 259 710 Q289 722 320 722 Q347 722 369.5 713 Q392 704 407.5 688 Q423 672 432 650.5 Q441 629 441 604 Q441 596 440 588 Q439 580 437 572 Q430 541 412.5 513.5 Q395 486 370.5 466 Q346 446 316 434 Q286 422 255 422 Q201 422 167 455.5 Q133 489 133 540 Q133 548 134 556 Q135 564 137 572 Z " />
<glyph glyph-name="questiondown" unicode="&#xbf;" horiz-adv-x="389" d="M381 538 L355 420 L237 420 L263 538 L381 538 Z M322 326 L304 242 Q293 190 267.5 147.5 Q242 105 214 69 Q187 33 164 2 Q141 -29 135 -57 Q134 -61 134 -68 Q134 -82 142.5 -92 Q151 -102 167 -102 Q183 -102 196 -95 Q209 -88 220 -77 Q231 -66 240 -52.5 Q249 -39 255 -26 L343 -62 Q305 -128 255.5 -161 Q206 -194 134 -194 Q84 -194 50 -164.5 Q16 -135 16 -87 Q16 -74 19 -60 Q31 -5 57.5 29 Q84 63 114 95 Q129 111 144 128 Q159 145 172 166 Q185 187 196 213 Q207 239 214 272 L226 326 L322 326 Z " />
<glyph glyph-name="grave" unicode="&#x60;" horiz-adv-x="222" d="M129 746 L264 746 L312 602 L229 602 L129 746 Z " />
<glyph glyph-name="acute" unicode="&#xb4;" horiz-adv-x="222" d="M253 602 L170 602 L280 746 L415 746 L253 602 Z " />
<glyph glyph-name="circumflex" unicode="&#x2c6;" horiz-adv-x="222" d="M217 746 L327 746 L392 602 L300 602 L260 691 L182 602 L90 602 L217 746 Z " />
<glyph glyph-name="tilde" unicode="&#x2dc;" horiz-adv-x="222" d="M432 733 Q423 712 411.5 690.5 Q400 669 384.5 652.5 Q369 636 349 625.5 Q329 615 304 615 Q286 615 271.5 621 Q257 627 243 635 Q229 643 216 648.5 Q203 654 187 654 Q164 654 152.5 643 Q141 632 136 610 L80 610 Q89 631 100.5 652.5 Q112 674 127.5 690.5 Q143 707 163 717.5 Q183 728 208 728 Q226 728 240.5 722 Q255 716 269 709 Q283 702 296 695.5 Q309 689 325 689 Q348 689 359.5 700 Q371 711 376 733 L432 733 Z " />
<glyph glyph-name="&amp;#xaf;" unicode="&#xaf;" horiz-adv-x="222" d="M115 701 L409 701 L395 637 L101 637 L115 701 Z " />
<glyph glyph-name="&amp;#x2c9;" unicode="&#x2c9;" horiz-adv-x="222" d="M115 701 L409 701 L395 637 L101 637 L115 701 Z " />
<glyph glyph-name="breve" unicode="&#x2d8;" horiz-adv-x="222" d="M420 749 Q411 720 396 694.5 Q381 669 359 649.5 Q337 630 307.5 618.5 Q278 607 242 607 Q210 607 188 616 Q166 625 151.5 640 Q137 655 130.5 675.5 Q124 696 124 720 Q124 727 124.5 734 Q125 741 126 749 L184 749 Q183 745 183 741 Q183 738 183 735 Q183 703 202 689 Q221 675 257 675 Q297 675 322.5 692.5 Q348 710 362 749 L420 749 Z " />
<glyph glyph-name="dotaccent" unicode="&#x2d9;" horiz-adv-x="222" d="M321 722 L297 614 L189 614 L213 722 L321 722 Z " />
<glyph glyph-name="dieresis" unicode="&#xa8;" horiz-adv-x="222" d="M242 722 L218 614 L110 614 L134 722 L242 722 Z M268 614 L292 722 L400 722 L376 614 L268 614 Z " />
<glyph glyph-name="ring" unicode="&#x2da;" horiz-adv-x="222" d="M211 704 Q210 700 210 693 Q210 675 221.5 663.5 Q233 652 252 652 Q274 652 292 667 Q310 682 315 704 Q316 708 316 715 Q316 733 304.5 744.5 Q293 756 274 756 Q252 756 234 741 Q216 726 211 704 Z M161 704 Q165 725 177.5 743.5 Q190 762 206.5 776 Q223 790 243.5 798 Q264 806 285 806 Q322 806 344.5 783 Q367 760 367 725 Q367 720 367 714 Q367 709 365 704 Q360 683 348 664.5 Q336 646 319.5 632 Q303 618 282.5 610 Q262 602 241 602 Q204 602 181.5 625 Q159 648 159 683 Q159 688 159 693 Q159 699 161 704 Z " />
<glyph glyph-name="cedilla" unicode="&#xb8;" horiz-adv-x="222" d="M-27 -163 Q-16 -169 2 -174.5 Q20 -180 34 -180 Q60 -180 78.5 -168 Q97 -156 101 -139 Q102 -136 102 -131 Q102 -116 90 -109.5 Q78 -103 62 -103 Q42 -103 25 -110 L7 -92 L95 0 L143 0 L89 -60 Q94 -59 99.5 -58.5 Q105 -58 110 -58 Q139 -60 162.5 -74.5 Q186 -89 186 -118 Q186 -122 185.5 -125.5 Q185 -129 184 -134 Q179 -158 164.5 -177 Q150 -196 130 -209 Q110 -222 86 -229 Q62 -236 38 -236 Q3 -236 -20.5 -227 Q-44 -218 -55 -213 L-27 -163 Z " />
<glyph glyph-name="hungarumlaut" unicode="&#x2dd;" horiz-adv-x="222" d="M163 602 L84 602 L184 746 L319 746 L163 602 Z M333 602 L250 602 L360 746 L495 746 L333 602 Z " />
<glyph glyph-name="ogonek" unicode="&#x2db;" horiz-adv-x="222" d="M244 9 Q224 1 198.5 -10 Q173 -21 149.5 -36 Q126 -51 108 -71 Q90 -91 84 -116 Q83 -120 83 -127 Q83 -145 94.5 -154 Q106 -163 123 -163 Q146 -163 173.5 -149.5 Q201 -136 222 -123 L233 -159 Q197 -182 157.5 -200.5 Q118 -219 78 -219 Q43 -219 20.5 -201.5 Q-2 -184 -2 -149 Q-2 -144 -2 -138 Q-2 -133 0 -127 Q9 -88 37.5 -61.5 Q66 -35 103 -18.5 Q140 -2 179 7 Q218 16 247 21 L244 9 Z " />
<glyph glyph-name="caron" unicode="&#x2c7;" horiz-adv-x="222" d="M296 602 L186 602 L121 746 L213 746 L253 657 L331 746 L423 746 L296 602 Z " />
<glyph glyph-name="emdash" unicode="&#x2014;" horiz-adv-x="1000" d="M50 233 L66 305 L1066 305 L1050 233 L50 233 Z " />
<glyph glyph-name="AE" unicode="&#xc6;" horiz-adv-x="722" d="M394 278 L470 632 L468 632 L284 278 L394 278 Z M401 722 L826 722 L802 614 L590 614 L550 428 L714 428 L691 320 L527 320 L481 108 L707 108 L684 0 L334 0 L370 170 L226 170 L138 0 L12 0 L401 722 Z " />
<glyph glyph-name="ordfeminine" unicode="&#xaa;" horiz-adv-x="266" d="M284 559 Q234 536 217 519.5 Q200 503 196 482 Q195 479 195 474 Q195 456 219 456 Q234 456 247.5 465 Q261 474 269 486 L284 559 Z M150 631 Q164 680 202 706 Q240 732 294 732 Q338 732 361 716 Q384 700 384 668 Q384 657 381 644 L336 436 Q334 428 334 419 Q334 410 334 402 L264 402 L264 406 L264 418 L264 423 Q241 408 220 402 Q199 396 173 396 Q142 396 127.5 410.5 Q113 425 113 449 Q113 454 113.5 459 Q114 464 115 469 Q126 522 171.5 555 Q217 588 297 616 L301 635 Q302 640 302.5 643.5 Q303 647 303 650 Q303 672 275 672 Q253 672 243 660.5 Q233 649 228 631 L150 631 Z " />
<glyph glyph-name="Oslash" unicode="&#xd8;" horiz-adv-x="500" d="M223 121 Q229 98 271 98 Q309 98 327 117.5 Q345 137 354 178 L407 424 L405 424 L223 121 Z M437 582 Q437 603 425 613.5 Q413 624 385 624 Q347 624 328.5 604.5 Q310 585 301 544 L239 257 L241 257 L437 582 Z M84 -120 L2 -120 L109 56 Q92 86 92 128 Q92 139 93 151 Q94 163 97 175 L178 547 Q186 585 205 619 Q224 653 252.5 678 Q281 703 320 717.5 Q359 732 408 732 Q468 732 506 708 L565 804 L646 804 L554 652 Q563 628 563 596 Q563 584 561.5 572 Q560 560 558 547 L477 175 Q469 137 450 103 Q431 69 402.5 44 Q374 19 335 4.5 Q296 -10 247 -10 Q197 -10 161 7 L84 -120 Z " />
<glyph glyph-name="OE" unicode="&#x152;" horiz-adv-x="722" d="M446 540 Q449 555 449 566 Q449 592 434.5 603.5 Q420 615 394 615 Q352 615 328.5 588.5 Q305 562 296 520 L228 205 Q224 189 224 170 Q224 142 238 126 Q252 110 284 110 Q315 110 338 127 Q361 144 370 185 L446 540 Z M270 0 Q185 0 142 38.5 Q99 77 99 150 Q99 166 100.5 183.5 Q102 201 107 220 L168 502 Q191 609 256.5 665.5 Q322 722 426 722 L826 722 L802 614 L586 614 L546 428 L714 428 L691 320 L523 320 L477 108 L707 108 L684 0 L270 0 Z " />
<glyph glyph-name="ordmasculine" unicode="&#xba;" horiz-adv-x="266" d="M297 619 Q300 632 300 641 Q300 668 277 668 Q247 668 235 619 L212 509 Q209 497 209 487 Q209 460 232 460 Q264 460 274 509 L297 619 Z M152 612 Q163 665 196 698.5 Q229 732 291 732 Q342 732 362.5 710.5 Q383 689 383 653 Q383 643 381.5 633 Q380 623 378 612 L357 517 Q346 463 313.5 429.5 Q281 396 218 396 Q168 396 147 418 Q126 440 126 477 Q126 494 131 517 L152 612 Z " />
<glyph glyph-name="ae" unicode="&#xe6;" horiz-adv-x="667" d="M580 340 L586 368 Q591 391 591 406 Q591 456 543 456 Q513 456 493.5 435.5 Q474 415 463 368 L457 340 L580 340 Z M331 273 Q288 251 259.5 233 Q231 215 213.5 198 Q196 181 187 165 Q178 149 174 131 Q173 126 172.5 122 Q172 118 172 114 Q172 82 215 82 Q238 82 260 97 Q282 112 300 132 L331 273 Z M437 248 L420 170 Q418 159 416.5 149.5 Q415 140 415 132 Q415 82 462 82 Q492 82 512.5 102.5 Q533 123 543 170 L546 182 L658 182 Q648 139 630.5 104 Q613 69 586.5 43.5 Q560 18 524.5 4 Q489 -10 442 -10 Q392 -10 362.5 9 Q333 28 321 60 Q288 36 263 22 Q238 8 218.5 1 Q199 -6 184 -8 Q169 -10 157 -10 Q102 -10 78 14.5 Q54 39 54 77 Q54 95 58 111 Q67 155 89.5 190 Q112 225 147.5 254 Q183 283 233 307.5 Q283 332 348 355 L355 387 Q358 402 358 414 Q358 456 316 456 Q278 456 261.5 435.5 Q245 415 236 380 L124 380 Q146 462 201.5 505 Q257 548 324 548 Q411 548 442 498 Q468 524 501 536 Q534 548 572 548 Q642 548 672 513.5 Q702 479 702 420 Q702 403 700 385.5 Q698 368 694 348 L672 248 L437 248 Z " />
<glyph glyph-name="dotlessi" unicode="&#x131;" horiz-adv-x="222" d="M55 0 L171 538 L283 538 L167 0 L55 0 Z " />
<glyph glyph-name="oslash" unicode="&#xf8;" horiz-adv-x="444" d="M204 94 Q217 82 239 82 Q269 82 289.5 102.5 Q310 123 320 170 L360 353 L358 353 L204 94 Z M357 442 Q346 456 320 456 Q290 456 270 435.5 Q250 415 239 368 L197 173 L199 173 L357 442 Z M82 -120 L16 -120 L107 33 Q93 50 86.5 72 Q80 94 80 120 Q80 152 89 190 L123 348 Q132 392 149.5 429 Q167 466 193 492.5 Q219 519 255.5 533.5 Q292 548 340 548 Q378 548 409 537 L473 646 L541 646 L456 503 Q480 470 480 419 Q480 387 471 348 L437 190 Q427 146 410 109 Q393 72 366.5 45.5 Q340 19 303.5 4.5 Q267 -10 219 -10 Q180 -10 153 1 L82 -120 Z " />
<glyph glyph-name="oe" unicode="&#x153;" horiz-adv-x="667" d="M580 340 L586 368 Q591 391 591 406 Q591 456 543 456 Q513 456 496.5 435.5 Q480 415 469 368 L463 340 L580 340 Z M357 368 Q359 379 360.5 388.5 Q362 398 362 406 Q362 432 351 444 Q340 456 320 456 Q290 456 270 435.5 Q250 415 239 368 L196 170 Q192 151 192 133 Q192 106 204 94 Q216 82 239 82 Q265 82 284.5 102.5 Q304 123 314 170 L357 368 Z M443 248 L426 170 Q420 144 420 126 Q420 82 462 82 Q492 82 512.5 102.5 Q533 123 543 170 L546 182 L658 182 Q648 139 630.5 104 Q613 69 588 43.5 Q563 18 529.5 4 Q496 -10 454 -10 Q408 -10 382.5 6.5 Q357 23 347 52 Q324 23 291 6.5 Q258 -10 207 -10 Q139 -10 109.5 24 Q80 58 80 116 Q80 149 89 190 L123 348 Q132 392 149 429 Q166 466 191.5 492.5 Q217 519 250.5 533.5 Q284 548 328 548 Q380 548 407 533 Q434 518 443 487 Q492 548 575 548 Q643 548 672.5 513.5 Q702 479 702 420 Q702 403 700 385.5 Q698 368 694 348 L672 248 L443 248 Z " />
<glyph glyph-name="germandbls" unicode="&#xdf;" horiz-adv-x="444" d="M54 0 L170 540 Q190 634 242 681 Q294 728 370 728 Q408 728 434 719 Q460 710 476 693.5 Q492 677 499 654.5 Q506 632 506 605 Q506 570 497 531 Q484 471 460 436.5 Q436 402 395 397 L395 395 Q426 384 441.5 360 Q457 336 457 292 Q457 257 446 204 Q433 145 416.5 105.5 Q400 66 380.5 42.5 Q361 19 337.5 9.5 Q314 0 286 0 L220 0 L240 95 Q252 92 266 92 Q289 92 300.5 108.5 Q312 125 320 159 L342 260 Q345 276 345 290 Q345 338 297 338 L317 430 Q332 432 342 436 Q352 440 358.5 448 Q365 456 369.5 469 Q374 482 379 502 L394 572 Q397 587 397 598 Q397 636 356 636 Q327 636 311 618.5 Q295 601 287 562 L166 0 L54 0 Z " />
<glyph glyph-name="logicalnot" unicode="&#xac;" horiz-adv-x="600" d="M521 308 L113 308 L134 406 L640 406 L574 99 L476 99 L521 308 Z " />
<glyph glyph-name="&amp;#xb5;" unicode="&#xb5;" horiz-adv-x="444" d="M506 538 L390 0 L284 0 L295 54 Q276 40 260.5 29.5 Q245 19 230 10.5 Q215 2 199 -3 Q183 -8 163 -10 L129 -170 L17 -170 L170 538 L282 538 L192 121 Q191 117 191 109 Q191 82 223 82 Q241 82 260.5 92 Q280 102 303 116 L394 538 L506 538 Z " />
<glyph glyph-name="&amp;#x3bc;" unicode="&#x3bc;" horiz-adv-x="444" d="M506 538 L390 0 L284 0 L295 54 Q276 40 260.5 29.5 Q245 19 230 10.5 Q215 2 199 -3 Q183 -8 163 -10 L129 -170 L17 -170 L170 538 L282 538 L192 121 Q191 117 191 109 Q191 82 223 82 Q241 82 260.5 92 Q280 102 303 116 L394 538 L506 538 Z " />
<glyph glyph-name="trademark" unicode="&#x2122;" horiz-adv-x="990" d="M510 647 L390 647 L317 310 L221 310 L294 647 L174 647 L190 722 L526 722 L510 647 Z M759 451 L921 722 L1056 722 L967 310 L875 310 L940 612 L938 612 L763 310 L694 310 L649 612 L647 612 L582 310 L490 310 L579 722 L715 722 L759 451 Z " />
<glyph glyph-name="plusminus" unicode="&#xb1;" horiz-adv-x="600" d="M68 98 L574 98 L553 0 L47 0 L68 98 Z M360 506 L458 506 L428 369 L632 369 L611 271 L407 271 L378 134 L280 134 L309 271 L105 271 L126 369 L330 369 L360 506 Z " />
<glyph glyph-name="divide" unicode="&#xf7;" horiz-adv-x="600" d="M319 460 Q323 476 332.5 491 Q342 506 355 516.5 Q368 527 383.5 533.5 Q399 540 416 540 Q445 540 463 522 Q481 504 481 477 Q481 472 480.5 468.5 Q480 465 479 460 Q476 443 466.5 428.5 Q457 414 443.5 403.5 Q430 393 414 386.5 Q398 380 382 380 Q353 380 335 398.5 Q317 417 317 444 Q317 448 317.5 451.5 Q318 455 319 460 Z M229 46 Q233 62 242.5 77 Q252 92 265.5 102.5 Q279 113 294.5 119.5 Q310 126 327 126 Q356 126 373.5 108.5 Q391 91 391 64 Q391 59 390.5 55 Q390 51 389 46 Q386 29 376.5 14.5 Q367 0 353.5 -10.5 Q340 -21 324 -27.5 Q308 -34 292 -34 Q263 -34 245 -15.5 Q227 3 227 30 Q227 34 227.5 37.5 Q228 41 229 46 Z M91 204 L112 302 L618 302 L597 204 L91 204 Z " />
<glyph glyph-name="degree" unicode="&#xb0;" horiz-adv-x="400" d="M308 502 Q344 502 372.5 527.5 Q401 553 409 589 Q410 594 410.5 599 Q411 604 411 609 Q411 638 394 657 Q377 676 346 676 Q310 676 281.5 650.5 Q253 625 245 589 Q244 584 243.5 579 Q243 574 243 569 Q243 540 260 521 Q277 502 308 502 Z M296 446 Q243 446 211.5 477.5 Q180 509 180 558 Q180 572 183 589 Q189 619 206 645 Q223 671 246.5 690.5 Q270 710 299 721 Q328 732 358 732 Q411 732 442.5 700.5 Q474 669 474 620 Q474 605 471 589 Q465 559 448 533 Q431 507 407.5 487.5 Q384 468 355 457 Q326 446 296 446 Z " />
<glyph glyph-name="registered" unicode="&#xae;" horiz-adv-x="800" d="M419 395 L490 395 Q535 395 556 409.5 Q577 424 584 453 Q586 463 586 467 Q586 488 567.5 496.5 Q549 505 510 505 L443 505 L419 395 Z M367 154 L285 154 L375 569 L532 569 Q599 569 634.5 549.5 Q670 530 670 482 Q670 463 666 446 Q654 389 619 364 Q584 339 542 335 L603 154 L512 154 L457 331 L405 331 L367 154 Z M760 361 Q768 399 768 430 Q768 480 751.5 521.5 Q735 563 705 592.5 Q675 622 633 638 Q591 654 541 654 Q482 654 426 632.5 Q370 611 323.5 572 Q277 533 243.5 479 Q210 425 196 361 Q192 342 190 325 Q188 308 188 291 Q188 241 204.5 200 Q221 159 250.5 129.5 Q280 100 321.5 84 Q363 68 414 68 Q472 68 528.5 89.5 Q585 111 631.5 150 Q678 189 712 243 Q746 297 760 361 Z M397 -10 Q331 -10 275 10 Q219 30 177.5 67 Q136 104 112.5 157 Q89 210 89 276 Q89 316 98 361 Q116 445 162 513.5 Q208 582 271 630.5 Q334 679 408.5 705.5 Q483 732 558 732 Q624 732 680.5 712 Q737 692 778.5 654.5 Q820 617 843.5 563.5 Q867 510 867 444 Q867 404 858 361 Q840 276 793.5 207.5 Q747 139 684 90.5 Q621 42 546.5 16 Q472 -10 397 -10 Z " />
<glyph glyph-name="copyright" unicode="&#xa9;" horiz-adv-x="800" d="M659 299 Q645 262 622 233 Q599 204 570.5 183.5 Q542 163 509.5 152.5 Q477 142 444 142 Q403 142 371.5 154.5 Q340 167 318.5 189 Q297 211 285.5 241.5 Q274 272 274 308 Q274 334 280 363 Q290 411 313.5 451.5 Q337 492 370.5 521.5 Q404 551 446.5 567.5 Q489 584 538 584 Q604 584 644.5 548 Q685 512 685 443 L685 430 L607 430 Q607 468 583 487 Q559 506 521 506 Q464 506 426 467 Q388 428 375 365 Q370 342 370 323 Q370 278 393.5 249 Q417 220 461 220 Q503 220 534 240.5 Q565 261 578 299 L659 299 Z M760 361 Q768 399 768 430 Q768 480 751.5 521.5 Q735 563 705 592.5 Q675 622 633 638 Q591 654 541 654 Q482 654 426 632.5 Q370 611 323.5 572 Q277 533 243.5 479 Q210 425 196 361 Q192 342 190 325 Q188 308 188 291 Q188 241 204.5 200 Q221 159 250.5 129.5 Q280 100 321.5 84 Q363 68 414 68 Q472 68 528.5 89.5 Q585 111 631.5 150 Q678 189 712 243 Q746 297 760 361 Z M397 -10 Q331 -10 275 10 Q219 30 177.5 67 Q136 104 112.5 157 Q89 210 89 276 Q89 316 98 361 Q116 445 162 513.5 Q208 582 271 630.5 Q334 679 408.5 705.5 Q483 732 558 732 Q624 732 680.5 712 Q737 692 778.5 654.5 Q820 617 843.5 563.5 Q867 510 867 444 Q867 404 858 361 Q840 276 793.5 207.5 Q747 139 684 90.5 Q621 42 546.5 16 Q472 -10 397 -10 Z " />
<glyph glyph-name="numbersign" unicode="&#x23;" horiz-adv-x="444" d="M285 430 L239 292 L319 292 L365 430 L285 430 Z M454 214 L382 214 L312 0 L222 0 L293 214 L212 214 L142 0 L51 0 L122 214 L56 214 L73 292 L149 292 L194 430 L128 430 L144 508 L220 508 L292 722 L381 722 L309 508 L390 508 L462 722 L551 722 L479 508 L543 508 L527 430 L455 430 L409 292 L471 292 L454 214 Z " />
<glyph glyph-name="Aacute" unicode="&#xc1;" horiz-adv-x="444" d="M398 760 L315 760 L425 904 L560 904 L398 760 Z M230 268 L330 268 L348 578 L346 578 L230 268 Z M132 0 L12 0 L301 722 L455 722 L432 0 L312 0 L324 160 L188 160 L132 0 Z " />
<glyph glyph-name="Acircumflex" unicode="&#xc2;" horiz-adv-x="444" d="M230 268 L330 268 L348 578 L346 578 L230 268 Z M362 904 L472 904 L537 760 L445 760 L405 849 L327 760 L235 760 L362 904 Z M132 0 L12 0 L301 722 L455 722 L432 0 L312 0 L324 160 L188 160 L132 0 Z " />
<glyph glyph-name="Adieresis" unicode="&#xc4;" horiz-adv-x="444" d="M387 880 L364 772 L256 772 L279 880 L387 880 Z M414 772 L437 880 L545 880 L522 772 L414 772 Z M230 268 L330 268 L348 578 L346 578 L230 268 Z M132 0 L12 0 L301 722 L455 722 L432 0 L312 0 L324 160 L188 160 L132 0 Z " />
<glyph glyph-name="Agrave" unicode="&#xc0;" horiz-adv-x="444" d="M274 904 L409 904 L457 760 L374 760 L274 904 Z M230 268 L330 268 L348 578 L346 578 L230 268 Z M132 0 L12 0 L301 722 L455 722 L432 0 L312 0 L324 160 L188 160 L132 0 Z " />
<glyph glyph-name="Aring" unicode="&#xc5;" horiz-adv-x="444" d="M356 862 Q355 858 355 851 Q355 833 366.5 821.5 Q378 810 397 810 Q419 810 437 825 Q455 840 460 862 Q461 866 461 873 Q461 891 449.5 902.5 Q438 914 419 914 Q397 914 379 899 Q361 884 356 862 Z M230 268 L330 268 L348 578 L346 578 L230 268 Z M306 862 Q310 883 322.5 901.5 Q335 920 351.5 934 Q368 948 388.5 956 Q409 964 430 964 Q467 964 489.5 941 Q512 918 512 883 Q512 878 512 872 Q512 867 510 862 Q505 841 493 822.5 Q481 804 464.5 790 Q448 776 427.5 768 Q407 760 386 760 Q349 760 326.5 783 Q304 806 304 841 Q304 846 304 851 Q304 857 306 862 Z M132 0 L12 0 L301 722 L455 722 L432 0 L312 0 L324 160 L188 160 L132 0 Z " />
<glyph glyph-name="Atilde" unicode="&#xc3;" horiz-adv-x="444" d="M230 268 L330 268 L348 578 L346 578 L230 268 Z M577 891 Q568 870 556.5 848.5 Q545 827 529.5 810.5 Q514 794 494 783.5 Q474 773 449 773 Q431 773 416.5 779 Q402 785 388 793 Q374 801 361 806.5 Q348 812 332 812 Q309 812 297.5 801 Q286 790 281 768 L225 768 Q234 789 245.5 810.5 Q257 832 272.5 848.5 Q288 865 308 875.5 Q328 886 353 886 Q371 886 385.5 880 Q400 874 414 867 Q428 860 441 853.5 Q454 847 470 847 Q493 847 504.5 858 Q516 869 521 891 L577 891 Z M132 0 L12 0 L301 722 L455 722 L432 0 L312 0 L324 160 L188 160 L132 0 Z " />
<glyph glyph-name="Ccedilla" unicode="&#xc7;" horiz-adv-x="500" d="M111 -163 Q122 -169 140.5 -174.5 Q159 -180 173 -180 Q199 -180 217.5 -168 Q236 -156 240 -139 Q241 -136 241 -131 Q241 -116 229 -109.5 Q217 -103 201 -103 Q181 -103 164 -110 L146 -92 L225 -9 Q155 -4 123.5 34 Q92 72 92 127 Q92 147 97 175 L178 547 Q186 585 205 619 Q224 653 252.5 678 Q281 703 320 717.5 Q359 732 408 732 Q446 732 474 721 Q502 710 520 691 Q538 672 546.5 646 Q555 620 555 589 Q555 562 549 534 L538 481 L414 481 L426 537 Q430 553 430 569 Q430 598 417.5 611 Q405 624 385 624 Q347 624 328.5 604.5 Q310 585 301 544 L222 178 Q218 161 218 144 Q218 121 230 109.5 Q242 98 271 98 Q305 98 322 117 Q339 136 347 171 L365 258 L489 258 L471 175 Q463 139 446.5 107.5 Q430 76 405.5 51.5 Q381 27 347.5 11.5 Q314 -4 274 -8 L228 -60 Q233 -59 238.5 -58.5 Q244 -58 249 -58 Q278 -60 301.5 -74.5 Q325 -89 325 -118 Q325 -122 324.5 -125.5 Q324 -129 323 -134 Q318 -158 303.5 -177 Q289 -196 269 -209 Q249 -222 225 -229 Q201 -236 177 -236 Q141 -236 117.5 -227 Q94 -218 83 -213 L111 -163 Z " />
<glyph glyph-name="Eacute" unicode="&#xc9;" horiz-adv-x="444" d="M410 760 L327 760 L437 904 L572 904 L410 760 Z M60 0 L216 722 L548 722 L524 614 L316 614 L276 428 L436 428 L413 320 L253 320 L207 108 L429 108 L406 0 L60 0 Z " />
<glyph glyph-name="Ecircumflex" unicode="&#xca;" horiz-adv-x="444" d="M374 904 L484 904 L549 760 L457 760 L417 849 L339 760 L247 760 L374 904 Z M60 0 L216 722 L548 722 L524 614 L316 614 L276 428 L436 428 L413 320 L253 320 L207 108 L429 108 L406 0 L60 0 Z " />
<glyph glyph-name="Edieresis" unicode="&#xcb;" horiz-adv-x="444" d="M426 772 L449 880 L557 880 L534 772 L426 772 Z M399 880 L376 772 L268 772 L291 880 L399 880 Z M60 0 L216 722 L548 722 L524 614 L316 614 L276 428 L436 428 L413 320 L253 320 L207 108 L429 108 L406 0 L60 0 Z " />
<glyph glyph-name="Egrave" unicode="&#xc8;" horiz-adv-x="444" d="M286 904 L421 904 L469 760 L386 760 L286 904 Z M60 0 L216 722 L548 722 L524 614 L316 614 L276 428 L436 428 L413 320 L253 320 L207 108 L429 108 L406 0 L60 0 Z " />
<glyph glyph-name="Iacute" unicode="&#xcd;" horiz-adv-x="278" d="M315 760 L232 760 L342 904 L477 904 L315 760 Z M77 0 L233 722 L357 722 L201 0 L77 0 Z " />
<glyph glyph-name="Icircumflex" unicode="&#xce;" horiz-adv-x="278" d="M279 904 L389 904 L454 760 L362 760 L322 849 L244 760 L152 760 L279 904 Z M77 0 L233 722 L357 722 L201 0 L77 0 Z " />
<glyph glyph-name="Idieresis" unicode="&#xcf;" horiz-adv-x="278" d="M331 772 L354 880 L462 880 L439 772 L331 772 Z M304 880 L281 772 L173 772 L196 880 L304 880 Z M77 0 L233 722 L357 722 L201 0 L77 0 Z " />
<glyph glyph-name="Igrave" unicode="&#xcc;" horiz-adv-x="278" d="M191 904 L326 904 L374 760 L291 760 L191 904 Z M77 0 L233 722 L357 722 L201 0 L77 0 Z " />
<glyph glyph-name="Ntilde" unicode="&#xd1;" horiz-adv-x="500" d="M605 891 Q596 870 584.5 848.5 Q573 827 557.5 810.5 Q542 794 522 783.5 Q502 773 477 773 Q459 773 444.5 779 Q430 785 416 793 Q402 801 389 806.5 Q376 812 360 812 Q337 812 325.5 801 Q314 790 309 768 L253 768 Q262 789 273.5 810.5 Q285 832 300.5 848.5 Q316 865 336 875.5 Q356 886 381 886 Q399 886 413.5 880 Q428 874 442 867 Q456 860 469 853.5 Q482 847 498 847 Q521 847 532.5 858 Q544 869 549 891 L605 891 Z M60 0 L216 722 L331 722 L392 309 L394 309 L484 722 L596 722 L440 0 L332 0 L271 451 L269 451 L172 0 L60 0 Z " />
<glyph glyph-name="Oacute" unicode="&#xd3;" horiz-adv-x="500" d="M426 760 L343 760 L453 904 L588 904 L426 760 Z M222 178 Q218 161 218 144 Q218 121 230 109.5 Q242 98 271 98 Q309 98 327 117.5 Q345 137 354 178 L433 544 Q438 566 438 579 Q438 602 426 613 Q414 624 385 624 Q347 624 328.5 604.5 Q310 585 301 544 L222 178 Z M178 547 Q186 585 205 619 Q224 653 252.5 678 Q281 703 320 717.5 Q359 732 408 732 Q489 732 526.5 693.5 Q564 655 564 596 Q564 572 558 547 L477 175 Q469 137 450 103 Q431 69 402.5 44 Q374 19 335 4.5 Q296 -10 247 -10 Q166 -10 128.5 28.5 Q91 67 91 126 Q91 149 97 175 L178 547 Z " />
<glyph glyph-name="Ocircumflex" unicode="&#xd4;" horiz-adv-x="500" d="M390 904 L500 904 L565 760 L473 760 L433 849 L355 760 L263 760 L390 904 Z M222 178 Q218 161 218 144 Q218 121 230 109.5 Q242 98 271 98 Q309 98 327 117.5 Q345 137 354 178 L433 544 Q438 566 438 579 Q438 602 426 613 Q414 624 385 624 Q347 624 328.5 604.5 Q310 585 301 544 L222 178 Z M178 547 Q186 585 205 619 Q224 653 252.5 678 Q281 703 320 717.5 Q359 732 408 732 Q489 732 526.5 693.5 Q564 655 564 596 Q564 572 558 547 L477 175 Q469 137 450 103 Q431 69 402.5 44 Q374 19 335 4.5 Q296 -10 247 -10 Q166 -10 128.5 28.5 Q91 67 91 126 Q91 149 97 175 L178 547 Z " />
<glyph glyph-name="Odieresis" unicode="&#xd6;" horiz-adv-x="500" d="M415 880 L392 772 L284 772 L307 880 L415 880 Z M442 772 L465 880 L573 880 L550 772 L442 772 Z M222 178 Q218 161 218 144 Q218 121 230 109.5 Q242 98 271 98 Q309 98 327 117.5 Q345 137 354 178 L433 544 Q438 566 438 579 Q438 602 426 613 Q414 624 385 624 Q347 624 328.5 604.5 Q310 585 301 544 L222 178 Z M178 547 Q186 585 205 619 Q224 653 252.5 678 Q281 703 320 717.5 Q359 732 408 732 Q489 732 526.5 693.5 Q564 655 564 596 Q564 572 558 547 L477 175 Q469 137 450 103 Q431 69 402.5 44 Q374 19 335 4.5 Q296 -10 247 -10 Q166 -10 128.5 28.5 Q91 67 91 126 Q91 149 97 175 L178 547 Z " />
<glyph glyph-name="Ograve" unicode="&#xd2;" horiz-adv-x="500" d="M302 904 L437 904 L485 760 L402 760 L302 904 Z M222 178 Q218 161 218 144 Q218 121 230 109.5 Q242 98 271 98 Q309 98 327 117.5 Q345 137 354 178 L433 544 Q438 566 438 579 Q438 602 426 613 Q414 624 385 624 Q347 624 328.5 604.5 Q310 585 301 544 L222 178 Z M178 547 Q186 585 205 619 Q224 653 252.5 678 Q281 703 320 717.5 Q359 732 408 732 Q489 732 526.5 693.5 Q564 655 564 596 Q564 572 558 547 L477 175 Q469 137 450 103 Q431 69 402.5 44 Q374 19 335 4.5 Q296 -10 247 -10 Q166 -10 128.5 28.5 Q91 67 91 126 Q91 149 97 175 L178 547 Z " />
<glyph glyph-name="Otilde" unicode="&#xd5;" horiz-adv-x="500" d="M605 891 Q596 870 584.5 848.5 Q573 827 557.5 810.5 Q542 794 522 783.5 Q502 773 477 773 Q459 773 444.5 779 Q430 785 416 793 Q402 801 389 806.5 Q376 812 360 812 Q337 812 325.5 801 Q314 790 309 768 L253 768 Q262 789 273.5 810.5 Q285 832 300.5 848.5 Q316 865 336 875.5 Q356 886 381 886 Q399 886 413.5 880 Q428 874 442 867 Q456 860 469 853.5 Q482 847 498 847 Q521 847 532.5 858 Q544 869 549 891 L605 891 Z M222 178 Q218 161 218 144 Q218 121 230 109.5 Q242 98 271 98 Q309 98 327 117.5 Q345 137 354 178 L433 544 Q438 566 438 579 Q438 602 426 613 Q414 624 385 624 Q347 624 328.5 604.5 Q310 585 301 544 L222 178 Z M178 547 Q186 585 205 619 Q224 653 252.5 678 Q281 703 320 717.5 Q359 732 408 732 Q489 732 526.5 693.5 Q564 655 564 596 Q564 572 558 547 L477 175 Q469 137 450 103 Q431 69 402.5 44 Q374 19 335 4.5 Q296 -10 247 -10 Q166 -10 128.5 28.5 Q91 67 91 126 Q91 149 97 175 L178 547 Z " />
<glyph glyph-name="Uacute" unicode="&#xda;" horiz-adv-x="500" d="M426 760 L343 760 L453 904 L588 904 L426 760 Z M216 722 L340 722 L222 177 Q218 162 218 147 Q218 98 271 98 Q336 98 354 177 L472 722 L596 722 L479 182 Q459 88 397.5 39 Q336 -10 247 -10 Q172 -10 132 24.5 Q92 59 92 125 Q92 138 94 152.5 Q96 167 99 182 L216 722 Z " />
<glyph glyph-name="Ucircumflex" unicode="&#xdb;" horiz-adv-x="500" d="M390 904 L500 904 L565 760 L473 760 L433 849 L355 760 L263 760 L390 904 Z M216 722 L340 722 L222 177 Q218 162 218 147 Q218 98 271 98 Q336 98 354 177 L472 722 L596 722 L479 182 Q459 88 397.5 39 Q336 -10 247 -10 Q172 -10 132 24.5 Q92 59 92 125 Q92 138 94 152.5 Q96 167 99 182 L216 722 Z " />
<glyph glyph-name="Udieresis" unicode="&#xdc;" horiz-adv-x="500" d="M442 772 L465 880 L573 880 L550 772 L442 772 Z M415 880 L392 772 L284 772 L307 880 L415 880 Z M216 722 L340 722 L222 177 Q218 162 218 147 Q218 98 271 98 Q336 98 354 177 L472 722 L596 722 L479 182 Q459 88 397.5 39 Q336 -10 247 -10 Q172 -10 132 24.5 Q92 59 92 125 Q92 138 94 152.5 Q96 167 99 182 L216 722 Z " />
<glyph glyph-name="Ugrave" unicode="&#xd9;" horiz-adv-x="500" d="M302 904 L437 904 L485 760 L402 760 L302 904 Z M216 722 L340 722 L222 177 Q218 162 218 147 Q218 98 271 98 Q336 98 354 177 L472 722 L596 722 L479 182 Q459 88 397.5 39 Q336 -10 247 -10 Q172 -10 132 24.5 Q92 59 92 125 Q92 138 94 152.5 Q96 167 99 182 L216 722 Z " />
<glyph glyph-name="Ydieresis" unicode="&#x178;" horiz-adv-x="444" d="M414 772 L437 880 L545 880 L522 772 L414 772 Z M387 880 L364 772 L256 772 L279 880 L387 880 Z M284 0 L160 0 L224 300 L166 722 L292 722 L319 447 L321 447 L464 722 L590 722 L348 300 L284 0 Z " />
<glyph glyph-name="aacute" unicode="&#xe1;" horiz-adv-x="444" d="M364 602 L281 602 L391 746 L526 746 L364 602 Z M332 273 Q289 251 260.5 233 Q232 215 214 198 Q196 181 187 165 Q178 149 174 131 Q173 126 172.5 122 Q172 118 172 114 Q172 82 215 82 Q238 82 260 97 Q282 112 301 132 L332 273 Z M124 380 Q146 462 203.5 505 Q261 548 340 548 Q406 548 441.5 522 Q477 496 477 443 Q477 433 475.5 423 Q474 413 472 402 L397 57 Q394 44 393 29 Q392 14 392 0 L285 0 Q287 11 286.5 21.5 Q286 32 288 42 Q250 16 218 3 Q186 -10 145 -10 Q98 -10 76 14 Q54 38 54 76 Q54 95 58 111 Q67 155 89.5 190 Q112 225 148 254 Q184 283 234 307.5 Q284 332 349 355 L356 387 Q359 402 359 413 Q359 456 316 456 Q278 456 261.5 435.5 Q245 415 236 380 L124 380 Z " />
<glyph glyph-name="acircumflex" unicode="&#xe2;" horiz-adv-x="444" d="M332 273 Q289 251 260.5 233 Q232 215 214 198 Q196 181 187 165 Q178 149 174 131 Q173 126 172.5 122 Q172 118 172 114 Q172 82 215 82 Q238 82 260 97 Q282 112 301 132 L332 273 Z M328 746 L438 746 L503 602 L411 602 L371 691 L293 602 L201 602 L328 746 Z M124 380 Q146 462 203.5 505 Q261 548 340 548 Q406 548 441.5 522 Q477 496 477 443 Q477 433 475.5 423 Q474 413 472 402 L397 57 Q394 44 393 29 Q392 14 392 0 L285 0 Q287 11 286.5 21.5 Q286 32 288 42 Q250 16 218 3 Q186 -10 145 -10 Q98 -10 76 14 Q54 38 54 76 Q54 95 58 111 Q67 155 89.5 190 Q112 225 148 254 Q184 283 234 307.5 Q284 332 349 355 L356 387 Q359 402 359 413 Q359 456 316 456 Q278 456 261.5 435.5 Q245 415 236 380 L124 380 Z " />
<glyph glyph-name="adieresis" unicode="&#xe4;" horiz-adv-x="444" d="M353 722 L329 614 L221 614 L245 722 L353 722 Z M379 614 L403 722 L511 722 L487 614 L379 614 Z M332 273 Q289 251 260.5 233 Q232 215 214 198 Q196 181 187 165 Q178 149 174 131 Q173 126 172.5 122 Q172 118 172 114 Q172 82 215 82 Q238 82 260 97 Q282 112 301 132 L332 273 Z M124 380 Q146 462 203.5 505 Q261 548 340 548 Q406 548 441.5 522 Q477 496 477 443 Q477 433 475.5 423 Q474 413 472 402 L397 57 Q394 44 393 29 Q392 14 392 0 L285 0 Q287 11 286.5 21.5 Q286 32 288 42 Q250 16 218 3 Q186 -10 145 -10 Q98 -10 76 14 Q54 38 54 76 Q54 95 58 111 Q67 155 89.5 190 Q112 225 148 254 Q184 283 234 307.5 Q284 332 349 355 L356 387 Q359 402 359 413 Q359 456 316 456 Q278 456 261.5 435.5 Q245 415 236 380 L124 380 Z " />
<glyph glyph-name="agrave" unicode="&#xe0;" horiz-adv-x="444" d="M240 746 L375 746 L423 602 L340 602 L240 746 Z M332 273 Q289 251 260.5 233 Q232 215 214 198 Q196 181 187 165 Q178 149 174 131 Q173 126 172.5 122 Q172 118 172 114 Q172 82 215 82 Q238 82 260 97 Q282 112 301 132 L332 273 Z M124 380 Q146 462 203.5 505 Q261 548 340 548 Q406 548 441.5 522 Q477 496 477 443 Q477 433 475.5 423 Q474 413 472 402 L397 57 Q394 44 393 29 Q392 14 392 0 L285 0 Q287 11 286.5 21.5 Q286 32 288 42 Q250 16 218 3 Q186 -10 145 -10 Q98 -10 76 14 Q54 38 54 76 Q54 95 58 111 Q67 155 89.5 190 Q112 225 148 254 Q184 283 234 307.5 Q284 332 349 355 L356 387 Q359 402 359 413 Q359 456 316 456 Q278 456 261.5 435.5 Q245 415 236 380 L124 380 Z " />
<glyph glyph-name="aring" unicode="&#xe5;" horiz-adv-x="444" d="M322 704 Q321 700 321 693 Q321 675 332.5 663.5 Q344 652 363 652 Q385 652 403 667 Q421 682 426 704 Q427 708 427 715 Q427 733 415.5 744.5 Q404 756 385 756 Q363 756 345 741 Q327 726 322 704 Z M332 273 Q289 251 260.5 233 Q232 215 214 198 Q196 181 187 165 Q178 149 174 131 Q173 126 172.5 122 Q172 118 172 114 Q172 82 215 82 Q238 82 260 97 Q282 112 301 132 L332 273 Z M272 704 Q276 725 288.5 743.5 Q301 762 317.5 776 Q334 790 354.5 798 Q375 806 396 806 Q433 806 455.5 783 Q478 760 478 725 Q478 720 478 714 Q478 709 476 704 Q471 683 459 664.5 Q447 646 430.5 632 Q414 618 393.5 610 Q373 602 352 602 Q315 602 292.5 625 Q270 648 270 683 Q270 688 270 693 Q270 699 272 704 Z M124 380 Q146 462 203.5 505 Q261 548 340 548 Q406 548 441.5 522 Q477 496 477 443 Q477 433 475.5 423 Q474 413 472 402 L397 57 Q394 44 393 29 Q392 14 392 0 L285 0 Q287 11 286.5 21.5 Q286 32 288 42 Q250 16 218 3 Q186 -10 145 -10 Q98 -10 76 14 Q54 38 54 76 Q54 95 58 111 Q67 155 89.5 190 Q112 225 148 254 Q184 283 234 307.5 Q284 332 349 355 L356 387 Q359 402 359 413 Q359 456 316 456 Q278 456 261.5 435.5 Q245 415 236 380 L124 380 Z " />
<glyph glyph-name="atilde" unicode="&#xe3;" horiz-adv-x="444" d="M332 273 Q289 251 260.5 233 Q232 215 214 198 Q196 181 187 165 Q178 149 174 131 Q173 126 172.5 122 Q172 118 172 114 Q172 82 215 82 Q238 82 260 97 Q282 112 301 132 L332 273 Z M543 733 Q534 712 522.5 690.5 Q511 669 495.5 652.5 Q480 636 460 625.5 Q440 615 415 615 Q397 615 382.5 621 Q368 627 354 635 Q340 643 327 648.5 Q314 654 298 654 Q275 654 263.5 643 Q252 632 247 610 L191 610 Q200 631 211.5 652.5 Q223 674 238.5 690.5 Q254 707 274 717.5 Q294 728 319 728 Q337 728 351.5 722 Q366 716 380 709 Q394 702 407 695.5 Q420 689 436 689 Q459 689 470.5 700 Q482 711 487 733 L543 733 Z M124 380 Q146 462 203.5 505 Q261 548 340 548 Q406 548 441.5 522 Q477 496 477 443 Q477 433 475.5 423 Q474 413 472 402 L397 57 Q394 44 393 29 Q392 14 392 0 L285 0 Q287 11 286.5 21.5 Q286 32 288 42 Q250 16 218 3 Q186 -10 145 -10 Q98 -10 76 14 Q54 38 54 76 Q54 95 58 111 Q67 155 89.5 190 Q112 225 148 254 Q184 283 234 307.5 Q284 332 349 355 L356 387 Q359 402 359 413 Q359 456 316 456 Q278 456 261.5 435.5 Q245 415 236 380 L124 380 Z " />
<glyph glyph-name="ccedilla" unicode="&#xe7;" horiz-adv-x="444" d="M83 -163 Q94 -169 112.5 -174.5 Q131 -180 145 -180 Q171 -180 189.5 -168 Q208 -156 212 -139 Q213 -136 213 -131 Q213 -116 201 -109.5 Q189 -103 173 -103 Q153 -103 136 -110 L118 -92 L197 -9 Q134 -4 107 30 Q80 64 80 118 Q80 151 89 190 L123 348 Q132 392 149.5 429 Q167 466 193 492.5 Q219 519 255.5 533.5 Q292 548 340 548 Q415 548 447 513.5 Q479 479 479 419 Q479 404 477.5 387.5 Q476 371 472 354 L360 354 L363 368 Q368 391 368 406 Q368 456 320 456 Q290 456 270 435.5 Q250 415 239 368 L196 170 Q192 151 192 133 Q192 106 204 94 Q216 82 239 82 Q269 82 289.5 102.5 Q310 123 320 170 L328 204 L440 204 L437 190 Q419 107 374 53.5 Q329 0 246 -8 L200 -60 Q205 -59 210.5 -58.5 Q216 -58 221 -58 Q250 -60 273.5 -74.5 Q297 -89 297 -118 Q297 -122 296.5 -125.5 Q296 -129 295 -134 Q290 -158 275.5 -177 Q261 -196 241 -209 Q221 -222 197 -229 Q173 -236 149 -236 Q113 -236 89.5 -227 Q66 -218 55 -213 L83 -163 Z " />
<glyph glyph-name="eacute" unicode="&#xe9;" horiz-adv-x="444" d="M357 340 L363 368 Q368 391 368 406 Q368 456 320 456 Q290 456 270 435.5 Q250 415 239 368 L233 340 L357 340 Z M364 602 L281 602 L391 746 L526 746 L364 602 Z M449 248 L213 248 L196 170 Q192 151 192 133 Q192 106 204 94 Q216 82 239 82 Q269 82 289.5 102.5 Q310 123 320 170 L323 182 L435 182 Q425 139 407.5 104 Q390 69 363.5 43.5 Q337 18 301.5 4 Q266 -10 219 -10 Q144 -10 112 24.5 Q80 59 80 118 Q80 151 89 190 L123 348 Q132 392 149.5 429 Q167 466 193 492.5 Q219 519 255.5 533.5 Q292 548 340 548 Q415 548 447 513.5 Q479 479 479 419 Q479 388 471 348 L449 248 Z " />
<glyph glyph-name="ecircumflex" unicode="&#xea;" horiz-adv-x="444" d="M357 340 L363 368 Q368 391 368 406 Q368 456 320 456 Q290 456 270 435.5 Q250 415 239 368 L233 340 L357 340 Z M328 746 L438 746 L503 602 L411 602 L371 691 L293 602 L201 602 L328 746 Z M449 248 L213 248 L196 170 Q192 151 192 133 Q192 106 204 94 Q216 82 239 82 Q269 82 289.5 102.5 Q310 123 320 170 L323 182 L435 182 Q425 139 407.5 104 Q390 69 363.5 43.5 Q337 18 301.5 4 Q266 -10 219 -10 Q144 -10 112 24.5 Q80 59 80 118 Q80 151 89 190 L123 348 Q132 392 149.5 429 Q167 466 193 492.5 Q219 519 255.5 533.5 Q292 548 340 548 Q415 548 447 513.5 Q479 479 479 419 Q479 388 471 348 L449 248 Z " />
<glyph glyph-name="edieresis" unicode="&#xeb;" horiz-adv-x="444" d="M353 722 L329 614 L221 614 L245 722 L353 722 Z M379 614 L403 722 L511 722 L487 614 L379 614 Z M357 340 L363 368 Q368 391 368 406 Q368 456 320 456 Q290 456 270 435.5 Q250 415 239 368 L233 340 L357 340 Z M449 248 L213 248 L196 170 Q192 151 192 133 Q192 106 204 94 Q216 82 239 82 Q269 82 289.5 102.5 Q310 123 320 170 L323 182 L435 182 Q425 139 407.5 104 Q390 69 363.5 43.5 Q337 18 301.5 4 Q266 -10 219 -10 Q144 -10 112 24.5 Q80 59 80 118 Q80 151 89 190 L123 348 Q132 392 149.5 429 Q167 466 193 492.5 Q219 519 255.5 533.5 Q292 548 340 548 Q415 548 447 513.5 Q479 479 479 419 Q479 388 471 348 L449 248 Z " />
<glyph glyph-name="egrave" unicode="&#xe8;" horiz-adv-x="444" d="M357 340 L363 368 Q368 391 368 406 Q368 456 320 456 Q290 456 270 435.5 Q250 415 239 368 L233 340 L357 340 Z M240 746 L375 746 L423 602 L340 602 L240 746 Z M449 248 L213 248 L196 170 Q192 151 192 133 Q192 106 204 94 Q216 82 239 82 Q269 82 289.5 102.5 Q310 123 320 170 L323 182 L435 182 Q425 139 407.5 104 Q390 69 363.5 43.5 Q337 18 301.5 4 Q266 -10 219 -10 Q144 -10 112 24.5 Q80 59 80 118 Q80 151 89 190 L123 348 Q132 392 149.5 429 Q167 466 193 492.5 Q219 519 255.5 533.5 Q292 548 340 548 Q415 548 447 513.5 Q479 479 479 419 Q479 388 471 348 L449 248 Z " />
<glyph glyph-name="iacute" unicode="&#xed;" horiz-adv-x="222" d="M253 602 L170 602 L280 746 L415 746 L253 602 Z M55 0 L171 538 L283 538 L167 0 L55 0 Z " />
<glyph glyph-name="icircumflex" unicode="&#xee;" horiz-adv-x="222" d="M217 746 L327 746 L392 602 L300 602 L260 691 L182 602 L90 602 L217 746 Z M55 0 L171 538 L283 538 L167 0 L55 0 Z " />
<glyph glyph-name="idieresis" unicode="&#xef;" horiz-adv-x="222" d="M268 614 L292 722 L400 722 L376 614 L268 614 Z M242 722 L218 614 L110 614 L134 722 L242 722 Z M55 0 L171 538 L283 538 L167 0 L55 0 Z " />
<glyph glyph-name="igrave" unicode="&#xec;" horiz-adv-x="222" d="M129 746 L264 746 L312 602 L229 602 L129 746 Z M55 0 L171 538 L283 538 L167 0 L55 0 Z " />
<glyph glyph-name="ntilde" unicode="&#xf1;" horiz-adv-x="444" d="M543 733 Q534 712 522.5 690.5 Q511 669 495.5 652.5 Q480 636 460 625.5 Q440 615 415 615 Q397 615 382.5 621 Q368 627 354 635 Q340 643 327 648.5 Q314 654 298 654 Q275 654 263.5 643 Q252 632 247 610 L191 610 Q200 631 211.5 652.5 Q223 674 238.5 690.5 Q254 707 274 717.5 Q294 728 319 728 Q337 728 351.5 722 Q366 716 380 709 Q394 702 407 695.5 Q420 689 436 689 Q459 689 470.5 700 Q482 711 487 733 L543 733 Z M54 0 L170 538 L276 538 L264 484 Q285 499 302 511 Q319 523 335.5 531 Q352 539 371 543.5 Q390 548 414 548 Q450 548 469 527.5 Q488 507 488 471 Q488 452 484 435 L390 0 L278 0 L368 417 Q369 420 369 423 Q369 427 369 429 Q369 443 360 449.5 Q351 456 336 456 Q318 456 299 446 Q280 436 257 422 L166 0 L54 0 Z " />
<glyph glyph-name="oacute" unicode="&#xf3;" horiz-adv-x="444" d="M364 602 L281 602 L391 746 L526 746 L364 602 Z M363 368 Q368 391 368 406 Q368 456 320 456 Q290 456 270 435.5 Q250 415 239 368 L196 170 Q192 151 192 133 Q192 106 204 94 Q216 82 239 82 Q269 82 289.5 102.5 Q310 123 320 170 L363 368 Z M123 348 Q132 392 149.5 429 Q167 466 193 492.5 Q219 519 255.5 533.5 Q292 548 340 548 Q415 548 447 513.5 Q479 479 479 419 Q479 388 471 348 L437 190 Q427 146 410 109 Q393 72 366.5 45.5 Q340 19 303.5 4.5 Q267 -10 219 -10 Q144 -10 112 24.5 Q80 59 80 118 Q80 151 89 190 L123 348 Z " />
<glyph glyph-name="ocircumflex" unicode="&#xf4;" horiz-adv-x="444" d="M328 746 L438 746 L503 602 L411 602 L371 691 L293 602 L201 602 L328 746 Z M363 368 Q368 391 368 406 Q368 456 320 456 Q290 456 270 435.5 Q250 415 239 368 L196 170 Q192 151 192 133 Q192 106 204 94 Q216 82 239 82 Q269 82 289.5 102.5 Q310 123 320 170 L363 368 Z M123 348 Q132 392 149.5 429 Q167 466 193 492.5 Q219 519 255.5 533.5 Q292 548 340 548 Q415 548 447 513.5 Q479 479 479 419 Q479 388 471 348 L437 190 Q427 146 410 109 Q393 72 366.5 45.5 Q340 19 303.5 4.5 Q267 -10 219 -10 Q144 -10 112 24.5 Q80 59 80 118 Q80 151 89 190 L123 348 Z " />
<glyph glyph-name="odieresis" unicode="&#xf6;" horiz-adv-x="444" d="M353 722 L329 614 L221 614 L245 722 L353 722 Z M379 614 L403 722 L511 722 L487 614 L379 614 Z M363 368 Q368 391 368 406 Q368 456 320 456 Q290 456 270 435.5 Q250 415 239 368 L196 170 Q192 151 192 133 Q192 106 204 94 Q216 82 239 82 Q269 82 289.5 102.5 Q310 123 320 170 L363 368 Z M123 348 Q132 392 149.5 429 Q167 466 193 492.5 Q219 519 255.5 533.5 Q292 548 340 548 Q415 548 447 513.5 Q479 479 479 419 Q479 388 471 348 L437 190 Q427 146 410 109 Q393 72 366.5 45.5 Q340 19 303.5 4.5 Q267 -10 219 -10 Q144 -10 112 24.5 Q80 59 80 118 Q80 151 89 190 L123 348 Z " />
<glyph glyph-name="ograve" unicode="&#xf2;" horiz-adv-x="444" d="M240 746 L375 746 L423 602 L340 602 L240 746 Z M363 368 Q368 391 368 406 Q368 456 320 456 Q290 456 270 435.5 Q250 415 239 368 L196 170 Q192 151 192 133 Q192 106 204 94 Q216 82 239 82 Q269 82 289.5 102.5 Q310 123 320 170 L363 368 Z M123 348 Q132 392 149.5 429 Q167 466 193 492.5 Q219 519 255.5 533.5 Q292 548 340 548 Q415 548 447 513.5 Q479 479 479 419 Q479 388 471 348 L437 190 Q427 146 410 109 Q393 72 366.5 45.5 Q340 19 303.5 4.5 Q267 -10 219 -10 Q144 -10 112 24.5 Q80 59 80 118 Q80 151 89 190 L123 348 Z " />
<glyph glyph-name="otilde" unicode="&#xf5;" horiz-adv-x="444" d="M543 733 Q534 712 522.5 690.5 Q511 669 495.5 652.5 Q480 636 460 625.5 Q440 615 415 615 Q397 615 382.5 621 Q368 627 354 635 Q340 643 327 648.5 Q314 654 298 654 Q275 654 263.5 643 Q252 632 247 610 L191 610 Q200 631 211.5 652.5 Q223 674 238.5 690.5 Q254 707 274 717.5 Q294 728 319 728 Q337 728 351.5 722 Q366 716 380 709 Q394 702 407 695.5 Q420 689 436 689 Q459 689 470.5 700 Q482 711 487 733 L543 733 Z M363 368 Q368 391 368 406 Q368 456 320 456 Q290 456 270 435.5 Q250 415 239 368 L196 170 Q192 151 192 133 Q192 106 204 94 Q216 82 239 82 Q269 82 289.5 102.5 Q310 123 320 170 L363 368 Z M123 348 Q132 392 149.5 429 Q167 466 193 492.5 Q219 519 255.5 533.5 Q292 548 340 548 Q415 548 447 513.5 Q479 479 479 419 Q479 388 471 348 L437 190 Q427 146 410 109 Q393 72 366.5 45.5 Q340 19 303.5 4.5 Q267 -10 219 -10 Q144 -10 112 24.5 Q80 59 80 118 Q80 151 89 190 L123 348 Z " />
<glyph glyph-name="uacute" unicode="&#xfa;" horiz-adv-x="444" d="M364 602 L281 602 L391 746 L526 746 L364 602 Z M506 538 L390 0 L284 0 L295 54 Q274 39 257.5 27 Q241 15 224 7 Q207 -1 188 -5.5 Q169 -10 145 -10 Q109 -10 90.5 10 Q72 30 72 66 Q72 74 73 83.5 Q74 93 76 103 L170 538 L282 538 L192 121 Q191 117 191 109 Q191 82 223 82 Q241 82 260.5 92 Q280 102 303 116 L394 538 L506 538 Z " />
<glyph glyph-name="ucircumflex" unicode="&#xfb;" horiz-adv-x="444" d="M328 746 L438 746 L503 602 L411 602 L371 691 L293 602 L201 602 L328 746 Z M506 538 L390 0 L284 0 L295 54 Q274 39 257.5 27 Q241 15 224 7 Q207 -1 188 -5.5 Q169 -10 145 -10 Q109 -10 90.5 10 Q72 30 72 66 Q72 74 73 83.5 Q74 93 76 103 L170 538 L282 538 L192 121 Q191 117 191 109 Q191 82 223 82 Q241 82 260.5 92 Q280 102 303 116 L394 538 L506 538 Z " />
<glyph glyph-name="udieresis" unicode="&#xfc;" horiz-adv-x="444" d="M379 614 L403 722 L511 722 L487 614 L379 614 Z M353 722 L329 614 L221 614 L245 722 L353 722 Z M506 538 L390 0 L284 0 L295 54 Q274 39 257.5 27 Q241 15 224 7 Q207 -1 188 -5.5 Q169 -10 145 -10 Q109 -10 90.5 10 Q72 30 72 66 Q72 74 73 83.5 Q74 93 76 103 L170 538 L282 538 L192 121 Q191 117 191 109 Q191 82 223 82 Q241 82 260.5 92 Q280 102 303 116 L394 538 L506 538 Z " />
<glyph glyph-name="ugrave" unicode="&#xf9;" horiz-adv-x="444" d="M240 746 L375 746 L423 602 L340 602 L240 746 Z M506 538 L390 0 L284 0 L295 54 Q274 39 257.5 27 Q241 15 224 7 Q207 -1 188 -5.5 Q169 -10 145 -10 Q109 -10 90.5 10 Q72 30 72 66 Q72 74 73 83.5 Q74 93 76 103 L170 538 L282 538 L192 121 Q191 117 191 109 Q191 82 223 82 Q241 82 260.5 92 Q280 102 303 116 L394 538 L506 538 Z " />
<glyph glyph-name="ydieresis" unicode="&#xff;" horiz-adv-x="389" d="M352 614 L376 722 L484 722 L460 614 L352 614 Z M326 722 L302 614 L194 614 L218 722 L326 722 Z M382 538 L495 538 L229 -40 Q212 -77 193.5 -101.5 Q175 -126 153 -141 Q131 -156 105 -162.5 Q79 -169 48 -169 L1 -169 L21 -77 L48 -77 Q90 -77 110.5 -55 Q131 -33 141 10 Q145 30 145 56 Q145 62 144.5 68 Q144 74 144 81 L126 538 L240 538 L237 194 L239 194 L382 538 Z " />
<glyph glyph-name="exclam" unicode="&#x21;" horiz-adv-x="278" d="M80 0 L105 118 L223 118 L198 0 L80 0 Z M232 722 L358 722 L225 212 L143 212 L232 722 Z " />
<glyph glyph-name="quotedbl" unicode="&#x22;" horiz-adv-x="333" d="M355 722 L449 722 L389 448 L295 448 L355 722 Z M196 722 L290 722 L230 448 L136 448 L196 722 Z " />
<glyph glyph-name="Lslash" unicode="&#x141;" horiz-adv-x="389" d="M201 108 L396 108 L373 0 L54 0 L116 290 L58 268 L75 350 L134 372 L210 722 L334 722 L269 421 L395 468 L377 386 L251 339 L201 108 Z " />
<glyph glyph-name="lslash" unicode="&#x142;" horiz-adv-x="222" d="M167 0 L55 0 L127 333 L49 297 L65 371 L143 407 L211 722 L323 722 L267 464 L345 500 L329 426 L251 390 L167 0 Z " />
<glyph glyph-name="onesuperior" unicode="&#xb9;" horiz-adv-x="266" d="M229 627 L177 627 L188 675 Q220 686 247.5 700.5 Q275 715 299 732 L348 732 L253 292 L157 292 L229 627 Z " />
<glyph glyph-name="Eth" unicode="&#xd0;" horiz-adv-x="500" d="M327 320 L253 320 L206 102 L249 102 Q298 102 322.5 124 Q347 146 359 203 L428 519 Q434 544 434 564 Q434 596 416.5 608 Q399 620 361 620 L318 620 L276 428 L350 428 L327 320 Z M112 428 L152 428 L216 722 L400 722 Q558 722 558 580 Q558 546 549 504 L487 218 Q463 106 402 53 Q341 0 244 0 L60 0 L129 320 L89 320 L112 428 Z " />
<glyph glyph-name="onehalf" unicode="&#xbd;" horiz-adv-x="666" d="M235 627 L183 627 L194 675 Q226 686 253.5 700.5 Q281 715 305 732 L354 732 L259 292 L163 292 L235 627 Z M398 0 L415 81 Q508 166 556.5 225 Q605 284 615 332 Q616 335 616 341 Q616 360 593 360 Q579 360 568 350 Q557 340 554 326 L550 307 L464 307 L468 327 Q473 351 487 371.5 Q501 392 521.5 407.5 Q542 423 567.5 431.5 Q593 440 622 440 Q666 440 689 417.5 Q712 395 712 363 Q712 358 711.5 353.5 Q711 349 710 344 Q704 317 693.5 290 Q683 263 663 232.5 Q643 202 609.5 165 Q576 128 524 80 L650 80 L633 0 L398 0 Z M63 -10 L634 732 L725 732 L154 -10 L63 -10 Z " />
<glyph glyph-name="Thorn" unicode="&#xde;" horiz-adv-x="500" d="M239 258 L287 258 Q317 258 339 263 Q361 268 376 281 Q391 294 400.5 315.5 Q410 337 417 369 Q420 384 422 396 Q424 408 424 419 Q424 454 403 467 Q382 480 335 480 L287 480 L239 258 Z M309 582 L363 582 Q457 582 503.5 550 Q550 518 550 444 Q550 411 541 369 Q529 311 506.5 270.5 Q484 230 451 204.5 Q418 179 373 167.5 Q328 156 271 156 L217 156 L184 0 L60 0 L216 722 L340 722 L309 582 Z " />
<glyph glyph-name="onequarter" unicode="&#xbc;" horiz-adv-x="666" d="M550 176 L578 309 L576 309 L486 176 L550 176 Z M237 627 L185 627 L196 675 Q228 686 255.5 700.5 Q283 715 307 731 L356 731 L261 292 L165 292 L237 627 Z M71 -10 L642 732 L733 732 L162 -10 L71 -10 Z M533 100 L391 100 L408 180 L592 433 L687 433 L632 176 L670 176 L653 100 L615 100 L594 0 L512 0 L533 100 Z " />
<glyph glyph-name="brokenbar" unicode="&#xa6;" horiz-adv-x="222" d="M252 426 L154 426 L220 732 L318 732 L252 426 Z M157 -10 L59 -10 L126 296 L224 296 L157 -10 Z " />
<glyph glyph-name="thorn" unicode="&#xfe;" horiz-adv-x="444" d="M189 110 Q203 98 216.5 90 Q230 82 247 82 Q258 82 269 85.5 Q280 89 289.5 99 Q299 109 306.5 125.5 Q314 142 320 169 L363 369 Q369 394 369 411 Q369 438 357 447 Q345 456 328 456 Q311 456 294.5 448 Q278 440 258 428 L189 110 Z M322 722 L271 487 L273 487 Q303 519 330.5 533.5 Q358 548 400 548 Q442 548 465 523.5 Q488 499 488 451 Q488 428 482 398 L426 140 Q410 66 371 28 Q332 -10 279 -10 Q261 -10 247.5 -6.5 Q234 -3 222.5 4.5 Q211 12 200 22 Q189 32 175 46 L129 -170 L17 -170 L210 722 L322 722 Z " />
<glyph glyph-name="threequarters" unicode="&#xbe;" horiz-adv-x="666" d="M550 176 L578 309 L576 309 L486 176 L550 176 Z M206 418 L201 397 Q200 393 200 387 Q200 366 222 366 Q236 366 244 375 Q252 384 257 405 L263 430 Q266 443 266 453 Q266 473 253.5 478.5 Q241 484 217 484 L233 558 Q261 558 277 568.5 Q293 579 301 616 Q302 621 302.5 624.5 Q303 628 303 632 Q303 656 283 656 Q270 656 262.5 647.5 Q255 639 252 628 L249 611 L165 611 L169 631 Q179 676 215 704 Q251 732 304 732 Q354 732 375.5 707.5 Q397 683 397 648 Q397 634 394 621 Q386 583 371.5 560.5 Q357 538 325 522 Q345 511 353.5 497 Q362 483 362 463 Q362 453 360 441 Q358 429 355 414 Q341 349 304.5 317.5 Q268 286 202 286 Q160 286 135.5 304 Q111 322 111 360 Q111 377 115 393 L120 418 L206 418 Z M90 -10 L661 732 L752 732 L181 -10 L90 -10 Z M533 100 L391 100 L408 180 L592 433 L687 433 L632 176 L670 176 L653 100 L615 100 L594 0 L512 0 L533 100 Z " />
<glyph glyph-name="twosuperior" unicode="&#xb2;" horiz-adv-x="266" d="M77 292 L94 373 Q188 458 236 517 Q284 576 295 624 Q295 626 295.5 628 Q296 630 296 632 Q296 652 273 652 Q259 652 247.5 642 Q236 632 233 618 L229 599 L143 599 L147 619 Q152 643 166 663.5 Q180 684 200.5 699.5 Q221 715 246.5 723.5 Q272 732 301 732 Q345 732 368 709.5 Q391 687 391 655 Q391 650 390.5 645.5 Q390 641 389 636 Q383 609 373 582 Q363 555 343 524.5 Q323 494 289 457 Q255 420 203 372 L329 372 L312 292 L77 292 Z " />
<glyph glyph-name="minus" unicode="&#x2212;" horiz-adv-x="600" d="M91 204 L112 302 L618 302 L597 204 L91 204 Z " />
<glyph glyph-name="eth" unicode="&#xf0;" horiz-adv-x="444" d="M354 325 Q358 341 358 357 Q358 406 309 406 Q279 406 259 387 Q239 368 230 325 L195 163 Q191 146 191 130 Q191 82 239 82 Q269 82 289 101 Q309 120 319 163 L354 325 Z M556 648 L453 611 Q465 576 471.5 535.5 Q478 495 478 450 Q478 384 463 314 L433 174 Q424 133 407.5 99 Q391 65 365 41 Q339 17 303 3.5 Q267 -10 219 -10 Q142 -10 110 22.5 Q78 55 78 112 Q78 143 85 174 L115 314 Q124 355 140.5 389 Q157 423 183 447 Q209 471 245 484.5 Q281 498 329 498 Q338 498 346.5 497.5 Q355 497 366 496 Q366 499 366.5 502.5 Q367 506 367 509 Q367 528 363 545 Q359 562 354 576 L241 536 L229 608 L330 643 Q323 657 314.5 671.5 Q306 686 295 698 L386 722 Q408 703 423 676 L541 718 L556 648 Z " />
<glyph glyph-name="multiply" unicode="&#xd7;" horiz-adv-x="600" d="M424 253 L568 70 L484 0 L339 184 L116 0 L62 70 L285 253 L141 437 L225 506 L369 322 L593 506 L647 437 L424 253 Z " />
<glyph glyph-name="threesuperior" unicode="&#xb3;" horiz-adv-x="266" d="M196 418 L191 397 Q190 393 190 387 Q190 366 212 366 Q226 366 234 375 Q242 384 247 405 L253 430 Q256 443 256 453 Q256 473 243.5 478.5 Q231 484 207 484 L223 558 Q251 558 267 568.5 Q283 579 291 616 Q292 621 292.5 624.5 Q293 628 293 632 Q293 656 273 656 Q260 656 252.5 647.5 Q245 639 242 628 L239 611 L155 611 L159 631 Q169 676 205 704 Q241 732 294 732 Q344 732 365.5 707.5 Q387 683 387 648 Q387 634 384 621 Q376 583 361.5 560.5 Q347 538 315 522 Q335 511 343.5 497 Q352 483 352 463 Q352 453 350 441 Q348 429 345 414 Q331 349 294.5 317.5 Q258 286 192 286 Q150 286 125.5 304 Q101 322 101 360 Q101 377 105 393 L110 418 L196 418 Z " />
<glyph glyph-name="Scaron" unicode="&#x160;" horiz-adv-x="444" d="M441 760 L331 760 L266 904 L358 904 L398 815 L476 904 L568 904 L441 760 Z M403 544 Q404 550 404.5 555 Q405 560 405 565 Q405 599 389 611.5 Q373 624 355 624 Q325 624 305 605.5 Q285 587 277 553 Q276 548 275.5 543.5 Q275 539 275 534 Q275 509 288 486.5 Q301 464 321 441.5 Q341 419 363.5 396 Q386 373 406 346.5 Q426 320 439 289.5 Q452 259 452 221 Q452 210 451 198.5 Q450 187 447 175 Q438 130 416 95.5 Q394 61 363 37.5 Q332 14 293 2 Q254 -10 211 -10 Q174 -10 146.5 2 Q119 14 101 34.5 Q83 55 74 83 Q65 111 65 144 Q65 155 66 166.5 Q67 178 69 190 L190 207 Q188 198 188 190 Q188 182 188 174 Q188 136 202 117 Q216 98 241 98 Q273 98 296.5 115 Q320 132 327 164 Q330 177 330 189 Q330 217 317 240.5 Q304 264 284 286 Q264 308 241.5 330 Q219 352 199 378 Q179 404 166 434 Q153 464 153 503 Q153 525 159 552 Q178 639 238 685.5 Q298 732 390 732 Q459 732 492.5 692 Q526 652 526 587 Q526 579 525.5 572 Q525 565 524 557 L403 544 Z " />
<glyph glyph-name="Yacute" unicode="&#xdd;" horiz-adv-x="444" d="M398 760 L315 760 L425 904 L560 904 L398 760 Z M284 0 L160 0 L224 300 L166 722 L292 722 L319 447 L321 447 L464 722 L590 722 L348 300 L284 0 Z " />
<glyph glyph-name="Zcaron" unicode="&#x17d;" horiz-adv-x="444" d="M441 760 L331 760 L266 904 L358 904 L398 815 L476 904 L568 904 L441 760 Z M204 614 L228 722 L556 722 L530 604 L195 108 L423 108 L400 0 L44 0 L69 118 L407 614 L204 614 Z " />
<glyph glyph-name="scaron" unicode="&#x161;" horiz-adv-x="389" d="M380 602 L270 602 L205 746 L297 746 L337 657 L415 746 L507 746 L380 602 Z M342 389 L342 393 Q342 456 292 456 Q270 456 254.5 445 Q239 434 234 413 Q233 409 233 402 Q233 376 257 354 Q281 332 310.5 306.5 Q340 281 364 248.5 Q388 216 388 170 Q388 151 384 135 Q368 63 316 26.5 Q264 -10 195 -10 Q124 -10 90.5 26 Q57 62 57 128 L57 140 L161 167 Q161 162 160.5 158.5 Q160 155 160 151 Q160 122 171 102 Q182 82 216 82 Q238 82 254.5 94 Q271 106 276 129 Q277 133 277.5 136 Q278 139 278 142 Q278 161 266.5 177.5 Q255 194 238 210.5 Q221 227 200.5 243.5 Q180 260 163 279 Q146 298 134.5 321 Q123 344 123 373 Q123 387 126 404 Q133 436 150 462.5 Q167 489 191.5 508 Q216 527 245.5 537.5 Q275 548 307 548 Q373 548 406.5 509.5 Q440 471 440 408 L440 405 L342 389 Z " />
<glyph glyph-name="yacute" unicode="&#xfd;" horiz-adv-x="389" d="M337 602 L254 602 L364 746 L499 746 L337 602 Z M382 538 L495 538 L229 -40 Q212 -77 193.5 -101.5 Q175 -126 153 -141 Q131 -156 105 -162.5 Q79 -169 48 -169 L1 -169 L21 -77 L48 -77 Q90 -77 110.5 -55 Q131 -33 141 10 Q145 30 145 56 Q145 62 144.5 68 Q144 74 144 81 L126 538 L240 538 L237 194 L239 194 L382 538 Z " />
<glyph glyph-name="zcaron" unicode="&#x17e;" horiz-adv-x="389" d="M380 602 L270 602 L205 746 L297 746 L337 657 L415 746 L507 746 L380 602 Z M140 446 L160 538 L475 538 L455 446 L169 92 L378 92 L359 0 L30 0 L49 92 L331 446 L140 446 Z " />
<glyph glyph-name="Euro" unicode="&#x20ac;" horiz-adv-x="500" d="M170 315 L187 395 L127 395 L168 479 L205 479 L220 547 Q229 591 253.5 625.5 Q278 660 311.5 683.5 Q345 707 384.5 719.5 Q424 732 463 732 Q505 732 543 718 Q581 704 607 675 L551 561 Q534 593 505.5 608.5 Q477 624 445 624 Q411 624 381.5 605 Q352 586 343 544 L329 479 L510 479 L469 395 L311 395 L294 315 L432 315 L390 231 L275 231 L265 183 Q262 169 262 159 Q262 127 282.5 112 Q303 97 332 97 Q366 97 397 106.5 Q428 116 460 141 L435 25 Q400 6 364 -2 Q328 -10 295 -10 Q261 -10 231.5 -0.5 Q202 9 180.5 27.5 Q159 46 146.5 72.5 Q134 99 134 133 Q134 150 139 175 L151 231 L91 231 L133 315 L170 315 Z " />
</font>
</svg>
