<?xml version="1.0" encoding="UTF-8"?>
<svg xmlns="http://www.w3.org/2000/svg" xmlns:xlink="http://www.w3.org/1999/xlink" version="1.2" >
<font id="Franklin Gothic Book Italic">
<font-face  font-family="Franklin Gothic Book" units-per-em="2048" ascent="1434" descent="-389" font-style="italic" font-weight="400" font-stretch="normal" slope="-9.5" cap-height="1536" x-height="1024" underline-position="-154" underline-thickness="102" />
<missing-glyph  horiz-adv-x="2048" d="M256 0 L256 1536 L1792 1536 L1792 0 L256 0 Z M384 128 L1664 128 L1664 1408 L384 1408 L384 128 Z " />
<glyph glyph-name="space" unicode="&#x20;" horiz-adv-x="512" d="" />
<glyph glyph-name="exclam" unicode="&#x21;" horiz-adv-x="547" d="M296 351 L211 351 L301 1365 L527 1365 L296 351 Z M292 0 L86 0 L119 195 L325 195 L292 0 Z " />
<glyph glyph-name="quotedbl" unicode="&#x22;" horiz-adv-x="633" d="M285 844 L192 844 L249 1365 L402 1365 L285 844 Z M554 844 L461 844 L518 1365 L671 1365 L554 844 Z " />
<glyph glyph-name="numbersign" unicode="&#x23;" horiz-adv-x="1201" d="M1181 965 L1154 842 L944 842 L881 556 L1091 556 L1064 433 L853 433 L758 0 L627 0 L723 433 L433 433 L337 0 L207 0 L303 433 L85 433 L112 556 L331 556 L394 842 L175 842 L202 965 L421 965 L509 1365 L639 1365 L551 965 L839 965 L927 1365 L1058 1365 L969 965 L1181 965 Z M811 842 L524 842 L461 556 L749 556 L811 842 Z " />
<glyph glyph-name="dollar" unicode="&#x24;" horiz-adv-x="1201" d="M1123 1098 L986 1030 Q918 1182 763 1220 L688 770 Q1065 683 1065 411 Q1065 246 934.5 128 Q804 10 561 9 L527 -190 L406 -190 L442 25 Q181 80 74 332 L209 402 Q293 198 465 160 L545 644 Q209 725 209 976 Q209 1126 326.5 1239.5 Q444 1353 665 1355 L695 1535 L816 1535 L784 1346 Q1021 1310 1123 1098 Z M571 798 L644 1233 Q524 1232 442.5 1171 Q361 1110 361 1005 Q361 844 571 798 Z M662 616 L583 143 L614 143 Q736 143 821.5 214 Q907 285 907 392 Q907 559 662 616 Z " />
<glyph glyph-name="percent" unicode="&#x25;" horiz-adv-x="1583" d="M438 679 Q311 679 233.5 772 Q156 865 156 993 Q156 1149 252 1271 Q348 1393 500 1393 Q628 1393 707.5 1299.5 Q787 1206 787 1077 Q787 925 687.5 802 Q588 679 438 679 Z M451 780 Q547 780 604.5 874 Q662 968 662 1112 Q662 1189 616.5 1241 Q571 1293 496 1293 Q387 1293 334.5 1188.5 Q282 1084 282 976 Q282 894 327.5 837 Q373 780 451 780 Z M352 0 L222 0 L1288 1365 L1416 1365 L352 0 Z M1151 -23 Q1010 -23 931.5 72 Q853 167 853 300 Q853 445 953.5 569.5 Q1054 694 1196 694 Q1324 694 1405 602 Q1486 510 1486 375 Q1486 219 1389 98 Q1292 -23 1151 -23 Z M1145 76 Q1240 76 1299.5 163 Q1359 250 1359 407 Q1359 507 1307 550.5 Q1255 594 1193 594 Q1097 594 1039 500.5 Q981 407 981 281 Q981 179 1028 127.5 Q1075 76 1145 76 Z " />
<glyph glyph-name="ampersand" unicode="&#x26;" horiz-adv-x="1366" d="M1203 -18 Q1125 -37 1076 -37 Q1035 -37 980.5 -18.5 Q926 0 856 91 Q729 6 654.5 -17 Q580 -40 501 -40 Q315 -40 189.5 79 Q64 198 64 362 Q64 461 114.5 554.5 Q165 648 250.5 700.5 Q336 753 501 811 Q402 994 402 1116 Q402 1232 492 1318.5 Q582 1405 732 1405 Q873 1405 961.5 1322 Q1050 1239 1050 1116 Q1050 1009 982.5 923 Q915 837 687 743 L903 300 Q1083 484 1188 743 L1309 696 Q1186 396 967 183 Q1020 92 1097 92 Q1133 92 1220 108 L1203 -18 Z M645 848 Q794 910 852.5 973 Q911 1036 911 1118 Q911 1192 859 1239 Q807 1286 729 1286 Q648 1286 598 1233.5 Q548 1181 548 1100 Q548 1024 645 848 Z M791 203 L550 706 Q235 592 235 369 Q235 255 314 171 Q393 87 520 87 Q655 87 791 203 Z " />
<glyph glyph-name="quotesingle" unicode="&#x27;" horiz-adv-x="364" d="M285 844 L192 844 L249 1365 L402 1365 L285 844 Z " />
<glyph glyph-name="parenleft" unicode="&#x28;" horiz-adv-x="601" d="M367 -341 L272 -341 Q86 -58 86 321 Q86 889 557 1365 L672 1365 Q457 1129 340.5 839 Q224 549 224 261 Q224 -64 367 -341 Z " />
<glyph glyph-name="parenright" unicode="&#x29;" horiz-adv-x="601" d="M242 1365 L337 1365 Q523 1083 523 703 Q523 134 52 -341 L-63 -341 Q153 -105 269.5 184.5 Q386 474 386 761 Q386 1086 242 1365 Z " />
<glyph glyph-name="asterisk" unicode="&#x2a;" horiz-adv-x="1201" d="M691 1365 L809 1365 L743 1017 L1093 1131 L1110 1019 L759 918 L924 639 L816 570 L665 856 L418 570 L334 639 L591 917 L274 1019 L329 1131 L640 1016 L691 1365 Z " />
<glyph glyph-name="plus" unicode="&#x2b;" horiz-adv-x="1201" d="M152 753 L555 753 L555 1174 L705 1174 L705 753 L1108 753 L1108 615 L705 615 L705 194 L555 194 L555 615 L152 615 L152 753 Z " />
<glyph glyph-name="comma" unicode="&#x2c;" horiz-adv-x="512" d="M55 -304 L-24 -304 L163 0 L59 0 L97 229 L323 229 L284 0 L55 -304 Z " />
<glyph glyph-name="hyphen" unicode="&#x2d;" horiz-adv-x="512" d="M475 452 L20 452 L39 568 L494 568 L475 452 Z " />
<glyph glyph-name="period" unicode="&#x2e;" horiz-adv-x="512" d="M284 0 L59 0 L97 229 L323 229 L284 0 Z " />
<glyph glyph-name="slash" unicode="&#x2f;" horiz-adv-x="960" d="M-117 -341 L-248 -341 L903 1365 L1036 1365 L-117 -341 Z " />
<glyph glyph-name="zero" unicode="0" horiz-adv-x="1201" d="M556 -44 Q354 -44 229 118 Q104 280 104 556 Q104 877 270.5 1143 Q437 1409 699 1409 Q906 1409 1032 1244.5 Q1158 1080 1158 817 Q1158 484 988 220 Q818 -44 556 -44 Z M566 82 Q765 82 875 325.5 Q985 569 985 848 Q985 1089 901 1185.5 Q817 1282 693 1282 Q491 1282 381 1030.5 Q271 779 271 513 Q271 276 356.5 179 Q442 82 566 82 Z " />
<glyph glyph-name="one" unicode="1" horiz-adv-x="1201" d="M1084 0 L106 0 L128 132 L526 132 L703 1181 Q648 1104 528 1059 Q408 1014 299 1013 L321 1149 Q655 1195 784 1398 L900 1398 L688 132 L1106 132 L1084 0 Z " />
<glyph glyph-name="two" unicode="2" horiz-adv-x="1201" d="M1004 0 L33 0 L61 169 Q399 375 618.5 537.5 Q838 700 904.5 797.5 Q971 895 971 991 Q971 1112 884.5 1191 Q798 1270 670 1270 Q574 1270 481 1212 Q388 1154 313 955 L177 1006 Q314 1408 674 1408 Q870 1408 1005.5 1284.5 Q1141 1161 1141 984 Q1141 771 937 598 Q733 425 239 146 L1028 146 L1004 0 Z " />
<glyph glyph-name="three" unicode="3" horiz-adv-x="1201" d="M51 307 L187 360 Q293 100 556 100 Q695 100 791.5 182.5 Q888 265 888 389 Q888 486 830 551.5 Q772 617 694 631.5 Q616 646 422 646 L444 781 Q525 779 576 779 Q805 779 879 861 Q953 943 953 1035 Q953 1139 873 1206 Q793 1273 680 1273 Q468 1273 359 1055 L234 1125 Q386 1398 684 1398 Q880 1398 999 1290.5 Q1118 1183 1118 1035 Q1118 920 1041.5 830 Q965 740 804 707 Q924 678 989.5 583 Q1055 488 1055 380 Q1055 213 917 89 Q779 -35 557 -35 Q385 -35 245 55.5 Q105 146 51 307 Z " />
<glyph glyph-name="four" unicode="4" horiz-adv-x="1201" d="M816 0 L655 0 L710 330 L56 330 L79 467 L852 1404 L1051 1404 L894 466 L1118 466 L1095 330 L871 330 L816 0 Z M733 466 L861 1234 L226 466 L733 466 Z " />
<glyph glyph-name="five" unicode="5" horiz-adv-x="1201" d="M76 286 L208 346 Q330 109 561 109 Q726 109 824.5 219.5 Q923 330 923 476 Q923 611 835.5 703 Q748 795 613 795 Q431 795 316 607 L172 651 L334 1365 L1136 1365 L1089 1221 L440 1221 L340 771 Q458 924 642 924 Q822 924 954 798.5 Q1086 673 1086 479 Q1086 280 943.5 127.5 Q801 -25 561 -25 Q395 -25 265 59 Q135 143 76 286 Z " />
<glyph glyph-name="six" unicode="6" horiz-adv-x="1201" d="M1042 1051 Q951 1266 753 1266 Q408 1266 288 655 Q422 903 683 903 Q865 903 992 775.5 Q1119 648 1119 460 Q1119 268 982 118.5 Q845 -31 624 -31 Q402 -31 261.5 123 Q121 277 121 548 Q121 853 290 1126.5 Q459 1400 748 1400 Q1084 1400 1192 1092 L1042 1051 Z M618 105 Q758 105 857.5 208 Q957 311 957 468 Q957 585 871 675.5 Q785 766 656 766 Q522 766 415 666.5 Q308 567 308 418 Q308 284 399 194.5 Q490 105 618 105 Z " />
<glyph glyph-name="seven" unicode="7" horiz-adv-x="1201" d="M515 -16 L333 -16 Q396 703 1000 1217 L227 1217 L273 1365 L1206 1365 L1187 1254 Q803 883 670.5 589 Q538 295 515 -16 Z " />
<glyph glyph-name="eight" unicode="8" horiz-adv-x="1201" d="M822 730 Q1094 611 1094 386 Q1094 213 953.5 93 Q813 -27 581 -27 Q364 -27 219.5 72 Q75 171 75 341 Q75 610 430 709 Q218 817 218 1015 Q218 1174 342.5 1284 Q467 1394 684 1394 Q871 1394 997.5 1305 Q1124 1216 1124 1068 Q1124 824 822 730 Z M657 789 Q814 841 891 899 Q968 957 968 1049 Q968 1149 887 1209.5 Q806 1270 677 1270 Q548 1270 463.5 1208.5 Q379 1147 379 1041 Q379 882 657 789 Z M599 645 Q236 555 236 349 Q236 230 332 166 Q428 102 579 102 Q746 102 836.5 177.5 Q927 253 927 357 Q927 426 878 492 Q829 558 599 645 Z " />
<glyph glyph-name="nine" unicode="9" horiz-adv-x="1201" d="M206 298 Q301 96 506 96 Q668 96 788 235 Q908 374 964 716 Q829 474 574 474 Q398 474 274 601.5 Q150 729 150 916 Q150 1117 293.5 1257.5 Q437 1398 647 1398 Q862 1398 996.5 1249 Q1131 1100 1131 830 Q1131 492 959 230.5 Q787 -31 489 -31 Q344 -31 232 41.5 Q120 114 71 233 L206 298 Z M605 609 Q738 609 845.5 707.5 Q953 806 953 967 Q953 1085 867.5 1176.5 Q782 1268 649 1268 Q510 1268 409 1168 Q308 1068 308 924 Q308 787 397 698 Q486 609 605 609 Z " />
<glyph glyph-name="colon" unicode="&#x3a;" horiz-adv-x="512" d="M412 765 L187 765 L225 994 L451 994 L412 765 Z M284 0 L59 0 L97 229 L323 229 L284 0 Z " />
<glyph glyph-name="&amp;#x3b;" unicode="&#x3b;" horiz-adv-x="512" d="M412 765 L187 765 L225 994 L451 994 L412 765 Z M55 -304 L-24 -304 L162 0 L59 0 L97 229 L323 229 L284 0 L55 -304 Z " />
<glyph glyph-name="&amp;#x37e;" unicode="&#x37e;" horiz-adv-x="512" d="M412 765 L187 765 L225 994 L451 994 L412 765 Z M55 -304 L-24 -304 L162 0 L59 0 L97 229 L323 229 L284 0 L55 -304 Z " />
<glyph glyph-name="less" unicode="&#x3c;" horiz-adv-x="1201" d="M1075 1159 L1075 1007 L352 676 L1075 345 L1075 194 L188 610 L188 743 L1075 1159 Z " />
<glyph glyph-name="equal" unicode="&#x3d;" horiz-adv-x="1201" d="M155 931 L1111 931 L1111 793 L155 793 L155 931 Z M155 606 L1111 606 L1111 468 L155 468 L155 606 Z " />
<glyph glyph-name="greater" unicode="&#x3e;" horiz-adv-x="1201" d="M188 194 L188 346 L912 677 L189 1008 L188 1159 L1075 742 L1075 610 L188 194 Z " />
<glyph glyph-name="question" unicode="&#x3f;" horiz-adv-x="1020" d="M495 349 L353 349 Q368 501 392.5 566 Q417 631 457 664 Q497 697 612 751 Q714 799 757 830.5 Q800 862 829.5 915 Q859 968 859 1033 Q859 1143 780.5 1206 Q702 1269 597 1269 Q373 1269 272 995 L132 1053 Q269 1404 601 1404 Q784 1404 905 1299 Q1026 1194 1026 1032 Q1026 955 992.5 877 Q959 799 893 743.5 Q827 688 654 619 Q564 583 535 537.5 Q506 492 495 349 Z M471 0 L265 0 L298 197 L504 197 L471 0 Z " />
<glyph glyph-name="at" unicode="&#x40;" horiz-adv-x="1529" d="M1143 1040 L1067 575 Q1056 511 1056 473 Q1056 410 1124 410 Q1206 410 1277.5 518.5 Q1349 627 1349 775 Q1349 1002 1185 1139.5 Q1021 1277 797 1277 Q631 1277 503 1196 Q375 1115 302.5 978.5 Q230 842 230 681 Q230 438 389 265 Q548 92 841 92 Q1058 92 1265 204 L1314 94 Q1083 -27 836 -27 Q495 -27 299.5 177.5 Q104 382 104 675 Q104 976 304.5 1184.5 Q505 1393 812 1393 Q1075 1393 1272 1233.5 Q1469 1074 1469 790 Q1469 588 1365 438 Q1261 288 1125 288 Q989 288 947 415 Q850 284 725 284 Q598 284 510 383.5 Q422 483 422 645 Q422 819 525 938 Q628 1057 777 1057 Q921 1057 1001 934 L1018 1040 L1143 1040 Z M741 410 Q831 410 896.5 504 Q962 598 962 712 Q962 812 910 871.5 Q858 931 783 931 Q693 931 631 848.5 Q569 766 569 645 Q569 541 618.5 475.5 Q668 410 741 410 Z " />
<glyph glyph-name="A" unicode="A" horiz-adv-x="1155" d="M792 400 L294 400 L98 0 L-57 0 L612 1365 L801 1365 L1039 0 L863 0 L792 400 Z M772 537 L667 1164 L359 537 L772 537 Z " />
<glyph glyph-name="B" unicode="B" horiz-adv-x="1251" d="M86 0 L314 1365 L742 1365 Q905 1365 987.5 1341.5 Q1070 1318 1133 1237 Q1196 1156 1196 1043 Q1196 796 929 714 Q1028 683 1087 599.5 Q1146 516 1146 402 Q1146 298 1103 212.5 Q1060 127 993.5 81 Q927 35 861.5 17.5 Q796 0 620 0 L86 0 Z M383 777 L641 777 Q794 777 867 799.5 Q940 822 986 885 Q1032 948 1032 1037 Q1032 1110 994 1159.5 Q956 1209 901 1222 Q846 1235 720 1235 L459 1233 L383 777 Z M275 135 L571 135 Q747 135 817.5 156 Q888 177 935 245.5 Q982 314 982 419 Q982 507 940.5 561 Q899 615 841 631 Q783 647 637 647 L361 647 L275 135 Z " />
<glyph glyph-name="C" unicode="C" horiz-adv-x="1179" d="M1207 945 L1058 908 Q1035 1107 946 1184.5 Q857 1262 739 1262 Q602 1262 503.5 1168 Q405 1074 345 888 Q285 702 285 540 Q285 336 374.5 225.5 Q464 115 611 115 Q844 115 979 436 L1118 384 Q965 -23 607 -23 Q368 -23 238.5 145 Q109 313 109 573 Q109 884 283.5 1141.5 Q458 1399 734 1399 Q912 1399 1045 1291 Q1178 1183 1207 945 Z " />
<glyph glyph-name="D" unicode="D" horiz-adv-x="1328" d="M86 0 L314 1365 L693 1365 Q895 1365 1008.5 1299.5 Q1122 1234 1196.5 1098 Q1271 962 1271 766 Q1271 504 1162 322.5 Q1053 141 925.5 70.5 Q798 0 590 0 L86 0 Z M276 139 L550 137 Q695 137 780 168 Q865 199 935.5 271 Q1006 343 1055 479.5 Q1104 616 1104 779 Q1104 926 1054.5 1033.5 Q1005 1141 914 1189 Q823 1237 672 1237 L459 1235 L276 139 Z " />
<glyph glyph-name="E" unicode="E" horiz-adv-x="1144" d="M86 0 L314 1365 L1165 1365 L1142 1229 L458 1229 L383 781 L969 781 L946 646 L361 646 L277 145 L1015 145 L991 0 L86 0 Z " />
<glyph glyph-name="F" unicode="F" horiz-adv-x="1039" d="M360 642 L253 0 L86 0 L314 1365 L1149 1365 L1126 1227 L458 1227 L383 777 L959 777 L936 642 L360 642 Z " />
<glyph glyph-name="G" unicode="G" horiz-adv-x="1333" d="M702 683 L1220 683 L1103 -16 L1011 -16 L990 150 Q872 -34 626 -34 Q400 -34 256 137 Q112 308 112 581 Q112 900 287 1149.5 Q462 1399 750 1399 Q1121 1399 1253 1013 L1105 961 Q1012 1267 749 1267 Q534 1267 410 1054.5 Q286 842 286 564 Q286 341 388 220.5 Q490 100 644 100 Q793 100 898 211 Q1003 322 1036 549 L680 549 L702 683 Z " />
<glyph glyph-name="H" unicode="H" horiz-adv-x="1343" d="M1030 646 L361 646 L253 0 L86 0 L314 1365 L481 1365 L385 791 L1054 791 L1150 1365 L1317 1365 L1088 0 L922 0 L1030 646 Z " />
<glyph glyph-name="I" unicode="I" horiz-adv-x="508" d="M481 1365 L253 0 L86 0 L314 1365 L481 1365 Z " />
<glyph glyph-name="J" unicode="J" horiz-adv-x="755" d="M741 1365 L600 522 Q564 304 521 208 Q478 112 374.5 45.5 Q271 -21 120 -21 Q20 -21 -85 0 L-61 140 Q8 124 91 124 Q198 124 266.5 162.5 Q335 201 364.5 264.5 Q394 328 420 480 L568 1365 L741 1365 Z " />
<glyph glyph-name="K" unicode="K" horiz-adv-x="1275" d="M1291 1365 L830 889 L1154 0 L979 0 L703 770 L315 372 L253 0 L86 0 L314 1365 L481 1365 L351 587 L1101 1365 L1291 1365 Z " />
<glyph glyph-name="L" unicode="L" horiz-adv-x="1042" d="M930 0 L86 0 L314 1365 L481 1365 L277 145 L954 145 L930 0 Z " />
<glyph glyph-name="M" unicode="M" horiz-adv-x="1670" d="M1414 0 L1248 0 L1458 1253 L802 0 L676 0 L432 1233 L225 0 L86 0 L314 1365 L567 1365 L790 247 L1374 1365 L1643 1365 L1414 0 Z " />
<glyph glyph-name="N" unicode="N" horiz-adv-x="1341" d="M1085 0 L952 0 L417 1167 L221 0 L86 0 L314 1365 L501 1365 L998 277 L1180 1365 L1314 1365 L1085 0 Z " />
<glyph glyph-name="O" unicode="O" horiz-adv-x="1315" d="M629 -27 Q394 -27 253 141.5 Q112 310 112 585 Q112 895 286 1144 Q460 1393 748 1393 Q976 1393 1120 1235 Q1264 1077 1264 801 Q1264 474 1093 223.5 Q922 -27 629 -27 Z M629 110 Q785 110 894.5 228.5 Q1004 347 1047 528.5 Q1090 710 1090 836 Q1090 1033 992 1144 Q894 1255 742 1255 Q524 1255 405.5 1036.5 Q287 818 287 550 Q287 338 383 224 Q479 110 629 110 Z " />
<glyph glyph-name="P" unicode="P" horiz-adv-x="1140" d="M345 552 L253 0 L86 0 L314 1365 L689 1365 Q855 1365 948.5 1335.5 Q1042 1306 1108 1206 Q1174 1106 1174 988 Q1174 831 1059.5 691.5 Q945 552 620 552 L345 552 Z M368 688 L555 688 Q729 688 807 706 Q885 724 942.5 800.5 Q1000 877 1000 984 Q1000 1067 965 1126.5 Q930 1186 875 1208.5 Q820 1231 685 1231 L458 1229 L368 688 Z " />
<glyph glyph-name="Q" unicode="Q" horiz-adv-x="1309" d="M705 -20 Q700 -57 700 -75 Q700 -200 856 -200 Q883 -200 1033 -185 L1012 -311 Q894 -330 825 -330 Q706 -330 638.5 -272.5 Q571 -215 571 -103 Q571 -75 577 -26 Q339 4 224.5 171.5 Q110 339 110 569 Q110 892 285 1142.5 Q460 1393 745 1393 Q974 1393 1117 1231 Q1260 1069 1260 799 Q1260 502 1106 253.5 Q952 5 705 -20 Z M627 108 Q836 108 957.5 311.5 Q1079 515 1079 851 Q1079 1019 992 1137 Q905 1255 744 1255 Q519 1255 405.5 1029.5 Q292 804 292 528 Q292 333 385 220.5 Q478 108 627 108 Z " />
<glyph glyph-name="R" unicode="R" horiz-adv-x="1297" d="M755 598 L353 598 L253 0 L86 0 L314 1365 L741 1365 Q934 1365 1028.5 1324.5 Q1123 1284 1179 1198 Q1235 1112 1235 1002 Q1235 863 1147.5 757 Q1060 651 918 628 L1110 0 L933 0 L755 598 Z M375 735 L688 735 Q1065 735 1065 1006 Q1065 1232 771 1232 L459 1232 L375 735 Z " />
<glyph glyph-name="S" unicode="S" horiz-adv-x="1171" d="M1114 1080 L970 1025 Q932 1138 838 1205.5 Q744 1273 622 1273 Q473 1273 399.5 1202 Q326 1131 326 1034 Q326 970 358.5 924.5 Q391 879 443.5 856.5 Q496 834 636 799 Q820 752 897 714.5 Q974 677 1029 595 Q1084 513 1084 399 Q1084 206 942.5 88.5 Q801 -29 566 -29 Q125 -29 8 351 L157 405 Q250 109 566 109 Q736 109 825.5 191 Q915 273 915 381 Q915 447 882.5 496.5 Q850 546 799 569.5 Q748 593 633 621 Q457 663 361.5 707 Q266 751 211.5 830.5 Q157 910 157 1017 Q157 1181 280.5 1291.5 Q404 1402 608 1402 Q983 1402 1114 1080 Z " />
<glyph glyph-name="T" unicode="T" horiz-adv-x="1000" d="M1099 1226 L704 1226 L498 0 L332 0 L537 1226 L141 1226 L164 1365 L1123 1365 L1099 1226 Z " />
<glyph glyph-name="U" unicode="U" horiz-adv-x="1259" d="M1254 1365 L1115 533 Q1077 307 1021.5 201 Q966 95 855 32.5 Q744 -30 587 -30 Q398 -30 267.5 62 Q137 154 137 355 Q137 415 169 610 L296 1365 L463 1365 L329 574 Q301 409 301 363 Q301 241 384 174.5 Q467 108 591 108 Q705 108 786 153 Q867 198 907 275 Q947 352 974 518 L1116 1365 L1254 1365 Z " />
<glyph glyph-name="V" unicode="V" horiz-adv-x="1082" d="M554 0 L404 0 L134 1365 L316 1365 L530 262 L1061 1365 L1219 1365 L554 0 Z " />
<glyph glyph-name="W" unicode="W" horiz-adv-x="1663" d="M1215 0 L1046 0 L915 1089 L477 0 L300 0 L166 1365 L333 1365 L442 237 L903 1365 L1031 1365 L1171 237 L1627 1365 L1768 1365 L1215 0 Z " />
<glyph glyph-name="X" unicode="X" horiz-adv-x="1103" d="M1012 0 L819 0 L548 574 L93 0 L-80 0 L480 700 L161 1365 L348 1365 L596 837 L1015 1365 L1189 1365 L666 714 L1012 0 Z " />
<glyph glyph-name="Y" unicode="Y" horiz-adv-x="1049" d="M532 0 L360 0 L455 572 L107 1365 L290 1365 L574 719 L1046 1365 L1214 1365 L627 572 L532 0 Z " />
<glyph glyph-name="Z" unicode="Z" horiz-adv-x="1076" d="M1121 1365 L1102 1252 L197 145 L967 145 L943 0 L-37 0 L-13 145 L874 1227 L190 1227 L213 1365 L1121 1365 Z " />
<glyph glyph-name="bracketleft" unicode="&#x5b;" horiz-adv-x="601" d="M377 -341 L6 -341 L292 1365 L663 1365 L647 1273 L418 1273 L164 -249 L393 -249 L377 -341 Z " />
<glyph glyph-name="backslash" unicode="&#x5c;" horiz-adv-x="960" d="M812 -341 L231 1365 L345 1365 L924 -341 L812 -341 Z " />
<glyph glyph-name="bracketright" unicode="&#x5d;" horiz-adv-x="601" d="M226 1365 L597 1365 L311 -341 L-60 -341 L-44 -249 L185 -249 L439 1273 L210 1273 L226 1365 Z " />
<glyph glyph-name="asciicircum" unicode="&#x5e;" horiz-adv-x="1024" d="M1006 745 L839 745 L542 1248 L247 745 L82 745 L443 1369 L644 1369 L1006 745 Z " />
<glyph glyph-name="underscore" unicode="&#x5f;" horiz-adv-x="1024" d="M31 -136 L1055 -136 L1055 -273 L31 -273 L31 -136 Z " />
<glyph glyph-name="grave" unicode="&#x60;" horiz-adv-x="1024" d="M385 1356 L447 1476 L815 1248 L772 1167 L385 1356 Z " />
<glyph glyph-name="a" unicode="a" horiz-adv-x="1096" d="M877 0 L718 0 Q717 31 717 51 Q717 129 735 198 Q582 -29 355 -29 Q213 -29 122.5 58 Q32 145 32 276 Q32 423 162 527 Q292 631 647 631 Q679 631 800 625 Q811 690 811 731 Q811 923 578 923 Q373 923 285 752 L137 815 Q257 1045 568 1045 Q740 1045 856 969.5 Q972 894 972 756 Q972 700 895 230 Q874 103 874 43 Q874 34 877 0 Z M781 509 Q709 515 643 515 Q205 515 205 269 Q205 193 252.5 147 Q300 101 385 101 Q519 101 634.5 216 Q750 331 781 509 Z " />
<glyph glyph-name="b" unicode="b" horiz-adv-x="1101" d="M140 0 L72 0 L300 1365 L457 1365 L372 852 Q502 1039 684 1039 Q845 1039 937 921.5 Q1029 804 1029 609 Q1029 362 894.5 167.5 Q760 -27 547 -27 Q335 -27 231 180 L140 0 Z M543 94 Q690 94 777.5 258 Q865 422 865 637 Q865 769 806.5 841.5 Q748 914 655 914 Q505 914 402 742.5 Q299 571 299 387 Q299 249 370.5 171.5 Q442 94 543 94 Z " />
<glyph glyph-name="c" unicode="c" horiz-adv-x="971" d="M940 690 L787 657 Q772 779 707.5 844 Q643 909 556 909 Q397 909 318.5 748 Q240 587 240 399 Q240 254 305.5 179.5 Q371 105 471 105 Q652 105 751 349 L879 301 Q829 146 715 56.5 Q601 -33 455 -33 Q268 -33 170.5 114.5 Q73 262 73 441 Q73 668 207.5 857 Q342 1046 560 1046 Q712 1046 819 946.5 Q926 847 940 690 Z " />
<glyph glyph-name="d" unicode="d" horiz-adv-x="1101" d="M860 0 L717 0 L756 200 Q619 -27 407 -27 Q245 -27 158 94 Q71 215 71 400 Q71 631 203.5 834.5 Q336 1038 554 1038 Q762 1038 848 848 L935 1365 L1088 1365 L860 0 Z M449 97 Q600 97 702.5 261 Q805 425 805 638 Q805 767 731.5 841 Q658 915 562 915 Q410 915 322.5 745.5 Q235 576 235 377 Q235 242 294 169.5 Q353 97 449 97 Z " />
<glyph glyph-name="e" unicode="e" horiz-adv-x="1065" d="M938 237 Q782 -29 500 -29 Q309 -29 188.5 96 Q68 221 68 434 Q68 696 218 871 Q368 1046 590 1046 Q699 1046 793.5 999 Q888 952 940.5 852 Q993 752 993 609 Q993 558 984 493 L237 493 Q231 445 231 414 Q231 275 304 188.5 Q377 102 502 102 Q588 102 657.5 140.5 Q727 179 807 299 L938 237 Z M257 608 L833 608 Q835 640 835 656 Q835 779 765 852.5 Q695 926 583 926 Q456 926 367.5 831.5 Q279 737 257 608 Z " />
<glyph glyph-name="f" unicode="f" horiz-adv-x="614" d="M674 1013 L654 890 L408 890 L259 0 L103 0 L252 890 L64 890 L85 1013 L273 1013 Q304 1216 404 1306 Q504 1396 687 1396 Q728 1396 780 1390 L759 1266 Q714 1271 687 1271 Q561 1271 501.5 1204.5 Q442 1138 429 1013 L674 1013 Z " />
<glyph glyph-name="g" unicode="g" horiz-adv-x="1031" d="M1058 1078 Q1001 1081 976 1081 Q837 1081 802 952 Q935 849 935 702 Q935 550 824.5 441.5 Q714 333 535 333 Q435 333 339 375 Q209 318 209 240 Q209 199 248 186 Q287 173 427 171 Q639 168 728 152.5 Q817 137 874.5 75.5 Q932 14 932 -78 Q932 -223 815.5 -306 Q699 -389 454 -389 Q-50 -389 -50 -147 Q-50 5 137 73 Q58 117 58 203 Q58 346 267 428 Q154 512 154 663 Q154 815 267 918 Q380 1021 559 1021 Q628 1021 721 994 Q764 1130 832 1174 Q900 1218 996 1218 Q1033 1218 1080 1209 L1058 1078 Z M528 446 Q639 446 708 513 Q777 580 777 693 Q777 788 713.5 846 Q650 904 552 904 Q446 904 378.5 836 Q311 768 311 663 Q311 568 368.5 507 Q426 446 528 446 Z M234 29 Q103 -10 103 -111 Q103 -195 211 -234 Q319 -273 482 -273 Q782 -273 782 -109 Q782 -62 740.5 -27.5 Q699 7 507 9 Q336 11 234 29 Z " />
<glyph glyph-name="h" unicode="h" horiz-adv-x="1115" d="M456 1365 L366 825 Q503 1042 704 1042 Q827 1042 910 967 Q993 892 993 762 Q993 713 978 623 L873 0 L719 0 L823 623 Q835 693 835 747 Q835 829 787 874 Q739 919 666 919 Q551 919 445 793 Q339 667 297 416 L228 0 L72 0 L300 1365 L456 1365 Z " />
<glyph glyph-name="i" unicode="i" horiz-adv-x="470" d="M453 1180 L250 1180 L281 1365 L484 1365 L453 1180 Z M230 0 L73 0 L243 1014 L400 1014 L230 0 Z " />
<glyph glyph-name="j" unicode="j" horiz-adv-x="469" d="M451 1180 L248 1180 L279 1365 L482 1365 L451 1180 Z M396 1014 L237 65 Q210 -96 182 -171 Q154 -246 76 -298.5 Q-2 -351 -110 -351 Q-166 -351 -248 -339 L-228 -218 Q-158 -225 -121 -225 Q-50 -225 -9.5 -194 Q31 -163 44 -121 Q57 -79 82 65 L241 1014 L396 1014 Z " />
<glyph glyph-name="k" unicode="k" horiz-adv-x="1003" d="M228 0 L72 0 L300 1365 L456 1365 L312 504 L852 1013 L1035 1013 L646 652 L898 0 L732 0 L519 547 L280 310 L228 0 Z " />
<glyph glyph-name="l" unicode="l" horiz-adv-x="470" d="M456 1365 L228 0 L72 0 L300 1365 L456 1365 Z " />
<glyph glyph-name="m" unicode="m" horiz-adv-x="1673" d="M1431 0 L1275 0 L1373 585 Q1389 684 1389 732 Q1389 825 1338.5 868 Q1288 911 1221 911 Q1123 911 1032.5 800 Q942 689 903 454 L827 0 L670 0 L767 581 Q787 697 787 739 Q787 824 741 869.5 Q695 915 626 915 Q574 915 519.5 881.5 Q465 848 415.5 769.5 Q366 691 348 621.5 Q330 552 297 364 L231 0 L72 0 L242 1013 L389 1013 L364 846 Q502 1038 670 1038 Q874 1038 935 819 Q1076 1040 1265 1040 Q1389 1040 1469 965 Q1549 890 1549 762 Q1549 708 1535 623 L1431 0 Z " />
<glyph glyph-name="n" unicode="n" horiz-adv-x="1122" d="M880 0 L731 0 L829 583 Q846 683 846 728 Q846 807 797 862.5 Q748 918 656 918 Q543 918 440.5 808 Q338 698 280 363 L217 0 L72 0 L242 1013 L377 1013 L339 787 Q470 1042 695 1042 Q828 1042 911.5 960.5 Q995 879 995 747 Q995 687 978 585 L880 0 Z " />
<glyph glyph-name="o" unicode="o" horiz-adv-x="1066" d="M483 -30 Q294 -30 185 101.5 Q76 233 76 438 Q76 670 219 854 Q362 1038 586 1038 Q771 1038 881 911.5 Q991 785 991 567 Q991 341 850 155.5 Q709 -30 483 -30 Z M490 96 Q651 96 738 255 Q825 414 825 620 Q825 776 751.5 845.5 Q678 915 577 915 Q418 915 331 757 Q244 599 244 402 Q244 251 311 173.5 Q378 96 490 96 Z " />
<glyph glyph-name="p" unicode="p" horiz-adv-x="1097" d="M171 -341 L15 -341 L241 1009 L386 1009 L354 803 Q495 1032 694 1032 Q834 1032 929 918 Q1024 804 1024 600 Q1024 361 891 167 Q758 -27 554 -27 Q361 -27 253 148 L171 -341 Z M530 100 Q696 100 775.5 266.5 Q855 433 855 627 Q855 763 792 833.5 Q729 904 639 904 Q511 904 404 743.5 Q297 583 297 381 Q297 254 360.5 177 Q424 100 530 100 Z " />
<glyph glyph-name="q" unicode="q" horiz-adv-x="1092" d="M1019 1014 L792 -341 L636 -341 L725 192 Q597 -30 406 -30 Q269 -30 169.5 79 Q70 188 70 391 Q70 648 213.5 841 Q357 1034 552 1034 Q755 1034 859 843 L949 1014 L1019 1014 Z M448 97 Q589 97 692.5 277 Q796 457 796 637 Q796 762 727.5 838 Q659 914 559 914 Q408 914 322 745.5 Q236 577 236 374 Q236 241 297 169 Q358 97 448 97 Z " />
<glyph glyph-name="r" unicode="r" horiz-adv-x="694" d="M228 0 L72 0 L242 1014 L397 1014 L349 749 Q430 904 518.5 973.5 Q607 1043 728 1043 Q743 1043 762 1042 L736 882 L698 883 Q605 883 546.5 848 Q488 813 440 749 Q392 685 351 590 Q310 495 266 227 L228 0 Z " />
<glyph glyph-name="s" unicode="s" horiz-adv-x="945" d="M857 796 L727 741 Q660 911 461 911 Q370 911 315 864.5 Q260 818 260 754 Q260 689 302.5 658.5 Q345 628 469 600 L532 585 Q638 561 696 532.5 Q754 504 794 441.5 Q834 379 834 299 Q834 164 727.5 69 Q621 -26 437 -26 Q305 -26 189.5 25 Q74 76 -9 250 L136 299 Q208 99 442 99 Q554 99 615.5 149 Q677 199 677 274 Q677 333 640.5 367.5 Q604 402 478 432 L425 445 Q308 473 245.5 502.5 Q183 532 141 592 Q99 652 99 729 Q99 855 196.5 944.5 Q294 1034 463 1034 Q768 1034 857 796 Z " />
<glyph glyph-name="t" unicode="t" horiz-adv-x="628" d="M383 892 L291 343 Q275 250 275 217 Q275 105 403 105 Q448 105 541 115 L525 -10 Q524 -10 496 -13 Q413 -22 374 -22 Q122 -22 122 201 Q122 259 148 411 L228 892 L74 892 L95 1014 L252 1014 L293 1259 L446 1273 L403 1014 L634 1014 L613 892 L383 892 Z " />
<glyph glyph-name="u" unicode="u" horiz-adv-x="1111" d="M1044 1014 L874 0 L738 0 L779 245 Q644 -27 410 -27 Q319 -27 253.5 15.5 Q188 58 159 116 Q130 174 130 262 Q130 319 152 447 L249 1014 L405 1014 L302 398 Q284 293 284 269 Q284 190 330 145.5 Q376 101 451 101 Q577 101 684 238.5 Q791 376 833 625 L898 1014 L1044 1014 Z " />
<glyph glyph-name="v" unicode="v" horiz-adv-x="910" d="M447 0 L303 0 L96 1014 L264 1014 L418 220 L816 1014 L957 1014 L447 0 Z " />
<glyph glyph-name="w" unicode="w" horiz-adv-x="1380" d="M959 0 L843 0 L716 772 L393 0 L266 0 L110 1014 L264 1014 L377 252 L696 1014 L825 1014 L946 252 L1280 1014 L1413 1014 L959 0 Z " />
<glyph glyph-name="x" unicode="x" horiz-adv-x="893" d="M812 0 L635 0 L424 418 L95 0 L-63 0 L356 525 L102 1013 L281 1013 L465 652 L746 1013 L898 1013 L527 543 L812 0 Z " />
<glyph glyph-name="y" unicode="y" horiz-adv-x="870" d="M941 1014 L385 -55 Q282 -254 192 -305 Q102 -356 2 -356 Q-40 -356 -98 -349 L-75 -213 Q-24 -223 11 -223 Q172 -223 259 -43 L294 28 L82 1014 L242 1014 L406 243 L805 1014 L941 1014 Z " />
<glyph glyph-name="z" unicode="z" horiz-adv-x="859" d="M733 0 L-37 0 L-19 107 L649 886 L130 886 L152 1014 L880 1014 L862 911 L187 127 L754 127 L733 0 Z " />
<glyph glyph-name="braceleft" unicode="&#x7b;" horiz-adv-x="601" d="M247 511 Q342 465 342 350 Q342 328 334 281 L278 -51 Q270 -100 270 -125 Q270 -182 303.5 -208 Q337 -234 435 -235 L418 -341 L384 -341 Q236 -341 184.5 -291.5 Q133 -242 133 -150 Q133 -106 142 -49 L197 279 Q204 322 204 342 Q204 440 111 465 L128 564 Q250 592 275 742 L334 1097 Q359 1244 438.5 1304.5 Q518 1365 661 1365 L703 1365 L685 1259 Q573 1256 528.5 1218.5 Q484 1181 468 1082 L410 736 Q381 561 247 511 Z " />
<glyph glyph-name="bar" unicode="&#x7c;" horiz-adv-x="1024" d="M467 1365 L620 1365 L620 -341 L467 -341 L467 1365 Z " />
<glyph glyph-name="braceright" unicode="&#x7d;" horiz-adv-x="601" d="M356 513 Q261 559 261 674 Q261 696 268 743 L324 1075 Q332 1123 332 1148 Q332 1206 298.5 1232 Q265 1258 167 1259 L184 1365 L219 1365 Q366 1365 418 1315.5 Q470 1266 470 1174 Q470 1130 460 1073 L405 745 Q398 703 398 682 Q398 584 491 559 L475 460 Q352 431 327 282 L268 -73 Q244 -219 164.5 -280 Q85 -341 -58 -341 L-101 -341 L-83 -235 Q29 -232 73.5 -195 Q118 -158 134 -58 L192 288 Q222 464 356 513 Z " />
<glyph glyph-name="asciitilde" unicode="&#x7e;" horiz-adv-x="1201" d="M140 585 Q247 823 421 823 Q505 823 650 753 Q784 689 847 689 Q959 689 1020 805 Q1033 830 1045 830 Q1069 830 1125 772 Q1011 541 843 541 Q762 541 589 622 Q477 674 407 674 Q305 674 242 548 Q230 524 219 524 Q196 524 140 585 Z " />
<glyph glyph-name="Adieresis" unicode="&#xc4;" horiz-adv-x="1155" d="M792 400 L294 400 L98 0 L-57 0 L612 1365 L801 1365 L1039 0 L863 0 L792 400 Z M772 537 L667 1164 L359 537 L772 537 Z M987 1625 Q987 1582 955.5 1552 Q924 1522 881 1522 Q838 1522 806.5 1552 Q775 1582 775 1624 Q775 1667 806.5 1696.5 Q838 1726 880 1726 Q924 1726 955.5 1696.5 Q987 1667 987 1625 Z M665 1624 Q665 1582 633.5 1552 Q602 1522 560 1522 Q518 1522 487.5 1552 Q457 1582 457 1623 Q457 1666 487.5 1695.5 Q518 1725 557 1725 Q605 1725 635 1695 Q665 1665 665 1624 Z " />
<glyph glyph-name="Aring" unicode="&#xc5;" horiz-adv-x="1155" d="M911 1635 Q911 1560 858.5 1507.5 Q806 1455 733 1455 Q658 1455 604.5 1508.5 Q551 1562 551 1636 Q551 1709 604 1762.5 Q657 1816 737 1816 Q806 1816 858.5 1764 Q911 1712 911 1635 Z M822 1633 Q822 1671 796 1698 Q770 1725 736 1725 Q694 1725 667 1698 Q640 1671 640 1635 Q640 1597 667.5 1570 Q695 1543 732 1543 Q769 1543 795.5 1569.5 Q822 1596 822 1633 Z M792 400 L294 400 L98 0 L-57 0 L612 1365 L801 1365 L1039 0 L863 0 L792 400 Z M772 537 L667 1164 L359 537 L772 537 Z " />
<glyph glyph-name="Ccedilla" unicode="&#xc7;" horiz-adv-x="1179" d="M605 -23 L571 -107 Q595 -105 611 -105 Q670 -105 722 -139.5 Q774 -174 774 -239 Q774 -314 711 -362.5 Q648 -411 540 -411 Q434 -411 351 -361 L385 -289 Q464 -329 535 -329 Q659 -329 659 -246 Q659 -174 530 -174 Q500 -174 456 -179 L527 -18 Q324 11 216.5 175 Q109 339 109 573 Q109 884 283.5 1141.5 Q458 1399 734 1399 Q912 1399 1045 1291 Q1178 1183 1207 945 L1058 908 Q1035 1107 946 1184.5 Q857 1262 739 1262 Q602 1262 503.5 1168 Q405 1074 345 888 Q285 702 285 540 Q285 336 374.5 225.5 Q464 115 611 115 Q844 115 979 436 L1118 384 Q970 -20 605 -23 Z " />
<glyph glyph-name="Eacute" unicode="&#xc9;" horiz-adv-x="1144" d="M86 0 L314 1365 L1165 1365 L1142 1229 L458 1229 L383 781 L969 781 L946 646 L361 646 L277 145 L1015 145 L991 0 L86 0 Z M1043 1677 L642 1488 L599 1569 L981 1797 L1043 1677 Z " />
<glyph glyph-name="Ntilde" unicode="&#xd1;" horiz-adv-x="1341" d="M1085 0 L952 0 L417 1167 L221 0 L86 0 L314 1365 L501 1365 L998 277 L1180 1365 L1314 1365 L1085 0 Z M1116 1701 L1192 1629 Q1096 1529 992 1529 Q944 1529 864 1563 Q778 1601 732 1601 Q651 1601 598 1535 L515 1593 Q602 1721 736 1721 Q783 1721 863 1687 Q951 1650 995 1650 Q1062 1650 1116 1701 Z " />
<glyph glyph-name="Odieresis" unicode="&#xd6;" horiz-adv-x="1315" d="M629 -27 Q394 -27 253 141.5 Q112 310 112 585 Q112 895 286 1144 Q460 1393 748 1393 Q976 1393 1120 1235 Q1264 1077 1264 801 Q1264 474 1093 223.5 Q922 -27 629 -27 Z M629 110 Q785 110 894.5 228.5 Q1004 347 1047 528.5 Q1090 710 1090 836 Q1090 1033 992 1144 Q894 1255 742 1255 Q524 1255 405.5 1036.5 Q287 818 287 550 Q287 338 383 224 Q479 110 629 110 Z M1100 1625 Q1100 1582 1068.5 1552 Q1037 1522 994 1522 Q951 1522 919.5 1552 Q888 1582 888 1624 Q888 1667 919.5 1696.5 Q951 1726 993 1726 Q1037 1726 1068.5 1696.5 Q1100 1667 1100 1625 Z M778 1624 Q778 1582 746.5 1552 Q715 1522 673 1522 Q631 1522 600.5 1552 Q570 1582 570 1623 Q570 1666 600.5 1695.5 Q631 1725 670 1725 Q718 1725 748 1695 Q778 1665 778 1624 Z " />
<glyph glyph-name="Udieresis" unicode="&#xdc;" horiz-adv-x="1259" d="M1254 1365 L1115 533 Q1077 307 1021.5 201 Q966 95 855 32.5 Q744 -30 587 -30 Q398 -30 267.5 62 Q137 154 137 355 Q137 415 169 610 L296 1365 L463 1365 L329 574 Q301 409 301 363 Q301 241 384 174.5 Q467 108 591 108 Q705 108 786 153 Q867 198 907 275 Q947 352 974 518 L1116 1365 L1254 1365 Z M1081 1625 Q1081 1582 1049.5 1552 Q1018 1522 975 1522 Q932 1522 900.5 1552 Q869 1582 869 1624 Q869 1667 900.5 1696.5 Q932 1726 974 1726 Q1018 1726 1049.5 1696.5 Q1081 1667 1081 1625 Z M759 1624 Q759 1582 727.5 1552 Q696 1522 654 1522 Q612 1522 581.5 1552 Q551 1582 551 1623 Q551 1666 581.5 1695.5 Q612 1725 651 1725 Q699 1725 729 1695 Q759 1665 759 1624 Z " />
<glyph glyph-name="aacute" unicode="&#xe1;" horiz-adv-x="1096" d="M877 0 L718 0 Q717 31 717 51 Q717 129 735 198 Q582 -29 355 -29 Q213 -29 122.5 58 Q32 145 32 276 Q32 423 162 527 Q292 631 647 631 Q679 631 800 625 Q811 690 811 731 Q811 923 578 923 Q373 923 285 752 L137 815 Q257 1045 568 1045 Q740 1045 856 969.5 Q972 894 972 756 Q972 700 895 230 Q874 103 874 43 Q874 34 877 0 Z M781 509 Q709 515 643 515 Q205 515 205 269 Q205 193 252.5 147 Q300 101 385 101 Q519 101 634.5 216 Q750 331 781 509 Z M944 1356 L543 1167 L500 1248 L882 1476 L944 1356 Z " />
<glyph glyph-name="agrave" unicode="&#xe0;" horiz-adv-x="1096" d="M877 0 L718 0 Q717 31 717 51 Q717 129 735 198 Q582 -29 355 -29 Q213 -29 122.5 58 Q32 145 32 276 Q32 423 162 527 Q292 631 647 631 Q679 631 800 625 Q811 690 811 731 Q811 923 578 923 Q373 923 285 752 L137 815 Q257 1045 568 1045 Q740 1045 856 969.5 Q972 894 972 756 Q972 700 895 230 Q874 103 874 43 Q874 34 877 0 Z M781 509 Q709 515 643 515 Q205 515 205 269 Q205 193 252.5 147 Q300 101 385 101 Q519 101 634.5 216 Q750 331 781 509 Z M384 1356 L446 1476 L814 1248 L771 1167 L384 1356 Z " />
<glyph glyph-name="acircumflex" unicode="&#xe2;" horiz-adv-x="1096" d="M877 0 L718 0 Q717 31 717 51 Q717 129 735 198 Q582 -29 355 -29 Q213 -29 122.5 58 Q32 145 32 276 Q32 423 162 527 Q292 631 647 631 Q679 631 800 625 Q811 690 811 731 Q811 923 578 923 Q373 923 285 752 L137 815 Q257 1045 568 1045 Q740 1045 856 969.5 Q972 894 972 756 Q972 700 895 230 Q874 103 874 43 Q874 34 877 0 Z M781 509 Q709 515 643 515 Q205 515 205 269 Q205 193 252.5 147 Q300 101 385 101 Q519 101 634.5 216 Q750 331 781 509 Z M982 1194 L837 1174 L678 1311 L476 1174 L332 1194 L703 1454 L982 1194 Z " />
<glyph glyph-name="adieresis" unicode="&#xe4;" horiz-adv-x="1096" d="M877 0 L718 0 Q717 31 717 51 Q717 129 735 198 Q582 -29 355 -29 Q213 -29 122.5 58 Q32 145 32 276 Q32 423 162 527 Q292 631 647 631 Q679 631 800 625 Q811 690 811 731 Q811 923 578 923 Q373 923 285 752 L137 815 Q257 1045 568 1045 Q740 1045 856 969.5 Q972 894 972 756 Q972 700 895 230 Q874 103 874 43 Q874 34 877 0 Z M781 509 Q709 515 643 515 Q205 515 205 269 Q205 193 252.5 147 Q300 101 385 101 Q519 101 634.5 216 Q750 331 781 509 Z M931 1304 Q931 1261 899.5 1231 Q868 1201 825 1201 Q782 1201 750.5 1231 Q719 1261 719 1303 Q719 1346 750.5 1375.5 Q782 1405 824 1405 Q868 1405 899.5 1375.5 Q931 1346 931 1304 Z M609 1303 Q609 1261 577.5 1231 Q546 1201 504 1201 Q462 1201 431.5 1231 Q401 1261 401 1302 Q401 1345 431.5 1374.5 Q462 1404 501 1404 Q549 1404 579 1374 Q609 1344 609 1303 Z " />
<glyph glyph-name="atilde" unicode="&#xe3;" horiz-adv-x="1096" d="M877 0 L718 0 Q717 31 717 51 Q717 129 735 198 Q582 -29 355 -29 Q213 -29 122.5 58 Q32 145 32 276 Q32 423 162 527 Q292 631 647 631 Q679 631 800 625 Q811 690 811 731 Q811 923 578 923 Q373 923 285 752 L137 815 Q257 1045 568 1045 Q740 1045 856 969.5 Q972 894 972 756 Q972 700 895 230 Q874 103 874 43 Q874 34 877 0 Z M781 509 Q709 515 643 515 Q205 515 205 269 Q205 193 252.5 147 Q300 101 385 101 Q519 101 634.5 216 Q750 331 781 509 Z M940 1380 L1016 1308 Q920 1208 816 1208 Q768 1208 688 1242 Q602 1280 556 1280 Q475 1280 422 1214 L339 1272 Q426 1400 560 1400 Q607 1400 687 1366 Q775 1329 819 1329 Q886 1329 940 1380 Z " />
<glyph glyph-name="aring" unicode="&#xe5;" horiz-adv-x="1096" d="M877 0 L718 0 Q717 31 717 51 Q717 129 735 198 Q582 -29 355 -29 Q213 -29 122.5 58 Q32 145 32 276 Q32 423 162 527 Q292 631 647 631 Q679 631 800 625 Q811 690 811 731 Q811 923 578 923 Q373 923 285 752 L137 815 Q257 1045 568 1045 Q740 1045 856 969.5 Q972 894 972 756 Q972 700 895 230 Q874 103 874 43 Q874 34 877 0 Z M781 509 Q709 515 643 515 Q205 515 205 269 Q205 193 252.5 147 Q300 101 385 101 Q519 101 634.5 216 Q750 331 781 509 Z M840 1326 Q840 1255 789.5 1204.5 Q739 1154 668 1154 Q597 1154 545 1205 Q493 1256 493 1327 Q493 1397 544.5 1449 Q596 1501 672 1501 Q739 1501 789.5 1449.5 Q840 1398 840 1326 Z M757 1326 Q757 1364 731.5 1391 Q706 1418 672 1418 Q629 1418 602.5 1391 Q576 1364 576 1328 Q576 1290 603 1263 Q630 1236 668 1236 Q705 1236 731 1262.5 Q757 1289 757 1326 Z " />
<glyph glyph-name="ccedilla" unicode="&#xe7;" horiz-adv-x="971" d="M460 -33 L432 -98 Q455 -97 469 -97 Q524 -97 572 -129 Q620 -161 620 -221 Q620 -290 562 -334.5 Q504 -379 404 -379 Q306 -379 230 -333 L261 -267 Q334 -304 399 -304 Q513 -304 513 -227 Q513 -160 394 -160 Q366 -160 327 -165 L387 -27 Q241 -1 157 118.5 Q73 238 73 418 Q73 678 211 862 Q349 1046 559 1046 Q712 1046 819 946 Q926 846 940 690 L787 657 Q772 779 707.5 844 Q643 909 556 909 Q397 909 318.5 748 Q240 587 240 399 Q240 254 305.5 179.5 Q371 105 471 105 Q652 105 751 349 L879 301 Q830 149 719 59.5 Q608 -30 460 -33 Z " />
<glyph glyph-name="eacute" unicode="&#xe9;" horiz-adv-x="1065" d="M938 237 Q782 -29 500 -29 Q309 -29 188.5 96 Q68 221 68 434 Q68 696 218 871 Q368 1046 590 1046 Q699 1046 793.5 999 Q888 952 940.5 852 Q993 752 993 609 Q993 558 984 493 L237 493 Q231 445 231 414 Q231 275 304 188.5 Q377 102 502 102 Q588 102 657.5 140.5 Q727 179 807 299 L938 237 Z M257 608 L833 608 Q835 640 835 656 Q835 779 765 852.5 Q695 926 583 926 Q456 926 367.5 831.5 Q279 737 257 608 Z M931 1356 L530 1167 L487 1248 L869 1476 L931 1356 Z " />
<glyph glyph-name="egrave" unicode="&#xe8;" horiz-adv-x="1065" d="M938 237 Q782 -29 500 -29 Q309 -29 188.5 96 Q68 221 68 434 Q68 696 218 871 Q368 1046 590 1046 Q699 1046 793.5 999 Q888 952 940.5 852 Q993 752 993 609 Q993 558 984 493 L237 493 Q231 445 231 414 Q231 275 304 188.5 Q377 102 502 102 Q588 102 657.5 140.5 Q727 179 807 299 L938 237 Z M257 608 L833 608 Q835 640 835 656 Q835 779 765 852.5 Q695 926 583 926 Q456 926 367.5 831.5 Q279 737 257 608 Z M364 1356 L426 1476 L794 1248 L751 1167 L364 1356 Z " />
<glyph glyph-name="ecircumflex" unicode="&#xea;" horiz-adv-x="1065" d="M938 237 Q782 -29 500 -29 Q309 -29 188.5 96 Q68 221 68 434 Q68 696 218 871 Q368 1046 590 1046 Q699 1046 793.5 999 Q888 952 940.5 852 Q993 752 993 609 Q993 558 984 493 L237 493 Q231 445 231 414 Q231 275 304 188.5 Q377 102 502 102 Q588 102 657.5 140.5 Q727 179 807 299 L938 237 Z M257 608 L833 608 Q835 640 835 656 Q835 779 765 852.5 Q695 926 583 926 Q456 926 367.5 831.5 Q279 737 257 608 Z M980 1194 L835 1174 L676 1311 L474 1174 L330 1194 L701 1454 L980 1194 Z " />
<glyph glyph-name="edieresis" unicode="&#xeb;" horiz-adv-x="1065" d="M938 237 Q782 -29 500 -29 Q309 -29 188.5 96 Q68 221 68 434 Q68 696 218 871 Q368 1046 590 1046 Q699 1046 793.5 999 Q888 952 940.5 852 Q993 752 993 609 Q993 558 984 493 L237 493 Q231 445 231 414 Q231 275 304 188.5 Q377 102 502 102 Q588 102 657.5 140.5 Q727 179 807 299 L938 237 Z M257 608 L833 608 Q835 640 835 656 Q835 779 765 852.5 Q695 926 583 926 Q456 926 367.5 831.5 Q279 737 257 608 Z M931 1304 Q931 1261 899.5 1231 Q868 1201 825 1201 Q782 1201 750.5 1231 Q719 1261 719 1303 Q719 1346 750.5 1375.5 Q782 1405 824 1405 Q868 1405 899.5 1375.5 Q931 1346 931 1304 Z M609 1303 Q609 1261 577.5 1231 Q546 1201 504 1201 Q462 1201 431.5 1231 Q401 1261 401 1302 Q401 1345 431.5 1374.5 Q462 1404 501 1404 Q549 1404 579 1374 Q609 1344 609 1303 Z " />
<glyph glyph-name="iacute" unicode="&#xed;" horiz-adv-x="470" d="M229 0 L73 0 L243 1014 L398 1014 L229 0 Z M648 1356 L247 1167 L204 1248 L586 1476 L648 1356 Z " />
<glyph glyph-name="igrave" unicode="&#xec;" horiz-adv-x="470" d="M236 0 L80 0 L250 1014 L405 1014 L236 0 Z M73 1356 L135 1476 L503 1248 L460 1167 L73 1356 Z " />
<glyph glyph-name="icircumflex" unicode="&#xee;" horiz-adv-x="470" d="M229 0 L73 0 L243 1014 L398 1014 L229 0 Z M672 1194 L527 1174 L368 1311 L166 1174 L22 1194 L393 1454 L672 1194 Z " />
<glyph glyph-name="idieresis" unicode="&#xef;" horiz-adv-x="470" d="M229 0 L73 0 L243 1014 L398 1014 L229 0 Z M656 1304 Q656 1261 624.5 1231 Q593 1201 550 1201 Q507 1201 475.5 1231 Q444 1261 444 1303 Q444 1346 475.5 1375.5 Q507 1405 549 1405 Q593 1405 624.5 1375.5 Q656 1346 656 1304 Z M334 1303 Q334 1261 302.5 1231 Q271 1201 229 1201 Q187 1201 156.5 1231 Q126 1261 126 1302 Q126 1345 156.5 1374.5 Q187 1404 226 1404 Q274 1404 304 1374 Q334 1344 334 1303 Z " />
<glyph glyph-name="ntilde" unicode="&#xf1;" horiz-adv-x="1122" d="M880 0 L731 0 L829 583 Q846 683 846 728 Q846 807 797 862.5 Q748 918 656 918 Q543 918 440.5 808 Q338 698 280 363 L217 0 L72 0 L242 1013 L377 1013 L339 787 Q470 1042 695 1042 Q828 1042 911.5 960.5 Q995 879 995 747 Q995 687 978 585 L880 0 Z M960 1380 L1036 1308 Q940 1208 836 1208 Q788 1208 708 1242 Q622 1280 576 1280 Q495 1280 442 1214 L359 1272 Q446 1400 580 1400 Q627 1400 707 1366 Q795 1329 839 1329 Q906 1329 960 1380 Z " />
<glyph glyph-name="oacute" unicode="&#xf3;" horiz-adv-x="1066" d="M483 -30 Q294 -30 185 101.5 Q76 233 76 438 Q76 670 219 854 Q362 1038 586 1038 Q771 1038 881 911.5 Q991 785 991 567 Q991 341 850 155.5 Q709 -30 483 -30 Z M490 96 Q651 96 738 255 Q825 414 825 620 Q825 776 751.5 845.5 Q678 915 577 915 Q418 915 331 757 Q244 599 244 402 Q244 251 311 173.5 Q378 96 490 96 Z M959 1356 L558 1167 L515 1248 L897 1476 L959 1356 Z " />
<glyph glyph-name="ograve" unicode="&#xf2;" horiz-adv-x="1066" d="M483 -30 Q294 -30 185 101.5 Q76 233 76 438 Q76 670 219 854 Q362 1038 586 1038 Q771 1038 881 911.5 Q991 785 991 567 Q991 341 850 155.5 Q709 -30 483 -30 Z M490 96 Q651 96 738 255 Q825 414 825 620 Q825 776 751.5 845.5 Q678 915 577 915 Q418 915 331 757 Q244 599 244 402 Q244 251 311 173.5 Q378 96 490 96 Z M378 1356 L440 1476 L808 1248 L765 1167 L378 1356 Z " />
<glyph glyph-name="ocircumflex" unicode="&#xf4;" horiz-adv-x="1066" d="M483 -30 Q294 -30 185 101.5 Q76 233 76 438 Q76 670 219 854 Q362 1038 586 1038 Q771 1038 881 911.5 Q991 785 991 567 Q991 341 850 155.5 Q709 -30 483 -30 Z M490 96 Q651 96 738 255 Q825 414 825 620 Q825 776 751.5 845.5 Q678 915 577 915 Q418 915 331 757 Q244 599 244 402 Q244 251 311 173.5 Q378 96 490 96 Z M987 1194 L842 1174 L683 1311 L481 1174 L337 1194 L708 1454 L987 1194 Z " />
<glyph glyph-name="odieresis" unicode="&#xf6;" horiz-adv-x="1066" d="M483 -30 Q294 -30 185 101.5 Q76 233 76 438 Q76 670 219 854 Q362 1038 586 1038 Q771 1038 881 911.5 Q991 785 991 567 Q991 341 850 155.5 Q709 -30 483 -30 Z M490 96 Q651 96 738 255 Q825 414 825 620 Q825 776 751.5 845.5 Q678 915 577 915 Q418 915 331 757 Q244 599 244 402 Q244 251 311 173.5 Q378 96 490 96 Z M938 1304 Q938 1261 906.5 1231 Q875 1201 832 1201 Q789 1201 757.5 1231 Q726 1261 726 1303 Q726 1346 757.5 1375.5 Q789 1405 831 1405 Q875 1405 906.5 1375.5 Q938 1346 938 1304 Z M616 1303 Q616 1261 584.5 1231 Q553 1201 511 1201 Q469 1201 438.5 1231 Q408 1261 408 1302 Q408 1345 438.5 1374.5 Q469 1404 508 1404 Q556 1404 586 1374 Q616 1344 616 1303 Z " />
<glyph glyph-name="otilde" unicode="&#xf5;" horiz-adv-x="1066" d="M483 -30 Q294 -30 185 101.5 Q76 233 76 438 Q76 670 219 854 Q362 1038 586 1038 Q771 1038 881 911.5 Q991 785 991 567 Q991 341 850 155.5 Q709 -30 483 -30 Z M490 96 Q651 96 738 255 Q825 414 825 620 Q825 776 751.5 845.5 Q678 915 577 915 Q418 915 331 757 Q244 599 244 402 Q244 251 311 173.5 Q378 96 490 96 Z M940 1380 L1016 1308 Q920 1208 816 1208 Q768 1208 688 1242 Q602 1280 556 1280 Q475 1280 422 1214 L339 1272 Q426 1400 560 1400 Q607 1400 687 1366 Q775 1329 819 1329 Q886 1329 940 1380 Z " />
<glyph glyph-name="uacute" unicode="&#xfa;" horiz-adv-x="1111" d="M1044 1014 L874 0 L738 0 L779 245 Q644 -27 410 -27 Q319 -27 253.5 15.5 Q188 58 159 116 Q130 174 130 262 Q130 319 152 447 L249 1014 L405 1014 L302 398 Q284 293 284 269 Q284 190 330 145.5 Q376 101 451 101 Q577 101 684 238.5 Q791 376 833 625 L898 1014 L1044 1014 Z M991 1356 L590 1167 L547 1248 L929 1476 L991 1356 Z " />
<glyph glyph-name="ugrave" unicode="&#xf9;" horiz-adv-x="1111" d="M1044 1014 L874 0 L738 0 L779 245 Q644 -27 410 -27 Q319 -27 253.5 15.5 Q188 58 159 116 Q130 174 130 262 Q130 319 152 447 L249 1014 L405 1014 L302 398 Q284 293 284 269 Q284 190 330 145.5 Q376 101 451 101 Q577 101 684 238.5 Q791 376 833 625 L898 1014 L1044 1014 Z M410 1356 L472 1476 L840 1248 L797 1167 L410 1356 Z " />
<glyph glyph-name="ucircumflex" unicode="&#xfb;" horiz-adv-x="1111" d="M1044 1014 L874 0 L738 0 L779 245 Q644 -27 410 -27 Q319 -27 253.5 15.5 Q188 58 159 116 Q130 174 130 262 Q130 319 152 447 L249 1014 L405 1014 L302 398 Q284 293 284 269 Q284 190 330 145.5 Q376 101 451 101 Q577 101 684 238.5 Q791 376 833 625 L898 1014 L1044 1014 Z M1005 1194 L860 1174 L701 1311 L499 1174 L355 1194 L726 1454 L1005 1194 Z " />
<glyph glyph-name="udieresis" unicode="&#xfc;" horiz-adv-x="1111" d="M1044 1014 L874 0 L738 0 L779 245 Q644 -27 410 -27 Q319 -27 253.5 15.5 Q188 58 159 116 Q130 174 130 262 Q130 319 152 447 L249 1014 L405 1014 L302 398 Q284 293 284 269 Q284 190 330 145.5 Q376 101 451 101 Q577 101 684 238.5 Q791 376 833 625 L898 1014 L1044 1014 Z M958 1304 Q958 1261 926.5 1231 Q895 1201 852 1201 Q809 1201 777.5 1231 Q746 1261 746 1303 Q746 1346 777.5 1375.5 Q809 1405 851 1405 Q895 1405 926.5 1375.5 Q958 1346 958 1304 Z M636 1303 Q636 1261 604.5 1231 Q573 1201 531 1201 Q489 1201 458.5 1231 Q428 1261 428 1302 Q428 1345 458.5 1374.5 Q489 1404 528 1404 Q576 1404 606 1374 Q636 1344 636 1303 Z " />
<glyph glyph-name="dagger" unicode="&#x2020;" horiz-adv-x="1201" d="M671 1365 L818 1365 L751 967 L1131 967 L1108 831 L728 831 L532 -341 L386 -341 L582 831 L202 831 L225 967 L605 967 L671 1365 Z " />
<glyph glyph-name="degree" unicode="&#xb0;" horiz-adv-x="1201" d="M432 1122 Q432 1233 511.5 1313 Q591 1393 703 1393 Q815 1393 894.5 1313.5 Q974 1234 974 1122 Q974 1011 894 931.5 Q814 852 699 852 Q591 852 511.5 931.5 Q432 1011 432 1122 Z M548 1123 Q548 1058 593.5 1013 Q639 968 698 968 Q766 968 812 1013.5 Q858 1059 858 1123 Q858 1187 812.5 1232.5 Q767 1278 702 1278 Q639 1278 593.5 1232.5 Q548 1187 548 1123 Z " />
<glyph glyph-name="cent" unicode="&#xa2;" horiz-adv-x="1201" d="M566 -102 L461 -102 L517 230 Q389 258 322 365.5 Q255 473 255 617 Q255 810 370.5 960.5 Q486 1111 664 1111 L709 1379 L814 1379 L767 1099 Q957 1056 1016 832 L901 794 Q845 968 749 989 L639 331 Q770 336 855 520 L959 473 Q850 217 619 216 L566 -102 Z M536 343 L645 995 Q534 985 468.5 866.5 Q403 748 403 597 Q403 391 536 343 Z " />
<glyph glyph-name="sterling" unicode="&#xa3;" horiz-adv-x="1201" d="M1126 216 Q1059 117 1003.5 75.5 Q948 34 878 17 Q808 0 637 0 L-59 0 L-35 145 Q114 147 181 166.5 Q248 186 310.5 254 Q373 322 391.5 410 Q410 498 410 649 L193 649 L212 763 L413 763 Q415 918 431 1005.5 Q447 1093 504.5 1181.5 Q562 1270 651.5 1322.5 Q741 1375 842 1375 Q1033 1375 1140 1202 L1016 1117 Q956 1242 839 1242 Q785 1242 737.5 1219 Q690 1196 656 1154 Q622 1112 607.5 1057.5 Q593 1003 591 927 L587 763 L876 763 L856 649 L584 649 Q581 284 349 145 L636 145 Q770 145 823.5 155 Q877 165 921 197 Q965 229 1014 301 L1126 216 Z " />
<glyph glyph-name="section" unicode="&#xa7;" horiz-adv-x="1201" d="M35 -72 L208 -44 Q305 -230 531 -230 Q653 -230 732.5 -171 Q812 -112 812 -16 Q812 55 760.5 101 Q709 147 488 218 Q318 273 248.5 333.5 Q179 394 179 517 Q179 701 417 822 Q297 908 297 1055 Q297 1205 404.5 1299 Q512 1393 690 1393 Q1035 1393 1116 1127 L958 1110 Q895 1270 700 1270 Q590 1270 525 1219.5 Q460 1169 460 1086 Q460 1013 511.5 972.5 Q563 932 772 854 Q893 808 939 772 Q985 736 1013 679 Q1041 622 1041 560 Q1041 405 829 272 Q984 190 984 11 Q984 -151 860.5 -260 Q737 -369 525 -369 Q352 -369 216.5 -287 Q81 -205 35 -72 Z M701 321 Q882 400 882 519 Q882 571 853.5 611 Q825 651 778.5 673 Q732 695 614 735 Q572 749 539 764 Q346 670 346 558 Q346 501 389.5 456.5 Q433 412 701 321 Z " />
<glyph glyph-name="bullet" unicode="&#x2022;" horiz-adv-x="1365" d="M998 696 Q998 579 915.5 494.5 Q833 410 717 410 Q598 410 516.5 494.5 Q435 579 435 696 Q435 814 517.5 898 Q600 982 717 982 Q833 982 915.5 898 Q998 814 998 696 Z " />
<glyph glyph-name="paragraph" unicode="&#xb6;" horiz-adv-x="1201" d="M1236 1365 L1220 1270 L1084 1270 L814 -341 L715 -341 L984 1270 L886 1270 L616 -341 L517 -341 L695 725 L586 725 Q429 725 359 750 Q289 775 250 843 Q211 911 211 1005 Q211 1123 264 1207 Q317 1291 403.5 1328 Q490 1365 697 1365 L1236 1365 Z M711 821 L786 1270 L716 1270 Q565 1270 506 1245.5 Q447 1221 411.5 1161 Q376 1101 376 1007 Q376 927 420.5 874 Q465 821 610 821 L711 821 Z " />
<glyph glyph-name="germandbls" unicode="&#xdf;" horiz-adv-x="1135" d="M217 -60 L61 -60 L208 818 L104 818 L125 944 L229 943 Q328 1451 723 1451 Q874 1451 965 1373 Q1056 1295 1056 1185 Q1056 1046 938.5 956 Q821 866 588 866 Q571 853 571 839 Q571 824 588 811 Q605 798 701 762 Q839 710 907 668 Q975 626 1018 555 Q1061 484 1061 400 Q1061 236 935.5 106 Q810 -24 591 -24 Q461 -24 347 26 L391 146 Q486 108 592 108 Q724 108 807 182.5 Q890 257 890 362 Q890 438 848 482 Q806 526 660 598 Q506 674 470 711 Q434 748 434 799 Q434 878 502 951 Q898 994 898 1178 Q898 1239 847.5 1281.5 Q797 1324 705 1324 Q608 1324 538 1272 Q468 1220 436.5 1141.5 Q405 1063 380 917 L217 -60 Z " />
<glyph glyph-name="registered" unicode="&#xae;" horiz-adv-x="1584" d="M1527 683 Q1527 392 1319.5 184.5 Q1112 -23 821 -23 Q530 -23 322.5 184.5 Q115 392 115 683 Q115 973 322.5 1181 Q530 1389 821 1389 Q1112 1389 1319.5 1181 Q1527 973 1527 683 Z M1426 683 Q1426 932 1248 1109.5 Q1070 1287 821 1287 Q572 1287 394 1109.5 Q216 932 216 683 Q216 433 393 255.5 Q570 78 821 78 Q1070 78 1248 256 Q1426 434 1426 683 Z M871 626 L640 626 L581 273 L456 273 L593 1092 L869 1092 Q1187 1092 1187 869 Q1187 787 1132 724 Q1077 661 994 646 L1117 273 L985 273 L871 626 Z M656 720 L839 720 Q970 720 1015 762.5 Q1060 805 1060 873 Q1060 1000 886 1000 L703 1000 L656 720 Z " />
<glyph glyph-name="copyright" unicode="&#xa9;" horiz-adv-x="1584" d="M1527 683 Q1527 392 1319.5 184.5 Q1112 -23 821 -23 Q530 -23 322.5 184.5 Q115 392 115 683 Q115 973 322.5 1181 Q530 1389 821 1389 Q1112 1389 1319.5 1181 Q1527 973 1527 683 Z M1426 683 Q1426 932 1248 1109.5 Q1070 1287 821 1287 Q572 1287 394 1109.5 Q216 932 216 683 Q216 433 393 255.5 Q570 78 821 78 Q1070 78 1248 256 Q1426 434 1426 683 Z M1172 833 L1058 806 Q1034 1017 867 1017 Q737 1017 669 880.5 Q601 744 601 604 Q601 483 654.5 418.5 Q708 354 795 354 Q932 354 1015 548 L1119 510 Q1027 259 791 259 Q634 259 552 363.5 Q470 468 470 616 Q470 812 581 962 Q692 1112 865 1112 Q978 1112 1064.5 1049 Q1151 986 1172 833 Z " />
<glyph glyph-name="trademark" unicode="&#x2122;" horiz-adv-x="1628" d="M736 1274 L495 1274 L380 587 L257 587 L372 1274 L130 1274 L145 1365 L752 1365 L736 1274 Z M1548 587 L1425 587 L1534 1239 L1173 587 L1078 587 L930 1229 L823 587 L716 587 L846 1365 L1020 1365 L1160 760 L1496 1365 L1679 1365 L1548 587 Z " />
<glyph glyph-name="acute" unicode="&#xb4;" horiz-adv-x="1024" d="M945 1356 L544 1167 L501 1248 L883 1476 L945 1356 Z " />
<glyph glyph-name="dieresis" unicode="&#xa8;" horiz-adv-x="1024" d="M911 1304 Q911 1261 879.5 1231 Q848 1201 805 1201 Q762 1201 730.5 1231 Q699 1261 699 1303 Q699 1346 730.5 1375.5 Q762 1405 804 1405 Q848 1405 879.5 1375.5 Q911 1346 911 1304 Z M589 1303 Q589 1261 557.5 1231 Q526 1201 484 1201 Q442 1201 411.5 1231 Q381 1261 381 1302 Q381 1345 411.5 1374.5 Q442 1404 481 1404 Q529 1404 559 1374 Q589 1344 589 1303 Z " />
<glyph glyph-name="notequal" unicode="&#x2260;" horiz-adv-x="1124" d="M1106 279 L485 279 L301 -51 L201 6 L352 279 L31 279 L31 391 L416 391 L573 676 L31 676 L31 788 L637 788 L823 1124 L924 1067 L768 788 L1106 788 L1106 676 L707 676 L547 391 L1106 391 L1106 279 Z " />
<glyph glyph-name="AE" unicode="&#xc6;" horiz-adv-x="1790" d="M1637 0 L728 0 L807 471 L410 471 L61 0 L-112 0 L910 1365 L1812 1365 L1790 1230 L1100 1230 L1025 781 L1615 781 L1593 647 L1003 647 L919 145 L1661 145 L1637 0 Z M828 601 L925 1176 L502 601 L828 601 Z " />
<glyph glyph-name="Oslash" unicode="&#xd8;" horiz-adv-x="1315" d="M300 91 L195 -48 L49 -48 L222 183 Q112 346 112 587 Q112 894 286.5 1143.5 Q461 1393 746 1393 Q934 1393 1074 1279 L1187 1420 L1337 1420 L1156 1190 Q1264 1022 1264 800 Q1264 461 1088.5 216.5 Q913 -28 638 -28 Q447 -28 300 91 Z M334 304 L971 1167 Q868 1255 740 1255 Q530 1255 409 1040 Q288 825 288 544 Q288 407 334 304 Z M400 203 Q496 111 628 111 Q849 111 969.5 334 Q1090 557 1090 843 Q1090 963 1042 1069 L400 203 Z " />
<glyph glyph-name="infinity" unicode="&#x221e;" horiz-adv-x="1460" d="M653 668 Q724 837 812 890.5 Q900 944 1024 944 Q1185 944 1296 827.5 Q1407 711 1407 526 Q1407 340 1295.5 223 Q1184 106 1057 106 Q962 106 886.5 169 Q811 232 721 393 Q604 160 397 160 Q248 160 150.5 264.5 Q53 369 53 528 Q53 685 142 790 Q231 895 360 895 Q440 895 509 853 Q578 811 653 668 Z M750 465 Q814 327 884.5 264 Q955 201 1061 201 Q1187 201 1268.5 292 Q1350 383 1350 526 Q1350 666 1266 766 Q1182 866 1067 866 Q1012 866 969.5 844.5 Q927 823 895 782.5 Q863 742 831 666 L750 465 Z M614 557 L625 590 Q529 805 358 805 Q248 805 178.5 728.5 Q109 652 109 530 Q109 407 175.5 322.5 Q242 238 338 238 Q420 238 487.5 303 Q555 368 614 557 Z " />
<glyph glyph-name="plusminus" unicode="&#xb1;" horiz-adv-x="1201" d="M125 753 L528 753 L528 1174 L678 1174 L678 753 L1081 753 L1081 615 L678 615 L678 194 L528 194 L528 615 L125 615 L125 753 Z M125 71 L1081 71 L1081 -68 L125 -68 L125 71 Z " />
<glyph glyph-name="lessequal" unicode="&#x2264;" horiz-adv-x="1124" d="M1077 240 L59 711 L59 838 L1077 1309 L1077 1182 L190 774 L1077 367 L1077 240 Z M1077 0 L59 0 L59 112 L1077 112 L1077 0 Z " />
<glyph glyph-name="greaterequal" unicode="&#x2265;" horiz-adv-x="1124" d="M1077 711 L59 240 L59 367 L946 774 L59 1182 L59 1309 L1077 838 L1077 711 Z M1077 0 L59 0 L59 112 L1077 112 L1077 0 Z " />
<glyph glyph-name="yen" unicode="&#xa5;" horiz-adv-x="1200" d="M194 847 L423 847 L214 1365 L386 1365 L647 719 L1095 1365 L1253 1365 L888 847 L1139 847 L1122 744 L816 744 L695 572 L690 546 L1089 546 L1072 444 L673 444 L599 0 L439 0 L513 444 L127 444 L144 546 L531 546 L535 572 L465 744 L177 744 L194 847 Z " />
<glyph glyph-name="uni00B5" unicode="&#xb5;" horiz-adv-x="1201" d="M56 -341 L283 1014 L439 1014 L343 446 Q330 368 330 319 Q330 243 381.5 177 Q433 111 527 111 Q782 111 840 459 L933 1014 L1089 1014 L919 0 L777 0 L805 168 Q735 52 668 12.5 Q601 -27 516 -27 Q352 -27 292 140 L212 -341 L56 -341 Z " />
<glyph glyph-name="partialdiff" unicode="&#x2202;" horiz-adv-x="1012" d="M295 1120 L250 1120 Q381 1423 629 1423 Q790 1423 892.5 1296 Q995 1169 995 920 Q995 562 830.5 265.5 Q666 -31 403 -31 Q248 -31 157 60 Q66 151 66 305 Q66 544 232.5 725.5 Q399 907 616 907 Q838 907 928 717 L932 717 Q942 861 942 903 Q942 1078 849.5 1179 Q757 1280 596 1280 Q402 1280 295 1120 Z M911 629 Q830 854 627 854 Q449 854 341 663.5 Q233 473 233 264 Q233 156 287 91.5 Q341 27 430 27 Q566 27 709.5 189.5 Q853 352 911 629 Z " />
<glyph glyph-name="summation" unicode="&#x2211;" horiz-adv-x="1460" d="M1423 238 Q1391 113 1369 -2 Q1347 -117 1335 -221 Q1272 -210 1232.5 -204.5 Q1193 -199 1178 -199 L147 -199 Q127 -199 88 -202 Q49 -205 29 -205 L743 610 L33 1540 Q103 1533 156 1529.5 Q209 1526 246 1526 L1264 1526 L1276 1200 L1235 1200 Q1204 1302 1182.5 1341 Q1161 1380 1101 1407 Q1071 1420 1026.5 1427 Q982 1434 922 1434 L383 1434 L942 700 L340 6 L1100 6 Q1227 6 1277.5 58 Q1328 110 1376 238 L1423 238 Z " />
<glyph glyph-name="product" unicode="&#x220f;" horiz-adv-x="1686" d="M1645 -207 L1016 -207 L1016 -160 Q1136 -160 1175.5 -119 Q1215 -78 1215 6 L1215 1425 L481 1425 L481 6 Q481 -78 520.5 -119 Q560 -160 680 -160 L680 -207 L51 -207 L51 -160 Q173 -160 211.5 -119 Q250 -78 250 6 L250 1288 Q250 1389 201.5 1440 Q153 1491 55 1491 L55 1538 L1641 1538 L1641 1491 Q1543 1491 1494.5 1440 Q1446 1389 1446 1288 L1446 6 Q1446 -78 1484.5 -119 Q1523 -160 1645 -160 L1645 -207 Z " />
<glyph glyph-name="uniF006" unicode="&#xf006;" horiz-adv-x="1124" d="M1085 309 Q1080 154 1009.5 60.5 Q939 -33 842 -33 Q763 -33 703.5 58.5 Q644 150 644 340 Q644 382 646 420 Q648 458 651 492 L686 821 L455 821 Q395 197 356.5 78.5 Q318 -40 226 -40 Q187 -40 152 -9 Q117 22 117 73 Q117 119 189.5 201.5 Q262 284 270 352 L330 821 L233 821 Q193 821 154.5 801.5 Q116 782 98 756 L55 692 L20 692 Q69 844 140.5 920.5 Q212 997 305 997 L1069 997 L1069 821 L811 821 Q799 701 792.5 581 Q786 461 786 340 Q786 258 824 207 Q862 156 919 156 Q954 156 992.5 184.5 Q1031 213 1036 259 Q1039 281 1040.5 293.5 Q1042 306 1042 309 L1085 309 Z " />
<glyph glyph-name="integral" unicode="&#x222b;" horiz-adv-x="561" d="M602 1760 Q602 1721 572.5 1696 Q543 1671 497 1671 Q460 1671 437 1696 Q414 1721 393 1721 Q375 1721 365.5 1706.5 Q356 1692 356 1663 Q356 1629 375.5 1407 Q395 1185 395 856 Q395 351 365 146.5 Q335 -58 286 -136 Q260 -177 218.5 -198 Q177 -219 133 -219 Q84 -219 47 -184 Q10 -149 10 -99 Q10 -61 35.5 -34 Q61 -7 100 -7 Q134 -7 165.5 -40 Q197 -73 210 -73 Q235 -73 249.5 -28.5 Q264 16 264 125 Q264 162 258 322 Q252 482 252 884 Q252 1365 269 1522.5 Q286 1680 310 1738 Q339 1808 379 1842 Q419 1876 463 1876 Q520 1876 561 1843.5 Q602 1811 602 1760 Z " />
<glyph glyph-name="ordfeminine" unicode="&#xaa;" horiz-adv-x="721" d="M677 763 L556 763 Q555 783 555 805 Q555 822 557 847 Q472 746 340 746 Q248 746 188.5 799.5 Q129 853 129 930 Q129 1149 518 1149 Q556 1149 605 1146 Q610 1176 610 1199 Q610 1307 474 1307 Q353 1307 300 1203 L189 1247 Q268 1393 470 1393 Q580 1393 655.5 1346 Q731 1299 731 1216 Q731 1175 686 906 Q674 833 674 797 Q674 794 677 763 Z M591 1064 Q552 1067 515 1067 Q258 1067 258 929 Q258 836 360 836 Q439 836 505.5 900 Q572 964 591 1064 Z " />
<glyph glyph-name="ordmasculine" unicode="&#xba;" horiz-adv-x="702" d="M421 749 Q299 749 227.5 829 Q156 909 156 1034 Q156 1176 247.5 1284.5 Q339 1393 482 1393 Q604 1393 674.5 1313.5 Q745 1234 745 1114 Q745 964 652.5 856.5 Q560 749 421 749 Z M426 837 Q520 837 569.5 928.5 Q619 1020 619 1133 Q619 1228 575.5 1267.5 Q532 1307 474 1307 Q382 1307 332 1215.5 Q282 1124 282 1015 Q282 837 426 837 Z " />
<glyph glyph-name="uni2126" unicode="&#x2126;" horiz-adv-x="1573" d="M1506 0 L902 0 L935 311 Q1096 370 1161 511 Q1226 652 1226 824 Q1226 1051 1119 1197 Q1012 1343 788 1343 Q564 1343 457 1197 Q350 1051 350 824 Q350 652 415 511 Q480 370 641 311 L674 0 L70 0 L70 332 L100 332 Q116 266 140 236.5 Q164 207 236 207 L559 207 L555 264 Q317 329 214 485 Q111 641 111 817 Q111 1076 303 1242.5 Q495 1409 788 1409 Q1081 1409 1273 1242.5 Q1465 1076 1465 817 Q1465 641 1362 485 Q1259 329 1021 264 L1017 207 L1340 207 Q1412 207 1436 236.5 Q1460 266 1476 332 L1506 332 L1506 0 Z " />
<glyph glyph-name="ae" unicode="&#xe6;" horiz-adv-x="1723" d="M1598 237 Q1444 -30 1167 -30 Q1030 -30 921.5 39 Q813 108 763 241 Q586 -26 345 -26 Q203 -26 115.5 57 Q28 140 28 272 Q28 421 154 524 Q280 627 595 627 Q644 627 773 620 Q786 675 786 722 Q786 923 554 923 Q369 923 278 755 L135 815 Q263 1042 544 1042 Q787 1042 897 888 Q1045 1040 1249 1040 Q1431 1040 1540.5 925 Q1650 810 1650 611 Q1650 559 1642 493 L903 493 Q895 444 895 406 Q895 264 973.5 181 Q1052 98 1167 98 Q1348 98 1468 293 L1598 237 Z M922 603 L1494 603 Q1496 632 1496 649 Q1496 783 1421.5 854.5 Q1347 926 1240 926 Q1122 926 1034 837 Q946 748 922 603 Z M757 508 Q687 517 614 517 Q373 517 283 444 Q193 371 193 267 Q193 201 236 150.5 Q279 100 367 100 Q511 100 627 231.5 Q743 363 757 508 Z " />
<glyph glyph-name="oslash" unicode="&#xf8;" horiz-adv-x="1066" d="M1088 1070 L914 867 Q991 744 991 580 Q991 334 847 151.5 Q703 -31 486 -31 Q337 -31 228 57 L131 -55 L3 -55 L159 135 Q76 261 76 439 Q76 671 219 854.5 Q362 1038 588 1038 Q739 1038 844 948 L950 1070 L1088 1070 Z M266 251 L748 848 Q676 915 574 915 Q417 915 330 757 Q243 599 243 396 Q243 317 266 251 Z M805 758 L323 159 Q390 96 486 96 Q650 96 737 254 Q824 412 824 618 Q824 697 805 758 Z " />
<glyph glyph-name="questiondown" unicode="&#xbf;" horiz-adv-x="1019" d="M526 675 L668 675 Q653 523 628.5 458 Q604 393 564 360 Q524 327 409 273 Q307 225 264 193.5 Q221 162 191.5 109 Q162 56 162 -9 Q162 -119 240.5 -182 Q319 -245 424 -245 Q648 -245 749 29 L889 -29 Q752 -380 420 -380 Q237 -380 116 -275 Q-5 -170 -5 -8 Q-5 69 28.5 147 Q62 225 128 280.5 Q194 336 367 405 Q457 441 486 486.5 Q515 532 526 675 Z M550 1024 L756 1024 L723 827 L517 827 L550 1024 Z " />
<glyph glyph-name="exclamdown" unicode="&#xa1;" horiz-adv-x="548" d="M254 673 L339 673 L249 -341 L23 -341 L254 673 Z M258 1024 L464 1024 L431 829 L225 829 L258 1024 Z " />
<glyph glyph-name="logicalnot" unicode="&#xac;" horiz-adv-x="1201" d="M1075 0 L923 0 L923 408 L292 408 L188 510 L188 546 L1075 546 L1075 0 Z " />
<glyph glyph-name="radical" unicode="&#x221a;" horiz-adv-x="1124" d="M1055 1868 L748 -78 L250 950 L53 854 L20 922 L319 1069 L723 244 L983 1878 L1055 1868 Z " />
<glyph glyph-name="florin" unicode="&#x192;" horiz-adv-x="1201" d="M-73 -277 L-27 -139 Q1 -142 19 -142 Q115 -142 177 -113 Q239 -84 271.5 -31.5 Q304 21 357 173 L643 999 L456 999 L498 1131 L687 1131 L709 1188 Q836 1504 1153 1504 Q1180 1504 1222 1501 L1174 1365 L1146 1366 Q1036 1366 968 1309.5 Q900 1253 857 1131 L1094 1131 L1044 999 L807 999 L498 99 Q424 -118 317.5 -199 Q211 -280 19 -280 Q-22 -280 -73 -277 Z " />
<glyph glyph-name="approxequal" unicode="&#x2248;" horiz-adv-x="1124" d="M1022 874 L1073 874 Q1052 719 977.5 636 Q903 553 791 553 Q694 553 487 670 Q348 748 276 748 Q127 748 98 561 L51 561 Q71 715 144.5 799 Q218 883 326 883 Q373 883 433 863.5 Q493 844 657 756 Q775 694 850 694 Q994 694 1022 874 Z M1022 487 L1073 487 Q1052 332 977.5 249 Q903 166 791 166 Q695 166 522.5 263 Q350 360 276 360 Q127 360 98 174 L51 174 Q71 327 144.5 410.5 Q218 494 326 494 Q373 494 438 472.5 Q503 451 657 369 Q775 307 850 307 Q994 307 1022 487 Z " />
<glyph glyph-name="uni2206" unicode="&#x2206;" horiz-adv-x="1253" d="M668 1409 L1245 0 L12 0 L668 1409 Z M594 1059 L147 100 L991 100 L594 1059 Z " />
<glyph glyph-name="guillemotleft" unicode="&#xab;" horiz-adv-x="691" d="M294 216 L221 216 L80 496 L283 785 L370 785 L228 496 L294 216 Z M546 216 L472 216 L337 496 L542 785 L638 785 L488 496 L546 216 Z " />
<glyph glyph-name="guillemotright" unicode="&#xbb;" horiz-adv-x="690" d="M394 785 L468 785 L609 505 L406 216 L319 216 L461 505 L394 785 Z M143 785 L217 785 L352 505 L147 216 L51 216 L200 505 L143 785 Z " />
<glyph glyph-name="ellipsis" unicode="&#x2026;" horiz-adv-x="1535" d="M284 0 L59 0 L97 229 L323 229 L284 0 Z M795 0 L571 0 L609 229 L833 229 L795 0 Z M1307 0 L1082 0 L1120 229 L1345 229 L1307 0 Z " />
<glyph glyph-name="uni00A0" unicode="&#xa0;" horiz-adv-x="512" d="" />
<glyph glyph-name="Agrave" unicode="&#xc0;" horiz-adv-x="1155" d="M792 400 L294 400 L98 0 L-57 0 L612 1365 L801 1365 L1039 0 L863 0 L792 400 Z M772 537 L667 1164 L359 537 L772 537 Z M415 1677 L477 1797 L845 1569 L802 1488 L415 1677 Z " />
<glyph glyph-name="Atilde" unicode="&#xc3;" horiz-adv-x="1155" d="M792 400 L294 400 L98 0 L-57 0 L612 1365 L801 1365 L1039 0 L863 0 L792 400 Z M772 537 L667 1164 L359 537 L772 537 Z M986 1701 L1062 1629 Q966 1529 862 1529 Q814 1529 734 1563 Q648 1601 602 1601 Q521 1601 468 1535 L385 1593 Q472 1721 606 1721 Q653 1721 733 1687 Q821 1650 865 1650 Q932 1650 986 1701 Z " />
<glyph glyph-name="Otilde" unicode="&#xd5;" horiz-adv-x="1315" d="M629 -27 Q394 -27 253 141.5 Q112 310 112 585 Q112 895 286 1144 Q460 1393 748 1393 Q976 1393 1120 1235 Q1264 1077 1264 801 Q1264 474 1093 223.5 Q922 -27 629 -27 Z M629 110 Q785 110 894.5 228.5 Q1004 347 1047 528.5 Q1090 710 1090 836 Q1090 1033 992 1144 Q894 1255 742 1255 Q524 1255 405.5 1036.5 Q287 818 287 550 Q287 338 383 224 Q479 110 629 110 Z M1056 1700 L1132 1628 Q1036 1528 932 1528 Q884 1528 804 1562 Q718 1600 672 1600 Q591 1600 538 1534 L455 1592 Q542 1720 676 1720 Q723 1720 803 1686 Q891 1649 935 1649 Q1002 1649 1056 1700 Z " />
<glyph glyph-name="OE" unicode="&#x152;" horiz-adv-x="2001" d="M1848 0 L941 0 L951 84 Q816 -23 644 -23 Q399 -23 256 147.5 Q113 318 113 580 Q113 911 290.5 1152.5 Q468 1394 756 1394 Q840 1394 935.5 1366 Q1031 1338 1147 1230 L1170 1365 L2022 1365 L1999 1227 L1313 1227 L1239 781 L1823 781 L1801 647 L1216 647 L1132 145 L1872 145 L1848 0 Z M1000 353 L1112 1021 Q1066 1141 966.5 1198.5 Q867 1256 758 1256 Q538 1256 412.5 1041 Q287 826 287 563 Q287 339 389 227 Q491 115 654 115 Q761 115 858 177.5 Q955 240 1000 353 Z " />
<glyph glyph-name="oe" unicode="&#x153;" horiz-adv-x="1834" d="M1710 232 Q1546 -26 1281 -26 Q1030 -26 901 184 Q746 -29 502 -29 Q315 -29 195.5 103 Q76 235 76 447 Q76 667 222 853 Q368 1039 603 1039 Q844 1039 963 838 Q1128 1045 1357 1045 Q1544 1045 1653 928.5 Q1762 812 1762 592 Q1762 547 1753 493 L1010 493 Q1005 443 1005 410 Q1005 269 1080.5 185.5 Q1156 102 1279 102 Q1454 102 1580 296 L1710 232 Z M1029 606 L1605 606 Q1608 637 1608 655 Q1608 776 1541.5 852.5 Q1475 929 1354 929 Q1227 929 1142 839.5 Q1057 750 1029 606 Z M515 98 Q673 98 766 249.5 Q859 401 859 615 Q859 773 783.5 844 Q708 915 598 915 Q429 915 341.5 758.5 Q254 602 254 404 Q254 245 330 171.5 Q406 98 515 98 Z " />
<glyph glyph-name="endash" unicode="&#x2013;" horiz-adv-x="1201" d="M996 452 L186 452 L205 568 L1015 568 L996 452 Z " />
<glyph glyph-name="emdash" unicode="&#x2014;" horiz-adv-x="1365" d="M1353 452 L-6 452 L13 568 L1372 568 L1353 452 Z " />
<glyph glyph-name="quotedblleft" unicode="&#x201c;" horiz-adv-x="765" d="M692 930 L497 930 L528 1117 L722 1365 L798 1365 L634 1117 L723 1117 L692 930 Z M413 930 L214 930 L245 1117 L443 1365 L520 1365 L357 1117 L445 1117 L413 930 Z " />
<glyph glyph-name="quotedblright" unicode="&#x201d;" horiz-adv-x="765" d="M287 1365 L484 1365 L453 1178 L257 930 L181 930 L346 1178 L256 1178 L287 1365 Z M566 1365 L765 1365 L734 1178 L536 930 L460 930 L622 1178 L534 1178 L566 1365 Z " />
<glyph glyph-name="quoteleft" unicode="&#x2018;" horiz-adv-x="512" d="M423 911 L225 911 L257 1103 L459 1365 L538 1365 L367 1103 L455 1103 L423 911 Z " />
<glyph glyph-name="quoteright" unicode="&#x2019;" horiz-adv-x="512" d="M300 1365 L498 1365 L466 1173 L264 911 L185 911 L356 1173 L268 1173 L300 1365 Z " />
<glyph glyph-name="divide" unicode="&#xf7;" horiz-adv-x="1201" d="M725 992 Q725 952 696.5 924 Q668 896 629 896 Q590 896 561.5 924 Q533 952 533 992 Q533 1032 561.5 1060 Q590 1088 629 1088 Q669 1088 697 1060 Q725 1032 725 992 Z M152 753 L1108 753 L1108 615 L152 615 L152 753 Z M725 388 Q725 348 696.5 320 Q668 292 629 292 Q589 292 561 320 Q533 348 533 388 Q533 428 561 456.5 Q589 485 629 485 Q669 485 697 456.5 Q725 428 725 388 Z " />
<glyph glyph-name="lozenge" unicode="&#x25ca;" horiz-adv-x="1012" d="M962 763 L565 0 L443 0 L46 763 L443 1526 L565 1526 L962 763 Z M839 763 L504 1415 L169 763 L504 111 L839 763 Z " />
<glyph glyph-name="ydieresis" unicode="&#xff;" horiz-adv-x="870" d="M941 1014 L385 -55 Q282 -254 192 -305 Q102 -356 2 -356 Q-40 -356 -98 -349 L-75 -213 Q-24 -223 11 -223 Q172 -223 259 -43 L294 28 L82 1014 L242 1014 L406 243 L805 1014 L941 1014 Z M791 1304 Q791 1261 759.5 1231 Q728 1201 685 1201 Q642 1201 610.5 1231 Q579 1261 579 1303 Q579 1346 610.5 1375.5 Q642 1405 684 1405 Q728 1405 759.5 1375.5 Q791 1346 791 1304 Z M469 1303 Q469 1261 437.5 1231 Q406 1201 364 1201 Q322 1201 291.5 1231 Q261 1261 261 1302 Q261 1345 291.5 1374.5 Q322 1404 361 1404 Q409 1404 439 1374 Q469 1344 469 1303 Z " />
<glyph glyph-name="Ydieresis" unicode="&#x178;" horiz-adv-x="1049" d="M532 0 L360 0 L455 572 L107 1365 L290 1365 L574 719 L1046 1365 L1214 1365 L627 572 L532 0 Z M960 1625 Q960 1582 928.5 1552 Q897 1522 854 1522 Q811 1522 779.5 1552 Q748 1582 748 1624 Q748 1667 779.5 1696.5 Q811 1726 853 1726 Q897 1726 928.5 1696.5 Q960 1667 960 1625 Z M638 1624 Q638 1582 606.5 1552 Q575 1522 533 1522 Q491 1522 460.5 1552 Q430 1582 430 1623 Q430 1666 460.5 1695.5 Q491 1725 530 1725 Q578 1725 608 1695 Q638 1665 638 1624 Z " />
<glyph glyph-name="fraction" unicode="&#x2215;" horiz-adv-x="218" d="M-331 0 L-460 0 L606 1365 L734 1365 L-331 0 Z " />
<glyph glyph-name="Euro" unicode="&#x20ac;" horiz-adv-x="1200" d="M1278 1010 L1110 987 Q1075 1257 854 1257 Q734 1257 623.5 1169 Q513 1081 446 879 L848 879 L831 762 L416 762 Q400 672 395 614 L811 614 L795 498 L391 498 Q398 290 488.5 199.5 Q579 109 686 109 Q919 109 1036 401 L1190 373 Q1103 168 976.5 70.5 Q850 -27 662 -27 Q469 -27 350 110 Q231 247 217 498 L76 498 L92 614 L219 614 Q227 696 240 762 L113 762 L129 879 L270 879 Q356 1148 525.5 1270.5 Q695 1393 874 1393 Q1236 1393 1278 1010 Z " />
<glyph glyph-name="guilsinglleft" unicode="&#x2039;" horiz-adv-x="433" d="M289 216 L215 216 L80 496 L284 785 L381 785 L231 496 L289 216 Z " />
<glyph glyph-name="guilsinglright" unicode="&#x203a;" horiz-adv-x="433" d="M143 785 L217 785 L352 505 L147 216 L51 216 L200 505 L143 785 Z " />
<glyph glyph-name="fi" unicode="&#xfb01;" horiz-adv-x="994" d="M262 0 L104 0 L253 892 L63 892 L84 1014 L273 1014 Q319 1235 402.5 1317.5 Q486 1400 646 1400 Q704 1400 751 1391 L720 1270 Q684 1274 655 1274 Q574 1274 518 1231.5 Q462 1189 432 1014 L678 1014 L657 892 L411 892 L262 0 Z M978 1185 L774 1185 L804 1365 L1008 1365 L978 1185 Z M752 0 L595 0 L765 1014 L922 1014 L752 0 Z " />
<glyph glyph-name="fl" unicode="&#xfb02;" horiz-adv-x="994" d="M262 0 L104 0 L253 892 L63 892 L84 1014 L273 1014 Q318 1236 405 1317.5 Q492 1399 661 1399 Q708 1399 751 1391 L720 1268 Q687 1274 652 1274 Q559 1274 510 1227 Q461 1180 432 1014 L678 1014 L657 892 L411 892 L262 0 Z M752 0 L595 0 L824 1365 L981 1365 L752 0 Z " />
<glyph glyph-name="daggerdbl" unicode="&#x2021;" horiz-adv-x="1201" d="M672 1365 L818 1365 L751 967 L1131 967 L1109 831 L729 831 L624 206 L1004 206 L981 71 L601 71 L532 -341 L386 -341 L455 71 L75 71 L98 206 L478 206 L582 831 L202 831 L225 967 L605 967 L672 1365 Z " />
<glyph glyph-name="middot" unicode="&#x2219;" horiz-adv-x="264" d="M225 391 L0 391 L38 620 L264 620 L225 391 Z " />
<glyph glyph-name="quotesinglbase" unicode="&#x201a;" horiz-adv-x="512" d="M104 193 L302 193 L270 0 L68 -262 L-11 -262 L160 0 L72 0 L104 193 Z " />
<glyph glyph-name="quotedblbase" unicode="&#x201e;" horiz-adv-x="765" d="M90 187 L287 187 L256 0 L60 -249 L-16 -249 L149 0 L59 0 L90 187 Z M369 187 L568 187 L537 0 L339 -249 L263 -249 L425 0 L337 0 L369 187 Z " />
<glyph glyph-name="perthousand" unicode="&#x2030;" horiz-adv-x="2319" d="M438 679 Q316 679 236 769.5 Q156 860 156 994 Q156 1149 252 1271 Q348 1393 500 1393 Q636 1393 711.5 1295.5 Q787 1198 787 1077 Q787 925 687.5 802 Q588 679 438 679 Z M451 780 Q547 780 604.5 874 Q662 968 662 1112 Q662 1189 616.5 1241 Q571 1293 496 1293 Q387 1293 334.5 1188.5 Q282 1084 282 976 Q282 894 327.5 837 Q373 780 451 780 Z M352 0 L222 0 L1288 1365 L1416 1365 L352 0 Z M1151 -23 Q1011 -23 932 71 Q853 165 853 300 Q853 444 953.5 568.5 Q1054 693 1195 693 Q1326 693 1406 600 Q1486 507 1486 374 Q1486 218 1389 97.5 Q1292 -23 1151 -23 Z M1145 76 Q1240 76 1299.5 163.5 Q1359 251 1359 407 Q1359 507 1306.5 550.5 Q1254 594 1193 594 Q1097 594 1039 500.5 Q981 407 981 281 Q981 180 1027.5 128 Q1074 76 1145 76 Z M1887 -23 Q1749 -23 1669 71 Q1589 165 1589 300 Q1589 444 1689.5 568.5 Q1790 693 1931 693 Q2059 693 2140 601 Q2221 509 2221 374 Q2221 218 2124.5 97.5 Q2028 -23 1887 -23 Z M1881 76 Q1976 76 2035.5 163.5 Q2095 251 2095 407 Q2095 507 2042.5 550.5 Q1990 594 1929 594 Q1833 594 1775 501 Q1717 408 1717 281 Q1717 179 1764 127.5 Q1811 76 1881 76 Z " />
<glyph glyph-name="Acircumflex" unicode="&#xc2;" horiz-adv-x="1155" d="M792 400 L294 400 L98 0 L-57 0 L612 1365 L801 1365 L1039 0 L863 0 L792 400 Z M772 537 L667 1164 L359 537 L772 537 Z M1035 1515 L890 1495 L731 1632 L529 1495 L385 1515 L756 1775 L1035 1515 Z " />
<glyph glyph-name="Ecircumflex" unicode="&#xca;" horiz-adv-x="1144" d="M86 0 L314 1365 L1165 1365 L1142 1229 L458 1229 L383 781 L969 781 L946 646 L361 646 L277 145 L1015 145 L991 0 L86 0 Z M1087 1515 L942 1495 L783 1632 L581 1495 L437 1515 L808 1775 L1087 1515 Z " />
<glyph glyph-name="Aacute" unicode="&#xc1;" horiz-adv-x="1155" d="M792 400 L294 400 L98 0 L-57 0 L612 1365 L801 1365 L1039 0 L863 0 L792 400 Z M772 537 L667 1164 L359 537 L772 537 Z M1029 1677 L628 1488 L585 1569 L967 1797 L1029 1677 Z " />
<glyph glyph-name="Edieresis" unicode="&#xcb;" horiz-adv-x="1144" d="M86 0 L314 1365 L1165 1365 L1142 1229 L458 1229 L383 781 L969 781 L946 646 L361 646 L277 145 L1015 145 L991 0 L86 0 Z M1034 1625 Q1034 1582 1002.5 1552 Q971 1522 928 1522 Q885 1522 853.5 1552 Q822 1582 822 1624 Q822 1667 853.5 1696.5 Q885 1726 927 1726 Q971 1726 1002.5 1696.5 Q1034 1667 1034 1625 Z M712 1624 Q712 1582 680.5 1552 Q649 1522 607 1522 Q565 1522 534.5 1552 Q504 1582 504 1623 Q504 1666 534.5 1695.5 Q565 1725 604 1725 Q652 1725 682 1695 Q712 1665 712 1624 Z " />
<glyph glyph-name="Egrave" unicode="&#xc8;" horiz-adv-x="1144" d="M86 0 L314 1365 L1165 1365 L1142 1229 L458 1229 L383 781 L969 781 L946 646 L361 646 L277 145 L1015 145 L991 0 L86 0 Z M503 1677 L565 1797 L933 1569 L890 1488 L503 1677 Z " />
<glyph glyph-name="Iacute" unicode="&#xcd;" horiz-adv-x="508" d="M481 1365 L253 0 L86 0 L314 1365 L481 1365 Z M723 1677 L322 1488 L279 1569 L661 1797 L723 1677 Z " />
<glyph glyph-name="Icircumflex" unicode="&#xce;" horiz-adv-x="508" d="M481 1365 L253 0 L86 0 L314 1365 L481 1365 Z M747 1515 L602 1495 L443 1632 L241 1495 L97 1515 L468 1775 L747 1515 Z " />
<glyph glyph-name="Idieresis" unicode="&#xcf;" horiz-adv-x="508" d="M481 1365 L253 0 L86 0 L314 1365 L481 1365 Z M722 1625 Q722 1582 690.5 1552 Q659 1522 616 1522 Q573 1522 541.5 1552 Q510 1582 510 1624 Q510 1667 541.5 1696.5 Q573 1726 615 1726 Q659 1726 690.5 1696.5 Q722 1667 722 1625 Z M400 1624 Q400 1582 368.5 1552 Q337 1522 295 1522 Q253 1522 222.5 1552 Q192 1582 192 1623 Q192 1666 222.5 1695.5 Q253 1725 292 1725 Q340 1725 370 1695 Q400 1665 400 1624 Z " />
<glyph glyph-name="Igrave" unicode="&#xcc;" horiz-adv-x="508" d="M481 1365 L253 0 L86 0 L314 1365 L481 1365 Z M126 1677 L188 1797 L556 1569 L513 1488 L126 1677 Z " />
<glyph glyph-name="Oacute" unicode="&#xd3;" horiz-adv-x="1315" d="M629 -27 Q394 -27 253 141.5 Q112 310 112 585 Q112 895 286 1144 Q460 1393 748 1393 Q976 1393 1120 1235 Q1264 1077 1264 801 Q1264 474 1093 223.5 Q922 -27 629 -27 Z M629 110 Q785 110 894.5 228.5 Q1004 347 1047 528.5 Q1090 710 1090 836 Q1090 1033 992 1144 Q894 1255 742 1255 Q524 1255 405.5 1036.5 Q287 818 287 550 Q287 338 383 224 Q479 110 629 110 Z M1132 1677 L731 1488 L688 1569 L1070 1797 L1132 1677 Z " />
<glyph glyph-name="Ocircumflex" unicode="&#xd4;" horiz-adv-x="1315" d="M629 -27 Q394 -27 253 141.5 Q112 310 112 585 Q112 895 286 1144 Q460 1393 748 1393 Q976 1393 1120 1235 Q1264 1077 1264 801 Q1264 474 1093 223.5 Q922 -27 629 -27 Z M629 110 Q785 110 894.5 228.5 Q1004 347 1047 528.5 Q1090 710 1090 836 Q1090 1033 992 1144 Q894 1255 742 1255 Q524 1255 405.5 1036.5 Q287 818 287 550 Q287 338 383 224 Q479 110 629 110 Z M1146 1515 L1001 1495 L842 1632 L640 1495 L496 1515 L867 1775 L1146 1515 Z " />
<glyph glyph-name="Ograve" unicode="&#xd2;" horiz-adv-x="1315" d="M629 -27 Q394 -27 253 141.5 Q112 310 112 585 Q112 895 286 1144 Q460 1393 748 1393 Q976 1393 1120 1235 Q1264 1077 1264 801 Q1264 474 1093 223.5 Q922 -27 629 -27 Z M629 110 Q785 110 894.5 228.5 Q1004 347 1047 528.5 Q1090 710 1090 836 Q1090 1033 992 1144 Q894 1255 742 1255 Q524 1255 405.5 1036.5 Q287 818 287 550 Q287 338 383 224 Q479 110 629 110 Z M558 1677 L620 1797 L988 1569 L945 1488 L558 1677 Z " />
<glyph glyph-name="Uacute" unicode="&#xda;" horiz-adv-x="1259" d="M1254 1365 L1115 533 Q1077 307 1021.5 201 Q966 95 855 32.5 Q744 -30 587 -30 Q398 -30 267.5 62 Q137 154 137 355 Q137 415 169 610 L296 1365 L463 1365 L329 574 Q301 409 301 363 Q301 241 384 174.5 Q467 108 591 108 Q705 108 786 153 Q867 198 907 275 Q947 352 974 518 L1116 1365 L1254 1365 Z M1119 1677 L718 1488 L675 1569 L1057 1797 L1119 1677 Z " />
<glyph glyph-name="Ucircumflex" unicode="&#xdb;" horiz-adv-x="1259" d="M1254 1365 L1115 533 Q1077 307 1021.5 201 Q966 95 855 32.5 Q744 -30 587 -30 Q398 -30 267.5 62 Q137 154 137 355 Q137 415 169 610 L296 1365 L463 1365 L329 574 Q301 409 301 363 Q301 241 384 174.5 Q467 108 591 108 Q705 108 786 153 Q867 198 907 275 Q947 352 974 518 L1116 1365 L1254 1365 Z M1134 1515 L989 1495 L830 1632 L628 1495 L484 1515 L855 1775 L1134 1515 Z " />
<glyph glyph-name="Ugrave" unicode="&#xd9;" horiz-adv-x="1259" d="M1254 1365 L1115 533 Q1077 307 1021.5 201 Q966 95 855 32.5 Q744 -30 587 -30 Q398 -30 267.5 62 Q137 154 137 355 Q137 415 169 610 L296 1365 L463 1365 L329 574 Q301 409 301 363 Q301 241 384 174.5 Q467 108 591 108 Q705 108 786 153 Q867 198 907 275 Q947 352 974 518 L1116 1365 L1254 1365 Z M531 1677 L593 1797 L961 1569 L918 1488 L531 1677 Z " />
<glyph glyph-name="dotlessi" unicode="&#x131;" horiz-adv-x="470" d="M229 0 L73 0 L243 1014 L398 1014 L229 0 Z " />
<glyph glyph-name="circumflex" unicode="&#x2c6;" horiz-adv-x="1024" d="M952 1194 L807 1174 L648 1311 L446 1174 L302 1194 L673 1454 L952 1194 Z " />
<glyph glyph-name="tilde" unicode="&#x2dc;" horiz-adv-x="1024" d="M906 1380 L982 1308 Q886 1208 782 1208 Q734 1208 654 1242 Q568 1280 522 1280 Q441 1280 388 1214 L305 1272 Q392 1400 526 1400 Q573 1400 653 1366 Q741 1329 785 1329 Q852 1329 906 1380 Z " />
<glyph glyph-name="overscore" unicode="&#x2c9;" horiz-adv-x="1024" d="M944 1236 L330 1236 L348 1345 L963 1345 L944 1236 Z " />
<glyph glyph-name="breve" unicode="&#x2d8;" horiz-adv-x="1024" d="M377 1438 L487 1438 Q492 1295 642 1295 Q715 1295 764 1322 Q813 1349 852 1438 L966 1438 Q890 1183 637 1183 Q500 1183 439 1246.5 Q378 1310 377 1438 Z " />
<glyph glyph-name="dotaccent" unicode="&#x2d9;" horiz-adv-x="1024" d="M755 1307 Q755 1263 722.5 1232 Q690 1201 646 1201 Q601 1201 569 1232 Q537 1263 537 1307 Q537 1350 569 1380.5 Q601 1411 645 1411 Q691 1411 723 1380.5 Q755 1350 755 1307 Z " />
<glyph glyph-name="ring" unicode="&#x2da;" horiz-adv-x="1024" d="M820 1326 Q820 1255 769.5 1204.5 Q719 1154 648 1154 Q577 1154 525 1205 Q473 1256 473 1327 Q473 1397 524.5 1449 Q576 1501 652 1501 Q719 1501 769.5 1449.5 Q820 1398 820 1326 Z M737 1326 Q737 1364 711.5 1391 Q686 1418 652 1418 Q609 1418 582.5 1391 Q556 1364 556 1328 Q556 1290 583 1263 Q610 1236 648 1236 Q685 1236 711 1262.5 Q737 1289 737 1326 Z " />
<glyph glyph-name="cedilla" unicode="&#xb8;" horiz-adv-x="1024" d="M406 0 L480 0 L439 -98 Q462 -97 476 -97 Q531 -97 579 -129 Q627 -161 627 -221 Q627 -289 569 -334 Q511 -379 411 -379 Q313 -379 237 -333 L268 -267 Q341 -304 406 -304 Q520 -304 520 -227 Q520 -160 401 -160 Q373 -160 334 -165 L406 0 Z " />
<glyph glyph-name="hungarumlaut" unicode="&#x2dd;" horiz-adv-x="1024" d="M826 1373 L507 1167 L456 1245 L759 1476 L826 1373 Z M1140 1373 L821 1167 L770 1245 L1073 1476 L1140 1373 Z " />
<glyph glyph-name="ogonek" unicode="&#x2db;" horiz-adv-x="1024" d="M794 0 Q646 -77 646 -160 Q646 -241 749 -241 Q791 -241 836 -228 L847 -294 Q778 -326 697 -326 Q522 -326 522 -197 Q522 -69 697 0 L794 0 Z " />
<glyph glyph-name="caron" unicode="&#x2c7;" horiz-adv-x="1024" d="M335 1420 L480 1440 L638 1304 L841 1440 L985 1420 L614 1161 L335 1420 Z " />
<glyph glyph-name="Lslash" unicode="&#x141;" horiz-adv-x="1042" d="M930 0 L86 0 L179 558 L33 458 L59 615 L206 715 L315 1365 L481 1365 L385 791 L666 985 L640 828 L359 633 L277 145 L954 145 L930 0 Z " />
<glyph glyph-name="lslash" unicode="&#x142;" horiz-adv-x="497" d="M469 1365 L384 853 L523 950 L499 806 L360 710 L241 0 L85 0 L190 625 L50 523 L74 667 L214 768 L314 1365 L469 1365 Z " />
<glyph glyph-name="Scaron" unicode="&#x160;" horiz-adv-x="1171" d="M1114 1080 L970 1025 Q932 1138 838 1205.5 Q744 1273 622 1273 Q473 1273 399.5 1202 Q326 1131 326 1034 Q326 970 358.5 924.5 Q391 879 443.5 856.5 Q496 834 636 799 Q820 752 897 714.5 Q974 677 1029 595 Q1084 513 1084 399 Q1084 206 942.5 88.5 Q801 -29 566 -29 Q125 -29 8 351 L157 405 Q250 109 566 109 Q736 109 825.5 191 Q915 273 915 381 Q915 447 882.5 496.5 Q850 546 799 569.5 Q748 593 633 621 Q457 663 361.5 707 Q266 751 211.5 830.5 Q157 910 157 1017 Q157 1181 280.5 1291.5 Q404 1402 608 1402 Q983 1402 1114 1080 Z M378 1741 L523 1761 L681 1625 L884 1761 L1028 1741 L657 1482 L378 1741 Z " />
<glyph glyph-name="scaron" unicode="&#x161;" horiz-adv-x="945" d="M857 796 L727 741 Q660 911 461 911 Q370 911 315 864.5 Q260 818 260 754 Q260 689 302.5 658.5 Q345 628 469 600 L532 585 Q638 561 696 532.5 Q754 504 794 441.5 Q834 379 834 299 Q834 164 727.5 69 Q621 -26 437 -26 Q305 -26 189.5 25 Q74 76 -9 250 L136 299 Q208 99 442 99 Q554 99 615.5 149 Q677 199 677 274 Q677 333 640.5 367.5 Q604 402 478 432 L425 445 Q308 473 245.5 502.5 Q183 532 141 592 Q99 652 99 729 Q99 855 196.5 944.5 Q294 1034 463 1034 Q768 1034 857 796 Z M239 1420 L384 1440 L542 1304 L745 1440 L889 1420 L518 1161 L239 1420 Z " />
<glyph glyph-name="Zcaron" unicode="&#x17d;" horiz-adv-x="1076" d="M1121 1365 L1102 1252 L197 145 L967 145 L943 0 L-37 0 L-13 145 L874 1227 L190 1227 L213 1365 L1121 1365 Z M392 1741 L537 1761 L695 1625 L898 1761 L1042 1741 L671 1482 L392 1741 Z " />
<glyph glyph-name="zcaron" unicode="&#x17e;" horiz-adv-x="859" d="M733 0 L-37 0 L-19 107 L649 886 L130 886 L152 1014 L880 1014 L862 911 L187 127 L754 127 L733 0 Z M259 1420 L404 1440 L562 1304 L765 1440 L909 1420 L538 1161 L259 1420 Z " />
<glyph glyph-name="brokenbar" unicode="&#xa6;" horiz-adv-x="1024" d="M467 1365 L620 1365 L620 683 L467 683 L467 1365 Z M467 314 L620 314 L620 -341 L467 -341 L467 314 Z " />
<glyph glyph-name="Eth" unicode="&#xd0;" horiz-adv-x="1328" d="M304 1365 L683 1365 Q876 1365 985.5 1307 Q1095 1249 1180 1112 Q1265 975 1265 766 Q1265 505 1160 325 Q1055 145 927.5 72.5 Q800 0 590 0 L85 0 L191 658 L54 658 L74 781 L211 781 L304 1365 Z M377 781 L704 781 L683 658 L357 658 L274 139 L549 137 Q693 137 776 167 Q859 197 929 267.5 Q999 338 1048.5 473 Q1098 608 1098 768 Q1098 976 1002 1106.5 Q906 1237 662 1237 L450 1235 L377 781 Z " />
<glyph glyph-name="eth" unicode="&#xf0;" horiz-adv-x="1046" d="M446 1174 L587 1248 Q533 1296 439 1338 L496 1428 Q622 1387 714 1312 L885 1396 L936 1309 L788 1236 Q990 997 990 642 Q990 340 846.5 155.5 Q703 -29 475 -29 Q281 -29 175 107.5 Q69 244 69 431 Q69 649 210.5 829 Q352 1009 560 1009 Q688 1009 778 924 Q741 1057 663 1173 L498 1088 L446 1174 Z M566 888 Q411 888 323.5 738 Q236 588 236 404 Q236 251 302.5 174.5 Q369 98 484 98 Q649 98 733 258.5 Q817 419 817 603 Q817 735 746.5 811.5 Q676 888 566 888 Z " />
<glyph glyph-name="Yacute" unicode="&#xdd;" horiz-adv-x="1049" d="M532 0 L360 0 L455 572 L107 1365 L290 1365 L574 719 L1046 1365 L1214 1365 L627 572 L532 0 Z M1005 1677 L604 1488 L561 1569 L943 1797 L1005 1677 Z " />
<glyph glyph-name="yacute" unicode="&#xfd;" horiz-adv-x="870" d="M941 1014 L385 -55 Q282 -254 192 -305 Q102 -356 2 -356 Q-40 -356 -98 -349 L-75 -213 Q-24 -223 11 -223 Q172 -223 259 -43 L294 28 L82 1014 L242 1014 L406 243 L805 1014 L941 1014 Z M849 1356 L448 1167 L405 1248 L787 1476 L849 1356 Z " />
<glyph glyph-name="Thorn" unicode="&#xde;" horiz-adv-x="1154" d="M312 354 L253 0 L86 0 L314 1365 L481 1365 L448 1167 L656 1167 Q822 1167 916.5 1137 Q1011 1107 1076 1007 Q1141 907 1141 790 Q1141 633 1027 493.5 Q913 354 587 354 L312 354 Z M335 490 L522 490 Q696 490 774 508 Q852 526 909.5 602.5 Q967 679 967 786 Q967 868 931.5 928 Q896 988 841.5 1010.5 Q787 1033 652 1033 L425 1031 L335 490 Z " />
<glyph glyph-name="thorn" unicode="&#xfe;" horiz-adv-x="1098" d="M170 -354 L13 -354 L301 1365 L458 1365 L368 830 Q514 1032 695 1032 Q835 1032 930.5 918 Q1026 804 1026 600 Q1026 361 893 167 Q760 -27 556 -27 Q361 -27 254 148 L170 -354 Z M532 100 Q698 100 777 267 Q856 434 856 627 Q856 765 792.5 834.5 Q729 904 640 904 Q512 904 405 743.5 Q298 583 298 381 Q298 244 366 172 Q434 100 532 100 Z " />
<glyph glyph-name="minus" unicode="&#x2212;" horiz-adv-x="1201" d="M152 753 L1108 753 L1108 615 L152 615 L152 753 Z " />
<glyph glyph-name="multiply" unicode="&#xd7;" horiz-adv-x="1201" d="M939 277 L631 586 L322 277 L224 375 L533 684 L224 993 L322 1091 L631 782 L939 1091 L1037 993 L729 684 L1037 375 L939 277 Z " />
<glyph glyph-name="onesuperior" unicode="&#xb9;" horiz-adv-x="792" d="M734 546 L169 546 L184 638 L404 638 L503 1228 Q410 1147 255 1143 L271 1237 Q482 1263 560 1384 L642 1384 L517 638 L750 638 L734 546 Z " />
<glyph glyph-name="twosuperior" unicode="&#xb2;" horiz-adv-x="792" d="M711 546 L97 546 L115 656 Q509 892 591 977.5 Q673 1063 673 1136 Q673 1206 620 1251 Q567 1296 491 1296 Q437 1296 380.5 1263.5 Q324 1231 277 1108 L180 1142 Q267 1391 496 1391 Q620 1391 706.5 1316 Q793 1241 793 1133 Q793 1018 690.5 922.5 Q588 827 258 646 L728 646 L711 546 Z " />
<glyph glyph-name="threesuperior" unicode="&#xb3;" horiz-adv-x="792" d="M105 738 L202 774 Q269 619 429 619 Q513 619 569 665 Q625 711 625 780 Q625 835 590 873 Q555 911 508 919 Q461 927 334 927 L350 1021 Q401 1020 435 1020 Q663 1020 663 1161 Q663 1221 614.5 1259 Q566 1297 498 1297 Q369 1297 304 1166 L214 1213 Q312 1385 503 1385 Q626 1385 702.5 1319.5 Q779 1254 779 1163 Q779 1021 607 970 Q667 950 705 895.5 Q743 841 743 777 Q743 676 656 601 Q569 526 429 526 Q320 526 230 581.5 Q140 637 105 738 Z " />
<glyph glyph-name="onehalf" unicode="&#xbd;" horiz-adv-x="1802" d="M695 546 L130 546 L145 638 L365 638 L464 1228 Q371 1147 216 1143 L232 1237 Q443 1263 521 1384 L603 1384 L478 638 L711 638 L695 546 Z M468 0 L339 0 L1391 1365 L1521 1365 L468 0 Z M1669 0 L1054 0 L1073 110 Q1461 341 1545.5 428 Q1630 515 1630 589 Q1630 660 1577.5 705 Q1525 750 1449 750 Q1394 750 1337.5 717 Q1281 684 1235 561 L1138 596 Q1225 844 1454 844 Q1581 844 1666 768.5 Q1751 693 1751 586 Q1751 462 1632 362 Q1513 262 1215 100 L1685 100 L1669 0 Z " />
<glyph glyph-name="onequarter" unicode="&#xbc;" horiz-adv-x="1802" d="M695 546 L130 546 L145 638 L365 638 L464 1228 Q371 1147 216 1143 L232 1237 Q443 1263 521 1384 L603 1384 L478 638 L711 638 L695 546 Z M468 0 L339 0 L1391 1365 L1521 1365 L468 0 Z M1553 0 L1439 0 L1472 195 L1067 195 L1081 285 L1560 842 L1694 842 L1601 288 L1740 288 L1725 195 L1585 195 L1553 0 Z M1488 288 L1559 713 L1193 288 L1488 288 Z " />
<glyph glyph-name="threequarters" unicode="&#xbe;" horiz-adv-x="1802" d="M66 738 L163 774 Q230 619 390 619 Q474 619 530 665 Q586 711 586 780 Q586 835 551 873 Q516 911 469 919 Q422 927 295 927 L311 1021 Q362 1020 396 1020 Q624 1020 624 1161 Q624 1221 575.5 1259 Q527 1297 459 1297 Q330 1297 265 1166 L175 1213 Q273 1385 464 1385 Q587 1385 663.5 1319.5 Q740 1254 740 1163 Q740 1021 568 970 Q628 950 666 895.5 Q704 841 704 777 Q704 676 617 601 Q530 526 390 526 Q281 526 191 581.5 Q101 637 66 738 Z M510 0 L381 0 L1432 1365 L1563 1365 L510 0 Z M1554 0 L1440 0 L1473 195 L1067 195 L1082 285 L1561 842 L1695 842 L1602 288 L1741 288 L1726 195 L1586 195 L1554 0 Z M1488 288 L1560 713 L1194 288 L1488 288 Z " />
<glyph glyph-name="franc" unicode="&#x20a3;" horiz-adv-x="1039" d="M320 406 L637 406 L617 283 L300 283 L252 0 L86 0 L133 283 L-7 283 L13 406 L153 406 L314 1365 L1148 1365 L1125 1227 L457 1227 L382 777 L958 777 L936 642 L360 642 L320 406 Z " />
<glyph glyph-name="Gbreve" unicode="&#x11e;" horiz-adv-x="1333" d="M702 683 L1220 683 L1103 -16 L1011 -16 L990 150 Q872 -34 626 -34 Q400 -34 256 137 Q112 308 112 581 Q112 900 287 1149.5 Q462 1399 750 1399 Q1121 1399 1253 1013 L1105 961 Q1012 1267 749 1267 Q534 1267 410 1054.5 Q286 842 286 564 Q286 341 388 220.5 Q490 100 644 100 Q793 100 898 211 Q1003 322 1036 549 L680 549 L702 683 Z M544 1759 L654 1759 Q659 1616 809 1616 Q882 1616 931 1643 Q980 1670 1019 1759 L1133 1759 Q1057 1504 804 1504 Q667 1504 606 1567.5 Q545 1631 544 1759 Z " />
<glyph glyph-name="gbreve" unicode="&#x11f;" horiz-adv-x="1031" d="M1058 1043 Q1001 1046 976 1046 Q837 1046 802 917 Q935 814 935 667 Q935 515 824.5 406.5 Q714 298 535 298 Q435 298 339 340 Q209 283 209 205 Q209 164 248 151 Q287 138 427 136 Q639 133 728 117.5 Q817 102 874.5 40.5 Q932 -21 932 -113 Q932 -258 815.5 -341 Q699 -424 454 -424 Q-50 -424 -50 -182 Q-50 -30 137 38 Q58 82 58 168 Q58 311 267 393 Q154 477 154 628 Q154 780 267 883 Q380 986 559 986 Q628 986 721 959 Q764 1095 832 1139 Q900 1183 996 1183 Q1033 1183 1080 1174 L1058 1043 Z M528 411 Q639 411 708 478 Q777 545 777 658 Q777 753 713.5 811 Q650 869 552 869 Q446 869 378.5 801 Q311 733 311 628 Q311 533 368.5 472 Q426 411 528 411 Z M234 -6 Q103 -45 103 -146 Q103 -230 211 -269 Q319 -308 482 -308 Q782 -308 782 -144 Q782 -97 740.5 -62.5 Q699 -28 507 -26 Q336 -24 234 -6 Z M377 1438 L487 1438 Q492 1295 642 1295 Q715 1295 764 1322 Q813 1349 852 1438 L966 1438 Q890 1183 637 1183 Q500 1183 439 1246.5 Q378 1310 377 1438 Z " />
<glyph glyph-name="Idotaccent" unicode="&#x130;" horiz-adv-x="508" d="M481 1365 L253 0 L86 0 L314 1365 L481 1365 Z M543 1628 Q543 1584 510.5 1553 Q478 1522 434 1522 Q389 1522 357 1553 Q325 1584 325 1628 Q325 1671 357 1701.5 Q389 1732 433 1732 Q479 1732 511 1701.5 Q543 1671 543 1628 Z " />
<glyph glyph-name="Scedilla" unicode="&#x15e;" horiz-adv-x="1171" d="M547 -29 L515 -107 Q539 -105 554 -105 Q614 -105 666 -140 Q718 -175 718 -239 Q718 -314 655 -362.5 Q592 -411 483 -411 Q378 -411 295 -361 L329 -289 Q408 -329 478 -329 Q602 -329 602 -246 Q602 -174 474 -174 Q444 -174 400 -179 L468 -23 Q109 24 8 351 L157 405 Q250 109 566 109 Q736 109 825.5 191 Q915 273 915 381 Q915 447 882.5 496.5 Q850 546 799 569.5 Q748 593 633 621 Q457 663 361.5 707 Q266 751 211.5 830.5 Q157 910 157 1017 Q157 1181 280.5 1291.5 Q404 1402 608 1402 Q983 1402 1114 1080 L970 1025 Q932 1138 838 1205.5 Q744 1273 622 1273 Q477 1273 401.5 1204 Q326 1135 326 1034 Q326 970 358.5 924.5 Q391 879 443.5 856.5 Q496 834 636 799 Q820 752 897 714.5 Q974 677 1029 595 Q1084 513 1084 399 Q1084 207 943 88 Q802 -31 547 -29 Z " />
<glyph glyph-name="scedilla" unicode="&#x15f;" horiz-adv-x="945" d="M421 -26 L391 -98 Q413 -97 428 -97 Q483 -97 531 -129 Q579 -161 579 -221 Q579 -289 521 -334 Q463 -379 363 -379 Q265 -379 189 -333 L220 -267 Q293 -304 358 -304 Q472 -304 472 -227 Q472 -160 353 -160 Q325 -160 285 -165 L349 -20 Q80 15 -9 250 L136 299 Q208 99 442 99 Q554 99 615.5 149 Q677 199 677 274 Q677 333 640.5 367.5 Q604 402 478 432 L425 445 Q308 473 245.5 502.5 Q183 532 141 592 Q99 652 99 729 Q99 855 196.5 944.5 Q294 1034 463 1034 Q768 1034 857 796 L727 741 Q660 911 461 911 Q370 911 315 864.5 Q260 818 260 754 Q260 689 302.5 658.5 Q345 628 469 600 L532 585 Q638 561 696 532.5 Q754 504 794 441.5 Q834 379 834 299 Q834 160 724.5 66 Q615 -28 421 -26 Z " />
<glyph glyph-name="Cacute" unicode="&#x106;" horiz-adv-x="1179" d="M1207 945 L1058 908 Q1035 1107 946 1184.5 Q857 1262 739 1262 Q602 1262 503.5 1168 Q405 1074 345 888 Q285 702 285 540 Q285 336 374.5 225.5 Q464 115 611 115 Q844 115 979 436 L1118 384 Q965 -23 607 -23 Q368 -23 238.5 145 Q109 313 109 573 Q109 884 283.5 1141.5 Q458 1399 734 1399 Q912 1399 1045 1291 Q1178 1183 1207 945 Z M1097 1677 L696 1488 L653 1569 L1035 1797 L1097 1677 Z " />
<glyph glyph-name="cacute" unicode="&#x107;" horiz-adv-x="971" d="M940 690 L787 657 Q772 779 707.5 844 Q643 909 556 909 Q397 909 318.5 748 Q240 587 240 399 Q240 254 305.5 179.5 Q371 105 471 105 Q652 105 751 349 L879 301 Q829 146 715 56.5 Q601 -33 455 -33 Q268 -33 170.5 114.5 Q73 262 73 441 Q73 668 207.5 857 Q342 1046 560 1046 Q712 1046 819 946.5 Q926 847 940 690 Z M924 1356 L523 1167 L480 1248 L862 1476 L924 1356 Z " />
<glyph glyph-name="Ccaron" unicode="&#x10c;" horiz-adv-x="1179" d="M1207 945 L1058 908 Q1035 1107 946 1184.5 Q857 1262 739 1262 Q602 1262 503.5 1168 Q405 1074 345 888 Q285 702 285 540 Q285 336 374.5 225.5 Q464 115 611 115 Q844 115 979 436 L1118 384 Q965 -23 607 -23 Q368 -23 238.5 145 Q109 313 109 573 Q109 884 283.5 1141.5 Q458 1399 734 1399 Q912 1399 1045 1291 Q1178 1183 1207 945 Z M501 1741 L646 1761 L804 1625 L1007 1761 L1151 1741 L780 1482 L501 1741 Z " />
<glyph glyph-name="ccaron" unicode="&#x10d;" horiz-adv-x="971" d="M940 690 L787 657 Q772 779 707.5 844 Q643 909 556 909 Q397 909 318.5 748 Q240 587 240 399 Q240 254 305.5 179.5 Q371 105 471 105 Q652 105 751 349 L879 301 Q829 146 715 56.5 Q601 -33 455 -33 Q268 -33 170.5 114.5 Q73 262 73 441 Q73 668 207.5 857 Q342 1046 560 1046 Q712 1046 819 946.5 Q926 847 940 690 Z M328 1420 L473 1440 L631 1304 L834 1440 L978 1420 L607 1161 L328 1420 Z " />
<glyph glyph-name="dcroat" unicode="&#x111;" horiz-adv-x="1101" d="M1050 1136 L860 0 L717 0 L756 200 Q619 -27 407 -27 Q245 -27 158 94 Q71 215 71 400 Q71 631 203.5 834.5 Q336 1038 554 1038 Q762 1038 848 848 L897 1136 L617 1136 L635 1245 L915 1245 L935 1365 L1088 1365 L1068 1245 L1198 1245 L1179 1136 L1050 1136 Z M449 97 Q600 97 702.5 261 Q805 425 805 638 Q805 767 731.5 841 Q658 915 562 915 Q410 915 322.5 745.5 Q235 576 235 377 Q235 242 294 169.5 Q353 97 449 97 Z " />
<glyph glyph-name="uni00AD" unicode="&#xad;" horiz-adv-x="512" d="M475 452 L20 452 L39 568 L494 568 L475 452 Z " />
<glyph glyph-name="uni00AF" unicode="&#xaf;" horiz-adv-x="1024" d="M31 1768 L1055 1768 L1055 1631 L31 1631 L31 1768 Z " />
<glyph glyph-name="uni00B7" unicode="&#xb7;" horiz-adv-x="264" d="M225 391 L0 391 L38 620 L264 620 L225 391 Z " />
<glyph glyph-name="Amacron" unicode="&#x100;" horiz-adv-x="1155" d="M792 400 L294 400 L98 0 L-57 0 L612 1365 L801 1365 L1039 0 L863 0 L792 400 Z M772 537 L667 1164 L359 537 L772 537 Z M1021 1550 L407 1550 L425 1659 L1040 1659 L1021 1550 Z " />
<glyph glyph-name="amacron" unicode="&#x101;" horiz-adv-x="1096" d="M877 0 L718 0 Q717 31 717 51 Q717 129 735 198 Q582 -29 355 -29 Q213 -29 122.5 58 Q32 145 32 276 Q32 423 162 527 Q292 631 647 631 Q679 631 800 625 Q811 690 811 731 Q811 923 578 923 Q373 923 285 752 L137 815 Q257 1045 568 1045 Q740 1045 856 969.5 Q972 894 972 756 Q972 700 895 230 Q874 103 874 43 Q874 34 877 0 Z M781 509 Q709 515 643 515 Q205 515 205 269 Q205 193 252.5 147 Q300 101 385 101 Q519 101 634.5 216 Q750 331 781 509 Z M964 1236 L350 1236 L368 1345 L983 1345 L964 1236 Z " />
<glyph glyph-name="Abreve" unicode="&#x102;" horiz-adv-x="1155" d="M792 400 L294 400 L98 0 L-57 0 L612 1365 L801 1365 L1039 0 L863 0 L792 400 Z M772 537 L667 1164 L359 537 L772 537 Z M456 1759 L566 1759 Q571 1616 721 1616 Q794 1616 843 1643 Q892 1670 931 1759 L1045 1759 Q969 1504 716 1504 Q579 1504 518 1567.5 Q457 1631 456 1759 Z " />
<glyph glyph-name="abreve" unicode="&#x103;" horiz-adv-x="1096" d="M877 0 L718 0 Q717 31 717 51 Q717 129 735 198 Q582 -29 355 -29 Q213 -29 122.5 58 Q32 145 32 276 Q32 423 162 527 Q292 631 647 631 Q679 631 800 625 Q811 690 811 731 Q811 923 578 923 Q373 923 285 752 L137 815 Q257 1045 568 1045 Q740 1045 856 969.5 Q972 894 972 756 Q972 700 895 230 Q874 103 874 43 Q874 34 877 0 Z M781 509 Q709 515 643 515 Q205 515 205 269 Q205 193 252.5 147 Q300 101 385 101 Q519 101 634.5 216 Q750 331 781 509 Z M397 1438 L507 1438 Q512 1295 662 1295 Q735 1295 784 1322 Q833 1349 872 1438 L986 1438 Q910 1183 657 1183 Q520 1183 459 1246.5 Q398 1310 397 1438 Z " />
<glyph glyph-name="Aogonek" unicode="&#x104;" horiz-adv-x="1155" d="M1039 0 Q887 -82 887 -169 Q887 -254 992 -254 Q1037 -254 1081 -240 L1092 -309 Q1023 -343 938 -343 Q761 -343 761 -207 Q761 -72 939 0 L863 0 L792 400 L294 400 L98 0 L-57 0 L612 1365 L801 1365 L1039 0 Z M772 537 L667 1164 L359 537 L772 537 Z " />
<glyph glyph-name="aogonek" unicode="&#x105;" horiz-adv-x="1096" d="M718 0 Q717 31 717 51 Q717 129 735 198 Q582 -29 355 -29 Q213 -29 122.5 58 Q32 145 32 276 Q32 423 162 527 Q292 631 647 631 Q679 631 800 625 Q811 690 811 731 Q811 923 578 923 Q373 923 285 752 L137 815 Q257 1045 568 1045 Q756 1045 864 964 Q972 883 972 756 Q972 701 895 230 Q874 103 874 42 Q874 33 877 0 Q728 -77 728 -161 Q728 -241 831 -241 Q874 -241 918 -228 L929 -294 Q861 -326 778 -326 Q604 -326 604 -197 Q604 -69 779 0 L718 0 Z M781 509 Q709 515 643 515 Q205 515 205 269 Q205 193 252.5 147 Q300 101 385 101 Q519 101 634.5 216 Q750 331 781 509 Z " />
<glyph glyph-name="Ccircumflex" unicode="&#x108;" horiz-adv-x="1179" d="M1207 945 L1058 908 Q1035 1107 946 1184.5 Q857 1262 739 1262 Q602 1262 503.5 1168 Q405 1074 345 888 Q285 702 285 540 Q285 336 374.5 225.5 Q464 115 611 115 Q844 115 979 436 L1118 384 Q965 -23 607 -23 Q368 -23 238.5 145 Q109 313 109 573 Q109 884 283.5 1141.5 Q458 1399 734 1399 Q912 1399 1045 1291 Q1178 1183 1207 945 Z M1118 1515 L973 1495 L814 1632 L612 1495 L468 1515 L839 1775 L1118 1515 Z " />
<glyph glyph-name="ccircumflex" unicode="&#x109;" horiz-adv-x="971" d="M940 690 L787 657 Q772 779 707.5 844 Q643 909 556 909 Q397 909 318.5 748 Q240 587 240 399 Q240 254 305.5 179.5 Q371 105 471 105 Q652 105 751 349 L879 301 Q829 146 715 56.5 Q601 -33 455 -33 Q268 -33 170.5 114.5 Q73 262 73 441 Q73 668 207.5 857 Q342 1046 560 1046 Q712 1046 819 946.5 Q926 847 940 690 Z M906 1194 L761 1174 L602 1311 L400 1174 L256 1194 L627 1454 L906 1194 Z " />
<glyph glyph-name="Cdotaccent" unicode="&#x10a;" horiz-adv-x="1179" d="M1207 945 L1058 908 Q1035 1107 946 1184.5 Q857 1262 739 1262 Q602 1262 503.5 1168 Q405 1074 345 888 Q285 702 285 540 Q285 336 374.5 225.5 Q464 115 611 115 Q844 115 979 436 L1118 384 Q965 -23 607 -23 Q368 -23 238.5 145 Q109 313 109 573 Q109 884 283.5 1141.5 Q458 1399 734 1399 Q912 1399 1045 1291 Q1178 1183 1207 945 Z M923 1628 Q923 1584 890.5 1553 Q858 1522 814 1522 Q769 1522 737 1553 Q705 1584 705 1628 Q705 1671 737 1701.5 Q769 1732 813 1732 Q859 1732 891 1701.5 Q923 1671 923 1628 Z " />
<glyph glyph-name="cdotaccent" unicode="&#x10b;" horiz-adv-x="971" d="M940 690 L787 657 Q772 779 707.5 844 Q643 909 556 909 Q397 909 318.5 748 Q240 587 240 399 Q240 254 305.5 179.5 Q371 105 471 105 Q652 105 751 349 L879 301 Q829 146 715 56.5 Q601 -33 455 -33 Q268 -33 170.5 114.5 Q73 262 73 441 Q73 668 207.5 857 Q342 1046 560 1046 Q712 1046 819 946.5 Q926 847 940 690 Z M748 1307 Q748 1263 715.5 1232 Q683 1201 639 1201 Q594 1201 562 1232 Q530 1263 530 1307 Q530 1350 562 1380.5 Q594 1411 638 1411 Q684 1411 716 1380.5 Q748 1350 748 1307 Z " />
<glyph glyph-name="Dcaron" unicode="&#x10e;" horiz-adv-x="1328" d="M86 0 L314 1365 L693 1365 Q895 1365 1008.5 1299.5 Q1122 1234 1196.5 1098 Q1271 962 1271 766 Q1271 504 1162 322.5 Q1053 141 925.5 70.5 Q798 0 590 0 L86 0 Z M276 139 L550 137 Q695 137 780 168 Q865 199 935.5 271 Q1006 343 1055 479.5 Q1104 616 1104 779 Q1104 926 1054.5 1033.5 Q1005 1141 914 1189 Q823 1237 672 1237 L459 1235 L276 139 Z M453 1741 L598 1761 L756 1625 L959 1761 L1103 1741 L732 1482 L453 1741 Z " />
<glyph glyph-name="dcaron" unicode="&#x10f;" horiz-adv-x="1260" d="M860 0 L717 0 L756 200 Q619 -27 407 -27 Q245 -27 158 94 Q71 215 71 400 Q71 631 203.5 834.5 Q336 1038 554 1038 Q762 1038 848 848 L935 1365 L1088 1365 L860 0 Z M449 97 Q600 97 702.5 261 Q805 425 805 638 Q805 767 731.5 841 Q658 915 562 915 Q410 915 322.5 745.5 Q235 576 235 377 Q235 242 294 169.5 Q353 97 449 97 Z M1252 1365 L1411 1365 L1204 1010 L1140 1010 L1252 1365 Z " />
<glyph glyph-name="Dcroat" unicode="&#x110;" horiz-adv-x="1328" d="M304 1365 L683 1365 Q876 1365 985.5 1307 Q1095 1249 1180 1112 Q1265 975 1265 766 Q1265 505 1160 325 Q1055 145 927.5 72.5 Q800 0 590 0 L85 0 L191 658 L54 658 L74 781 L211 781 L304 1365 Z M377 781 L704 781 L683 658 L357 658 L274 139 L549 137 Q693 137 776 167 Q859 197 929 267.5 Q999 338 1048.5 473 Q1098 608 1098 768 Q1098 976 1002 1106.5 Q906 1237 662 1237 L450 1235 L377 781 Z " />
<glyph glyph-name="Emacron" unicode="&#x112;" horiz-adv-x="1144" d="M86 0 L314 1365 L1165 1365 L1142 1229 L458 1229 L383 781 L969 781 L946 646 L361 646 L277 145 L1015 145 L991 0 L86 0 Z M1064 1550 L450 1550 L468 1659 L1083 1659 L1064 1550 Z " />
<glyph glyph-name="emacron" unicode="&#x113;" horiz-adv-x="1065" d="M938 237 Q782 -29 500 -29 Q309 -29 188.5 96 Q68 221 68 434 Q68 696 218 871 Q368 1046 590 1046 Q699 1046 793.5 999 Q888 952 940.5 852 Q993 752 993 609 Q993 558 984 493 L237 493 Q231 445 231 414 Q231 275 304 188.5 Q377 102 502 102 Q588 102 657.5 140.5 Q727 179 807 299 L938 237 Z M257 608 L833 608 Q835 640 835 656 Q835 779 765 852.5 Q695 926 583 926 Q456 926 367.5 831.5 Q279 737 257 608 Z M962 1236 L348 1236 L366 1345 L981 1345 L962 1236 Z " />
<glyph glyph-name="Ebreve" unicode="&#x114;" horiz-adv-x="1144" d="M86 0 L314 1365 L1165 1365 L1142 1229 L458 1229 L383 781 L969 781 L946 646 L361 646 L277 145 L1015 145 L991 0 L86 0 Z M493 1759 L603 1759 Q608 1616 758 1616 Q831 1616 880 1643 Q929 1670 968 1759 L1082 1759 Q1006 1504 753 1504 Q616 1504 555 1567.5 Q494 1631 493 1759 Z " />
<glyph glyph-name="ebreve" unicode="&#x115;" horiz-adv-x="1065" d="M938 237 Q782 -29 500 -29 Q309 -29 188.5 96 Q68 221 68 434 Q68 696 218 871 Q368 1046 590 1046 Q699 1046 793.5 999 Q888 952 940.5 852 Q993 752 993 609 Q993 558 984 493 L237 493 Q231 445 231 414 Q231 275 304 188.5 Q377 102 502 102 Q588 102 657.5 140.5 Q727 179 807 299 L938 237 Z M257 608 L833 608 Q835 640 835 656 Q835 779 765 852.5 Q695 926 583 926 Q456 926 367.5 831.5 Q279 737 257 608 Z M384 1438 L494 1438 Q499 1295 649 1295 Q722 1295 771 1322 Q820 1349 859 1438 L973 1438 Q897 1183 644 1183 Q507 1183 446 1246.5 Q385 1310 384 1438 Z " />
<glyph glyph-name="Edotaccent" unicode="&#x116;" horiz-adv-x="1144" d="M86 0 L314 1365 L1165 1365 L1142 1229 L458 1229 L383 781 L969 781 L946 646 L361 646 L277 145 L1015 145 L991 0 L86 0 Z M873 1628 Q873 1584 840.5 1553 Q808 1522 764 1522 Q719 1522 687 1553 Q655 1584 655 1628 Q655 1671 687 1701.5 Q719 1732 763 1732 Q809 1732 841 1701.5 Q873 1671 873 1628 Z " />
<glyph glyph-name="edotaccent" unicode="&#x117;" horiz-adv-x="1065" d="M938 237 Q782 -29 500 -29 Q309 -29 188.5 96 Q68 221 68 434 Q68 696 218 871 Q368 1046 590 1046 Q699 1046 793.5 999 Q888 952 940.5 852 Q993 752 993 609 Q993 558 984 493 L237 493 Q231 445 231 414 Q231 275 304 188.5 Q377 102 502 102 Q588 102 657.5 140.5 Q727 179 807 299 L938 237 Z M257 608 L833 608 Q835 640 835 656 Q835 779 765 852.5 Q695 926 583 926 Q456 926 367.5 831.5 Q279 737 257 608 Z M769 1307 Q769 1263 736.5 1232 Q704 1201 660 1201 Q615 1201 583 1232 Q551 1263 551 1307 Q551 1350 583 1380.5 Q615 1411 659 1411 Q705 1411 737 1380.5 Q769 1350 769 1307 Z " />
<glyph glyph-name="Eogonek" unicode="&#x118;" horiz-adv-x="1144" d="M991 0 Q839 -82 839 -169 Q839 -254 945 -254 Q989 -254 1033 -240 L1045 -309 Q975 -343 890 -343 Q713 -343 713 -207 Q713 -72 892 0 L86 0 L314 1365 L1165 1365 L1142 1229 L458 1229 L383 781 L969 781 L946 646 L361 646 L277 145 L1015 145 L991 0 Z " />
<glyph glyph-name="eogonek" unicode="&#x119;" horiz-adv-x="1065" d="M790 -221 L801 -287 Q733 -319 650 -319 Q476 -319 476 -190 Q476 -89 589 -22 Q540 -29 498 -29 Q315 -29 191.5 93 Q68 215 68 434 Q68 696 218 871 Q368 1046 590 1046 Q770 1046 881.5 934.5 Q993 823 993 609 Q993 558 984 493 L237 493 Q231 445 231 414 Q231 275 304 188.5 Q377 102 502 102 Q588 102 657.5 140.5 Q727 179 807 299 L938 237 Q891 161 858 125.5 Q825 90 723 11 Q654 -42 627 -77.5 Q600 -113 600 -154 Q600 -234 703 -234 Q745 -234 790 -221 Z M257 608 L833 608 Q835 640 835 656 Q835 779 765 852.5 Q695 926 583 926 Q456 926 367.5 831.5 Q279 737 257 608 Z " />
<glyph glyph-name="Ecaron" unicode="&#x11a;" horiz-adv-x="1144" d="M86 0 L314 1365 L1165 1365 L1142 1229 L458 1229 L383 781 L969 781 L946 646 L361 646 L277 145 L1015 145 L991 0 L86 0 Z M460 1741 L605 1761 L763 1625 L966 1761 L1110 1741 L739 1482 L460 1741 Z " />
<glyph glyph-name="ecaron" unicode="&#x11b;" horiz-adv-x="1065" d="M938 237 Q782 -29 500 -29 Q309 -29 188.5 96 Q68 221 68 434 Q68 696 218 871 Q368 1046 590 1046 Q699 1046 793.5 999 Q888 952 940.5 852 Q993 752 993 609 Q993 558 984 493 L237 493 Q231 445 231 414 Q231 275 304 188.5 Q377 102 502 102 Q588 102 657.5 140.5 Q727 179 807 299 L938 237 Z M257 608 L833 608 Q835 640 835 656 Q835 779 765 852.5 Q695 926 583 926 Q456 926 367.5 831.5 Q279 737 257 608 Z M348 1420 L493 1440 L651 1304 L854 1440 L998 1420 L627 1161 L348 1420 Z " />
<glyph glyph-name="Gcircumflex" unicode="&#x11c;" horiz-adv-x="1333" d="M702 683 L1220 683 L1103 -16 L1011 -16 L990 150 Q872 -34 626 -34 Q400 -34 256 137 Q112 308 112 581 Q112 900 287 1149.5 Q462 1399 750 1399 Q1121 1399 1253 1013 L1105 961 Q1012 1267 749 1267 Q534 1267 410 1054.5 Q286 842 286 564 Q286 341 388 220.5 Q490 100 644 100 Q793 100 898 211 Q1003 322 1036 549 L680 549 L702 683 Z M1128 1515 L983 1495 L824 1632 L622 1495 L478 1515 L849 1775 L1128 1515 Z " />
<glyph glyph-name="gcircumflex" unicode="&#x11d;" horiz-adv-x="1031" d="M1058 1043 Q1001 1046 976 1046 Q837 1046 802 917 Q935 814 935 667 Q935 515 824.5 406.5 Q714 298 535 298 Q435 298 339 340 Q209 283 209 205 Q209 164 248 151 Q287 138 427 136 Q639 133 728 117.5 Q817 102 874.5 40.5 Q932 -21 932 -113 Q932 -258 815.5 -341 Q699 -424 454 -424 Q-50 -424 -50 -182 Q-50 -30 137 38 Q58 82 58 168 Q58 311 267 393 Q154 477 154 628 Q154 780 267 883 Q380 986 559 986 Q628 986 721 959 Q764 1095 832 1139 Q900 1183 996 1183 Q1033 1183 1080 1174 L1058 1043 Z M528 411 Q639 411 708 478 Q777 545 777 658 Q777 753 713.5 811 Q650 869 552 869 Q446 869 378.5 801 Q311 733 311 628 Q311 533 368.5 472 Q426 411 528 411 Z M234 -6 Q103 -45 103 -146 Q103 -230 211 -269 Q319 -308 482 -308 Q782 -308 782 -144 Q782 -97 740.5 -62.5 Q699 -28 507 -26 Q336 -24 234 -6 Z M1028 1194 L883 1174 L724 1311 L522 1174 L378 1194 L749 1454 L1028 1194 Z " />
<glyph glyph-name="Gdotaccent" unicode="&#x120;" horiz-adv-x="1333" d="M702 683 L1220 683 L1103 -16 L1011 -16 L990 150 Q872 -34 626 -34 Q400 -34 256 137 Q112 308 112 581 Q112 900 287 1149.5 Q462 1399 750 1399 Q1121 1399 1253 1013 L1105 961 Q1012 1267 749 1267 Q534 1267 410 1054.5 Q286 842 286 564 Q286 341 388 220.5 Q490 100 644 100 Q793 100 898 211 Q1003 322 1036 549 L680 549 L702 683 Z M926 1628 Q926 1584 893.5 1553 Q861 1522 817 1522 Q772 1522 740 1553 Q708 1584 708 1628 Q708 1671 740 1701.5 Q772 1732 816 1732 Q862 1732 894 1701.5 Q926 1671 926 1628 Z " />
<glyph glyph-name="gdotaccent" unicode="&#x121;" horiz-adv-x="1031" d="M1058 1043 Q1001 1046 976 1046 Q837 1046 802 917 Q935 814 935 667 Q935 515 824.5 406.5 Q714 298 535 298 Q435 298 339 340 Q209 283 209 205 Q209 164 248 151 Q287 138 427 136 Q639 133 728 117.5 Q817 102 874.5 40.5 Q932 -21 932 -113 Q932 -258 815.5 -341 Q699 -424 454 -424 Q-50 -424 -50 -182 Q-50 -30 137 38 Q58 82 58 168 Q58 311 267 393 Q154 477 154 628 Q154 780 267 883 Q380 986 559 986 Q628 986 721 959 Q764 1095 832 1139 Q900 1183 996 1183 Q1033 1183 1080 1174 L1058 1043 Z M528 411 Q639 411 708 478 Q777 545 777 658 Q777 753 713.5 811 Q650 869 552 869 Q446 869 378.5 801 Q311 733 311 628 Q311 533 368.5 472 Q426 411 528 411 Z M234 -6 Q103 -45 103 -146 Q103 -230 211 -269 Q319 -308 482 -308 Q782 -308 782 -144 Q782 -97 740.5 -62.5 Q699 -28 507 -26 Q336 -24 234 -6 Z M679 1307 Q679 1263 646.5 1232 Q614 1201 570 1201 Q525 1201 493 1232 Q461 1263 461 1307 Q461 1350 493 1380.5 Q525 1411 569 1411 Q615 1411 647 1380.5 Q679 1350 679 1307 Z " />
<glyph glyph-name="Gcommaaccent" unicode="&#x122;" horiz-adv-x="1333" d="M702 683 L1220 683 L1103 -16 L1011 -16 L990 150 Q872 -34 626 -34 Q400 -34 256 137 Q112 308 112 581 Q112 900 287 1149.5 Q462 1399 750 1399 Q1121 1399 1253 1013 L1105 961 Q1012 1267 749 1267 Q534 1267 410 1054.5 Q286 842 286 564 Q286 341 388 220.5 Q490 100 644 100 Q793 100 898 211 Q1003 322 1036 549 L680 549 L702 683 Z M529 -115 L688 -115 L481 -470 L417 -470 L529 -115 Z " />
<glyph glyph-name="gcommaaccent" unicode="&#x123;" horiz-adv-x="1031" d="M1058 1078 Q1001 1081 976 1081 Q837 1081 802 952 Q935 849 935 702 Q935 550 824.5 441.5 Q714 333 535 333 Q435 333 339 375 Q209 318 209 240 Q209 199 248 186 Q287 173 427 171 Q639 168 728 152.5 Q817 137 874.5 75.5 Q932 14 932 -78 Q932 -223 815.5 -306 Q699 -389 454 -389 Q-50 -389 -50 -147 Q-50 5 137 73 Q58 117 58 203 Q58 346 267 428 Q154 512 154 663 Q154 815 267 918 Q380 1021 559 1021 Q628 1021 721 994 Q764 1130 832 1174 Q900 1218 996 1218 Q1033 1218 1080 1209 L1058 1078 Z M528 446 Q639 446 708 513 Q777 580 777 693 Q777 788 713.5 846 Q650 904 552 904 Q446 904 378.5 836 Q311 768 311 663 Q311 568 368.5 507 Q426 446 528 446 Z M234 29 Q103 -10 103 -111 Q103 -195 211 -234 Q319 -273 482 -273 Q782 -273 782 -109 Q782 -62 740.5 -27.5 Q699 7 507 9 Q336 11 234 29 Z M674 1200 L515 1200 L722 1555 L786 1555 L674 1200 Z " />
<glyph glyph-name="Hcircumflex" unicode="&#x124;" horiz-adv-x="1343" d="M1030 646 L361 646 L253 0 L86 0 L314 1365 L481 1365 L385 791 L1054 791 L1150 1365 L1317 1365 L1088 0 L922 0 L1030 646 Z M1167 1515 L1022 1495 L863 1632 L661 1495 L517 1515 L888 1775 L1167 1515 Z " />
<glyph glyph-name="hcircumflex" unicode="&#x125;" horiz-adv-x="1115" d="M456 1365 L366 825 Q503 1042 704 1042 Q827 1042 910 967 Q993 892 993 762 Q993 713 978 623 L873 0 L719 0 L823 623 Q835 693 835 747 Q835 829 787 874 Q739 919 666 919 Q551 919 445 793 Q339 667 297 416 L228 0 L72 0 L300 1365 L456 1365 Z M729 1515 L584 1495 L425 1632 L223 1495 L79 1515 L450 1775 L729 1515 Z " />
<glyph glyph-name="Hbar" unicode="&#x126;" horiz-adv-x="1344" d="M129 1034 L150 1157 L280 1157 L314 1365 L481 1365 L446 1157 L1115 1157 L1150 1365 L1317 1365 L1282 1157 L1412 1157 L1391 1034 L1261 1034 L1088 0 L922 0 L1030 646 L361 646 L253 0 L86 0 L259 1034 L129 1034 Z M426 1034 L385 791 L1054 791 L1095 1034 L426 1034 Z " />
<glyph glyph-name="hbar" unicode="&#x127;" horiz-adv-x="1115" d="M716 1245 L698 1136 L418 1136 L366 825 Q503 1042 704 1042 Q832 1042 912.5 964.5 Q993 887 993 762 Q993 713 978 623 L873 0 L719 0 L823 623 Q835 693 835 747 Q835 829 787 874 Q739 919 666 919 Q551 919 445 793 Q339 667 297 416 L228 0 L72 0 L262 1136 L132 1136 L151 1245 L280 1245 L300 1365 L456 1365 L436 1245 L716 1245 Z " />
<glyph glyph-name="Itilde" unicode="&#x128;" horiz-adv-x="508" d="M481 1365 L253 0 L86 0 L314 1365 L481 1365 Z M689 1701 L765 1629 Q669 1529 565 1529 Q517 1529 437 1563 Q351 1601 305 1601 Q224 1601 171 1535 L88 1593 Q175 1721 309 1721 Q356 1721 436 1687 Q524 1650 568 1650 Q635 1650 689 1701 Z " />
<glyph glyph-name="itilde" unicode="&#x129;" horiz-adv-x="470" d="M229 0 L73 0 L243 1014 L398 1014 L229 0 Z M629 1380 L705 1308 Q609 1208 505 1208 Q457 1208 377 1242 Q291 1280 245 1280 Q164 1280 111 1214 L28 1272 Q115 1400 249 1400 Q296 1400 376 1366 Q464 1329 508 1329 Q575 1329 629 1380 Z " />
<glyph glyph-name="Imacron" unicode="&#x12a;" horiz-adv-x="508" d="M481 1365 L253 0 L86 0 L314 1365 L481 1365 Z M730 1550 L116 1550 L134 1659 L749 1659 L730 1550 Z " />
<glyph glyph-name="imacron" unicode="&#x12b;" horiz-adv-x="470" d="M230 0 L74 0 L244 1014 L399 1014 L230 0 Z M660 1236 L46 1236 L64 1345 L679 1345 L660 1236 Z " />
<glyph glyph-name="Ibreve" unicode="&#x12c;" horiz-adv-x="508" d="M481 1365 L253 0 L86 0 L314 1365 L481 1365 Z M166 1759 L276 1759 Q281 1616 431 1616 Q504 1616 553 1643 Q602 1670 641 1759 L755 1759 Q679 1504 426 1504 Q289 1504 228 1567.5 Q167 1631 166 1759 Z " />
<glyph glyph-name="ibreve" unicode="&#x12d;" horiz-adv-x="470" d="M229 0 L73 0 L243 1014 L398 1014 L229 0 Z M98 1437 L208 1437 Q213 1294 363 1294 Q436 1294 485 1321 Q534 1348 573 1437 L687 1437 Q611 1182 358 1182 Q221 1182 160 1245.5 Q99 1309 98 1437 Z " />
<glyph glyph-name="Iogonek" unicode="&#x12e;" horiz-adv-x="508" d="M257 0 Q132 -76 132 -169 Q132 -254 219 -254 Q248 -254 298 -240 L310 -309 Q238 -344 169 -344 Q6 -344 6 -208 Q6 -71 164 0 L90 0 L318 1365 L485 1365 L257 0 Z " />
<glyph glyph-name="iogonek" unicode="&#x12f;" horiz-adv-x="470" d="M457 1180 L253 1180 L284 1365 L488 1365 L457 1180 Z M76 0 L246 1014 L403 1014 L233 0 Q119 -70 119 -162 Q119 -241 197 -241 Q228 -241 274 -228 L286 -294 Q214 -327 147 -327 Q-4 -327 -4 -198 Q-4 -69 142 0 L76 0 Z " />
<glyph glyph-name="IJ" unicode="&#x132;" horiz-adv-x="1256" d="M481 1365 L253 0 L86 0 L314 1365 L481 1365 Z M1243 1365 L1102 522 Q1065 304 1022 208 Q979 112 875.5 45.5 Q772 -21 621 -21 Q521 -21 416 0 L440 140 Q510 124 593 124 Q700 124 768 162.5 Q836 201 866 264.5 Q896 328 921 480 L1069 1365 L1243 1365 Z " />
<glyph glyph-name="ij" unicode="&#x133;" horiz-adv-x="932" d="M453 1180 L250 1180 L281 1365 L484 1365 L453 1180 Z M915 1180 L712 1180 L743 1365 L946 1365 L915 1180 Z M230 0 L73 0 L243 1014 L400 1014 L230 0 Z M860 1014 L701 65 Q674 -96 646 -171 Q618 -246 540 -298.5 Q462 -351 354 -351 Q299 -351 216 -339 L236 -218 Q306 -225 343 -225 Q414 -225 454.5 -194.5 Q495 -164 508.5 -120.5 Q522 -77 546 65 L705 1014 L860 1014 Z " />
<glyph glyph-name="Jcircumflex" unicode="&#x134;" horiz-adv-x="755" d="M741 1365 L600 522 Q564 304 521 208 Q478 112 374.5 45.5 Q271 -21 120 -21 Q20 -21 -85 0 L-61 140 Q8 124 91 124 Q198 124 266.5 162.5 Q335 201 364.5 264.5 Q394 328 420 480 L568 1365 L741 1365 Z M990 1515 L845 1495 L686 1632 L484 1495 L340 1515 L711 1775 L990 1515 Z " />
<glyph glyph-name="jcircumflex" unicode="&#x135;" horiz-adv-x="469" d="M651 1194 L507 1174 L348 1311 L146 1174 L2 1194 L373 1454 L651 1194 Z M397 1014 L238 65 Q211 -97 183 -171.5 Q155 -246 77 -298.5 Q-1 -351 -109 -351 Q-165 -351 -247 -339 L-227 -218 Q-158 -225 -120 -225 Q-49 -225 -8.5 -194 Q32 -163 45 -121 Q58 -79 83 65 L242 1014 L397 1014 Z " />
<glyph glyph-name="Kcommaaccent" unicode="&#x136;" horiz-adv-x="1275" d="M1291 1365 L830 889 L1154 0 L979 0 L703 770 L315 372 L253 0 L86 0 L314 1365 L481 1365 L351 587 L1101 1365 L1291 1365 Z M515 -115 L674 -115 L467 -470 L403 -470 L515 -115 Z " />
<glyph glyph-name="kcommaaccent" unicode="&#x137;" horiz-adv-x="1003" d="M228 0 L72 0 L300 1365 L456 1365 L312 504 L852 1013 L1035 1013 L646 652 L898 0 L732 0 L519 547 L280 310 L228 0 Z M384 -109 L543 -109 L336 -464 L272 -464 L384 -109 Z " />
<glyph glyph-name="kgreenlandic" unicode="&#x138;" horiz-adv-x="1006" d="M229 0 L73 0 L243 1014 L398 1014 L313 504 L853 1013 L1036 1013 L647 652 L899 0 L733 0 L520 547 L281 310 L229 0 Z " />
<glyph glyph-name="Lacute" unicode="&#x139;" horiz-adv-x="1042" d="M930 0 L86 0 L314 1365 L481 1365 L277 145 L954 145 L930 0 Z M747 1677 L346 1488 L303 1569 L685 1797 L747 1677 Z " />
<glyph glyph-name="lacute" unicode="&#x13a;" horiz-adv-x="470" d="M456 1365 L228 0 L72 0 L300 1365 L456 1365 Z M698 1677 L297 1488 L254 1569 L636 1797 L698 1677 Z " />
<glyph glyph-name="Lcommaaccent" unicode="&#x13b;" horiz-adv-x="1042" d="M930 0 L86 0 L314 1365 L481 1365 L277 145 L954 145 L930 0 Z M453 -115 L612 -115 L405 -470 L341 -470 L453 -115 Z " />
<glyph glyph-name="lcommaaccent" unicode="&#x13c;" horiz-adv-x="470" d="M456 1365 L228 0 L72 0 L300 1365 L456 1365 Z M59 -109 L218 -109 L11 -464 L-53 -464 L59 -109 Z " />
<glyph glyph-name="Lcaron" unicode="&#x13d;" horiz-adv-x="1042" d="M930 0 L86 0 L314 1365 L481 1365 L277 145 L954 145 L930 0 Z M734 1353 L893 1353 L686 998 L622 998 L734 1353 Z " />
<glyph glyph-name="lcaron" unicode="&#x13e;" horiz-adv-x="628" d="M456 1365 L228 0 L72 0 L300 1365 L456 1365 Z M620 1365 L779 1365 L572 1010 L508 1010 L620 1365 Z " />
<glyph glyph-name="Ldot" unicode="&#x13f;" horiz-adv-x="1042" d="M930 0 L86 0 L314 1365 L481 1365 L277 145 L954 145 L930 0 Z M893 582 L668 582 L706 811 L932 811 L893 582 Z " />
<glyph glyph-name="ldot" unicode="&#x140;" horiz-adv-x="696" d="M456 1365 L228 0 L72 0 L300 1365 L456 1365 Z M708 582 L483 582 L521 811 L747 811 L708 582 Z " />
<glyph glyph-name="Nacute" unicode="&#x143;" horiz-adv-x="1341" d="M1085 0 L952 0 L417 1167 L221 0 L86 0 L314 1365 L501 1365 L998 277 L1180 1365 L1314 1365 L1085 0 Z M1152 1677 L751 1488 L708 1569 L1090 1797 L1152 1677 Z " />
<glyph glyph-name="nacute" unicode="&#x144;" horiz-adv-x="1122" d="M880 0 L731 0 L829 583 Q846 683 846 728 Q846 807 797 862.5 Q748 918 656 918 Q543 918 440.5 808 Q338 698 280 363 L217 0 L72 0 L242 1013 L377 1013 L339 787 Q470 1042 695 1042 Q828 1042 911.5 960.5 Q995 879 995 747 Q995 687 978 585 L880 0 Z M972 1356 L571 1167 L528 1248 L910 1476 L972 1356 Z " />
<glyph glyph-name="Ncommaaccent" unicode="&#x145;" horiz-adv-x="1341" d="M1085 0 L952 0 L417 1167 L221 0 L86 0 L314 1365 L501 1365 L998 277 L1180 1365 L1314 1365 L1085 0 Z M515 -115 L674 -115 L467 -470 L403 -470 L515 -115 Z " />
<glyph glyph-name="ncommaaccent" unicode="&#x146;" horiz-adv-x="1122" d="M880 0 L731 0 L829 583 Q846 683 846 728 Q846 807 797 862.5 Q748 918 656 918 Q543 918 440.5 808 Q338 698 280 363 L217 0 L72 0 L242 1013 L377 1013 L339 787 Q470 1042 695 1042 Q828 1042 911.5 960.5 Q995 879 995 747 Q995 687 978 585 L880 0 Z M391 -109 L550 -109 L343 -464 L279 -464 L391 -109 Z " />
<glyph glyph-name="Ncaron" unicode="&#x147;" horiz-adv-x="1341" d="M1085 0 L952 0 L417 1167 L221 0 L86 0 L314 1365 L501 1365 L998 277 L1180 1365 L1314 1365 L1085 0 Z M565 1741 L710 1761 L868 1625 L1071 1761 L1215 1741 L844 1482 L565 1741 Z " />
<glyph glyph-name="ncaron" unicode="&#x148;" horiz-adv-x="1122" d="M880 0 L731 0 L829 583 Q846 683 846 728 Q846 807 797 862.5 Q748 918 656 918 Q543 918 440.5 808 Q338 698 280 363 L217 0 L72 0 L242 1013 L377 1013 L339 787 Q470 1042 695 1042 Q828 1042 911.5 960.5 Q995 879 995 747 Q995 687 978 585 L880 0 Z M389 1420 L534 1440 L692 1304 L895 1440 L1039 1420 L668 1161 L389 1420 Z " />
<glyph glyph-name="napostrophe" unicode="&#x149;" horiz-adv-x="1402" d="M1160 0 L1011 0 L1109 583 Q1126 683 1126 728 Q1126 807 1077 862.5 Q1028 918 936 918 Q823 918 720.5 808 Q618 698 560 363 L497 0 L352 0 L522 1013 L657 1013 L619 787 Q750 1042 975 1042 Q1108 1042 1191.5 960.5 Q1275 879 1275 747 Q1275 687 1258 585 L1160 0 Z M259 1365 L457 1365 L425 1173 L223 911 L144 911 L315 1173 L227 1173 L259 1365 Z " />
<glyph glyph-name="Eng" unicode="&#x14a;" horiz-adv-x="1343" d="M86 0 L314 1365 L467 1365 L417 1061 Q600 1393 890 1393 Q993 1393 1080.5 1342 Q1168 1291 1206 1195.5 Q1244 1100 1244 1015 Q1244 933 1220 788 L1123 210 Q1093 27 1071.5 -53.5 Q1050 -134 999 -203.5 Q948 -273 869 -312 Q790 -351 695 -351 Q623 -351 513 -335 L535 -209 Q625 -218 677 -218 Q759 -218 809.5 -186.5 Q860 -155 889 -90 Q918 -25 951 173 L1055 799 Q1079 944 1079 1002 Q1079 1109 1019.5 1182.5 Q960 1256 845 1256 Q742 1256 642 1184 Q542 1112 468 966.5 Q394 821 337 489 L253 0 L86 0 Z " />
<glyph glyph-name="eng" unicode="&#x14b;" horiz-adv-x="1122" d="M72 0 L242 1013 L377 1013 L339 787 Q470 1042 695 1042 Q828 1042 911.5 959 Q995 876 995 747 Q995 687 978 585 L891 65 Q864 -95 836 -170.5 Q808 -246 730 -298.5 Q652 -351 544 -351 Q488 -351 406 -339 L426 -218 Q495 -225 532 -225 Q594 -225 632 -203 Q670 -181 685 -152.5 Q700 -124 720 -44 L726 -22 Q732 4 743 65 L829 583 Q846 683 846 728 Q846 807 797 862.5 Q748 918 656 918 Q543 918 440.5 808 Q338 698 280 363 L217 0 L72 0 Z " />
<glyph glyph-name="Omacron" unicode="&#x14c;" horiz-adv-x="1315" d="M629 -27 Q394 -27 253 141.5 Q112 310 112 585 Q112 895 286 1144 Q460 1393 748 1393 Q976 1393 1120 1235 Q1264 1077 1264 801 Q1264 474 1093 223.5 Q922 -27 629 -27 Z M629 110 Q785 110 894.5 228.5 Q1004 347 1047 528.5 Q1090 710 1090 836 Q1090 1033 992 1144 Q894 1255 742 1255 Q524 1255 405.5 1036.5 Q287 818 287 550 Q287 338 383 224 Q479 110 629 110 Z M1133 1550 L519 1550 L537 1659 L1152 1659 L1133 1550 Z " />
<glyph glyph-name="omacron" unicode="&#x14d;" horiz-adv-x="1066" d="M483 -30 Q294 -30 185 101.5 Q76 233 76 438 Q76 670 219 854 Q362 1038 586 1038 Q771 1038 881 911.5 Q991 785 991 567 Q991 341 850 155.5 Q709 -30 483 -30 Z M490 96 Q651 96 738 255 Q825 414 825 620 Q825 776 751.5 845.5 Q678 915 577 915 Q418 915 331 757 Q244 599 244 402 Q244 251 311 173.5 Q378 96 490 96 Z M969 1236 L355 1236 L373 1345 L988 1345 L969 1236 Z " />
<glyph glyph-name="Obreve" unicode="&#x14e;" horiz-adv-x="1315" d="M629 -27 Q394 -27 253 141.5 Q112 310 112 585 Q112 895 286 1144 Q460 1393 748 1393 Q976 1393 1120 1235 Q1264 1077 1264 801 Q1264 474 1093 223.5 Q922 -27 629 -27 Z M629 110 Q785 110 894.5 228.5 Q1004 347 1047 528.5 Q1090 710 1090 836 Q1090 1033 992 1144 Q894 1255 742 1255 Q524 1255 405.5 1036.5 Q287 818 287 550 Q287 338 383 224 Q479 110 629 110 Z M543 1759 L653 1759 Q658 1616 808 1616 Q881 1616 930 1643 Q979 1670 1018 1759 L1132 1759 Q1056 1504 803 1504 Q666 1504 605 1567.5 Q544 1631 543 1759 Z " />
<glyph glyph-name="obreve" unicode="&#x14f;" horiz-adv-x="1066" d="M483 -30 Q294 -30 185 101.5 Q76 233 76 438 Q76 670 219 854 Q362 1038 586 1038 Q771 1038 881 911.5 Q991 785 991 567 Q991 341 850 155.5 Q709 -30 483 -30 Z M490 96 Q651 96 738 255 Q825 414 825 620 Q825 776 751.5 845.5 Q678 915 577 915 Q418 915 331 757 Q244 599 244 402 Q244 251 311 173.5 Q378 96 490 96 Z M371 1438 L481 1438 Q486 1295 636 1295 Q709 1295 758 1322 Q807 1349 846 1438 L960 1438 Q884 1183 631 1183 Q494 1183 433 1246.5 Q372 1310 371 1438 Z " />
<glyph glyph-name="Ohungarumlaut" unicode="&#x150;" horiz-adv-x="1315" d="M629 -27 Q394 -27 253 141.5 Q112 310 112 585 Q112 895 286 1144 Q460 1393 748 1393 Q976 1393 1120 1235 Q1264 1077 1264 801 Q1264 474 1093 223.5 Q922 -27 629 -27 Z M629 110 Q785 110 894.5 228.5 Q1004 347 1047 528.5 Q1090 710 1090 836 Q1090 1033 992 1144 Q894 1255 742 1255 Q524 1255 405.5 1036.5 Q287 818 287 550 Q287 338 383 224 Q479 110 629 110 Z M939 1694 L620 1488 L569 1566 L872 1797 L939 1694 Z M1253 1694 L934 1488 L883 1566 L1186 1797 L1253 1694 Z " />
<glyph glyph-name="ohungarumlaut" unicode="&#x151;" horiz-adv-x="1066" d="M483 -30 Q294 -30 185 101.5 Q76 233 76 438 Q76 670 219 854 Q362 1038 586 1038 Q771 1038 881 911.5 Q991 785 991 567 Q991 341 850 155.5 Q709 -30 483 -30 Z M490 96 Q651 96 738 255 Q825 414 825 620 Q825 776 751.5 845.5 Q678 915 577 915 Q418 915 331 757 Q244 599 244 402 Q244 251 311 173.5 Q378 96 490 96 Z M778 1373 L459 1167 L408 1245 L711 1476 L778 1373 Z M1092 1373 L773 1167 L722 1245 L1025 1476 L1092 1373 Z " />
<glyph glyph-name="Racute" unicode="&#x154;" horiz-adv-x="1297" d="M755 598 L353 598 L253 0 L86 0 L314 1365 L741 1365 Q934 1365 1028.5 1324.5 Q1123 1284 1179 1198 Q1235 1112 1235 1002 Q1235 863 1147.5 757 Q1060 651 918 628 L1110 0 L933 0 L755 598 Z M375 735 L688 735 Q1065 735 1065 1006 Q1065 1232 771 1232 L459 1232 L375 735 Z M1050 1677 L649 1488 L606 1569 L988 1797 L1050 1677 Z " />
<glyph glyph-name="racute" unicode="&#x155;" horiz-adv-x="694" d="M228 0 L72 0 L242 1014 L397 1014 L349 749 Q430 904 518.5 973.5 Q607 1043 728 1043 Q743 1043 762 1042 L736 882 L698 883 Q605 883 546.5 848 Q488 813 440 749 Q392 685 351 590 Q310 495 266 227 L228 0 Z M822 1356 L421 1167 L378 1248 L760 1476 L822 1356 Z " />
<glyph glyph-name="Rcommaaccent" unicode="&#x156;" horiz-adv-x="1297" d="M755 598 L353 598 L253 0 L86 0 L314 1365 L741 1365 Q934 1365 1028.5 1324.5 Q1123 1284 1179 1198 Q1235 1112 1235 1002 Q1235 863 1147.5 757 Q1060 651 918 628 L1110 0 L933 0 L755 598 Z M375 735 L688 735 Q1065 735 1065 1006 Q1065 1232 771 1232 L459 1232 L375 735 Z M501 -115 L660 -115 L453 -470 L389 -470 L501 -115 Z " />
<glyph glyph-name="rcommaaccent" unicode="&#x157;" horiz-adv-x="694" d="M229 0 L73 0 L243 1014 L398 1014 L350 749 Q431 904 519.5 973.5 Q608 1043 729 1043 Q744 1043 763 1042 L737 882 L699 883 Q606 883 547.5 848 Q489 813 441 749 Q393 685 352 590 Q311 495 267 227 L229 0 Z M61 -109 L220 -109 L13 -464 L-51 -464 L61 -109 Z " />
<glyph glyph-name="Rcaron" unicode="&#x158;" horiz-adv-x="1297" d="M755 598 L353 598 L253 0 L86 0 L314 1365 L741 1365 Q934 1365 1028.5 1324.5 Q1123 1284 1179 1198 Q1235 1112 1235 1002 Q1235 863 1147.5 757 Q1060 651 918 628 L1110 0 L933 0 L755 598 Z M375 735 L688 735 Q1065 735 1065 1006 Q1065 1232 771 1232 L459 1232 L375 735 Z M453 1741 L598 1761 L756 1625 L959 1761 L1103 1741 L732 1482 L453 1741 Z " />
<glyph glyph-name="rcaron" unicode="&#x159;" horiz-adv-x="694" d="M228 0 L72 0 L242 1014 L397 1014 L349 749 Q430 904 518.5 973.5 Q607 1043 728 1043 Q743 1043 762 1042 L736 882 L698 883 Q605 883 546.5 848 Q488 813 440 749 Q392 685 351 590 Q310 495 266 227 L228 0 Z M223 1420 L368 1440 L526 1304 L729 1440 L873 1420 L502 1161 L223 1420 Z " />
<glyph glyph-name="Sacute" unicode="&#x15a;" horiz-adv-x="1171" d="M1114 1080 L970 1025 Q932 1138 838 1205.5 Q744 1273 622 1273 Q473 1273 399.5 1202 Q326 1131 326 1034 Q326 970 358.5 924.5 Q391 879 443.5 856.5 Q496 834 636 799 Q820 752 897 714.5 Q974 677 1029 595 Q1084 513 1084 399 Q1084 206 942.5 88.5 Q801 -29 566 -29 Q125 -29 8 351 L157 405 Q250 109 566 109 Q736 109 825.5 191 Q915 273 915 381 Q915 447 882.5 496.5 Q850 546 799 569.5 Q748 593 633 621 Q457 663 361.5 707 Q266 751 211.5 830.5 Q157 910 157 1017 Q157 1181 280.5 1291.5 Q404 1402 608 1402 Q983 1402 1114 1080 Z M982 1677 L581 1488 L538 1569 L920 1797 L982 1677 Z " />
<glyph glyph-name="sacute" unicode="&#x15b;" horiz-adv-x="945" d="M857 796 L727 741 Q660 911 461 911 Q370 911 315 864.5 Q260 818 260 754 Q260 689 302.5 658.5 Q345 628 469 600 L532 585 Q638 561 696 532.5 Q754 504 794 441.5 Q834 379 834 299 Q834 164 727.5 69 Q621 -26 437 -26 Q305 -26 189.5 25 Q74 76 -9 250 L136 299 Q208 99 442 99 Q554 99 615.5 149 Q677 199 677 274 Q677 333 640.5 367.5 Q604 402 478 432 L425 445 Q308 473 245.5 502.5 Q183 532 141 592 Q99 652 99 729 Q99 855 196.5 944.5 Q294 1034 463 1034 Q768 1034 857 796 Z M830 1356 L429 1167 L386 1248 L768 1476 L830 1356 Z " />
<glyph glyph-name="Scircumflex" unicode="&#x15c;" horiz-adv-x="1171" d="M1114 1080 L970 1025 Q932 1138 838 1205.5 Q744 1273 622 1273 Q473 1273 399.5 1202 Q326 1131 326 1034 Q326 970 358.5 924.5 Q391 879 443.5 856.5 Q496 834 636 799 Q820 752 897 714.5 Q974 677 1029 595 Q1084 513 1084 399 Q1084 206 942.5 88.5 Q801 -29 566 -29 Q125 -29 8 351 L157 405 Q250 109 566 109 Q736 109 825.5 191 Q915 273 915 381 Q915 447 882.5 496.5 Q850 546 799 569.5 Q748 593 633 621 Q457 663 361.5 707 Q266 751 211.5 830.5 Q157 910 157 1017 Q157 1181 280.5 1291.5 Q404 1402 608 1402 Q983 1402 1114 1080 Z M996 1515 L851 1495 L692 1632 L490 1495 L346 1515 L717 1775 L996 1515 Z " />
<glyph glyph-name="scircumflex" unicode="&#x15d;" horiz-adv-x="945" d="M857 796 L727 741 Q660 911 461 911 Q370 911 315 864.5 Q260 818 260 754 Q260 689 302.5 658.5 Q345 628 469 600 L532 585 Q638 561 696 532.5 Q754 504 794 441.5 Q834 379 834 299 Q834 164 727.5 69 Q621 -26 437 -26 Q305 -26 189.5 25 Q74 76 -9 250 L136 299 Q208 99 442 99 Q554 99 615.5 149 Q677 199 677 274 Q677 333 640.5 367.5 Q604 402 478 432 L425 445 Q308 473 245.5 502.5 Q183 532 141 592 Q99 652 99 729 Q99 855 196.5 944.5 Q294 1034 463 1034 Q768 1034 857 796 Z M863 1194 L718 1174 L559 1311 L357 1174 L213 1194 L584 1454 L863 1194 Z " />
<glyph glyph-name="Tcommaaccent" unicode="&#x162;" horiz-adv-x="1000" d="M1099 1226 L704 1226 L498 0 L332 0 L537 1226 L141 1226 L164 1365 L1123 1365 L1099 1226 Z M317 -115 L476 -115 L269 -470 L205 -470 L317 -115 Z " />
<glyph glyph-name="tcommaaccent" unicode="&#x163;" horiz-adv-x="628" d="M383 892 L291 343 Q275 250 275 217 Q275 105 403 105 Q448 105 541 115 L525 -10 Q524 -10 496 -13 Q413 -22 374 -22 Q122 -22 122 201 Q122 259 148 411 L228 892 L74 892 L95 1014 L252 1014 L293 1259 L446 1273 L403 1014 L634 1014 L613 892 L383 892 Z M221 -109 L380 -109 L173 -464 L109 -464 L221 -109 Z " />
<glyph glyph-name="Tcaron" unicode="&#x164;" horiz-adv-x="1000" d="M1099 1226 L704 1226 L498 0 L332 0 L537 1226 L141 1226 L164 1365 L1123 1365 L1099 1226 Z M385 1741 L530 1761 L688 1625 L891 1761 L1035 1741 L664 1482 L385 1741 Z " />
<glyph glyph-name="tcaron" unicode="&#x165;" horiz-adv-x="653" d="M383 892 L291 343 Q275 250 275 217 Q275 105 403 105 Q448 105 541 115 L525 -10 Q524 -10 496 -13 Q413 -22 374 -22 Q122 -22 122 201 Q122 259 148 411 L228 892 L74 892 L95 1014 L252 1014 L293 1259 L446 1273 L403 1014 L634 1014 L613 892 L383 892 Z M644 1482 L803 1482 L596 1127 L532 1127 L644 1482 Z " />
<glyph glyph-name="Tbar" unicode="&#x166;" horiz-adv-x="1000" d="M924 939 L904 816 L635 816 L498 0 L332 0 L468 816 L199 816 L220 939 L489 939 L537 1226 L141 1226 L164 1365 L1123 1365 L1099 1226 L704 1226 L655 939 L924 939 Z " />
<glyph glyph-name="tbar" unicode="&#x167;" horiz-adv-x="628" d="M579 728 L561 619 L337 619 L291 343 Q275 249 275 217 Q275 105 403 105 Q447 105 541 115 L525 -10 Q524 -10 495 -13 Q413 -22 374 -22 Q122 -22 122 203 Q122 258 148 411 L182 619 L35 619 L53 728 L201 728 L228 892 L74 892 L94 1014 L251 1014 L293 1259 L446 1273 L403 1014 L634 1014 L613 892 L383 892 L355 728 L579 728 Z " />
<glyph glyph-name="Utilde" unicode="&#x168;" horiz-adv-x="1259" d="M1254 1365 L1115 533 Q1077 307 1021.5 201 Q966 95 855 32.5 Q744 -30 587 -30 Q398 -30 267.5 62 Q137 154 137 355 Q137 415 169 610 L296 1365 L463 1365 L329 574 Q301 409 301 363 Q301 241 384 174.5 Q467 108 591 108 Q705 108 786 153 Q867 198 907 275 Q947 352 974 518 L1116 1365 L1254 1365 Z M1095 1701 L1171 1629 Q1075 1529 971 1529 Q923 1529 843 1563 Q757 1601 711 1601 Q630 1601 577 1535 L494 1593 Q581 1721 715 1721 Q762 1721 842 1687 Q930 1650 974 1650 Q1041 1650 1095 1701 Z " />
<glyph glyph-name="utilde" unicode="&#x169;" horiz-adv-x="1111" d="M1044 1014 L874 0 L738 0 L779 245 Q644 -27 410 -27 Q319 -27 253.5 15.5 Q188 58 159 116 Q130 174 130 262 Q130 319 152 447 L249 1014 L405 1014 L302 398 Q284 293 284 269 Q284 190 330 145.5 Q376 101 451 101 Q577 101 684 238.5 Q791 376 833 625 L898 1014 L1044 1014 Z M956 1380 L1032 1308 Q936 1208 832 1208 Q784 1208 704 1242 Q618 1280 572 1280 Q491 1280 438 1214 L355 1272 Q442 1400 576 1400 Q623 1400 703 1366 Q791 1329 835 1329 Q902 1329 956 1380 Z " />
<glyph glyph-name="Umacron" unicode="&#x16a;" horiz-adv-x="1259" d="M1254 1365 L1115 533 Q1077 307 1021.5 201 Q966 95 855 32.5 Q744 -30 587 -30 Q398 -30 267.5 62 Q137 154 137 355 Q137 415 169 610 L296 1365 L463 1365 L329 574 Q301 409 301 363 Q301 241 384 174.5 Q467 108 591 108 Q705 108 786 153 Q867 198 907 275 Q947 352 974 518 L1116 1365 L1254 1365 Z M1110 1550 L496 1550 L514 1659 L1129 1659 L1110 1550 Z " />
<glyph glyph-name="umacron" unicode="&#x16b;" horiz-adv-x="1111" d="M1044 1014 L874 0 L738 0 L779 245 Q644 -27 410 -27 Q319 -27 253.5 15.5 Q188 58 159 116 Q130 174 130 262 Q130 319 152 447 L249 1014 L405 1014 L302 398 Q284 293 284 269 Q284 190 330 145.5 Q376 101 451 101 Q577 101 684 238.5 Q791 376 833 625 L898 1014 L1044 1014 Z M990 1236 L376 1236 L394 1345 L1009 1345 L990 1236 Z " />
<glyph glyph-name="Ubreve" unicode="&#x16c;" horiz-adv-x="1259" d="M1254 1365 L1115 533 Q1077 307 1021.5 201 Q966 95 855 32.5 Q744 -30 587 -30 Q398 -30 267.5 62 Q137 154 137 355 Q137 415 169 610 L296 1365 L463 1365 L329 574 Q301 409 301 363 Q301 241 384 174.5 Q467 108 591 108 Q705 108 786 153 Q867 198 907 275 Q947 352 974 518 L1116 1365 L1254 1365 Z M558 1759 L668 1759 Q673 1616 823 1616 Q896 1616 945 1643 Q994 1670 1033 1759 L1147 1759 Q1071 1504 818 1504 Q681 1504 620 1567.5 Q559 1631 558 1759 Z " />
<glyph glyph-name="ubreve" unicode="&#x16d;" horiz-adv-x="1111" d="M1044 1014 L874 0 L738 0 L779 245 Q644 -27 410 -27 Q319 -27 253.5 15.5 Q188 58 159 116 Q130 174 130 262 Q130 319 152 447 L249 1014 L405 1014 L302 398 Q284 293 284 269 Q284 190 330 145.5 Q376 101 451 101 Q577 101 684 238.5 Q791 376 833 625 L898 1014 L1044 1014 Z M423 1438 L533 1438 Q538 1295 688 1295 Q761 1295 810 1322 Q859 1349 898 1438 L1012 1438 Q936 1183 683 1183 Q546 1183 485 1246.5 Q424 1310 423 1438 Z " />
<glyph glyph-name="Uring" unicode="&#x16e;" horiz-adv-x="1259" d="M1254 1365 L1115 533 Q1077 307 1021.5 201 Q966 95 855 32.5 Q744 -30 587 -30 Q398 -30 267.5 62 Q137 154 137 355 Q137 415 169 610 L296 1365 L463 1365 L329 574 Q301 409 301 363 Q301 241 384 174.5 Q467 108 591 108 Q705 108 786 153 Q867 198 907 275 Q947 352 974 518 L1116 1365 L1254 1365 Z M990 1634 Q990 1563 939.5 1512.5 Q889 1462 818 1462 Q747 1462 695 1513 Q643 1564 643 1635 Q643 1705 694.5 1757 Q746 1809 822 1809 Q889 1809 939.5 1757.5 Q990 1706 990 1634 Z M907 1634 Q907 1672 881.5 1699 Q856 1726 822 1726 Q779 1726 752.5 1699 Q726 1672 726 1636 Q726 1598 753 1571 Q780 1544 818 1544 Q855 1544 881 1570.5 Q907 1597 907 1634 Z " />
<glyph glyph-name="uring" unicode="&#x16f;" horiz-adv-x="1111" d="M1044 1014 L874 0 L738 0 L779 245 Q644 -27 410 -27 Q319 -27 253.5 15.5 Q188 58 159 116 Q130 174 130 262 Q130 319 152 447 L249 1014 L405 1014 L302 398 Q284 293 284 269 Q284 190 330 145.5 Q376 101 451 101 Q577 101 684 238.5 Q791 376 833 625 L898 1014 L1044 1014 Z M866 1326 Q866 1255 815.5 1204.5 Q765 1154 694 1154 Q623 1154 571 1205 Q519 1256 519 1327 Q519 1397 570.5 1449 Q622 1501 698 1501 Q765 1501 815.5 1449.5 Q866 1398 866 1326 Z M783 1326 Q783 1364 757.5 1391 Q732 1418 698 1418 Q655 1418 628.5 1391 Q602 1364 602 1328 Q602 1290 629 1263 Q656 1236 694 1236 Q731 1236 757 1262.5 Q783 1289 783 1326 Z " />
<glyph glyph-name="Uhungarumlaut" unicode="&#x170;" horiz-adv-x="1259" d="M1254 1365 L1115 533 Q1077 307 1021.5 201 Q966 95 855 32.5 Q744 -30 587 -30 Q398 -30 267.5 62 Q137 154 137 355 Q137 415 169 610 L296 1365 L463 1365 L329 574 Q301 409 301 363 Q301 241 384 174.5 Q467 108 591 108 Q705 108 786 153 Q867 198 907 275 Q947 352 974 518 L1116 1365 L1254 1365 Z M927 1694 L608 1488 L557 1566 L860 1797 L927 1694 Z M1241 1694 L922 1488 L871 1566 L1174 1797 L1241 1694 Z " />
<glyph glyph-name="uhungarumlaut" unicode="&#x171;" horiz-adv-x="1111" d="M1044 1014 L874 0 L738 0 L779 245 Q644 -27 410 -27 Q319 -27 253.5 15.5 Q188 58 159 116 Q130 174 130 262 Q130 319 152 447 L249 1014 L405 1014 L302 398 Q284 293 284 269 Q284 190 330 145.5 Q376 101 451 101 Q577 101 684 238.5 Q791 376 833 625 L898 1014 L1044 1014 Z M803 1373 L484 1167 L433 1245 L736 1476 L803 1373 Z M1117 1373 L798 1167 L747 1245 L1050 1476 L1117 1373 Z " />
<glyph glyph-name="Uogonek" unicode="&#x172;" horiz-adv-x="1259" d="M917 -233 L928 -302 Q857 -337 776 -337 Q597 -337 597 -201 Q597 -85 727 -14 Q662 -30 591 -30 Q397 -30 267 63 Q137 156 137 355 Q137 415 169 610 L296 1365 L463 1365 L329 574 Q301 409 301 363 Q301 241 384 174.5 Q467 108 591 108 Q705 108 786 153 Q867 198 907 275 Q947 352 974 518 L1116 1365 L1254 1365 L1115 533 Q1090 382 1060.5 292.5 Q1031 203 989 149.5 Q947 96 840 5 Q723 -93 723 -162 Q723 -247 829 -247 Q872 -247 917 -233 Z " />
<glyph glyph-name="uogonek" unicode="&#x173;" horiz-adv-x="1111" d="M874 0 Q725 -78 725 -160 Q725 -241 829 -241 Q872 -241 915 -228 L927 -294 Q858 -326 776 -326 Q602 -326 602 -197 Q602 -69 777 0 L738 0 L779 245 Q644 -27 410 -27 Q319 -27 253.5 15.5 Q188 58 159 116 Q130 174 130 262 Q130 319 152 447 L249 1014 L405 1014 L302 398 Q284 293 284 269 Q284 190 330 145.5 Q376 101 451 101 Q577 101 684 238.5 Q791 376 833 625 L898 1014 L1044 1014 L874 0 Z " />
<glyph glyph-name="Wcircumflex" unicode="&#x174;" horiz-adv-x="1663" d="M1215 0 L1046 0 L915 1089 L477 0 L300 0 L166 1365 L333 1365 L442 237 L903 1365 L1031 1365 L1171 237 L1627 1365 L1768 1365 L1215 0 Z M1292 1515 L1147 1495 L988 1632 L786 1495 L642 1515 L1013 1775 L1292 1515 Z " />
<glyph glyph-name="wcircumflex" unicode="&#x175;" horiz-adv-x="1380" d="M959 0 L843 0 L716 772 L393 0 L266 0 L110 1014 L264 1014 L377 252 L696 1014 L825 1014 L946 252 L1280 1014 L1413 1014 L959 0 Z M1079 1194 L934 1174 L775 1311 L573 1174 L429 1194 L800 1454 L1079 1194 Z " />
<glyph glyph-name="Ycircumflex" unicode="&#x176;" horiz-adv-x="1049" d="M532 0 L360 0 L455 572 L107 1365 L290 1365 L574 719 L1046 1365 L1214 1365 L627 572 L532 0 Z M1020 1515 L875 1495 L716 1632 L514 1495 L370 1515 L741 1775 L1020 1515 Z " />
<glyph glyph-name="ycircumflex" unicode="&#x177;" horiz-adv-x="870" d="M941 1014 L385 -55 Q282 -254 192 -305 Q102 -356 2 -356 Q-40 -356 -98 -349 L-75 -213 Q-24 -223 11 -223 Q172 -223 259 -43 L294 28 L82 1014 L242 1014 L406 243 L805 1014 L941 1014 Z M857 1194 L712 1174 L553 1311 L351 1174 L207 1194 L578 1454 L857 1194 Z " />
<glyph glyph-name="Zacute" unicode="&#x179;" horiz-adv-x="1076" d="M1121 1365 L1102 1252 L197 145 L967 145 L943 0 L-37 0 L-13 145 L874 1227 L190 1227 L213 1365 L1121 1365 Z M988 1677 L587 1488 L544 1569 L926 1797 L988 1677 Z " />
<glyph glyph-name="zacute" unicode="&#x17a;" horiz-adv-x="859" d="M733 0 L-37 0 L-19 107 L649 886 L130 886 L152 1014 L880 1014 L862 911 L187 127 L754 127 L733 0 Z M849 1356 L448 1167 L405 1248 L787 1476 L849 1356 Z " />
<glyph glyph-name="Zdotaccent" unicode="&#x17b;" horiz-adv-x="1076" d="M1121 1365 L1102 1252 L197 145 L967 145 L943 0 L-37 0 L-13 145 L874 1227 L190 1227 L213 1365 L1121 1365 Z M793 1628 Q793 1584 760.5 1553 Q728 1522 684 1522 Q639 1522 607 1553 Q575 1584 575 1628 Q575 1671 607 1701.5 Q639 1732 683 1732 Q729 1732 761 1701.5 Q793 1671 793 1628 Z " />
<glyph glyph-name="zdotaccent" unicode="&#x17c;" horiz-adv-x="859" d="M733 0 L-37 0 L-19 107 L649 886 L130 886 L152 1014 L880 1014 L862 911 L187 127 L754 127 L733 0 Z M666 1307 Q666 1263 633.5 1232 Q601 1201 557 1201 Q512 1201 480 1232 Q448 1263 448 1307 Q448 1350 480 1380.5 Q512 1411 556 1411 Q602 1411 634 1380.5 Q666 1350 666 1307 Z " />
<glyph glyph-name="longs" unicode="&#x17f;" horiz-adv-x="1201" d="M553 0 L397 0 L567 1013 Q603 1232 706.5 1314 Q810 1396 980 1396 Q1022 1396 1073 1390 L1053 1266 Q1007 1271 980 1271 Q886 1271 818.5 1226.5 Q751 1182 722 1013 L553 0 Z " />
<glyph glyph-name="Aringacute" unicode="&#x1fa;" horiz-adv-x="1155" d="M926 1848 L525 1673 L482 1753 L864 1967 L926 1848 Z M607 1357 Q537 1412 537 1499 Q537 1573 591 1626 Q645 1679 719 1679 Q794 1679 846 1626 Q898 1573 898 1497 Q898 1394 805 1341 L1039 0 L863 0 L792 400 L294 400 L98 0 L-57 0 L607 1357 Z M808 1497 Q808 1536 781.5 1562.5 Q755 1589 723 1589 Q680 1589 653 1561.5 Q626 1534 626 1498 Q626 1461 653.5 1434 Q681 1407 719 1407 Q756 1407 782 1433 Q808 1459 808 1497 Z M772 537 L674 1185 L359 537 L772 537 Z " />
<glyph glyph-name="aringacute" unicode="&#x1fb;" horiz-adv-x="1096" d="M877 0 L718 0 Q717 31 717 51 Q717 129 735 198 Q582 -29 355 -29 Q213 -29 122.5 58 Q32 145 32 276 Q32 423 162 527 Q292 631 647 631 Q679 631 800 625 Q811 690 811 731 Q811 923 578 923 Q373 923 285 752 L137 815 Q257 1045 568 1045 Q740 1045 856 969.5 Q972 894 972 756 Q972 700 895 230 Q874 103 874 43 Q874 34 877 0 Z M781 509 Q709 515 643 515 Q205 515 205 269 Q205 193 252.5 147 Q300 101 385 101 Q519 101 634.5 216 Q750 331 781 509 Z M840 1285 Q840 1214 789.5 1163.5 Q739 1113 668 1113 Q597 1113 545 1164 Q493 1215 493 1286 Q493 1356 544.5 1408 Q596 1460 672 1460 Q739 1460 789.5 1408.5 Q840 1357 840 1285 Z M757 1285 Q757 1323 731.5 1350 Q706 1377 672 1377 Q629 1377 602.5 1350 Q576 1323 576 1287 Q576 1249 603 1222 Q630 1195 668 1195 Q705 1195 731 1221.5 Q757 1248 757 1285 Z M960 1736 L559 1547 L516 1628 L898 1856 L960 1736 Z " />
<glyph glyph-name="AEacute" unicode="&#x1fc;" horiz-adv-x="1790" d="M1637 0 L728 0 L807 471 L410 471 L61 0 L-112 0 L910 1365 L1812 1365 L1790 1230 L1100 1230 L1025 781 L1615 781 L1593 647 L1003 647 L919 145 L1661 145 L1637 0 Z M828 601 L925 1176 L502 601 L828 601 Z M1627 1677 L1226 1488 L1183 1569 L1565 1797 L1627 1677 Z " />
<glyph glyph-name="aeacute" unicode="&#x1fd;" horiz-adv-x="1723" d="M1598 237 Q1444 -30 1167 -30 Q1030 -30 921.5 39 Q813 108 763 241 Q586 -26 345 -26 Q203 -26 115.5 57 Q28 140 28 272 Q28 421 154 524 Q280 627 595 627 Q644 627 773 620 Q786 675 786 722 Q786 923 554 923 Q369 923 278 755 L135 815 Q263 1042 544 1042 Q787 1042 897 888 Q1045 1040 1249 1040 Q1431 1040 1540.5 925 Q1650 810 1650 611 Q1650 559 1642 493 L903 493 Q895 444 895 406 Q895 264 973.5 181 Q1052 98 1167 98 Q1348 98 1468 293 L1598 237 Z M922 603 L1494 603 Q1496 632 1496 649 Q1496 783 1421.5 854.5 Q1347 926 1240 926 Q1122 926 1034 837 Q946 748 922 603 Z M757 508 Q687 517 614 517 Q373 517 283 444 Q193 371 193 267 Q193 201 236 150.5 Q279 100 367 100 Q511 100 627 231.5 Q743 363 757 508 Z M1229 1356 L828 1167 L785 1248 L1167 1476 L1229 1356 Z " />
<glyph glyph-name="Oslashacute" unicode="&#x1fe;" horiz-adv-x="1315" d="M300 91 L195 -48 L49 -48 L222 183 Q112 346 112 587 Q112 894 286.5 1143.5 Q461 1393 746 1393 Q934 1393 1074 1279 L1187 1420 L1337 1420 L1156 1190 Q1264 1022 1264 800 Q1264 461 1088.5 216.5 Q913 -28 638 -28 Q447 -28 300 91 Z M334 304 L971 1167 Q868 1255 740 1255 Q530 1255 409 1040 Q288 825 288 544 Q288 407 334 304 Z M400 203 Q496 111 628 111 Q849 111 969.5 334 Q1090 557 1090 843 Q1090 963 1042 1069 L400 203 Z M1101 1677 L700 1488 L657 1569 L1039 1797 L1101 1677 Z " />
<glyph glyph-name="oslashacute" unicode="&#x1ff;" horiz-adv-x="1066" d="M1088 1070 L914 867 Q991 744 991 580 Q991 334 847 151.5 Q703 -31 486 -31 Q337 -31 228 57 L131 -55 L3 -55 L159 135 Q76 261 76 439 Q76 671 219 854.5 Q362 1038 588 1038 Q739 1038 844 948 L950 1070 L1088 1070 Z M266 251 L748 848 Q676 915 574 915 Q417 915 330 757 Q243 599 243 396 Q243 317 266 251 Z M805 758 L323 159 Q390 96 486 96 Q650 96 737 254 Q824 412 824 618 Q824 697 805 758 Z M937 1356 L536 1167 L493 1248 L875 1476 L937 1356 Z " />
<glyph glyph-name="tonos" unicode="&#x384;" horiz-adv-x="1024" d="M181 1365 L-105 1045 L-175 1097 L67 1439 L181 1365 Z " />
<glyph glyph-name="dieresistonos" unicode="&#x385;" horiz-adv-x="1024" d="M931 1622 L634 1423 L584 1491 L848 1727 L931 1622 Z M911 1304 Q911 1261 879.5 1231 Q848 1201 805 1201 Q762 1201 730.5 1231 Q699 1261 699 1303 Q699 1346 730.5 1375.5 Q762 1405 804 1405 Q848 1405 879.5 1375.5 Q911 1346 911 1304 Z M589 1303 Q589 1261 557.5 1231 Q526 1201 484 1201 Q442 1201 411.5 1231 Q381 1261 381 1302 Q381 1345 411.5 1374.5 Q442 1404 481 1404 Q529 1404 559 1374 Q589 1344 589 1303 Z " />
<glyph glyph-name="Alphatonos" unicode="&#x386;" horiz-adv-x="1096" d="M771 400 L273 400 L77 0 L-78 0 L591 1365 L780 1365 L1018 0 L842 0 L771 400 Z M751 537 L646 1164 L338 537 L751 537 Z M405 1365 L119 1045 L49 1097 L291 1439 L405 1365 Z " />
<glyph glyph-name="anoteleia" unicode="&#x387;" horiz-adv-x="264" d="M225 391 L0 391 L38 620 L264 620 L225 391 Z " />
<glyph glyph-name="Epsilontonos" unicode="&#x388;" horiz-adv-x="1144" d="M86 0 L314 1365 L1165 1365 L1142 1229 L458 1229 L383 781 L969 781 L946 646 L361 646 L277 145 L1015 145 L991 0 L86 0 Z M232 1365 L-54 1045 L-124 1097 L118 1439 L232 1365 Z " />
<glyph glyph-name="Etatonos" unicode="&#x389;" horiz-adv-x="1343" d="M1030 646 L361 646 L253 0 L86 0 L314 1365 L481 1365 L385 791 L1054 791 L1150 1365 L1317 1365 L1088 0 L922 0 L1030 646 Z M232 1365 L-54 1045 L-124 1097 L118 1439 L232 1365 Z " />
<glyph glyph-name="Iotatonos" unicode="&#x38a;" horiz-adv-x="508" d="M481 1365 L253 0 L86 0 L314 1365 L481 1365 Z M232 1365 L-54 1045 L-124 1097 L118 1439 L232 1365 Z " />
<glyph glyph-name="Omicrontonos" unicode="&#x38c;" horiz-adv-x="1315" d="M629 -27 Q394 -27 253 141.5 Q112 310 112 585 Q112 895 286 1144 Q460 1393 748 1393 Q976 1393 1120 1235 Q1264 1077 1264 801 Q1264 474 1093 223.5 Q922 -27 629 -27 Z M629 110 Q785 110 894.5 228.5 Q1004 347 1047 528.5 Q1090 710 1090 836 Q1090 1033 992 1144 Q894 1255 742 1255 Q524 1255 405.5 1036.5 Q287 818 287 550 Q287 338 383 224 Q479 110 629 110 Z M303 1365 L17 1045 L-53 1097 L189 1439 L303 1365 Z " />
<glyph glyph-name="Upsilontonos" unicode="&#x38e;" horiz-adv-x="1066" d="M532 0 L360 0 L455 572 L107 1365 L290 1365 L574 719 L1046 1365 L1214 1365 L627 572 L532 0 Z M86 1365 L-200 1045 L-270 1097 L-28 1439 L86 1365 Z " />
<glyph glyph-name="Omegatonos" unicode="&#x38f;" horiz-adv-x="1345" d="M-24 0 L0 145 L340 145 Q92 328 92 650 Q92 971 277 1180.5 Q462 1390 746 1390 Q975 1390 1120.5 1247.5 Q1266 1105 1266 852 Q1266 354 879 145 L1227 145 L1202 0 L690 0 L714 145 Q929 274 1008 462.5 Q1087 651 1087 836 Q1087 1035 990.5 1143.5 Q894 1252 737 1252 Q534 1252 401 1087.5 Q268 923 268 628 Q268 464 322.5 350.5 Q377 237 505 145 L481 0 L-24 0 Z M259 1365 L-27 1045 L-97 1097 L145 1439 L259 1365 Z " />
<glyph glyph-name="iotadieresistonos" unicode="&#x390;" horiz-adv-x="471" d="M229 0 L72 0 L242 1014 L399 1014 L229 0 Z M654 1622 L357 1423 L307 1491 L571 1727 L654 1622 Z M634 1304 Q634 1261 602.5 1231 Q571 1201 528 1201 Q485 1201 453.5 1231 Q422 1261 422 1303 Q422 1346 453.5 1375.5 Q485 1405 527 1405 Q571 1405 602.5 1375.5 Q634 1346 634 1304 Z M312 1303 Q312 1261 280.5 1231 Q249 1201 207 1201 Q165 1201 134.5 1231 Q104 1261 104 1302 Q104 1345 134.5 1374.5 Q165 1404 204 1404 Q252 1404 282 1374 Q312 1344 312 1303 Z " />
<glyph glyph-name="Alpha" unicode="&#x391;" horiz-adv-x="1155" d="M792 400 L294 400 L98 0 L-57 0 L612 1365 L801 1365 L1039 0 L863 0 L792 400 Z M772 537 L667 1164 L359 537 L772 537 Z " />
<glyph glyph-name="Beta" unicode="&#x392;" horiz-adv-x="1251" d="M86 0 L314 1365 L742 1365 Q905 1365 987.5 1341.5 Q1070 1318 1133 1237 Q1196 1156 1196 1043 Q1196 796 929 714 Q1028 683 1087 599.5 Q1146 516 1146 402 Q1146 298 1103 212.5 Q1060 127 993.5 81 Q927 35 861.5 17.5 Q796 0 620 0 L86 0 Z M383 777 L641 777 Q794 777 867 799.5 Q940 822 986 885 Q1032 948 1032 1037 Q1032 1110 994 1159.5 Q956 1209 901 1222 Q846 1235 720 1235 L459 1233 L383 777 Z M275 135 L571 135 Q747 135 817.5 156 Q888 177 935 245.5 Q982 314 982 419 Q982 507 940.5 561 Q899 615 841 631 Q783 647 637 647 L361 647 L275 135 Z " />
<glyph glyph-name="Gamma" unicode="&#x393;" horiz-adv-x="929" d="M86 0 L314 1365 L1072 1365 L1048 1221 L457 1221 L253 0 L86 0 Z " />
<glyph glyph-name="Delta" unicode="&#x394;" horiz-adv-x="1179" d="M-40 0 L630 1365 L835 1365 L1068 0 L-40 0 Z M187 145 L874 145 L715 1223 L701 1223 L187 145 Z " />
<glyph glyph-name="Epsilon" unicode="&#x395;" horiz-adv-x="1144" d="M86 0 L314 1365 L1165 1365 L1142 1229 L458 1229 L383 781 L969 781 L946 646 L361 646 L277 145 L1015 145 L991 0 L86 0 Z " />
<glyph glyph-name="Zeta" unicode="&#x396;" horiz-adv-x="1076" d="M1121 1365 L1102 1252 L197 145 L967 145 L943 0 L-37 0 L-13 145 L874 1227 L190 1227 L213 1365 L1121 1365 Z " />
<glyph glyph-name="Eta" unicode="&#x397;" horiz-adv-x="1343" d="M1030 646 L361 646 L253 0 L86 0 L314 1365 L481 1365 L385 791 L1054 791 L1150 1365 L1317 1365 L1088 0 L922 0 L1030 646 Z " />
<glyph glyph-name="Theta" unicode="&#x398;" horiz-adv-x="1315" d="M629 -27 Q394 -27 253 141.5 Q112 310 112 585 Q112 894 286 1143.5 Q460 1393 748 1393 Q978 1393 1121 1232.5 Q1264 1072 1264 801 Q1264 473 1092.5 223 Q921 -27 629 -27 Z M629 110 Q786 110 895.5 229.5 Q1005 349 1047.5 529.5 Q1090 710 1090 836 Q1090 1034 992.5 1144.5 Q895 1255 742 1255 Q524 1255 405.5 1036.5 Q287 818 287 550 Q287 340 382.5 225 Q478 110 629 110 Z M894 778 L877 633 L490 633 L507 778 L894 778 Z " />
<glyph glyph-name="Iota" unicode="&#x399;" horiz-adv-x="508" d="M481 1365 L253 0 L86 0 L314 1365 L481 1365 Z " />
<glyph glyph-name="Kappa" unicode="&#x39a;" horiz-adv-x="1275" d="M1291 1365 L830 889 L1154 0 L979 0 L703 770 L315 372 L253 0 L86 0 L314 1365 L481 1365 L351 587 L1101 1365 L1291 1365 Z " />
<glyph glyph-name="Lambda" unicode="&#x39b;" horiz-adv-x="1131" d="M103 0 L-64 0 L602 1365 L818 1365 L1048 0 L878 0 L690 1227 L675 1227 L103 0 Z " />
<glyph glyph-name="Mu" unicode="&#x39c;" horiz-adv-x="1670" d="M1414 0 L1248 0 L1458 1253 L802 0 L676 0 L432 1233 L225 0 L86 0 L314 1365 L567 1365 L790 247 L1374 1365 L1643 1365 L1414 0 Z " />
<glyph glyph-name="Nu" unicode="&#x39d;" horiz-adv-x="1341" d="M1085 0 L952 0 L417 1167 L221 0 L86 0 L314 1365 L501 1365 L998 277 L1180 1365 L1314 1365 L1085 0 Z " />
<glyph glyph-name="Xi" unicode="&#x39e;" horiz-adv-x="1060" d="M198 1221 L222 1365 L1125 1365 L1101 1221 L198 1221 Z M203 652 L227 797 L926 797 L902 652 L203 652 Z M-6 0 L18 145 L921 145 L897 0 L-6 0 Z " />
<glyph glyph-name="Omicron" unicode="&#x39f;" horiz-adv-x="1315" d="M629 -27 Q394 -27 253 141.5 Q112 310 112 585 Q112 895 286 1144 Q460 1393 748 1393 Q976 1393 1120 1235 Q1264 1077 1264 801 Q1264 474 1093 223.5 Q922 -27 629 -27 Z M629 110 Q785 110 894.5 228.5 Q1004 347 1047 528.5 Q1090 710 1090 836 Q1090 1033 992 1144 Q894 1255 742 1255 Q524 1255 405.5 1036.5 Q287 818 287 550 Q287 338 383 224 Q479 110 629 110 Z " />
<glyph glyph-name="Pi" unicode="&#x3a0;" horiz-adv-x="1296" d="M94 0 L322 1365 L1261 1365 L1032 0 L865 0 L1070 1221 L465 1221 L261 0 L94 0 Z " />
<glyph glyph-name="Rho" unicode="&#x3a1;" horiz-adv-x="1140" d="M345 552 L253 0 L86 0 L314 1365 L689 1365 Q855 1365 948.5 1335.5 Q1042 1306 1108 1206 Q1174 1106 1174 988 Q1174 831 1059.5 691.5 Q945 552 620 552 L345 552 Z M368 688 L555 688 Q729 688 807 706 Q885 724 942.5 800.5 Q1000 877 1000 984 Q1000 1067 965 1126.5 Q930 1186 875 1208.5 Q820 1231 685 1231 L458 1229 L368 688 Z " />
<glyph glyph-name="Sigma" unicode="&#x3a3;" horiz-adv-x="1022" d="M-1 0 L20 125 L564 741 L227 1237 L248 1365 L1083 1365 L1062 1237 L432 1237 L763 742 L217 145 L938 145 L913 0 L-1 0 Z " />
<glyph glyph-name="Tau" unicode="&#x3a4;" horiz-adv-x="1000" d="M1099 1226 L704 1226 L498 0 L332 0 L537 1226 L141 1226 L164 1365 L1123 1365 L1099 1226 Z " />
<glyph glyph-name="Upsilon" unicode="&#x3a5;" horiz-adv-x="1049" d="M532 0 L360 0 L455 572 L107 1365 L290 1365 L574 719 L1046 1365 L1214 1365 L627 572 L532 0 Z " />
<glyph glyph-name="Phi" unicode="&#x3a6;" horiz-adv-x="1530" d="M830 1365 L996 1365 L974 1236 Q1466 1179 1466 756 Q1466 499 1298 316 Q1130 133 789 125 L768 0 L601 0 L623 129 Q132 187 132 609 Q132 866 299.5 1049 Q467 1232 809 1241 L830 1365 Z M789 1121 Q552 1117 431 971.5 Q310 826 310 617 Q310 305 643 250 L789 1121 Z M809 245 Q1048 250 1168 395.5 Q1288 541 1288 749 Q1288 1061 954 1115 L809 245 Z " />
<glyph glyph-name="Chi" unicode="&#x3a7;" horiz-adv-x="1103" d="M1012 0 L819 0 L548 574 L93 0 L-80 0 L480 700 L161 1365 L348 1365 L596 837 L1015 1365 L1189 1365 L666 714 L1012 0 Z " />
<glyph glyph-name="Psi" unicode="&#x3a8;" horiz-adv-x="1591" d="M632 0 L675 260 Q449 273 324 360 Q199 447 199 667 Q199 753 234 960 L302 1365 L469 1365 L401 960 Q366 754 366 685 Q366 413 698 396 L860 1365 L1027 1365 L865 396 Q1012 402 1094.5 435 Q1177 468 1225 529 Q1273 590 1294 661.5 Q1315 733 1353 960 L1421 1365 L1587 1365 L1519 960 Q1478 710 1449 615.5 Q1420 521 1348 439.5 Q1276 358 1162 315 Q1048 272 842 260 L798 0 L632 0 Z " />
<glyph glyph-name="Omega" unicode="&#x3a9;" horiz-adv-x="1345" d="M-24 0 L0 145 L340 145 Q92 328 92 650 Q92 971 277 1180.5 Q462 1390 746 1390 Q975 1390 1120.5 1247.5 Q1266 1105 1266 852 Q1266 354 879 145 L1227 145 L1202 0 L690 0 L714 145 Q929 274 1008 462.5 Q1087 651 1087 836 Q1087 1035 990.5 1143.5 Q894 1252 737 1252 Q534 1252 401 1087.5 Q268 923 268 628 Q268 464 322.5 350.5 Q377 237 505 145 L481 0 L-24 0 Z " />
<glyph glyph-name="Iotadieresis" unicode="&#x3aa;" horiz-adv-x="508" d="M481 1365 L253 0 L86 0 L314 1365 L481 1365 Z M722 1625 Q722 1582 690.5 1552 Q659 1522 616 1522 Q573 1522 541.5 1552 Q510 1582 510 1624 Q510 1667 541.5 1696.5 Q573 1726 615 1726 Q659 1726 690.5 1696.5 Q722 1667 722 1625 Z M400 1624 Q400 1582 368.5 1552 Q337 1522 295 1522 Q253 1522 222.5 1552 Q192 1582 192 1623 Q192 1666 222.5 1695.5 Q253 1725 292 1725 Q340 1725 370 1695 Q400 1665 400 1624 Z " />
<glyph glyph-name="Upsilondieresis" unicode="&#x3ab;" horiz-adv-x="1049" d="M532 0 L360 0 L455 572 L107 1365 L290 1365 L574 719 L1046 1365 L1214 1365 L627 572 L532 0 Z M976 1625 Q976 1582 944.5 1552 Q913 1522 870 1522 Q827 1522 795.5 1552 Q764 1582 764 1624 Q764 1667 795.5 1696.5 Q827 1726 869 1726 Q913 1726 944.5 1696.5 Q976 1667 976 1625 Z M654 1624 Q654 1582 622.5 1552 Q591 1522 549 1522 Q507 1522 476.5 1552 Q446 1582 446 1623 Q446 1666 476.5 1695.5 Q507 1725 546 1725 Q594 1725 624 1695 Q654 1665 654 1624 Z " />
<glyph glyph-name="alphatonos" unicode="&#x3ac;" horiz-adv-x="1226" d="M1100 0 L929 0 L846 348 Q665 -27 417 -27 Q265 -27 171.5 87.5 Q78 202 78 404 Q78 658 217 850 Q356 1042 560 1042 Q699 1042 776.5 972.5 Q854 903 895 720 L1034 1014 L1189 1014 L953 533 L1100 0 Z M816 533 Q775 723 720.5 819.5 Q666 916 565 916 Q429 916 339 764 Q249 612 249 407 Q249 259 310 178.5 Q371 98 456 98 Q548 98 628 193.5 Q708 289 816 533 Z M960 1356 L559 1167 L516 1248 L898 1476 L960 1356 Z " />
<glyph glyph-name="epsilontonos" unicode="&#x3ad;" horiz-adv-x="919" d="M569 594 L555 466 Q421 466 362.5 454.5 Q304 443 263.5 393.5 Q223 344 223 268 Q223 98 437 98 Q552 98 621.5 148 Q691 198 728 325 L871 299 Q795 -27 416 -27 Q233 -27 142 50.5 Q51 128 51 252 Q51 469 303 537 Q199 583 166 634 Q133 685 133 752 Q133 872 231.5 957 Q330 1042 512 1042 Q841 1042 879 758 L730 732 Q709 916 511 916 Q304 916 304 741 Q304 656 362 625 Q420 594 569 594 Z M844 1356 L443 1167 L400 1248 L782 1476 L844 1356 Z " />
<glyph glyph-name="etatonos" unicode="&#x3ae;" horiz-adv-x="1114" d="M822 -341 L666 -341 L812 527 Q832 648 832 722 Q832 911 666 911 Q536 911 441.5 810.5 Q347 710 321 555 L228 0 L72 0 L242 1014 L386 1014 L354 819 Q498 1042 711 1042 Q840 1042 916.5 966 Q993 890 993 759 Q993 679 965 516 L822 -341 Z M938 1356 L537 1167 L494 1248 L876 1476 L938 1356 Z " />
<glyph glyph-name="iotatonos" unicode="&#x3af;" horiz-adv-x="471" d="M229 0 L72 0 L242 1014 L399 1014 L229 0 Z M586 1356 L185 1167 L142 1248 L524 1476 L586 1356 Z " />
<glyph glyph-name="upsilondieresistonos" unicode="&#x3b0;" horiz-adv-x="1063" d="M385 1014 L282 400 Q266 306 266 261 Q266 100 464 100 Q606 100 662 164.5 Q718 229 747 400 L849 1014 L1005 1014 L902 400 Q874 229 835 149 Q796 69 704 21 Q612 -27 443 -27 Q109 -27 109 233 Q109 296 131 427 L229 1014 L385 1014 Z M975 1622 L678 1423 L628 1491 L892 1727 L975 1622 Z M955 1304 Q955 1261 923.5 1231 Q892 1201 849 1201 Q806 1201 774.5 1231 Q743 1261 743 1303 Q743 1346 774.5 1375.5 Q806 1405 848 1405 Q892 1405 923.5 1375.5 Q955 1346 955 1304 Z M633 1303 Q633 1261 601.5 1231 Q570 1201 528 1201 Q486 1201 455.5 1231 Q425 1261 425 1302 Q425 1345 455.5 1374.5 Q486 1404 525 1404 Q573 1404 603 1374 Q633 1344 633 1303 Z " />
<glyph glyph-name="alpha" unicode="&#x3b1;" horiz-adv-x="1226" d="M1100 0 L929 0 L846 348 Q665 -27 417 -27 Q265 -27 171.5 87.5 Q78 202 78 404 Q78 658 217 850 Q356 1042 560 1042 Q699 1042 776.5 972.5 Q854 903 895 720 L1034 1014 L1189 1014 L953 533 L1100 0 Z M816 533 Q775 723 720.5 819.5 Q666 916 565 916 Q429 916 339 764 Q249 612 249 407 Q249 259 310 178.5 Q371 98 456 98 Q548 98 628 193.5 Q708 289 816 533 Z " />
<glyph glyph-name="beta" unicode="&#x3b2;" horiz-adv-x="1118" d="M20 -341 L242 984 Q284 1239 385.5 1317 Q487 1395 643 1395 Q813 1395 918.5 1322 Q1024 1249 1024 1112 Q1024 896 764 811 Q1023 735 1023 477 Q1023 254 895.5 113.5 Q768 -27 541 -27 Q434 -27 370 7 Q306 41 251 111 L176 -341 L20 -341 Z M269 218 Q352 111 514 111 Q681 111 767.5 213.5 Q854 316 854 476 Q854 737 568 737 L582 860 Q723 864 788 934 Q853 1004 853 1099 Q853 1186 793 1232.5 Q733 1279 644 1279 Q565 1279 498 1231.5 Q431 1184 399 992 L269 218 Z " />
<glyph glyph-name="gamma" unicode="&#x3b3;" horiz-adv-x="885" d="M222 -341 L285 33 L85 1014 L249 1014 L397 222 L793 1014 L956 1014 L440 33 L378 -341 L222 -341 Z " />
<glyph glyph-name="delta" unicode="&#x3b4;" horiz-adv-x="1062" d="M1004 1365 L982 1237 L526 1237 L697 1097 Q836 984 882 937 Q928 890 957.5 818 Q987 746 987 634 Q987 354 846.5 163.5 Q706 -27 464 -27 Q259 -27 167.5 84.5 Q76 196 76 356 Q76 502 127 635.5 Q178 769 262.5 849 Q347 929 430 953.5 Q513 978 624 978 L318 1237 L340 1365 L1004 1365 Z M599 900 Q440 900 342.5 743.5 Q245 587 245 357 Q245 229 306 163.5 Q367 98 469 98 Q634 98 723 252.5 Q812 407 812 640 Q812 772 750.5 836 Q689 900 599 900 Z " />
<glyph glyph-name="epsilon" unicode="&#x3b5;" horiz-adv-x="919" d="M569 594 L555 466 Q421 466 362.5 454.5 Q304 443 263.5 393.5 Q223 344 223 268 Q223 98 437 98 Q552 98 621.5 148 Q691 198 728 325 L871 299 Q795 -27 416 -27 Q233 -27 142 50.5 Q51 128 51 252 Q51 469 303 537 Q199 583 166 634 Q133 685 133 752 Q133 872 231.5 957 Q330 1042 512 1042 Q841 1042 879 758 L730 732 Q709 916 511 916 Q304 916 304 741 Q304 656 362 625 Q420 594 569 594 Z " />
<glyph glyph-name="zeta" unicode="&#x3b6;" horiz-adv-x="765" d="M289 1237 L310 1365 L890 1365 L873 1269 Q288 769 288 326 Q288 210 334.5 174 Q381 138 504 131 Q603 125 645.5 91.5 Q688 58 688 -18 Q688 -146 562 -367 L416 -340 Q526 -157 526 -85 Q526 -46 498 -31.5 Q470 -17 393 -13 Q283 -9 228 24.5 Q173 58 143 128 Q113 198 113 298 Q113 544 292 801.5 Q471 1059 700 1237 L289 1237 Z " />
<glyph glyph-name="eta" unicode="&#x3b7;" horiz-adv-x="1114" d="M822 -341 L666 -341 L812 527 Q832 648 832 722 Q832 911 666 911 Q536 911 441.5 810.5 Q347 710 321 555 L228 0 L72 0 L242 1014 L386 1014 L354 819 Q498 1042 711 1042 Q840 1042 916.5 966 Q993 890 993 759 Q993 679 965 516 L822 -341 Z " />
<glyph glyph-name="theta" unicode="&#x3b8;" horiz-adv-x="1085" d="M653 1393 Q817 1393 912 1274 Q1007 1155 1007 896 Q1007 539 881.5 255.5 Q756 -28 488 -28 Q387 -28 315.5 9 Q244 46 199 116.5 Q154 187 138.5 267.5 Q123 348 123 522 Q123 695 185 925.5 Q247 1156 369 1274.5 Q491 1393 653 1393 Z M310 769 L842 769 Q848 853 848 913 Q848 1267 636 1267 Q396 1267 310 769 Z M295 658 Q280 538 280 451 Q280 98 494 98 Q747 98 827 658 L295 658 Z " />
<glyph glyph-name="iota" unicode="&#x3b9;" horiz-adv-x="471" d="M229 0 L72 0 L242 1014 L399 1014 L229 0 Z " />
<glyph glyph-name="kappa" unicode="&#x3ba;" horiz-adv-x="1006" d="M229 0 L73 0 L243 1014 L398 1014 L313 504 L853 1013 L1036 1013 L647 652 L899 0 L733 0 L520 547 L281 310 L229 0 Z " />
<glyph glyph-name="lambda" unicode="&#x3bb;" horiz-adv-x="856" d="M-60 0 L401 943 L298 1365 L452 1365 L785 0 L622 0 L450 758 L92 0 L-60 0 Z " />
<glyph glyph-name="mu" unicode="&#x3bc;" horiz-adv-x="1120" d="M15 -341 L242 1014 L398 1014 L302 446 Q289 368 289 319 Q289 243 340.5 177 Q392 111 486 111 Q741 111 799 459 L892 1014 L1048 1014 L878 0 L736 0 L764 168 Q694 52 627 12.5 Q560 -27 475 -27 Q311 -27 251 140 L171 -341 L15 -341 Z " />
<glyph glyph-name="nu" unicode="&#x3bd;" horiz-adv-x="910" d="M447 0 L303 0 L96 1014 L264 1014 L418 220 L816 1014 L957 1014 L447 0 Z " />
<glyph glyph-name="xi" unicode="&#x3be;" horiz-adv-x="866" d="M525 -329 Q608 -152 608 -83 Q608 -35 577.5 -19.5 Q547 -4 449 1 Q232 13 157 98 Q82 183 82 300 Q82 470 180.5 591.5 Q279 713 464 745 Q256 794 256 948 Q256 1049 344.5 1134.5 Q433 1220 587 1255 L306 1255 L324 1365 L1011 1365 L990 1237 L893 1237 Q761 1237 653 1207 Q545 1177 487.5 1114.5 Q430 1052 430 974 Q430 797 717 797 L780 797 L757 679 L698 679 Q548 679 456.5 644 Q365 609 311 523 Q257 437 257 341 Q257 261 303.5 209.5 Q350 158 484 152 Q619 146 672 135 Q725 124 756.5 87 Q788 50 788 -9 Q788 -155 673 -356 L525 -329 Z " />
<glyph glyph-name="omicron" unicode="&#x3bf;" horiz-adv-x="1066" d="M483 -30 Q294 -30 185 101.5 Q76 233 76 438 Q76 670 219 854 Q362 1038 586 1038 Q771 1038 881 911.5 Q991 785 991 567 Q991 341 850 155.5 Q709 -30 483 -30 Z M490 96 Q651 96 738 255 Q825 414 825 620 Q825 776 751.5 845.5 Q678 915 577 915 Q418 915 331 757 Q244 599 244 402 Q244 251 311 173.5 Q378 96 490 96 Z " />
<glyph glyph-name="pi" unicode="&#x3c0;" horiz-adv-x="1109" d="M106 0 L254 886 L126 886 L147 1014 L1133 1014 L1112 886 L983 886 L835 0 L679 0 L827 886 L410 886 L262 0 L106 0 Z " />
<glyph glyph-name="rho" unicode="&#x3c1;" horiz-adv-x="1100" d="M-12 -341 L105 361 Q152 638 186 736 Q220 834 281 903.5 Q342 973 422.5 1008 Q503 1043 607 1043 Q817 1043 922.5 928 Q1028 813 1028 615 Q1028 351 891 162 Q754 -27 539 -27 Q312 -27 235 203 L144 -341 L-12 -341 Z M612 917 Q448 917 367.5 772.5 Q287 628 287 396 Q287 248 351 173 Q415 98 521 98 Q681 98 769.5 253.5 Q858 409 858 618 Q858 917 612 917 Z " />
<glyph glyph-name="sigma1" unicode="&#x3c2;" horiz-adv-x="969" d="M573 -329 Q652 -191 652 -72 Q652 -24 628.5 -6 Q605 12 536 22 Q371 45 277.5 87.5 Q184 130 131 222.5 Q78 315 78 442 Q78 687 207 864.5 Q336 1042 565 1042 Q889 1042 911 687 L758 661 Q751 916 555 916 Q409 916 329.5 782.5 Q250 649 250 462 Q250 323 321.5 258 Q393 193 587 166 Q725 146 775.5 107.5 Q826 69 826 -30 Q826 -174 722 -356 L573 -329 Z " />
<glyph glyph-name="sigma" unicode="&#x3c3;" horiz-adv-x="1058" d="M1104 1014 L1082 886 L833 886 Q974 766 974 569 Q974 311 839 142 Q704 -27 479 -27 Q283 -27 180.5 87 Q78 201 78 399 Q78 659 219.5 845 Q361 1031 600 1031 Q663 1031 729 1014 L1104 1014 Z M582 916 Q429 916 339 772 Q249 628 249 401 Q249 245 319 171.5 Q389 98 484 98 Q625 98 715.5 233.5 Q806 369 806 604 Q806 916 582 916 Z " />
<glyph glyph-name="tau" unicode="&#x3c4;" horiz-adv-x="814" d="M245 0 L393 886 L84 886 L105 1014 L879 1014 L858 886 L548 886 L400 0 L245 0 Z " />
<glyph glyph-name="upsilon" unicode="&#x3c5;" horiz-adv-x="1063" d="M385 1014 L282 400 Q266 306 266 261 Q266 100 464 100 Q606 100 662 164.5 Q718 229 747 400 L849 1014 L1005 1014 L902 400 Q874 229 835 149 Q796 69 704 21 Q612 -27 443 -27 Q109 -27 109 233 Q109 296 131 427 L229 1014 L385 1014 Z " />
<glyph glyph-name="phi" unicode="&#x3c6;" horiz-adv-x="1323" d="M507 96 L664 1038 Q707 1042 755 1042 Q979 1042 1109 916.5 Q1239 791 1239 567 Q1239 321 1096 151.5 Q953 -18 641 -30 L589 -341 L434 -341 L486 -25 Q84 24 84 434 Q84 626 173.5 768.5 Q263 911 410 975 L459 857 Q248 731 248 440 Q248 150 507 96 Z M661 87 Q882 110 976 246 Q1070 382 1070 581 Q1070 896 801 924 L661 87 Z " />
<glyph glyph-name="chi" unicode="&#x3c7;" horiz-adv-x="928" d="M119 1014 L305 1014 L479 507 L826 1014 L980 1014 L527 371 L781 -341 L599 -341 L400 281 L-34 -341 L-192 -341 L344 406 L119 1014 Z " />
<glyph glyph-name="psi" unicode="&#x3c8;" horiz-adv-x="1410" d="M488 -341 L541 -27 Q354 -27 240.5 47 Q127 121 127 301 Q127 351 146 464 L238 1014 L394 1014 L301 464 Q285 364 285 304 Q285 103 562 100 L715 1014 L871 1014 L718 100 Q852 103 925.5 131 Q999 159 1033.5 216.5 Q1068 274 1091 409 L1192 1014 L1348 1014 L1247 409 Q1224 272 1200 207.5 Q1176 143 1115 86 Q1054 29 961.5 3 Q869 -23 696 -27 L644 -341 L488 -341 Z " />
<glyph glyph-name="omega" unicode="&#x3c9;" horiz-adv-x="1395" d="M812 759 L751 394 Q742 340 742 272 Q742 97 886 97 Q1137 97 1137 576 Q1137 799 1021 964 L1141 1042 Q1309 851 1309 550 Q1309 253 1191 112.5 Q1073 -28 891 -28 Q778 -28 729.5 17.5 Q681 63 654 148 Q560 -27 396 -27 Q248 -27 161.5 71.5 Q75 170 75 369 Q75 762 373 1042 L474 964 Q245 717 245 354 Q245 98 403 98 Q448 98 487.5 125 Q527 152 549 200.5 Q571 249 595 394 L656 759 L812 759 Z " />
<glyph glyph-name="iotadieresis" unicode="&#x3ca;" horiz-adv-x="471" d="M229 0 L72 0 L242 1014 L399 1014 L229 0 Z M634 1304 Q634 1261 602.5 1231 Q571 1201 528 1201 Q485 1201 453.5 1231 Q422 1261 422 1303 Q422 1346 453.5 1375.5 Q485 1405 527 1405 Q571 1405 602.5 1375.5 Q634 1346 634 1304 Z M312 1303 Q312 1261 280.5 1231 Q249 1201 207 1201 Q165 1201 134.5 1231 Q104 1261 104 1302 Q104 1345 134.5 1374.5 Q165 1404 204 1404 Q252 1404 282 1374 Q312 1344 312 1303 Z " />
<glyph glyph-name="upsilondieresis" unicode="&#x3cb;" horiz-adv-x="1063" d="M385 1014 L282 400 Q266 306 266 261 Q266 100 464 100 Q606 100 662 164.5 Q718 229 747 400 L849 1014 L1005 1014 L902 400 Q874 229 835 149 Q796 69 704 21 Q612 -27 443 -27 Q109 -27 109 233 Q109 296 131 427 L229 1014 L385 1014 Z M942 1304 Q942 1261 910.5 1231 Q879 1201 836 1201 Q793 1201 761.5 1231 Q730 1261 730 1303 Q730 1346 761.5 1375.5 Q793 1405 835 1405 Q879 1405 910.5 1375.5 Q942 1346 942 1304 Z M620 1303 Q620 1261 588.5 1231 Q557 1201 515 1201 Q473 1201 442.5 1231 Q412 1261 412 1302 Q412 1345 442.5 1374.5 Q473 1404 512 1404 Q560 1404 590 1374 Q620 1344 620 1303 Z " />
<glyph glyph-name="omicrontonos" unicode="&#x3cc;" horiz-adv-x="1066" d="M483 -30 Q294 -30 185 101.5 Q76 233 76 438 Q76 670 219 854 Q362 1038 586 1038 Q771 1038 881 911.5 Q991 785 991 567 Q991 341 850 155.5 Q709 -30 483 -30 Z M490 96 Q651 96 738 255 Q825 414 825 620 Q825 776 751.5 845.5 Q678 915 577 915 Q418 915 331 757 Q244 599 244 402 Q244 251 311 173.5 Q378 96 490 96 Z M912 1356 L511 1167 L468 1248 L850 1476 L912 1356 Z " />
<glyph glyph-name="upsilontonos" unicode="&#x3cd;" horiz-adv-x="1063" d="M385 1014 L282 400 Q266 306 266 261 Q266 100 464 100 Q606 100 662 164.5 Q718 229 747 400 L849 1014 L1005 1014 L902 400 Q874 229 835 149 Q796 69 704 21 Q612 -27 443 -27 Q109 -27 109 233 Q109 296 131 427 L229 1014 L385 1014 Z M908 1356 L507 1167 L464 1248 L846 1476 L908 1356 Z " />
<glyph glyph-name="omegatonos" unicode="&#x3ce;" horiz-adv-x="1395" d="M812 759 L751 394 Q742 340 742 272 Q742 97 886 97 Q1137 97 1137 576 Q1137 799 1021 964 L1141 1042 Q1309 851 1309 550 Q1309 253 1191 112.5 Q1073 -28 891 -28 Q778 -28 729.5 17.5 Q681 63 654 148 Q560 -27 396 -27 Q248 -27 161.5 71.5 Q75 170 75 369 Q75 762 373 1042 L474 964 Q245 717 245 354 Q245 98 403 98 Q448 98 487.5 125 Q527 152 549 200.5 Q571 249 595 394 L656 759 L812 759 Z M1097 1356 L696 1167 L653 1248 L1035 1476 L1097 1356 Z " />
<glyph glyph-name="afii10023" unicode="&#x401;" horiz-adv-x="1117" d="M86 0 L314 1365 L1165 1365 L1142 1229 L458 1229 L383 781 L969 781 L946 646 L361 646 L277 145 L1015 145 L991 0 L86 0 Z M1077 1625 Q1077 1582 1045.5 1552 Q1014 1522 971 1522 Q928 1522 896.5 1552 Q865 1582 865 1624 Q865 1667 896.5 1696.5 Q928 1726 970 1726 Q1014 1726 1045.5 1696.5 Q1077 1667 1077 1625 Z M755 1624 Q755 1582 723.5 1552 Q692 1522 650 1522 Q608 1522 577.5 1552 Q547 1582 547 1623 Q547 1666 577.5 1695.5 Q608 1725 647 1725 Q695 1725 725 1695 Q755 1665 755 1624 Z " />
<glyph glyph-name="afii10051" unicode="&#x402;" horiz-adv-x="1277" d="M154 0 L358 1221 L120 1221 L144 1365 L1104 1365 L1080 1221 L525 1221 L437 696 Q600 899 841 899 Q997 899 1080.5 831.5 Q1164 764 1164 578 Q1164 423 1102 144 Q1040 -135 914 -244.5 Q788 -354 583 -356 L597 -212 Q737 -212 812 -141 Q887 -70 937.5 159.5 Q988 389 988 569 Q988 761 785 761 Q623 761 520.5 673 Q418 585 392 427 L321 0 L154 0 Z " />
<glyph glyph-name="afii10052" unicode="&#x403;" horiz-adv-x="929" d="M86 0 L314 1365 L1031 1365 L1007 1221 L457 1221 L253 0 L86 0 Z M967 1677 L566 1488 L523 1569 L905 1797 L967 1677 Z " />
<glyph glyph-name="afii10053" unicode="&#x404;" horiz-adv-x="1242" d="M893 785 L869 640 L328 640 Q322 584 322 544 Q322 359 406.5 235.5 Q491 112 669 112 Q935 112 1053 391 L1215 354 Q1073 -27 673 -27 Q374 -27 257.5 155 Q141 337 141 577 Q141 898 313 1145.5 Q485 1393 786 1393 Q1191 1393 1264 1028 L1099 997 Q1034 1255 783 1255 Q595 1255 485.5 1112 Q376 969 345 785 L893 785 Z " />
<glyph glyph-name="afii10054" unicode="&#x405;" horiz-adv-x="1171" d="M1114 1080 L970 1025 Q932 1138 838 1205.5 Q744 1273 622 1273 Q473 1273 399.5 1202 Q326 1131 326 1034 Q326 970 358.5 924.5 Q391 879 443.5 856.5 Q496 834 636 799 Q820 752 897 714.5 Q974 677 1029 595 Q1084 513 1084 399 Q1084 206 942.5 88.5 Q801 -29 566 -29 Q125 -29 8 351 L157 405 Q250 109 566 109 Q736 109 825.5 191 Q915 273 915 381 Q915 447 882.5 496.5 Q850 546 799 569.5 Q748 593 633 621 Q457 663 361.5 707 Q266 751 211.5 830.5 Q157 910 157 1017 Q157 1181 280.5 1291.5 Q404 1402 608 1402 Q983 1402 1114 1080 Z " />
<glyph glyph-name="afii10055" unicode="&#x406;" horiz-adv-x="508" d="M481 1365 L253 0 L86 0 L314 1365 L481 1365 Z " />
<glyph glyph-name="afii10056" unicode="&#x407;" horiz-adv-x="508" d="M481 1365 L253 0 L86 0 L314 1365 L481 1365 Z M694 1625 Q694 1582 662.5 1552 Q631 1522 588 1522 Q545 1522 513.5 1552 Q482 1582 482 1624 Q482 1667 513.5 1696.5 Q545 1726 587 1726 Q631 1726 662.5 1696.5 Q694 1667 694 1625 Z M372 1624 Q372 1582 340.5 1552 Q309 1522 267 1522 Q225 1522 194.5 1552 Q164 1582 164 1623 Q164 1666 194.5 1695.5 Q225 1725 264 1725 Q312 1725 342 1695 Q372 1665 372 1624 Z " />
<glyph glyph-name="afii10057" unicode="&#x408;" horiz-adv-x="755" d="M741 1365 L600 522 Q564 304 521 208 Q478 112 374.5 45.5 Q271 -21 120 -21 Q20 -21 -85 0 L-61 140 Q8 124 91 124 Q198 124 266.5 162.5 Q335 201 364.5 264.5 Q394 328 420 480 L568 1365 L741 1365 Z " />
<glyph glyph-name="afii10058" unicode="&#x409;" horiz-adv-x="1615" d="M875 819 L1142 819 Q1289 819 1374 790.5 Q1459 762 1509 681.5 Q1559 601 1559 475 Q1559 280 1443 140 Q1327 0 1055 0 L756 0 L691 1183 L638 1183 L71 0 L-91 0 L587 1365 L830 1365 L875 819 Z M931 145 L1072 145 Q1252 145 1319.5 240.5 Q1387 336 1387 464 Q1387 574 1332 624 Q1277 674 1135 674 L887 674 L931 145 Z " />
<glyph glyph-name="afii10059" unicode="&#x40a;" horiz-adv-x="1901" d="M1133 798 L1379 798 Q1596 798 1685.5 756 Q1775 714 1813 644.5 Q1851 575 1851 466 Q1851 283 1734 141.5 Q1617 0 1316 0 L833 0 L942 654 L362 654 L253 0 L86 0 L314 1365 L481 1365 L386 798 L966 798 L1061 1365 L1228 1365 L1133 798 Z M1023 145 L1340 145 Q1530 145 1604 236 Q1678 327 1678 460 Q1678 551 1623.5 602.5 Q1569 654 1425 654 L1109 654 L1023 145 Z " />
<glyph glyph-name="afii10060" unicode="&#x40b;" horiz-adv-x="1291" d="M525 1221 L440 712 Q612 900 842 900 Q995 900 1084.5 820 Q1174 740 1174 587 Q1174 542 1159 452 L1084 0 L917 0 L995 466 Q1005 528 1005 565 Q1005 651 953.5 707 Q902 763 788 763 Q571 763 420 594 L321 0 L154 0 L358 1221 L120 1221 L144 1365 L1111 1365 L1087 1221 L525 1221 Z " />
<glyph glyph-name="afii10061" unicode="&#x40c;" horiz-adv-x="1225" d="M1291 1365 L830 889 L1154 0 L979 0 L703 770 L315 372 L253 0 L86 0 L314 1365 L481 1365 L351 587 L1101 1365 L1291 1365 Z M1083 1677 L682 1488 L639 1569 L1021 1797 L1083 1677 Z " />
<glyph glyph-name="afii10062" unicode="&#x40e;" horiz-adv-x="1021" d="M458 401 L136 1365 L315 1365 L569 578 L1017 1365 L1186 1365 L577 321 Q474 144 385 72 Q296 0 121 0 L87 0 L112 146 L137 146 Q225 146 281 177 Q337 208 416 333 L458 401 Z M416 1789 L526 1789 Q531 1646 681 1646 Q754 1646 803 1673 Q852 1700 891 1789 L1005 1789 Q929 1534 676 1534 Q539 1534 478 1597.5 Q417 1661 416 1789 Z " />
<glyph glyph-name="afii10145" unicode="&#x40f;" horiz-adv-x="1332" d="M291 145 L921 145 L1125 1365 L1292 1365 L1064 0 L662 0 L593 -287 L465 -287 L492 0 L100 0 L328 1365 L495 1365 L291 145 Z " />
<glyph glyph-name="afii10017" unicode="&#x410;" horiz-adv-x="1155" d="M792 400 L294 400 L98 0 L-57 0 L612 1365 L801 1365 L1039 0 L863 0 L792 400 Z M772 537 L667 1164 L359 537 L772 537 Z " />
<glyph glyph-name="afii10018" unicode="&#x411;" horiz-adv-x="1200" d="M86 0 L314 1365 L1113 1365 L1089 1221 L457 1221 L386 798 L664 798 Q813 798 903 772 Q993 746 1048.5 667 Q1104 588 1104 460 Q1104 276 984 138 Q864 0 580 0 L86 0 Z M277 145 L597 145 Q787 145 859 236.5 Q931 328 931 454 Q931 536 881.5 595 Q832 654 657 654 L362 654 L277 145 Z " />
<glyph glyph-name="afii10019" unicode="&#x412;" horiz-adv-x="1251" d="M86 0 L314 1365 L742 1365 Q905 1365 987.5 1341.5 Q1070 1318 1133 1237 Q1196 1156 1196 1043 Q1196 796 929 714 Q1028 683 1087 599.5 Q1146 516 1146 402 Q1146 298 1103 212.5 Q1060 127 993.5 81 Q927 35 861.5 17.5 Q796 0 620 0 L86 0 Z M383 777 L641 777 Q794 777 867 799.5 Q940 822 986 885 Q1032 948 1032 1037 Q1032 1110 994 1159.5 Q956 1209 901 1222 Q846 1235 720 1235 L459 1233 L383 777 Z M275 135 L571 135 Q747 135 817.5 156 Q888 177 935 245.5 Q982 314 982 419 Q982 507 940.5 561 Q899 615 841 631 Q783 647 637 647 L361 647 L275 135 Z " />
<glyph glyph-name="afii10020" unicode="&#x413;" horiz-adv-x="888" d="M86 0 L314 1365 L1031 1365 L1007 1221 L457 1221 L253 0 L86 0 Z " />
<glyph glyph-name="afii10021" unicode="&#x414;" horiz-adv-x="1262" d="M72 145 L641 1365 L915 1365 L1089 145 L1191 145 L1119 -287 L985 -287 L1013 0 L100 0 L32 -287 L-101 -287 L-29 145 L72 145 Z M236 145 L922 145 L784 1227 L713 1227 L236 145 Z " />
<glyph glyph-name="afii10022" unicode="&#x415;" horiz-adv-x="1144" d="M86 0 L314 1365 L1165 1365 L1142 1229 L458 1229 L383 781 L969 781 L946 646 L361 646 L277 145 L1015 145 L991 0 L86 0 Z " />
<glyph glyph-name="afii10024" unicode="&#x416;" horiz-adv-x="1542" d="M1144 764 L1508 0 L1318 0 L987 683 L873 653 L764 0 L608 0 L718 653 L617 691 L78 0 L-105 0 L492 755 L178 1365 L382 1365 L668 786 L736 764 L837 1365 L992 1365 L892 764 L979 787 L1471 1365 L1660 1365 L1144 764 Z " />
<glyph glyph-name="afii10025" unicode="&#x417;" horiz-adv-x="1131" d="M-5 379 L151 414 Q186 110 506 110 Q679 110 769.5 199.5 Q860 289 860 414 Q860 527 786 583.5 Q712 640 533 640 L454 640 L478 784 L593 784 Q728 784 811 857.5 Q894 931 894 1047 Q894 1146 823 1200.5 Q752 1255 620 1255 Q461 1255 382 1191.5 Q303 1128 265 994 L106 1014 Q165 1226 292.5 1309.5 Q420 1393 626 1393 Q839 1393 956 1304.5 Q1073 1216 1073 1064 Q1073 802 759 722 Q1039 685 1039 434 Q1039 234 898.5 103.5 Q758 -27 498 -27 Q32 -27 -5 379 Z " />
<glyph glyph-name="afii10026" unicode="&#x418;" horiz-adv-x="1351" d="M271 113 L253 0 L86 0 L314 1365 L481 1365 L347 563 Q326 439 290 290 Q412 467 514 576 L1136 1233 L1158 1365 L1324 1365 L1096 0 L929 0 L1060 783 Q1088 945 1117 1056 Q993 876 893 770 L271 113 Z " />
<glyph glyph-name="afii10027" unicode="&#x419;" horiz-adv-x="1351" d="M271 113 L253 0 L86 0 L314 1365 L481 1365 L347 563 Q326 439 290 290 Q412 467 514 576 L1136 1233 L1158 1365 L1324 1365 L1096 0 L929 0 L1060 783 Q1088 945 1117 1056 Q993 876 893 770 L271 113 Z M594 1789 L704 1789 Q709 1646 859 1646 Q932 1646 981 1673 Q1030 1700 1069 1789 L1183 1789 Q1107 1534 854 1534 Q717 1534 656 1597.5 Q595 1661 594 1789 Z " />
<glyph glyph-name="afii10028" unicode="&#x41a;" horiz-adv-x="1275" d="M1291 1365 L830 889 L1154 0 L979 0 L703 770 L315 372 L253 0 L86 0 L314 1365 L481 1365 L351 587 L1101 1365 L1291 1365 Z " />
<glyph glyph-name="afii10029" unicode="&#x41b;" horiz-adv-x="1131" d="M103 0 L-64 0 L602 1365 L818 1365 L1048 0 L878 0 L690 1227 L675 1227 L103 0 Z " />
<glyph glyph-name="afii10030" unicode="&#x41c;" horiz-adv-x="1670" d="M1414 0 L1248 0 L1458 1253 L802 0 L676 0 L432 1233 L225 0 L86 0 L314 1365 L567 1365 L790 247 L1374 1365 L1643 1365 L1414 0 Z " />
<glyph glyph-name="afii10031" unicode="&#x41d;" horiz-adv-x="1343" d="M1030 646 L361 646 L253 0 L86 0 L314 1365 L481 1365 L385 791 L1054 791 L1150 1365 L1317 1365 L1088 0 L922 0 L1030 646 Z " />
<glyph glyph-name="afii10032" unicode="&#x41e;" horiz-adv-x="1315" d="M629 -27 Q394 -27 253 141.5 Q112 310 112 585 Q112 895 286 1144 Q460 1393 748 1393 Q976 1393 1120 1235 Q1264 1077 1264 801 Q1264 474 1093 223.5 Q922 -27 629 -27 Z M629 110 Q785 110 894.5 228.5 Q1004 347 1047 528.5 Q1090 710 1090 836 Q1090 1033 992 1144 Q894 1255 742 1255 Q524 1255 405.5 1036.5 Q287 818 287 550 Q287 338 383 224 Q479 110 629 110 Z " />
<glyph glyph-name="afii10033" unicode="&#x41f;" horiz-adv-x="1305" d="M86 0 L314 1365 L1278 1365 L1049 0 L883 0 L1087 1221 L457 1221 L253 0 L86 0 Z " />
<glyph glyph-name="afii10034" unicode="&#x420;" horiz-adv-x="1140" d="M345 552 L253 0 L86 0 L314 1365 L689 1365 Q855 1365 948.5 1335.5 Q1042 1306 1108 1206 Q1174 1106 1174 988 Q1174 831 1059.5 691.5 Q945 552 620 552 L345 552 Z M368 688 L555 688 Q729 688 807 706 Q885 724 942.5 800.5 Q1000 877 1000 984 Q1000 1067 965 1126.5 Q930 1186 875 1208.5 Q820 1231 685 1231 L458 1229 L368 688 Z " />
<glyph glyph-name="afii10035" unicode="&#x421;" horiz-adv-x="1179" d="M1207 945 L1058 908 Q1035 1107 946 1184.5 Q857 1262 739 1262 Q602 1262 503.5 1168 Q405 1074 345 888 Q285 702 285 540 Q285 336 374.5 225.5 Q464 115 611 115 Q844 115 979 436 L1118 384 Q965 -23 607 -23 Q368 -23 238.5 145 Q109 313 109 573 Q109 884 283.5 1141.5 Q458 1399 734 1399 Q912 1399 1045 1291 Q1178 1183 1207 945 Z " />
<glyph glyph-name="afii10036" unicode="&#x422;" horiz-adv-x="1000" d="M1099 1226 L704 1226 L498 0 L332 0 L537 1226 L141 1226 L164 1365 L1123 1365 L1099 1226 Z " />
<glyph glyph-name="afii10037" unicode="&#x423;" horiz-adv-x="1021" d="M458 401 L136 1365 L315 1365 L569 578 L1017 1365 L1186 1365 L577 321 Q474 144 385 72 Q296 0 121 0 L87 0 L112 146 L137 146 Q225 146 281 177 Q337 208 416 333 L458 401 Z " />
<glyph glyph-name="afii10038" unicode="&#x424;" horiz-adv-x="1530" d="M830 1365 L996 1365 L974 1236 Q1466 1179 1466 756 Q1466 499 1298 316 Q1130 133 789 125 L768 0 L601 0 L623 129 Q132 187 132 609 Q132 866 299.5 1049 Q467 1232 809 1241 L830 1365 Z M789 1121 Q552 1117 431 971.5 Q310 826 310 617 Q310 305 643 250 L789 1121 Z M809 245 Q1048 250 1168 395.5 Q1288 541 1288 749 Q1288 1061 954 1115 L809 245 Z " />
<glyph glyph-name="afii10039" unicode="&#x425;" horiz-adv-x="1103" d="M1012 0 L819 0 L548 574 L93 0 L-80 0 L480 700 L161 1365 L348 1365 L596 837 L1015 1365 L1189 1365 L666 714 L1012 0 Z " />
<glyph glyph-name="afii10040" unicode="&#x426;" horiz-adv-x="1343" d="M100 0 L328 1365 L495 1365 L291 145 L928 145 L1132 1365 L1299 1365 L1095 145 L1269 145 L1197 -287 L1064 -287 L1091 0 L100 0 Z " />
<glyph glyph-name="afii10041" unicode="&#x427;" horiz-adv-x="1226" d="M805 0 L914 654 Q736 466 496 466 Q332 466 242.5 551 Q153 636 153 788 Q153 830 167 914 L242 1365 L409 1365 L331 900 Q321 839 321 802 Q321 714 376.5 659 Q432 604 551 604 Q777 604 934 772 L1033 1365 L1200 1365 L972 0 L805 0 Z " />
<glyph glyph-name="afii10042" unicode="&#x428;" horiz-adv-x="1881" d="M100 0 L328 1365 L495 1365 L291 145 L797 145 L1002 1365 L1168 1365 L964 145 L1470 145 L1675 1365 L1841 1365 L1613 0 L100 0 Z " />
<glyph glyph-name="afii10043" unicode="&#x429;" horiz-adv-x="1899" d="M1637 145 L1826 145 L1753 -287 L1620 -287 L1647 0 L100 0 L328 1365 L495 1365 L291 145 L797 145 L1002 1365 L1168 1365 L964 145 L1470 145 L1675 1365 L1841 1365 L1637 145 Z " />
<glyph glyph-name="afii10044" unicode="&#x42a;" horiz-adv-x="1301" d="M247 0 L451 1221 L79 1221 L103 1365 L642 1365 L551 819 L828 819 Q975 819 1060 790.5 Q1145 762 1195.5 681 Q1246 600 1246 475 Q1246 281 1130 140.5 Q1014 0 741 0 L247 0 Z M438 145 L758 145 Q938 145 1005.5 240.5 Q1073 336 1073 465 Q1073 574 1018 624 Q963 674 821 674 L526 674 L438 145 Z " />
<glyph glyph-name="afii10045" unicode="&#x42b;" horiz-adv-x="1676" d="M1237 0 L1466 1365 L1632 1365 L1404 0 L1237 0 Z M102 0 L330 1365 L497 1365 L406 819 L683 819 Q830 819 915 790.5 Q1000 762 1050.5 681.5 Q1101 601 1101 475 Q1101 280 985 140 Q869 0 596 0 L102 0 Z M293 145 L613 145 Q793 145 860.5 240.5 Q928 336 928 464 Q928 553 884 613.5 Q840 674 676 674 L381 674 L293 145 Z " />
<glyph glyph-name="afii10046" unicode="&#x42c;" horiz-adv-x="1140" d="M86 0 L314 1365 L481 1365 L390 819 L667 819 Q814 819 899 790.5 Q984 762 1034.5 681.5 Q1085 601 1085 475 Q1085 280 969 140 Q853 0 580 0 L86 0 Z M277 145 L597 145 Q777 145 844.5 240.5 Q912 336 912 464 Q912 553 868 613.5 Q824 674 660 674 L365 674 L277 145 Z " />
<glyph glyph-name="afii10047" unicode="&#x42d;" horiz-adv-x="1229" d="M413 640 L437 785 L978 785 Q979 816 979 830 Q979 1015 894 1135 Q809 1255 631 1255 Q506 1255 420.5 1197 Q335 1139 273 997 L114 1028 Q263 1393 643 1393 Q890 1393 1024.5 1244.5 Q1159 1096 1159 794 Q1159 415 984 194.5 Q809 -26 518 -26 Q271 -26 159.5 82 Q48 190 16 358 L179 392 Q233 112 500 112 Q692 112 814.5 260 Q937 408 961 640 L413 640 Z " />
<glyph glyph-name="afii10048" unicode="&#x42e;" horiz-adv-x="1839" d="M639 654 L362 654 L253 0 L86 0 L314 1365 L481 1365 L386 798 L660 798 Q723 1072 884.5 1232.5 Q1046 1393 1272 1393 Q1502 1393 1645.5 1232.5 Q1789 1072 1789 801 Q1789 473 1617 223 Q1445 -27 1153 -27 Q918 -27 777 141 Q636 309 636 585 Q636 616 639 654 Z M1153 110 Q1309 110 1418 228.5 Q1527 347 1570.5 527 Q1614 707 1614 836 Q1614 1033 1515.5 1144 Q1417 1255 1266 1255 Q1048 1255 929.5 1036.5 Q811 818 811 551 Q811 337 906.5 223.5 Q1002 110 1153 110 Z " />
<glyph glyph-name="afii10049" unicode="&#x42f;" horiz-adv-x="1262" d="M932 591 L541 591 L176 0 L-17 0 L384 632 Q185 711 185 925 Q185 1084 258 1188.5 Q331 1293 433 1329 Q535 1365 711 1365 L1221 1365 L993 0 L833 0 L932 591 Z M1038 1226 L660 1226 Q479 1226 418 1137.5 Q357 1049 357 945 Q357 730 598 730 L955 730 L1038 1226 Z " />
<glyph glyph-name="afii10065" unicode="&#x430;" horiz-adv-x="1096" d="M877 0 L718 0 Q717 31 717 51 Q717 129 735 198 Q582 -29 355 -29 Q213 -29 122.5 58 Q32 145 32 276 Q32 423 162 527 Q292 631 647 631 Q679 631 800 625 Q811 690 811 731 Q811 923 578 923 Q373 923 285 752 L137 815 Q257 1045 568 1045 Q740 1045 856 969.5 Q972 894 972 756 Q972 700 895 230 Q874 103 874 43 Q874 34 877 0 Z M781 509 Q709 515 643 515 Q205 515 205 269 Q205 193 252.5 147 Q300 101 385 101 Q519 101 634.5 216 Q750 331 781 509 Z " />
<glyph glyph-name="afii10066" unicode="&#x431;" horiz-adv-x="1101" d="M834 1458 L1003 1458 Q986 1362 924 1317 Q862 1272 709 1245 Q590 1224 530.5 1192.5 Q471 1161 422 1084 Q373 1007 338 874 Q468 1042 648 1042 Q798 1042 910.5 939.5 Q1023 837 1023 615 Q1023 324 883 148.5 Q743 -27 514 -27 Q319 -27 215 85 Q111 197 111 413 Q111 578 158.5 787 Q206 996 280.5 1113 Q355 1230 441 1277.5 Q527 1325 669 1350 Q754 1365 786.5 1385.5 Q819 1406 834 1458 Z M619 916 Q468 916 374 774.5 Q280 633 280 420 Q280 256 350 177 Q420 98 521 98 Q668 98 760 240.5 Q852 383 852 599 Q852 756 786 836 Q720 916 619 916 Z " />
<glyph glyph-name="afii10067" unicode="&#x432;" horiz-adv-x="1085" d="M79 0 L249 1014 L686 1014 Q797 1014 861 995 Q925 976 963 924 Q1001 872 1001 792 Q1001 603 780 536 Q964 478 964 304 Q964 166 869.5 83 Q775 0 631 0 L79 0 Z M333 590 L656 590 Q828 590 828 775 Q828 886 678 886 L383 886 L333 590 Z M256 128 L578 128 Q792 128 792 324 Q792 462 603 462 L312 462 L256 128 Z " />
<glyph glyph-name="afii10068" unicode="&#x433;" horiz-adv-x="750" d="M835 1014 L813 886 L376 886 L228 0 L72 0 L242 1014 L835 1014 Z " />
<glyph glyph-name="afii10069" unicode="&#x434;" horiz-adv-x="973" d="M27 123 L467 1010 L700 1010 L818 123 L889 123 L830 -232 L713 -232 L732 0 L71 0 L12 -232 L-104 -232 L-45 123 L27 123 Z M174 123 L656 123 L577 860 L525 860 L174 123 Z " />
<glyph glyph-name="afii10070" unicode="&#x435;" horiz-adv-x="1065" d="M938 237 Q782 -29 500 -29 Q309 -29 188.5 96 Q68 221 68 434 Q68 696 218 871 Q368 1046 590 1046 Q699 1046 793.5 999 Q888 952 940.5 852 Q993 752 993 609 Q993 558 984 493 L237 493 Q231 445 231 414 Q231 275 304 188.5 Q377 102 502 102 Q588 102 657.5 140.5 Q727 179 807 299 L938 237 Z M257 608 L833 608 Q835 640 835 656 Q835 779 765 852.5 Q695 926 583 926 Q456 926 367.5 831.5 Q279 737 257 608 Z " />
<glyph glyph-name="afii10072" unicode="&#x436;" horiz-adv-x="1209" d="M892 569 L1165 0 L987 0 L758 495 L673 457 L596 0 L450 0 L526 457 L455 489 L52 0 L-116 0 L347 563 L109 1014 L287 1014 L509 583 L544 563 L620 1014 L766 1014 L690 563 L732 583 L1098 1014 L1279 1014 L892 569 Z " />
<glyph glyph-name="afii10073" unicode="&#x437;" horiz-adv-x="906" d="M324 466 L345 594 Q446 594 507.5 607 Q569 620 609 666.5 Q649 713 649 777 Q649 916 479 916 Q290 916 230 732 L86 758 Q174 1042 486 1042 Q653 1042 737.5 973 Q822 904 822 800 Q822 622 598 537 Q792 483 792 315 Q792 184 690 78 Q588 -28 397 -28 Q31 -28 -11 299 L138 325 Q169 98 381 98 Q494 98 558 163 Q622 228 622 320 Q622 378 588.5 413.5 Q555 449 500.5 457.5 Q446 466 324 466 Z " />
<glyph glyph-name="afii10074" unicode="&#x438;" horiz-adv-x="1115" d="M243 87 L229 0 L73 0 L243 1014 L398 1014 L313 504 Q286 342 267 262 Q376 398 436 461 L871 912 L888 1014 L1043 1014 L874 0 L718 0 L788 419 Q813 567 846 732 Q774 634 674 531 L243 87 Z " />
<glyph glyph-name="afii10075" unicode="&#x439;" horiz-adv-x="1115" d="M243 87 L229 0 L73 0 L243 1014 L398 1014 L313 504 Q286 342 267 262 Q376 398 436 461 L871 912 L888 1014 L1043 1014 L874 0 L718 0 L788 419 Q813 567 846 732 Q774 634 674 531 L243 87 Z M409 1438 L519 1438 Q524 1295 674 1295 Q747 1295 796 1322 Q845 1349 884 1438 L998 1438 Q922 1183 669 1183 Q532 1183 471 1246.5 Q410 1310 409 1438 Z " />
<glyph glyph-name="afii10076" unicode="&#x43a;" horiz-adv-x="1006" d="M229 0 L73 0 L243 1014 L398 1014 L313 504 L853 1013 L1036 1013 L647 652 L899 0 L733 0 L520 547 L281 310 L229 0 Z " />
<glyph glyph-name="afii10077" unicode="&#x43b;" horiz-adv-x="856" d="M-81 0 L421 1010 L611 1010 L768 0 L605 0 L488 819 L458 819 L65 0 L-81 0 Z " />
<glyph glyph-name="afii10078" unicode="&#x43c;" horiz-adv-x="1444" d="M72 0 L242 1014 L504 1014 L657 155 L1110 1014 L1371 1014 L1202 0 L1046 0 L1193 879 L1176 879 L708 0 L539 0 L374 893 L356 893 L207 0 L72 0 Z " />
<glyph glyph-name="afii10079" unicode="&#x43d;" horiz-adv-x="1107" d="M66 0 L236 1014 L391 1014 L321 592 L817 592 L887 1014 L1043 1014 L873 0 L717 0 L795 464 L299 464 L222 0 L66 0 Z " />
<glyph glyph-name="afii10080" unicode="&#x43e;" horiz-adv-x="1066" d="M483 -30 Q294 -30 185 101.5 Q76 233 76 438 Q76 670 219 854 Q362 1038 586 1038 Q771 1038 881 911.5 Q991 785 991 567 Q991 341 850 155.5 Q709 -30 483 -30 Z M490 96 Q651 96 738 255 Q825 414 825 620 Q825 776 751.5 845.5 Q678 915 577 915 Q418 915 331 757 Q244 599 244 402 Q244 251 311 173.5 Q378 96 490 96 Z " />
<glyph glyph-name="afii10081" unicode="&#x43f;" horiz-adv-x="1085" d="M73 0 L243 1014 L1013 1014 L844 0 L688 0 L836 886 L377 886 L229 0 L73 0 Z " />
<glyph glyph-name="afii10082" unicode="&#x440;" horiz-adv-x="1097" d="M171 -341 L15 -341 L241 1009 L386 1009 L354 803 Q495 1032 694 1032 Q834 1032 929 918 Q1024 804 1024 600 Q1024 361 891 167 Q758 -27 554 -27 Q361 -27 253 148 L171 -341 Z M530 100 Q696 100 775.5 266.5 Q855 433 855 627 Q855 763 792 833.5 Q729 904 639 904 Q511 904 404 743.5 Q297 583 297 381 Q297 254 360.5 177 Q424 100 530 100 Z " />
<glyph glyph-name="afii10083" unicode="&#x441;" horiz-adv-x="971" d="M940 690 L787 657 Q772 779 707.5 844 Q643 909 556 909 Q397 909 318.5 748 Q240 587 240 399 Q240 254 305.5 179.5 Q371 105 471 105 Q652 105 751 349 L879 301 Q829 146 715 56.5 Q601 -33 455 -33 Q268 -33 170.5 114.5 Q73 262 73 441 Q73 668 207.5 857 Q342 1046 560 1046 Q712 1046 819 946.5 Q926 847 940 690 Z " />
<glyph glyph-name="afii10084" unicode="&#x442;" horiz-adv-x="730" d="M201 0 L350 886 L64 886 L85 1014 L815 1014 L794 886 L505 886 L357 0 L201 0 Z " />
<glyph glyph-name="afii10085" unicode="&#x443;" horiz-adv-x="870" d="M941 1014 L385 -55 Q282 -254 192 -305 Q102 -356 2 -356 Q-40 -356 -98 -349 L-75 -213 Q-24 -223 11 -223 Q172 -223 259 -43 L294 28 L82 1014 L242 1014 L406 243 L805 1014 L941 1014 Z " />
<glyph glyph-name="afii10086" unicode="&#x444;" horiz-adv-x="1223" d="M598 -27 L545 -341 L403 -341 L457 -20 Q279 3 181 128 Q83 253 83 430 Q83 684 232.5 854.5 Q382 1025 634 1036 L689 1365 L831 1365 L774 1027 Q941 998 1045.5 881 Q1150 764 1150 584 Q1150 339 1007.5 164 Q865 -11 598 -27 Z M614 922 Q425 902 335.5 767.5 Q246 633 246 427 Q246 158 477 100 L614 922 Z M616 86 Q798 104 892 239 Q986 374 986 582 Q986 854 755 911 L616 86 Z " />
<glyph glyph-name="afii10087" unicode="&#x445;" horiz-adv-x="893" d="M812 0 L635 0 L424 418 L95 0 L-63 0 L356 525 L102 1013 L281 1013 L465 652 L746 1013 L898 1013 L527 543 L812 0 Z " />
<glyph glyph-name="afii10088" unicode="&#x446;" horiz-adv-x="1083" d="M72 0 L242 1014 L397 1014 L249 128 L704 128 L852 1014 L1008 1014 L860 128 L1013 128 L952 -233 L838 -233 L856 0 L72 0 Z " />
<glyph glyph-name="afii10089" unicode="&#x447;" horiz-adv-x="984" d="M594 0 L668 440 Q505 336 357 336 Q233 336 164.5 393 Q96 450 96 543 Q96 586 114 695 L168 1014 L323 1014 L276 733 Q262 648 262 599 Q262 514 311 488 Q360 462 429 462 Q570 462 684 533 L764 1014 L920 1014 L750 0 L594 0 Z " />
<glyph glyph-name="afii10090" unicode="&#x448;" horiz-adv-x="1603" d="M86 0 L256 1014 L411 1014 L263 128 L660 128 L809 1014 L964 1014 L816 128 L1213 128 L1362 1014 L1517 1014 L1348 0 L86 0 Z " />
<glyph glyph-name="afii10091" unicode="&#x449;" horiz-adv-x="1612" d="M89 0 L259 1014 L414 1014 L266 128 L663 128 L812 1014 L967 1014 L819 128 L1216 128 L1365 1014 L1520 1014 L1372 128 L1542 128 L1486 -204 L1372 -204 L1385 0 L89 0 Z " />
<glyph glyph-name="afii10092" unicode="&#x44a;" horiz-adv-x="1055" d="M155 0 L304 886 L23 886 L44 1014 L481 1014 L415 622 L669 622 Q840 622 916 540.5 Q992 459 992 335 Q992 185 892 92.5 Q792 0 619 0 L155 0 Z M333 128 L604 128 Q821 128 821 335 Q821 493 638 493 L394 493 L333 128 Z " />
<glyph glyph-name="afii10093" unicode="&#x44b;" horiz-adv-x="1427" d="M86 0 L256 1014 L411 1014 L346 622 L599 622 Q771 622 847 540.5 Q923 459 923 336 Q923 185 822.5 92.5 Q722 0 550 0 L86 0 Z M263 128 L535 128 Q751 128 751 335 Q751 493 569 493 L324 493 L263 128 Z M1016 0 L1186 1014 L1342 1014 L1172 0 L1016 0 Z " />
<glyph glyph-name="afii10094" unicode="&#x44c;" horiz-adv-x="973" d="M73 0 L243 1014 L398 1014 L333 622 L586 622 Q758 622 834 540.5 Q910 459 910 336 Q910 185 809.5 92.5 Q709 0 537 0 L73 0 Z M250 128 L522 128 Q738 128 738 335 Q738 493 556 493 L311 493 L250 128 Z " />
<glyph glyph-name="afii10095" unicode="&#x44d;" horiz-adv-x="978" d="M317 454 L339 582 L742 582 Q742 916 497 916 Q398 916 324.5 859.5 Q251 803 218 722 L76 756 Q210 1042 512 1042 Q905 1042 905 579 Q905 287 771.5 130 Q638 -27 403 -27 Q61 -27 2 272 L149 303 Q198 98 401 98 Q533 98 622.5 193 Q712 288 727 454 L317 454 Z " />
<glyph glyph-name="afii10096" unicode="&#x44e;" horiz-adv-x="1537" d="M547 475 L318 475 L239 0 L72 0 L242 1014 L408 1014 L339 603 L566 603 Q614 796 744.5 919 Q875 1042 1058 1042 Q1254 1042 1357.5 907.5 Q1461 773 1461 584 Q1461 337 1317 155 Q1173 -27 957 -27 Q844 -27 753.5 21.5 Q663 70 605 175.5 Q547 281 547 475 Z M960 98 Q1121 98 1208 256.5 Q1295 415 1295 623 Q1295 779 1221.5 849 Q1148 919 1047 919 Q888 919 801 760.5 Q714 602 714 405 Q714 244 784.5 171 Q855 98 960 98 Z " />
<glyph glyph-name="afii10097" unicode="&#x44f;" horiz-adv-x="1051" d="M654 0 L723 412 L439 412 L154 0 L-12 0 L302 444 Q139 511 139 682 Q139 818 232 916 Q325 1014 515 1014 L979 1014 L810 0 L654 0 Z M744 540 L802 886 L522 886 Q305 886 305 680 Q305 540 450 540 L744 540 Z " />
<glyph glyph-name="afii10071" unicode="&#x451;" horiz-adv-x="1065" d="M938 237 Q782 -29 500 -29 Q309 -29 188.5 96 Q68 221 68 434 Q68 696 218 871 Q368 1046 590 1046 Q699 1046 793.5 999 Q888 952 940.5 852 Q993 752 993 609 Q993 558 984 493 L237 493 Q231 445 231 414 Q231 275 304 188.5 Q377 102 502 102 Q588 102 657.5 140.5 Q727 179 807 299 L938 237 Z M257 608 L833 608 Q835 640 835 656 Q835 779 765 852.5 Q695 926 583 926 Q456 926 367.5 831.5 Q279 737 257 608 Z M913 1304 Q913 1261 881.5 1231 Q850 1201 807 1201 Q764 1201 732.5 1231 Q701 1261 701 1303 Q701 1346 732.5 1375.5 Q764 1405 806 1405 Q850 1405 881.5 1375.5 Q913 1346 913 1304 Z M591 1303 Q591 1261 559.5 1231 Q528 1201 486 1201 Q444 1201 413.5 1231 Q383 1261 383 1302 Q383 1345 413.5 1374.5 Q444 1404 483 1404 Q531 1404 561 1374 Q591 1344 591 1303 Z " />
<glyph glyph-name="afii10099" unicode="&#x452;" horiz-adv-x="1052" d="M62 0 L255 1153 L60 1153 L79 1267 L274 1267 L295 1393 L451 1393 L430 1267 L856 1267 L836 1153 L411 1153 L349 783 Q496 1002 706 1002 Q962 1002 962 705 Q962 571 900 209 Q838 -153 712 -247 Q586 -341 459 -341 L459 -225 Q568 -214 632 -133 Q696 -52 750 243 Q804 538 804 678 Q804 877 646 877 Q533 877 433 783 Q333 689 304 513 L218 0 L62 0 Z " />
<glyph glyph-name="afii10100" unicode="&#x453;" horiz-adv-x="750" d="M835 1014 L813 886 L376 886 L228 0 L72 0 L242 1014 L835 1014 Z M876 1356 L475 1167 L432 1248 L814 1476 L876 1356 Z " />
<glyph glyph-name="afii10101" unicode="&#x454;" horiz-adv-x="995" d="M663 582 L641 454 L238 454 Q240 269 297.5 183.5 Q355 98 495 98 Q700 98 795 303 L935 272 Q810 -27 490 -27 Q271 -27 171 102 Q71 231 71 438 Q71 688 205.5 865 Q340 1042 575 1042 Q880 1042 958 756 L809 722 Q793 806 732 861 Q671 916 574 916 Q325 916 253 582 L663 582 Z " />
<glyph glyph-name="afii10102" unicode="&#x455;" horiz-adv-x="945" d="M857 796 L727 741 Q660 911 461 911 Q370 911 315 864.5 Q260 818 260 754 Q260 689 302.5 658.5 Q345 628 469 600 L532 585 Q638 561 696 532.5 Q754 504 794 441.5 Q834 379 834 299 Q834 164 727.5 69 Q621 -26 437 -26 Q305 -26 189.5 25 Q74 76 -9 250 L136 299 Q208 99 442 99 Q554 99 615.5 149 Q677 199 677 274 Q677 333 640.5 367.5 Q604 402 478 432 L425 445 Q308 473 245.5 502.5 Q183 532 141 592 Q99 652 99 729 Q99 855 196.5 944.5 Q294 1034 463 1034 Q768 1034 857 796 Z " />
<glyph glyph-name="afii10103" unicode="&#x456;" horiz-adv-x="470" d="M453 1180 L250 1180 L281 1365 L484 1365 L453 1180 Z M230 0 L73 0 L243 1014 L400 1014 L230 0 Z " />
<glyph glyph-name="afii10104" unicode="&#x457;" horiz-adv-x="469" d="M231 0 L75 0 L245 1014 L400 1014 L231 0 Z M612 1304 Q612 1261 580.5 1231 Q549 1201 506 1201 Q463 1201 431.5 1231 Q400 1261 400 1303 Q400 1346 431.5 1375.5 Q463 1405 505 1405 Q549 1405 580.5 1375.5 Q612 1346 612 1304 Z M290 1303 Q290 1261 258.5 1231 Q227 1201 185 1201 Q143 1201 112.5 1231 Q82 1261 82 1302 Q82 1345 112.5 1374.5 Q143 1404 182 1404 Q230 1404 260 1374 Q290 1344 290 1303 Z " />
<glyph glyph-name="afii10105" unicode="&#x458;" horiz-adv-x="469" d="M451 1180 L248 1180 L279 1365 L482 1365 L451 1180 Z M396 1014 L237 65 Q210 -96 182 -171 Q154 -246 76 -298.5 Q-2 -351 -110 -351 Q-166 -351 -248 -339 L-228 -218 Q-158 -225 -121 -225 Q-50 -225 -9.5 -194 Q31 -163 44 -121 Q57 -79 82 65 L241 1014 L396 1014 Z " />
<glyph glyph-name="afii10106" unicode="&#x459;" horiz-adv-x="1248" d="M524 0 L475 819 L445 819 L52 0 L-94 0 L408 1010 L598 1010 L627 622 L888 622 Q1049 622 1130 544.5 Q1211 467 1211 333 Q1211 187 1112.5 93.5 Q1014 0 839 0 L524 0 Z M634 493 L658 128 L824 128 Q1040 128 1040 334 Q1040 493 858 493 L634 493 Z " />
<glyph glyph-name="afii10107" unicode="&#x45a;" horiz-adv-x="1575" d="M754 466 L300 466 L222 0 L66 0 L236 1014 L391 1014 L321 594 L775 594 L845 1014 L1001 1014 L935 622 L1189 622 Q1360 622 1436 540.5 Q1512 459 1512 336 Q1512 185 1412 92.5 Q1312 0 1139 0 L676 0 L754 466 Z M853 128 L1124 128 Q1341 128 1341 335 Q1341 493 1158 493 L914 493 L853 128 Z " />
<glyph glyph-name="afii10108" unicode="&#x45b;" horiz-adv-x="1052" d="M274 1267 L295 1393 L451 1393 L430 1267 L856 1267 L836 1153 L411 1153 L349 783 Q497 1003 703 1003 Q834 1003 907.5 929 Q981 855 981 736 Q981 695 963 582 L865 0 L710 0 L807 582 Q822 672 822 709 Q822 794 772 835.5 Q722 877 659 877 Q541 877 437 783 Q333 689 304 513 L218 0 L62 0 L255 1153 L60 1153 L79 1267 L274 1267 Z " />
<glyph glyph-name="afii10109" unicode="&#x45c;" horiz-adv-x="989" d="M229 0 L73 0 L243 1014 L398 1014 L313 504 L853 1013 L1036 1013 L647 652 L899 0 L733 0 L520 547 L281 310 L229 0 Z M932 1356 L531 1167 L488 1248 L870 1476 L932 1356 Z " />
<glyph glyph-name="afii10110" unicode="&#x45e;" horiz-adv-x="832" d="M916 1014 L360 -55 Q257 -254 167 -305 Q77 -356 -23 -356 Q-65 -356 -123 -349 L-100 -213 Q-49 -223 -14 -223 Q147 -223 234 -43 L269 28 L57 1014 L217 1014 L381 243 L780 1014 L916 1014 Z M223 1438 L333 1438 Q338 1295 488 1295 Q561 1295 610 1322 Q659 1349 698 1438 L812 1438 Q736 1183 483 1183 Q346 1183 285 1246.5 Q224 1310 223 1438 Z " />
<glyph glyph-name="afii10193" unicode="&#x45f;" horiz-adv-x="1080" d="M72 0 L242 1014 L397 1014 L249 128 L704 128 L852 1014 L1008 1014 L838 0 L535 0 L475 -233 L360 -233 L378 0 L72 0 Z " />
<glyph glyph-name="afii10050" unicode="&#x490;" horiz-adv-x="924" d="M1109 1612 L1043 1221 L457 1221 L253 0 L86 0 L314 1365 L912 1365 L953 1612 L1109 1612 Z " />
<glyph glyph-name="afii10098" unicode="&#x491;" horiz-adv-x="750" d="M700 1014 L731 1202 L866 1202 L813 886 L376 886 L228 0 L72 0 L242 1014 L700 1014 Z " />
<glyph glyph-name="Wgrave" unicode="&#x1e80;" horiz-adv-x="1663" d="M1215 0 L1046 0 L915 1089 L477 0 L300 0 L166 1365 L333 1365 L442 237 L903 1365 L1031 1365 L1171 237 L1627 1365 L1768 1365 L1215 0 Z M787 1677 L849 1797 L1217 1569 L1174 1488 L787 1677 Z " />
<glyph glyph-name="wgrave" unicode="&#x1e81;" horiz-adv-x="1380" d="M959 0 L843 0 L716 772 L393 0 L266 0 L110 1014 L264 1014 L377 252 L696 1014 L825 1014 L946 252 L1280 1014 L1413 1014 L959 0 Z M593 1356 L655 1476 L1023 1248 L980 1167 L593 1356 Z " />
<glyph glyph-name="Wacute" unicode="&#x1e82;" horiz-adv-x="1663" d="M1215 0 L1046 0 L915 1089 L477 0 L300 0 L166 1365 L333 1365 L442 237 L903 1365 L1031 1365 L1171 237 L1627 1365 L1768 1365 L1215 0 Z M1259 1677 L858 1488 L815 1569 L1197 1797 L1259 1677 Z " />
<glyph glyph-name="wacute" unicode="&#x1e83;" horiz-adv-x="1380" d="M959 0 L843 0 L716 772 L393 0 L266 0 L110 1014 L264 1014 L377 252 L696 1014 L825 1014 L946 252 L1280 1014 L1413 1014 L959 0 Z M1030 1356 L629 1167 L586 1248 L968 1476 L1030 1356 Z " />
<glyph glyph-name="Wdieresis" unicode="&#x1e84;" horiz-adv-x="1663" d="M1215 0 L1046 0 L915 1089 L477 0 L300 0 L166 1365 L333 1365 L442 237 L903 1365 L1031 1365 L1171 237 L1627 1365 L1768 1365 L1215 0 Z M1246 1625 Q1246 1582 1214.5 1552 Q1183 1522 1140 1522 Q1097 1522 1065.5 1552 Q1034 1582 1034 1624 Q1034 1667 1065.5 1696.5 Q1097 1726 1139 1726 Q1183 1726 1214.5 1696.5 Q1246 1667 1246 1625 Z M924 1624 Q924 1582 892.5 1552 Q861 1522 819 1522 Q777 1522 746.5 1552 Q716 1582 716 1623 Q716 1666 746.5 1695.5 Q777 1725 816 1725 Q864 1725 894 1695 Q924 1665 924 1624 Z " />
<glyph glyph-name="wdieresis" unicode="&#x1e85;" horiz-adv-x="1380" d="M959 0 L843 0 L716 772 L393 0 L266 0 L110 1014 L264 1014 L377 252 L696 1014 L825 1014 L946 252 L1280 1014 L1413 1014 L959 0 Z M1058 1304 Q1058 1261 1026.5 1231 Q995 1201 952 1201 Q909 1201 877.5 1231 Q846 1261 846 1303 Q846 1346 877.5 1375.5 Q909 1405 951 1405 Q995 1405 1026.5 1375.5 Q1058 1346 1058 1304 Z M736 1303 Q736 1261 704.5 1231 Q673 1201 631 1201 Q589 1201 558.5 1231 Q528 1261 528 1302 Q528 1345 558.5 1374.5 Q589 1404 628 1404 Q676 1404 706 1374 Q736 1344 736 1303 Z " />
<glyph glyph-name="Ygrave" unicode="&#x1ef2;" horiz-adv-x="1049" d="M532 0 L360 0 L455 572 L107 1365 L290 1365 L574 719 L1046 1365 L1214 1365 L627 572 L532 0 Z M467 1677 L529 1797 L897 1569 L854 1488 L467 1677 Z " />
<glyph glyph-name="ygrave" unicode="&#x1ef3;" horiz-adv-x="870" d="M941 1014 L385 -55 Q282 -254 192 -305 Q102 -356 2 -356 Q-40 -356 -98 -349 L-75 -213 Q-24 -223 11 -223 Q172 -223 259 -43 L294 28 L82 1014 L242 1014 L406 243 L805 1014 L941 1014 Z M321 1356 L383 1476 L751 1248 L708 1167 L321 1356 Z " />
<glyph glyph-name="afii00208" unicode="&#x2015;" horiz-adv-x="1365" d="M1353 452 L-6 452 L13 568 L1372 568 L1353 452 Z " />
<glyph glyph-name="underscoredbl" unicode="&#x2017;" horiz-adv-x="1024" d="M31 -115 L1055 -115 L1055 -215 L31 -215 L31 -115 Z M31 -354 L1055 -354 L1055 -454 L31 -454 L31 -354 Z " />
<glyph glyph-name="quotereversed" unicode="&#x201b;" horiz-adv-x="512" d="M496 1365 L464 1173 L364 1173 L372 911 L304 911 L266 1173 L298 1365 L496 1365 Z " />
<glyph glyph-name="minute" unicode="&#x2032;" horiz-adv-x="364" d="M189 844 L96 844 L345 1365 L497 1365 L189 844 Z " />
<glyph glyph-name="second" unicode="&#x2033;" horiz-adv-x="633" d="M189 844 L96 844 L345 1365 L497 1365 L189 844 Z M485 844 L392 844 L640 1365 L794 1365 L485 844 Z " />
<glyph glyph-name="exclamdbl" unicode="&#x203c;" horiz-adv-x="1024" d="M403 1365 L403 999 L365 382 L277 382 L240 998 L240 1365 L403 1365 Z M846 1365 L846 999 L809 382 L721 382 L683 998 L683 1365 L846 1365 Z M405 239 L405 0 L237 0 L237 239 L405 239 Z M849 239 L849 0 L681 0 L681 239 L849 239 Z " />
<glyph glyph-name="uni203E" unicode="&#x203e;" horiz-adv-x="1201" d="M-42 1869 L1244 1869 L1244 1795 L-42 1795 L-42 1869 Z " />
<glyph glyph-name="uni2044" unicode="&#x2044;" horiz-adv-x="218" d="M-331 0 L-460 0 L606 1365 L734 1365 L-331 0 Z " />
<glyph glyph-name="nsuperior" unicode="&#x207f;" horiz-adv-x="737" d="M636 546 L522 546 L581 897 Q590 953 590 980 Q590 1026 562 1057 Q534 1088 482 1088 Q319 1088 263 767 L225 546 L113 546 L215 1158 L321 1158 L306 1066 Q390 1175 507 1175 Q594 1175 649.5 1123.5 Q705 1072 705 992 Q705 958 695 898 L636 546 Z " />
<glyph glyph-name="lira" unicode="&#x20a4;" horiz-adv-x="1201" d="M163 471 L182 586 L409 586 Q411 632 412 703 L202 703 L221 818 L413 818 Q417 1097 546.5 1236 Q676 1375 842 1375 Q1033 1375 1140 1202 L1016 1117 Q956 1242 839 1242 Q754 1242 691 1189 Q628 1136 609 1062 Q590 988 587 818 L885 818 L866 703 L586 703 Q584 638 581 586 L846 586 L827 471 L567 471 Q527 255 349 145 L636 145 Q770 145 823.5 155 Q877 165 921 197 Q965 229 1014 301 L1126 216 Q1059 117 1003.5 75.5 Q948 34 878 17 Q808 0 637 0 L-59 0 L-35 145 Q98 147 154.5 159 Q211 171 270.5 217.5 Q330 264 360.5 324.5 Q391 385 401 471 L163 471 Z " />
<glyph glyph-name="peseta" unicode="&#x20a7;" horiz-adv-x="1828" d="M215 552 L123 0 L-40 0 L188 1365 L436 1365 Q601 1365 694 1335.5 Q787 1306 852 1206.5 Q917 1107 917 988 Q917 831 803.5 691.5 Q690 552 367 552 L215 552 Z M238 688 L302 688 Q476 688 554 706 Q632 724 689.5 800.5 Q747 877 747 985 Q747 1067 712 1126.5 Q677 1186 621.5 1208.5 Q566 1231 432 1231 L328 1229 L238 688 Z M1023 526 L970 209 Q961 155 961 135 Q961 76 1032 76 Q1059 76 1128 83 L1117 -5 Q1040 -13 1015 -13 Q845 -13 845 123 Q845 160 860 250 L906 526 L810 526 L825 612 L922 612 L946 756 L1064 766 L1038 612 L1181 612 L1167 526 L1023 526 Z M1730 474 L1631 434 Q1629 437 1624 448 Q1586 537 1471 537 Q1425 537 1392 515 Q1359 493 1359 452 Q1359 415 1384 399.5 Q1409 384 1501 363 Q1587 344 1624.5 328 Q1662 312 1689.5 272.5 Q1717 233 1717 182 Q1717 99 1647 42 Q1577 -15 1461 -15 Q1239 -15 1171 158 L1281 193 Q1322 72 1464 72 Q1598 72 1598 167 Q1598 201 1576.5 220 Q1555 239 1466 259 Q1314 293 1276 341 Q1238 389 1238 438 Q1238 515 1301.5 569 Q1365 623 1473 623 Q1670 623 1730 474 Z " />
<glyph glyph-name="afii61248" unicode="&#x2105;" horiz-adv-x="1879" d="M743 1156 L628 1132 Q604 1300 467 1300 Q360 1300 306 1194.5 Q252 1089 252 967 Q252 873 296.5 825 Q341 777 410 777 Q535 777 604 939 L700 905 Q665 799 583.5 738.5 Q502 678 399 678 Q279 678 203 758.5 Q127 839 127 980 Q127 1153 225 1275.5 Q323 1398 472 1398 Q580 1398 656.5 1331 Q733 1264 743 1156 Z M486 0 L356 0 L1422 1365 L1550 1365 L486 0 Z M1424 -29 Q1288 -29 1211 59 Q1134 147 1134 284 Q1134 440 1236 562 Q1338 684 1496 684 Q1625 684 1704 600 Q1783 516 1783 369 Q1783 218 1683 94.5 Q1583 -29 1424 -29 Z M1429 62 Q1539 62 1598.5 165.5 Q1658 269 1658 404 Q1658 506 1608 550.5 Q1558 595 1489 595 Q1380 595 1320 491.5 Q1260 388 1260 260 Q1260 62 1429 62 Z " />
<glyph glyph-name="afii61289" unicode="&#x2113;" horiz-adv-x="1201" d="M613 550 Q548 216 548 127 Q548 74 585 74 Q638 74 688 185 Q704 222 726 222 Q753 222 753 194 Q753 141 689 57 Q625 -27 544 -27 Q474 -27 439 27.5 Q404 82 404 162 Q404 242 427 412 Q349 334 325 334 Q298 334 298 366 Q298 387 340 422 Q384 460 442 528 Q515 921 613 1155 Q711 1389 843 1389 Q906 1389 939.5 1342 Q973 1295 973 1232 Q973 915 613 550 Z M636 683 Q756 812 824 955.5 Q892 1099 892 1218 Q892 1301 845 1301 Q789 1301 744.5 1170.5 Q700 1040 636 683 Z " />
<glyph glyph-name="afii61352" unicode="&#x2116;" horiz-adv-x="2048" d="M1085 0 L952 0 L417 1167 L221 0 L86 0 L314 1365 L501 1365 L998 277 L1180 1365 L1314 1365 L1085 0 Z M1653 362 Q1529 362 1452 443 Q1375 524 1375 662 Q1375 810 1470.5 924 Q1566 1038 1717 1038 Q1844 1038 1918.5 955 Q1993 872 1993 745 Q1993 587 1895.5 474.5 Q1798 362 1653 362 Z M1660 466 Q1754 466 1803.5 557.5 Q1853 649 1853 763 Q1853 857 1809.5 896 Q1766 935 1708 935 Q1615 935 1565 844.5 Q1515 754 1515 644 Q1515 466 1660 466 Z M1874 0 L1269 0 L1288 116 L1893 116 L1874 0 Z " />
<glyph glyph-name="estimated" unicode="&#x212e;" horiz-adv-x="1229" d="M321 531 L321 160 Q441 39 619 39 Q873 39 1014 285 L1086 242 Q968 72 854.5 19 Q741 -34 619 -34 Q387 -34 238.5 124.5 Q90 283 90 531 Q90 783 239.5 939.5 Q389 1096 619 1096 Q833 1096 985 954 Q1137 812 1148 531 L321 531 Z M917 605 L917 902 Q793 1023 617 1023 Q443 1023 321 902 L321 605 L917 605 Z " />
</font>
</svg>
